<svg xmlns="http://www.w3.org/2000/svg" xmlns:xlink="http://www.w3.org/1999/xlink" viewBox="0 0 149.86 44.21"><defs><style>.cls-1,.cls-10,.cls-18,.cls-2,.cls-41{fill:none;}.cls-1{clip-rule:evenodd;}.cls-10,.cls-11,.cls-12,.cls-14,.cls-15,.cls-16,.cls-17,.cls-18,.cls-19,.cls-2,.cls-20,.cls-21,.cls-22,.cls-23,.cls-24,.cls-25,.cls-26,.cls-27,.cls-28,.cls-29,.cls-3,.cls-30,.cls-31,.cls-32,.cls-33,.cls-34,.cls-35,.cls-36,.cls-37,.cls-38,.cls-39,.cls-4,.cls-40,.cls-41,.cls-44,.cls-5,.cls-6,.cls-7,.cls-8{fill-rule:evenodd;}.cls-3{fill:#a11d20;}.cls-4,.cls-43{fill:#231f20;}.cls-5{fill:#fff;}.cls-6{fill:url(#GradientFill_1);}.cls-7{fill:#83441c;}.cls-8{fill:#98bac9;stroke-width:0.42px;}.cls-10,.cls-41,.cls-8{stroke:#171b1e;}.cls-18,.cls-19,.cls-41,.cls-8{stroke-linecap:round;stroke-linejoin:round;}.cls-9{clip-path:url(#clip-path);}.cls-10{stroke-miterlimit:22.93;stroke-width:0.14px;}.cls-11{fill:#f8c534;}.cls-12{fill:url(#GradientFill_2);}.cls-13{clip-path:url(#clip-path-2);}.cls-14{fill:#5f9b47;}.cls-15{fill:#1a723a;}.cls-16{fill:#628d49;}.cls-17{fill:#5c9747;}.cls-18,.cls-19{stroke:#231f20;}.cls-18{stroke-width:0.27px;}.cls-19,.cls-29,.cls-46{fill:#f1dfb9;}.cls-19{stroke-width:0.27px;}.cls-20{fill:#9d0b0f;}.cls-21{fill:#e1bd87;}.cls-22{fill:#300203;}.cls-23{fill:#a56d26;}.cls-24{fill:#ecc087;}.cls-25{fill:#ab7e48;}.cls-26{fill:#d7a045;}.cls-27{fill:#ad7029;}.cls-28{fill:#fdf3f2;}.cls-30{fill:#f5f9f1;}.cls-31{fill:#f5d7b1;}.cls-32{fill:#648a46;}.cls-33{fill:#d7a04b;}.cls-34{fill:#fffdf3;}.cls-35{fill:#d8a844;}.cls-36{fill:#7a1214;}.cls-37{fill:#e0c687;}.cls-38{fill:#e2bc7f;}.cls-39{fill:#ecc88e;}.cls-40{fill:#e6d0aa;}.cls-41{stroke-width:0.42px;}.cls-42{clip-path:url(#clip-path-3);}.cls-44{fill:#f27235;}.cls-45{clip-path:url(#clip-path-5);}</style><linearGradient id="GradientFill_1" x1="8.4" y1="40.81" x2="30.72" y2="40.81" gradientUnits="userSpaceOnUse"><stop offset="0" stop-color="#a46725"/><stop offset="0.08" stop-color="#ab7e48"/><stop offset="0.16" stop-color="#ecc087"/><stop offset="0.24" stop-color="#f1dfb9"/><stop offset="0.31" stop-color="#f7f4ea"/><stop offset="0.37" stop-color="#f1dfb9"/><stop offset="0.43" stop-color="#e0c687"/><stop offset="0.5" stop-color="#d8a844"/><stop offset="0.56" stop-color="#e3c98c"/><stop offset="0.62" stop-color="#f1dfb9"/><stop offset="0.68" stop-color="#f1ddb7"/><stop offset="0.76" stop-color="#f7f2e7"/><stop offset="0.82" stop-color="#f3e1bd"/><stop offset="0.87" stop-color="#e8bb82"/><stop offset="0.91" stop-color="#ac7f48"/><stop offset="1" stop-color="#a56d26"/></linearGradient><clipPath id="clip-path"><path class="cls-1" d="M5.77,3H34V21C33,27.13,27.72,34,19.88,37.47,12.05,34,6.79,27.13,5.77,21Z"/></clipPath><linearGradient id="GradientFill_2" x1="19.88" y1="2.97" x2="19.88" y2="10.21" gradientUnits="userSpaceOnUse"><stop offset="0" stop-color="#0087c9"/><stop offset="0.44" stop-color="#80bce0"/><stop offset="1" stop-color="#fff"/></linearGradient><clipPath id="clip-path-2"><polygon class="cls-1" points="5.72 13.06 19.97 17.65 34.05 13.14 34.05 0.2 5.72 0.13 5.72 13.06"/></clipPath><clipPath id="clip-path-3"><path class="cls-1" d="M15.8,28.4H15c-.37,0-.73,0-1.07,0s-.72,0-1.09,0-.41,0-.64,0h-.53l-.21,0a.43.43,0,0,1,.18-.3l.26-.24c.14-.09,0,0,.19-.15s.42-.33.55-.46.28-.11.58.13a1.9,1.9,0,0,1,.15.15,1.47,1.47,0,0,0,.22.1c.1.05.15.14.24.21s.28.31.48.31.29-.25.53-.4a3.1,3.1,0,0,0,.3-.16c.18-.11.52-.38.72-.38a10.25,10.25,0,0,1,0,1.11l0,.07Zm.38-6.34H16l-.28,0a.86.86,0,0,1-.16,0h-.3l-.49,0c-.12,0-.5,0-.66,0h-.23l-.22,0-.66,0c-.16,0-.53,0-.74,0s-.39,0-.54,0-.2-.06-.31-.06h-.61l-.19-.18-.13.17a.85.85,0,0,0-.07.41c0,.42.06.86.06,1.27,0,.18,0,.34,0,.51v.18c0,.08,0,.1,0,.17s0,.1,0,.17.12.1.09.26-.09.21-.09.32v.73c0,.12,0,.22,0,.35v.27c0,.38.07.71.07,1.08,0,.15,0,.24,0,.38s.1.21.07.49,0,.13.23.13.16-.08.29-.08.21,0,.35,0H12a1.42,1.42,0,0,1,.22.05,2.67,2.67,0,0,0,.5,0h.81c.47,0,1.1,0,1.5,0l1.3,0,.13-.18-.15-.37c0-.18.07-.31.07-.48a1.74,1.74,0,0,1-.05-.39V27c0-.15,0-.27,0-.41s0-.39,0-.39a.37.37,0,0,0-.26.18c-.38.48-.86.61-1,.77s-.07.15-.22.22-.16.14-.26.18-.09,0-.15.07-.14.09-.22,0L14,27.42a4.83,4.83,0,0,1-.4-.38,1.42,1.42,0,0,0-.28-.22c-.09-.08-.06-.09-.1-.17l.6-.5c.08-.11,0,0,.11-.16l.12-.08s.17-.18.21-.2a.77.77,0,0,0,.16-.15c.08-.11.14-.14.14-.29s-.17,0-.21,0-.21-.24-.3-.31-.11-.06-.15-.12a.4.4,0,0,0-.13-.13,2,2,0,0,1-.4-.37s0-.06,0-.1a1.79,1.79,0,0,1,.43-.35c.23-.12.62-.58.76-.58s.52.44.61.54.18.07.27.13.1.13.19.19a1.38,1.38,0,0,1,.3.29l.11.09c.27.26.43,0,.43-.22s-.18-.33-.15-.49c.06-.41,0-.21,0-.54a4.32,4.32,0,0,0,0-.72,2.82,2.82,0,0,1-.05-.43c0-.13,0-.1-.11-.1Zm-3.06,4.07c-.13,0-.16.3-.32.28a.22.22,0,0,1-.1-.09,6,6,0,0,0-.44-.44c-.1-.12-.39-.28-.3-.39a2.88,2.88,0,0,0,.21-.23c.22-.3.38-.28.49-.42s.15-.19.23-.19.15,0,.26.1a3.39,3.39,0,0,1,.46.39c.21.2.36.09.13.46-.07.1-.13.09-.2.18s0,0-.1.09-.14.15-.32.26ZM11,23.3a1.23,1.23,0,0,0,0,.2l0,1.26c0,.08,0,.12,0,.19a8.16,8.16,0,0,0,0,.84,4.23,4.23,0,0,1,0,.8c0,.2.05.36.05.57,0,.56-.14.68.08.68s.06-.23.29-.31.14,0,.2-.09,0-.05.21-.23.29-.3.45-.42.06-.1,0-.18l-.07-.07c-.17-.12-.19-.12-.25-.29s-.08-.09-.13-.13a.35.35,0,0,1-.1-.18c0-.09-.09-.06-.23-.17s-.17-.1-.17-.21.27-.36.3-.38.07,0,.1-.06,0-.08.05-.1.06,0,.11-.06l.18-.14c.19-.15.13-.2.2-.27s.27-.2.18-.32-.22-.15-.38-.28a3.6,3.6,0,0,1-.35-.29c-.15-.18-.08-.07-.22-.19s-.32-.4-.44-.43-.1.15-.1.26Zm2,.59c-.11,0-.28-.14-.37-.21s0-.09-.4-.35c-.16-.11-.24-.22-.39-.34s-.13-.1-.13-.22.19-.06.28-.08c.49-.08.44,0,.71-.06a1,1,0,0,1,.3,0c.1,0,.14,0,.24,0,.32,0,.62,0,.95,0a5.8,5.8,0,0,1,1.25,0,.89.89,0,0,0,.28,0h.1c0,.09,0,.24,0,.35a3.73,3.73,0,0,0,0,.41c0,.12.06.07.06.28a.59.59,0,0,1-.36-.21c-.16-.15-.09-.16-.31-.27s-.62-.47-.69-.47-.19.19-.38.28-.1.07-.18.14a3,3,0,0,1-.32.18c-.09.06-.18.06-.22.13a.62.62,0,0,1-.21.28S13.07,23.89,13,23.89Z"/></clipPath><clipPath id="clip-path-5"><path class="cls-1" d="M15.93,28.23h-.82l-1.07,0-1.09,0-.65,0h-.73a.42.42,0,0,1,.18-.31l.26-.24c.13-.08,0,0,.19-.15s.42-.33.54-.45.28-.11.59.13c.1.08.11.13.15.15s.15.06.21.1.15.14.24.21.29.31.48.31.29-.26.53-.4c.08-.05.2-.09.31-.16a1.9,1.9,0,0,1,.71-.38,8.21,8.21,0,0,1,0,1.11s0,0,0,.07Zm.38-6.35a2.15,2.15,0,0,1-.23,0l-.28,0h-.47l-.49,0c-.12,0-.49,0-.65,0H14a1.55,1.55,0,0,1-.21,0c-.14,0-.57,0-.67,0s-.52,0-.74,0-.39,0-.53,0-.21-.06-.32-.06l-.46,0h-.46a.72.72,0,0,0-.07.41c0,.42,0,.86,0,1.27,0,.17,0,.34,0,.51a1.08,1.08,0,0,0,0,.18c0,.08,0,.1,0,.17a.79.79,0,0,1,0,.17c0,.18.11.1.09.26s-.1.21-.1.31v.74c0,.12,0,.21,0,.35v.27c0,.38.07.7.08,1.08a2,2,0,0,1-.06.37c0,.11.1.21.07.5s0,.13.23.13.17-.09.29-.09.22,0,.36,0h.65a.71.71,0,0,1,.22.05,4,4,0,0,0,.5,0h.69a.37.37,0,0,0,.12,0c.47,0,1.1,0,1.51,0l1.3,0,0-.54c0-.18.08-.31.08-.48a1.34,1.34,0,0,1,0-.39v-.44c0-.15,0-.27,0-.41s.05-.39,0-.39-.19.1-.25.18c-.39.48-.86.61-1,.77s-.07.14-.22.22-.15.14-.26.18-.09,0-.14.07-.15.09-.23,0l-.21-.19a4.83,4.83,0,0,1-.4-.38c-.08-.11-.18-.14-.28-.23s-.06-.08-.1-.16L14,26c.08-.11,0-.05.12-.16l.11-.08.09-.08a.57.57,0,0,0,.16-.15c.08-.1.14-.13.14-.29s-.05-.08-.08-.11-.21-.24-.3-.31-.11-.06-.15-.12a.53.53,0,0,0-.13-.13,2.41,2.41,0,0,1-.41-.37.09.09,0,0,1,0-.1,1.83,1.83,0,0,1,.44-.35c.22-.12.61-.58.75-.58s.52.44.62.54.18.07.26.13.1.13.2.19a2.06,2.06,0,0,1,.3.29l.1.09c.49.47.23-.36.28-.71a1.65,1.65,0,0,0,0-.54,4.32,4.32,0,0,0,0-.72,2,2,0,0,1,0-.43c0-.13,0-.11-.11-.11ZM13.25,26c-.13,0-.17.3-.33.29s-.06-.06-.09-.09-.24-.21-.45-.44-.39-.28-.29-.39.12-.1.21-.23c.21-.31.37-.29.48-.43s.15-.18.24-.18.15,0,.25.09a3.57,3.57,0,0,1,.46.4c.22.2.37.09.14.46-.07.1-.13.09-.2.18a.28.28,0,0,1-.1.09c-.15.09-.15.15-.32.25Zm-2.13-2.82a1,1,0,0,0,0,.19v1.27c0,.08,0,.12,0,.19a6.11,6.11,0,0,0,0,.84,3.45,3.45,0,0,1,0,.79c0,.21,0,.37,0,.58,0,.56-.13.68.09.68s.05-.23.29-.31.13,0,.2-.09,0-.05.2-.23.3-.3.46-.42.06-.1,0-.18a.23.23,0,0,0-.07-.07c-.16-.13-.19-.12-.24-.29S12,26,12,26a.35.35,0,0,1-.1-.18c0-.09-.09-.06-.23-.17s-.17-.11-.17-.21.28-.37.31-.38.06,0,.09-.07,0-.07.06-.1.06,0,.1-.05l.18-.15c.19-.14.13-.19.21-.27s.27-.19.18-.31-.23-.15-.39-.29a2.42,2.42,0,0,1-.34-.28c-.15-.18-.09-.08-.23-.2s-.32-.39-.44-.42-.09.15-.09.26Zm2,.59a.84.84,0,0,1-.38-.21c-.13-.1,0-.09-.39-.35a4.32,4.32,0,0,1-.39-.34c-.12-.09-.14-.1-.14-.22s.19-.06.29-.08c.49-.08.44,0,.7-.06a1,1,0,0,1,.3,0c.1,0,.15,0,.25,0,.31,0,.61,0,1,0a5.69,5.69,0,0,1,1.24,0,.7.7,0,0,0,.28,0h.1c0,.09.05.24.05.34s-.05.19-.05.42.06.07.06.28a.59.59,0,0,1-.36-.21c-.16-.15-.09-.16-.3-.27s-.62-.47-.69-.47-.19.19-.38.28-.11.07-.18.14-.17.07-.33.18-.17.05-.21.12a.63.63,0,0,1-.22.29C13.27,23.63,13.2,23.72,13.12,23.72Z"/></clipPath></defs><title>davy logo 2Recurso 4</title><g id="Capa_2" data-name="Capa 2"><g id="Capa_1-2" data-name="Capa 1"><path class="cls-3" d="M90.09,19h0ZM56.69,31.74ZM69.4,38.68Zm19.19-3.23h0Zm0,0Zm14.29,0h0Zm0,0ZM113,37h0Zm0,0Zm10.42-.62h0Zm21.37.62h0Zm0,0ZM90.09,19Zm-.23-.46Zm0,0ZM54.22,5.32V22.67h4.66l.76,0,.69-.05.63-.08c.2,0,.39-.06.57-.09l.54-.13.49-.15h0a4.05,4.05,0,0,0,.46-.17h0l.42-.21.39-.23.36-.27h0a3.11,3.11,0,0,0,.33-.29h0a6.05,6.05,0,0,0,1.06-1.25,7.21,7.21,0,0,0,.76-1.55,10.12,10.12,0,0,0,.46-1.86A14.79,14.79,0,0,0,67,14.1a13.25,13.25,0,0,0-.3-2.88c0-.23-.11-.46-.17-.66s-.13-.42-.2-.62l-.24-.57c-.08-.18-.17-.35-.26-.52h0a5.09,5.09,0,0,0-.3-.5h0l-.33-.46h0l-.38-.43h0c-.13-.14-.27-.27-.41-.4h0L64,6.76,63.6,6.5a3.38,3.38,0,0,0-.41-.24l-.44-.2h0a9.14,9.14,0,0,0-1-.33l-.54-.13-.57-.1q-.6-.07-1.32-.12l-.75,0H54.22Zm3.46,29.92h.63l-.08.31,0,.05c0,.13-.07.26-.11.38l-.12.35-.12.32-.14.29c0,.09-.09.18-.14.27h0l-.17.28h0l-.19.28h0l-.21.28-.06.07h0A6.18,6.18,0,0,1,56,39a5.9,5.9,0,0,1-1.17.71,6.79,6.79,0,0,1-1.32.42,7.63,7.63,0,0,1-2.41.08,7.42,7.42,0,0,1-.92-.17,7,7,0,0,1-.89-.27h0a8,8,0,0,1-.85-.39l-.12-.06h0c-.24-.14-.46-.28-.67-.42a7.72,7.72,0,0,1-.72-.56c-.22-.2-.43-.42-.63-.64s-.37-.47-.54-.72a7.44,7.44,0,0,1-.44-.78h0a6.13,6.13,0,0,1-.31-.81,6.24,6.24,0,0,1-.26-1.73,6.44,6.44,0,0,1,.1-1.06,6.9,6.9,0,0,1,.3-1.05l.06-.14h0l.16-.37c.08-.16.17-.33.27-.49s.2-.32.31-.47.23-.31.36-.46a6.73,6.73,0,0,1,.81-.82h0l.45-.36q.24-.18.48-.33a5.64,5.64,0,0,1,1.62-.73,6.37,6.37,0,0,1,.89-.18,6,6,0,0,1,1-.07h.33l.31,0,.31,0h0l.3.05.29.06.28.08h0l.28.1h0l.27.11.27.14.26.15h0l.27.17.27.19h0l.27.17h0l.22.12h0l.17.06.11,0a.61.61,0,0,0,.25-.06h0a1.75,1.75,0,0,0,.32-.21,4.51,4.51,0,0,0,.39-.38h0a5.36,5.36,0,0,0,.43-.54h0l.07-.08h.63v.26l.25,5.82h0v.29h-.71l0-.18v0h0l-.07-.29L57.18,33l-.07-.23,0-.14,0-.07L57,32.34h0a1.42,1.42,0,0,0-.08-.18L56.8,32l-.11-.2h0c-.1-.19-.2-.38-.31-.57s-.22-.36-.33-.53-.24-.34-.37-.49-.25-.3-.38-.44-.27-.27-.41-.39h0a4.87,4.87,0,0,0-.42-.35,3.79,3.79,0,0,0-.45-.29h0a4.09,4.09,0,0,0-.46-.25,3.85,3.85,0,0,0-.47-.19,4.16,4.16,0,0,0-1-.22,4,4,0,0,0-.49,0,3.28,3.28,0,0,0-.56,0h0a2.45,2.45,0,0,0-.5.11,2.53,2.53,0,0,0-.44.19h0a2,2,0,0,0-.38.26h0a1.72,1.72,0,0,0-.33.33,3.44,3.44,0,0,0-.29.42,4,4,0,0,0-.24.51h0a5.27,5.27,0,0,0-.2.6,6.76,6.76,0,0,0-.16.71,6.54,6.54,0,0,0-.11.79c0,.28-.06.58-.07.9s0,.64,0,1,0,.78,0,1.13.05.67.09,1,0,.29.07.43l.09.39h0a3.58,3.58,0,0,0,.11.35h0c0,.12.08.22.12.32h0a2,2,0,0,0,.14.29h0a2.2,2.2,0,0,0,.15.26l.17.24.18.2.26.23h0a2.83,2.83,0,0,0,.28.2,3.25,3.25,0,0,0,.65.31h0l.36.12.38.08.4,0h.81l.39,0a2.38,2.38,0,0,0,.37-.06h0l.37-.09.35-.11h0a2.83,2.83,0,0,0,.35-.14h0a2.53,2.53,0,0,0,.33-.16,2.58,2.58,0,0,0,.32-.18l.31-.21.3-.23h0l.28-.26h0a3.31,3.31,0,0,0,.26-.27c.08-.08.14-.16.21-.24l.17-.24a2,2,0,0,0,.16-.24h0l.14-.24h0c0-.07.09-.16.13-.25h0l.13-.3h0c0-.1.09-.22.13-.34h0c.05-.13.1-.26.14-.39h0v0l.05-.15h.15Zm9.41-8.09a10.2,10.2,0,0,1,1.68.14c.27.05.53.11.79.18s.51.15.76.24h0c.24.09.48.2.71.31h0a6.24,6.24,0,0,1,.66.38,5.35,5.35,0,0,1,.62.44,6.91,6.91,0,0,1,.57.51,5,5,0,0,1,.44.47h0c.14.16.26.33.38.49h0c.12.17.23.35.33.52a5.12,5.12,0,0,1,.27.52h0v0c.09.19.16.38.23.57h0c.06.19.11.39.16.58s.07.4.09.6h0a4,4,0,0,1,0,.6,6.52,6.52,0,0,1-.07.88h0a6.14,6.14,0,0,1-.19.85,5.73,5.73,0,0,1-.33.81h0a6,6,0,0,1-.45.77,6.48,6.48,0,0,1-.56.71,5.43,5.43,0,0,1-.64.63h0a8.35,8.35,0,0,1-.74.55,9.23,9.23,0,0,1-.82.47,8.24,8.24,0,0,1-.88.37,7.11,7.11,0,0,1-.93.27,7.27,7.27,0,0,1-1,.16,8.26,8.26,0,0,1-1,.06c-.26,0-.51,0-.77,0s-.5,0-.75-.09-.49-.1-.73-.16-.47-.13-.7-.21a6.69,6.69,0,0,1-.67-.27c-.22-.1-.43-.21-.64-.32s-.4-.24-.59-.37a5.79,5.79,0,0,1-.55-.43,5.68,5.68,0,0,1-.51-.47c-.15-.16-.3-.33-.44-.51a6.36,6.36,0,0,1-.72-1.13c-.1-.2-.19-.41-.27-.62h0a5,5,0,0,1-.19-.63h0c0-.22-.09-.43-.12-.65s0-.44,0-.67A5.46,5.46,0,0,1,59.83,32a6.38,6.38,0,0,1,.33-.82,6.71,6.71,0,0,1,.45-.77,6.6,6.6,0,0,1,.56-.72,7.84,7.84,0,0,1,.65-.64,8.19,8.19,0,0,1,.73-.55,9.29,9.29,0,0,1,.82-.48,8.47,8.47,0,0,1,.87-.38,8.06,8.06,0,0,1,.92-.28,9.21,9.21,0,0,1,.94-.16,8.22,8.22,0,0,1,1-.06Zm.23.88h-.38l-.37.05-.35.08-.35.11-.31.15h0l-.29.16h0l-.26.2a2.29,2.29,0,0,0-.23.21l-.06.06h0l-.19.21c-.07.1-.15.19-.22.3h0a2.92,2.92,0,0,0-.21.32c-.06.1-.12.22-.18.34s-.12.24-.17.37h0c-.05.12-.1.25-.14.38s-.09.27-.13.41h0c0,.14-.07.28-.1.43s-.06.29-.08.45h0l-.06.47,0,.49c0,.16,0,.33,0,.51A9.7,9.7,0,0,0,63.26,35c0,.19.06.39.09.57s.08.36.13.54v0h0a2.88,2.88,0,0,0,.15.47,4.21,4.21,0,0,0,.18.47,5,5,0,0,0,.48.82,3.24,3.24,0,0,0,.27.35h0l.31.31a2.91,2.91,0,0,0,.33.26h0a2.5,2.5,0,0,0,.35.21h0a2.59,2.59,0,0,0,.38.17,3.1,3.1,0,0,0,.4.13l.42.07a3.24,3.24,0,0,0,.45,0,3.86,3.86,0,0,0,.6,0,3.5,3.5,0,0,0,.56-.13,3.89,3.89,0,0,0,.51-.21,4.66,4.66,0,0,0,.47-.3l.05,0a4,4,0,0,0,.38-.34h0a5.54,5.54,0,0,0,.37-.45,4.15,4.15,0,0,0,.32-.53c.1-.2.2-.4.28-.61h0c.08-.22.15-.45.21-.68s.11-.49.16-.75a11.1,11.1,0,0,0,.12-1.69c0-.19,0-.38,0-.57h0c0-.19,0-.38,0-.56a6.74,6.74,0,0,0-.2-1.05h0c0-.17-.1-.34-.15-.49h0q-.09-.24-.18-.45c-.06-.14-.13-.29-.2-.42s-.16-.27-.24-.39-.17-.23-.26-.35-.19-.21-.29-.31a3.74,3.74,0,0,0-.31-.27l-.3-.21h0l-.05,0-.18-.11h0l-.19-.09-.2-.09h0l-.22-.07h0a2.46,2.46,0,0,0-.45-.11h0l-.22,0Zm8.46-.63h8.63v.88H83.29a4,4,0,0,0-.51,0,2.59,2.59,0,0,0-.42.09,1.52,1.52,0,0,0-.34.15,1.35,1.35,0,0,0-.27.2h0a1.69,1.69,0,0,0-.2.25,2.37,2.37,0,0,0-.14.32h0a2.84,2.84,0,0,0-.12.88v9h3a3.17,3.17,0,0,0,.44,0,3.21,3.21,0,0,0,.43-.07l.42-.12.4-.17h0c.13-.07.26-.14.38-.22a3.27,3.27,0,0,0,.36-.25h0A3.11,3.11,0,0,0,87,38c.11-.1.21-.22.31-.33l.17-.22h0l.16-.23h0L87.8,37l.15-.22.13-.23h0c0-.07.09-.16.13-.25s.17-.36.25-.56l.13-.33.12-.35.12-.38h0l.12-.39h0v0l.05-.15h.72v5.9H75.56v-.26h0l0-.32h0v-.3h.7a2.08,2.08,0,0,0,1.53-.49,1.31,1.31,0,0,0,.35-.58,2.49,2.49,0,0,0,.13-.87v-7a2.75,2.75,0,0,0-.12-.86,1.43,1.43,0,0,0-.36-.58h0a1.48,1.48,0,0,0-.61-.36,3.11,3.11,0,0,0-.92-.12h-.67V27.4h.23Zm14.3,0h8.63v.88H97.58a3.84,3.84,0,0,0-.5,0,2.59,2.59,0,0,0-.42.09,1.84,1.84,0,0,0-.35.15h0a1.06,1.06,0,0,0-.26.2,1.69,1.69,0,0,0-.2.25,2.37,2.37,0,0,0-.14.32h0a2.84,2.84,0,0,0-.12.88v9h3a3.17,3.17,0,0,0,.44,0,3.49,3.49,0,0,0,.43-.07c.14,0,.28-.08.41-.12l.4-.17h0a3.61,3.61,0,0,0,.39-.22,3.27,3.27,0,0,0,.36-.25h0l.33-.29h0c.1-.1.21-.21.3-.32l.17-.23h0l.17-.23h0l.15-.22.14-.22,0,0,.11-.19c.05-.08.09-.17.13-.25s.17-.36.25-.56l.12-.33.13-.35.12-.38h0l.12-.39h0v0l0-.15H104v5.9H89.86v-.26h0l0-.32h0v0l0-.26h.71a2.08,2.08,0,0,0,1.53-.49,1.41,1.41,0,0,0,.35-.58,2.77,2.77,0,0,0,.12-.87v-7a2.75,2.75,0,0,0-.12-.86,1.41,1.41,0,0,0-.35-.58h0a1.55,1.55,0,0,0-.61-.36,3.16,3.16,0,0,0-.92-.12h-.67V27.4h.23Zm14.35,0h13.32v5.23h-.66l0-.16v0h0c-.06-.2-.12-.38-.17-.56l-.17-.49c0-.15-.1-.29-.15-.41l-.14-.34-.15-.28a2.61,2.61,0,0,0-.17-.28,1.85,1.85,0,0,0-.19-.27,2.56,2.56,0,0,0-.2-.26,3.45,3.45,0,0,0-.26-.28l-.28-.24h0l-.28-.19h0a2.1,2.1,0,0,0-.3-.15h0a4.43,4.43,0,0,0-.55-.18,5.45,5.45,0,0,0-.61-.14l-.67-.08c-.23,0-.47,0-.73,0h-2.19v5.19h.42a2.75,2.75,0,0,0,.65-.08,2.3,2.3,0,0,0,1-.56,2.56,2.56,0,0,0,.43-.49h0a3.21,3.21,0,0,0,.19-.31c.06-.11.12-.22.17-.33s.09-.24.13-.37.08-.26.12-.4h0c0-.05,0-.11.05-.18l0-.25,0-.29h0l.05-.33v0l0-.2H114v8.49h-.74l0-.2v0l-.06-.3-.06-.31h0L113,37l-.07-.28h0c0-.1-.05-.18-.07-.26a2.19,2.19,0,0,0-.07-.23c0-.07-.05-.14-.08-.2h0l-.08-.17h0c-.06-.11-.12-.22-.19-.33l-.12-.17-.12-.16a1.79,1.79,0,0,0-.4-.38,2.43,2.43,0,0,0-.47-.28h0a2.67,2.67,0,0,0-.57-.16,3.27,3.27,0,0,0-.65-.06h-.28v4.85h2.23l.4,0,.39,0h0l.36-.06.33-.07.33-.08.3-.1.28-.12h0l.27-.14a2.2,2.2,0,0,0,.26-.15l.25-.17.24-.2.06,0h0c.11-.1.23-.21.33-.32s.23-.26.34-.4a2.66,2.66,0,0,0,.29-.45,3.62,3.62,0,0,0,.25-.48h0a3.05,3.05,0,0,0,.13-.32c0-.12.1-.25.14-.38s.09-.27.14-.43.1-.3.15-.49v0l0-.17h.73v5.53H104.23l0-.23v-.39l0-.26h.58a2.08,2.08,0,0,0,1.53-.49,1.43,1.43,0,0,0,.36-.58,2.77,2.77,0,0,0,.12-.87v-7a3.43,3.43,0,0,0,0-.48,2.15,2.15,0,0,0-.09-.4,1.57,1.57,0,0,0-.15-.32,1.18,1.18,0,0,0-.19-.25h0a1.35,1.35,0,0,0-.27-.2,1.75,1.75,0,0,0-.34-.15,2.72,2.72,0,0,0-.43-.09,3.89,3.89,0,0,0-.51,0h-.56V27.4h.23Zm28.4.07h.55v.28l.09,5.21h0v.29h-.68l0-.16v0l-.14-.45h0c-.06-.15-.1-.28-.14-.39s-.09-.24-.13-.34-.09-.2-.13-.29h0a2.1,2.1,0,0,0-.13-.26c0-.08-.08-.17-.13-.25l-.13-.22h0a1.37,1.37,0,0,0-.13-.2h0c-.14-.2-.29-.39-.44-.57a6.38,6.38,0,0,0-1.05-.94,6.25,6.25,0,0,0-.61-.38c-.21-.11-.42-.21-.64-.3h0a5,5,0,0,0-.65-.22c-.21-.05-.43-.1-.65-.13s-.44,0-.67,0a3.82,3.82,0,0,0-.68.06l-.35.08-.19.06-.15,0-.32.13-.28.15h0a2.2,2.2,0,0,0-.25.17l-.22.19h0a2.83,2.83,0,0,0-.32.36c-.09.14-.19.28-.27.43h0a4.68,4.68,0,0,0-.22.5h0a4.09,4.09,0,0,0-.18.56c-.05.2-.1.42-.14.65h0c0,.23-.07.48-.1.75s0,.55-.06.84,0,.61,0,.94,0,.78,0,1.16l0,.28,0,.27,0,.23h0l0,.23,0,.22,0,.22.06.2.06.22c0,.08,0,.15.06.2h0l.06.17.07.16.06.12h0l.13.2.14.19h0l.15.18.16.16.17.15.18.15.2.13.22.12h0l.22.11.24.1h0l.24.08.25.06h0l.25,0,.27,0,.27,0h.27a5.94,5.94,0,0,0,1.45-.18l.34-.09.31-.11.27-.12h0l.23-.14a1.81,1.81,0,0,0,.33-.28h0a1.66,1.66,0,0,0,.23-.31,1.48,1.48,0,0,0,.13-.35,1.6,1.6,0,0,0,.05-.39v-.62a2.47,2.47,0,0,0-.13-.86,1.37,1.37,0,0,0-.35-.58h0a1.48,1.48,0,0,0-.61-.36,3.16,3.16,0,0,0-.92-.12h-1.29V34h8.88v.88h-.51a2.15,2.15,0,0,0-1.54.47h0a1.24,1.24,0,0,0-.19.26,1.35,1.35,0,0,0-.15.32h0a2,2,0,0,0-.09.39,3.64,3.64,0,0,0,0,.48v3.11H133l0,0h0l-.17-.15h0l-.16-.13-.15-.09h0l-.13-.07-.14,0h0l-.15,0-.18,0h-.55l-.16,0h0l-.16,0-.17.05h0l-.22.07h0l-.23.08-.26.1h0l-.45.16h0l-.41.13h0l-.37.1h0l-.32.08h0l-.29,0-.34,0h0l-.37,0h-.4a9.45,9.45,0,0,1-1.52-.12c-.25,0-.49-.09-.73-.15s-.48-.13-.71-.2h0c-.22-.08-.45-.17-.66-.27a6.14,6.14,0,0,1-.63-.31c-.2-.11-.39-.23-.58-.36h0a5,5,0,0,1-.53-.41h0c-.16-.15-.32-.29-.47-.45h0a4.11,4.11,0,0,1-.42-.5,6.42,6.42,0,0,1-.38-.53c-.11-.19-.21-.38-.31-.58a4.73,4.73,0,0,1-.25-.62,3.58,3.58,0,0,1-.18-.64,4.54,4.54,0,0,1-.11-.66,5.07,5.07,0,0,1,0-.68c0-.14,0-.28,0-.42s0-.27,0-.41h0a3.07,3.07,0,0,1,.07-.42h0a4,4,0,0,1,.09-.4h0c0-.14.08-.27.13-.4h0a3.73,3.73,0,0,1,.15-.38,3.17,3.17,0,0,1,.17-.37,3,3,0,0,1,.19-.36c.07-.12.15-.23.22-.34s.16-.23.25-.34a2.69,2.69,0,0,1,.27-.32c.09-.11.19-.22.29-.32h0l.36-.33h0l.38-.3h0l.4-.28h0l.42-.25.42-.22.45-.2c.3-.12.61-.22.92-.31l.47-.11.47-.08a6.08,6.08,0,0,1,1-.07,7.26,7.26,0,0,1,.93.06q.33,0,.66.12h0l.25.06.46.13h0l.48.17.5.21.52.24h0l.35.17h0l.3.12.22.06h0l.14,0h.13l.13,0,.12-.06h0a.6.6,0,0,0,.13-.09l.15-.13h0a1.29,1.29,0,0,0,.15-.17h0l.17-.21h0l.17-.24h0v0l.06-.09h.11Zm3.39-.07h13.32v5.23h-.66l0-.16v0h0c0-.2-.11-.38-.17-.56s-.11-.35-.16-.49-.11-.29-.15-.41-.1-.24-.15-.34-.09-.19-.14-.28l-.17-.28a3.15,3.15,0,0,0-.19-.27c-.07-.09-.13-.18-.2-.26l-.27-.28L147,29h0a2.9,2.9,0,0,0-.29-.19h0l-.29-.15h0a4.43,4.43,0,0,0-.55-.18,6,6,0,0,0-.61-.14l-.67-.08c-.23,0-.48,0-.73,0h-2.19v5.19H142a2.67,2.67,0,0,0,.64-.08,2.3,2.3,0,0,0,.57-.21,2.32,2.32,0,0,0,.49-.35,3.5,3.5,0,0,0,.43-.49h0c.06-.1.13-.2.19-.31s.11-.22.16-.33.1-.24.14-.37.08-.26.11-.4h0c0-.05,0-.11,0-.18l.05-.25,0-.29h0l0-.33v0l0-.2h.73v8.49H145l0-.2v0l-.05-.3-.06-.31h0l-.06-.28-.07-.28h0c0-.1-.05-.18-.07-.26a2,2,0,0,0-.08-.23c0-.07,0-.14-.07-.2h0l-.08-.17h0c-.06-.11-.12-.22-.19-.33l-.12-.17L144,35.2a2,2,0,0,0-.4-.38,2.24,2.24,0,0,0-.48-.28h0a2.43,2.43,0,0,0-.56-.16,3.34,3.34,0,0,0-.65-.06h-.28v4.85h2.22l.41,0,.38,0h0l.36-.06.34-.07.32-.08.31-.1.28-.12h0l.27-.14.26-.15.25-.17.24-.2.05,0h0c.12-.1.23-.21.34-.32s.23-.26.34-.4a5,5,0,0,0,.29-.45,5.39,5.39,0,0,0,.25-.48h0c0-.1.09-.21.13-.32s.09-.25.14-.38l.14-.43.15-.49v0l0-.17h.72v5.53H136v-.26l0-.32v-.3h.58a2.08,2.08,0,0,0,1.53-.49,1.41,1.41,0,0,0,.35-.58,2.75,2.75,0,0,0,.13-.87v-7a3.32,3.32,0,0,0,0-.48,2.15,2.15,0,0,0-.09-.4,1.15,1.15,0,0,0-.14-.32,1.22,1.22,0,0,0-.2-.25h0a1.28,1.28,0,0,0-.26-.2,1.6,1.6,0,0,0-.35-.15,2.59,2.59,0,0,0-.42-.09,4.12,4.12,0,0,0-.51,0H136V27.4h.24ZM45,4.35h14a25,25,0,0,1,3.21.19c.5.06,1,.15,1.45.24s.91.21,1.34.34h0c.43.13.84.28,1.24.44s.77.35,1.13.54a9.66,9.66,0,0,1,1,.65,11.88,11.88,0,0,1,.94.75q.41.36.75.72h0c.24.25.46.51.67.77h0q.3.39.57.81c.17.27.33.56.48.85a7.87,7.87,0,0,1,.66,1.79,7.08,7.08,0,0,1,.16.92,7,7,0,0,1,.06.92,8.43,8.43,0,0,1-.06,1,7.4,7.4,0,0,1-.18,1,7.21,7.21,0,0,1-.3.93h0a6,6,0,0,1-.41.89,9,9,0,0,1-.52.84,9.22,9.22,0,0,1-.62.78,9.63,9.63,0,0,1-.71.72c-.26.23-.53.44-.81.65a10.71,10.71,0,0,1-.9.59c-.31.18-.63.36-1,.52s-.69.31-1,.45h0c-.36.13-.74.26-1.13.37h0c-.38.11-.77.21-1.16.29s-.81.15-1.24.21-.85.1-1.29.13-.88,0-1.33,0H44.73v-1h1a6,6,0,0,0,1.63-.2,2.8,2.8,0,0,0,1.11-.59,2.46,2.46,0,0,0,.64-1h0a4.34,4.34,0,0,0,.22-1.43v-11a4.75,4.75,0,0,0-.06-.78,4,4,0,0,0-.16-.66,2.73,2.73,0,0,0-.27-.54,2.54,2.54,0,0,0-.37-.43A2.47,2.47,0,0,0,48,5.77h0a3.38,3.38,0,0,0-.61-.25,6.82,6.82,0,0,0-.76-.15,7.89,7.89,0,0,0-.88,0h-1v-1H45ZM85.08,9.13l-3.75,7.65h7.6L85.08,9.13ZM86.67,4h.69l.06.11v0h0l8.45,16.48a3.07,3.07,0,0,0,.2.36h0l.21.32h0a3.42,3.42,0,0,0,.22.28l.24.26h0L97,22l.25.19h0l.27.15h0l.29.12h0l.31.09h0a3.43,3.43,0,0,0,.34.06,2.21,2.21,0,0,0,.37,0l.4,0H100v1H87.35v-1h1.82l.54,0h0l.45,0h0a1.9,1.9,0,0,0,.36-.09,1.49,1.49,0,0,0,.28-.11.91.91,0,0,0,.19-.13.48.48,0,0,0,.13-.16.53.53,0,0,0,.08-.17,1.5,1.5,0,0,0,0-.22,1.73,1.73,0,0,0,0-.37q-.06-.21-.15-.45h0l-.14-.31h0l-.21-.43h0l-.27-.54h0L90.09,19,90,18.85h0L90,18.71h0v0l0-.09h0l0-.09,0-.08,0-.07h0l0,0-.28-.56H80.84L80.22,19a2.26,2.26,0,0,0-.13.33h0a2.19,2.19,0,0,0-.1.34,1.91,1.91,0,0,0-.06.33h0c0,.11,0,.22,0,.34a2.45,2.45,0,0,0,0,.27,2.68,2.68,0,0,0,.07.27,1.9,1.9,0,0,0,.1.28l.16.28a2.35,2.35,0,0,0,.19.25h0a2.18,2.18,0,0,0,.21.22l.24.19h0a2.4,2.4,0,0,0,.27.16l.11.05h0l.08,0,.18.08.16.06.15,0,.17,0,.2,0h0l.25,0h0l.27,0H83v1h-9v-1l.17,0h0c.15,0,.29,0,.43-.06h0c.13,0,.26,0,.38-.06h0l.33-.08.28-.09h0l.26-.11.28-.14.31-.18.32-.22h0a5.59,5.59,0,0,0,.76-.65,9,9,0,0,0,.77-.9c.25-.34.51-.73.76-1.14s.49-.86.73-1.35h0l0-.05L86.47,4.09h0v0L86.54,4h.13Zm7.88.39h-.23v1h1a3.12,3.12,0,0,1,1,.17,3.28,3.28,0,0,1,.92.49h0a4.77,4.77,0,0,1,.84.84A6.85,6.85,0,0,1,98.82,8L107,23.93h0l.06.12h.14l.53,0h.13l0-.11h0l7-14.09c.13-.26.26-.51.39-.73s.26-.46.39-.66.25-.4.38-.59.26-.35.39-.51h0c.13-.15.26-.3.39-.43l.41-.38.42-.32h0c.15-.1.29-.19.44-.27s.31-.15.47-.21a4.24,4.24,0,0,1,.5-.18l.54-.13.57-.08h0l.18,0v-1h-8.92v1h.21a6.17,6.17,0,0,1,.65.07,4.75,4.75,0,0,1,.57.14,3.48,3.48,0,0,1,.48.21,2.34,2.34,0,0,1,.41.29,1.93,1.93,0,0,1,.31.33,1.9,1.9,0,0,1,.23.39h0a2,2,0,0,1,.13.43,2.76,2.76,0,0,1,0,.51,2.53,2.53,0,0,1,0,.38,3.89,3.89,0,0,1-.11.43h0a3.47,3.47,0,0,1-.17.48h0c-.06.16-.15.34-.24.52h0l-4.62,9.32L103.78,8h0c-.07-.14-.13-.27-.18-.4h0a3.3,3.3,0,0,1-.13-.37,2.73,2.73,0,0,1-.08-.34c0-.1,0-.21,0-.3a1.07,1.07,0,0,1,.11-.49h0a1,1,0,0,1,.15-.2,1.42,1.42,0,0,1,.22-.18h0l.28-.14.34-.11.4-.07.47,0h1.73v-1H94.55Zm26.82,0h13.7v.94h-1.8l-.42,0a2.25,2.25,0,0,0-.36.06,1.49,1.49,0,0,0-.3.09.83.83,0,0,0-.25.12h0a.83.83,0,0,0-.18.13.61.61,0,0,0-.12.16h0a.51.51,0,0,0-.07.17h0a.66.66,0,0,0,0,.21.34.34,0,0,0,0,.1.36.36,0,0,0,0,.1h0a.3.3,0,0,0,0,.1h0a1,1,0,0,0,0,.1l.11.16.19.27h0l.26.34h0l.32.41h0l5,6.26L142,8.83h0l.05-.06c.15-.17.28-.34.4-.5a3.26,3.26,0,0,0,.28-.45h0a2.56,2.56,0,0,0,.16-.4h0a1.4,1.4,0,0,0,.05-.34,1.47,1.47,0,0,0,0-.36h0a1.79,1.79,0,0,0-.13-.32h0a2,2,0,0,0-.23-.3,2.13,2.13,0,0,0-.32-.26l-.05,0a3,3,0,0,0-.36-.18,3.39,3.39,0,0,0-.48-.17,4.34,4.34,0,0,0-.54-.09,3.86,3.86,0,0,0-.6,0H138.6v-1h11.26v.92l-.17,0h0l-.51.07h0l-.49.08h0l-.46.09-.43.11-.41.14-.39.14-.38.17-.36.18-.35.21h0l-.36.25h0c-.12.08-.24.18-.37.28l-.37.31h0l-.38.34h0L144,8l-.37.38-.36.4L138.06,15v4.47a4.28,4.28,0,0,0,.22,1.42,3.45,3.45,0,0,0,.28.54h0a2.6,2.6,0,0,0,.38.43,2.38,2.38,0,0,0,.49.34h0a2.78,2.78,0,0,0,.61.25,5.2,5.2,0,0,0,.75.16,7.85,7.85,0,0,0,.87.05h1.64v1H127.87v-1h1.7a6,6,0,0,0,1.63-.2,2.8,2.8,0,0,0,1.11-.59,2.36,2.36,0,0,0,.64-1h0a4.09,4.09,0,0,0,.22-1.43v-4l-6.24-7.63,0-.06h0c-.19-.22-.37-.43-.54-.61h0c-.2-.21-.39-.39-.58-.56h0a5.46,5.46,0,0,0-.57-.44h0a3.57,3.57,0,0,0-.56-.33h0a4.54,4.54,0,0,0-.59-.24,5.62,5.62,0,0,0-.68-.17,9.91,9.91,0,0,0-1.62-.14h-.61v-1h.23Z"/><path class="cls-4" d="M11.29,6.35l0,.08v.05h1.08l.17,0,.14,0,.13-.07.1-.08L13,6.12l0-.07a.44.44,0,0,1-.08.11l-.11.08-.12.07-.15.05-.17,0H11.29V6.35ZM13,6l-1.71.31h.14l.05,0h0V5s0,0,0,0l0,0,0,0-.06,0h-.13v0l0-.08h.82a1.42,1.42,0,0,1,.3,0,.77.77,0,0,1,.23.06.94.94,0,0,1,.22.12.8.8,0,0,1,.15.17,1.47,1.47,0,0,1,.1.22.85.85,0,0,1,0,.23.88.88,0,0,1,0,.17.38.38,0,0,1,0,.15L13,6Zm5.05-.86v0A.69.69,0,0,1,18.22,5a.6.6,0,0,1,.21-.14.85.85,0,0,1,.24-.09,1,1,0,0,1,.25,0l.2,0,.21,0,.1,0h.11v0h0l.06-.08h0v.57l0,.08h-.06a.54.54,0,0,0-.08-.19A.5.5,0,0,0,19.32,5a.56.56,0,0,0-.17-.09l-.19,0a.41.41,0,0,0-.16,0,.47.47,0,0,0-.15.06.63.63,0,0,0-.12.1l0,0,0,0a1.39,1.39,0,0,0-.06.19,1.5,1.5,0,0,0,0,.22,1.48,1.48,0,0,0,0,.21c0,.06,0,.13,0,.19a.53.53,0,0,0,.08.15.43.43,0,0,0,.11.12l.15.07.19,0,.17,0a.44.44,0,0,0,.15,0,.55.55,0,0,0,.14-.09L19.62,6h0v.15l-.05.09a.61.61,0,0,1-.16.12.83.83,0,0,1-.16.09l-.18,0a.75.75,0,0,1-.21,0,1.27,1.27,0,0,1-.28,0,1.09,1.09,0,0,1-.24-.07,1.37,1.37,0,0,1-.2-.13A.65.65,0,0,1,18,6.11a.72.72,0,0,1-.09-.2.78.78,0,0,1,0-.22.91.91,0,0,1,0-.23,1.38,1.38,0,0,1,.1-.22l.05-.06ZM20,5.49h0a.69.69,0,0,1,.11-.13.74.74,0,0,1,.5-.17.86.86,0,0,1,.29,0,.59.59,0,0,1,.23.14.48.48,0,0,1,.15.2.47.47,0,0,1,.05.24.78.78,0,0,1,0,.22l-.06.12-.06.08,0,.07a.59.59,0,0,1-.24.17.79.79,0,0,1-.32.06,1,1,0,0,1-.32,0A.81.81,0,0,1,20,6.29a.76.76,0,0,1-.12-.19.78.78,0,0,1,0-.22.51.51,0,0,1,.05-.25.16.16,0,0,1,0-.07l0-.07Zm5.61,0h0a.75.75,0,0,1,.12-.14.72.72,0,0,1,.24-.14,1,1,0,0,1,.3,0h.23l.16.06h.09l0-.07h0V5.6l-.06.08h0a.8.8,0,0,0-.08-.16.43.43,0,0,0-.12-.11.38.38,0,0,0-.13-.06l-.15,0-.14,0A.39.39,0,0,0,26,5.4a.34.34,0,0,0-.06.06l0,.07,0,.13a.71.71,0,0,0,0,.14.91.91,0,0,0,0,.17.74.74,0,0,0,0,.14.37.37,0,0,0,.05.11L26,6.3l.11,0,.13,0h.15V6.07s0,0,0,0l0,0h-.12V6l.06-.08H27v0L26.91,6h-.1v.3l-.06.08h0l-.13,0-.14,0-.14,0H26l-.14,0-.12-.06-.1-.07a.34.34,0,0,1-.09-.08.47.47,0,0,1-.06-.09A.52.52,0,0,1,25.45,6a.66.66,0,0,1,0-.14.58.58,0,0,1,0-.26l0-.07,0-.06ZM22.65,6l0,.42-.05.08h-1.2v0l.06-.08h.13V5.41s0,0,0,0,0,0,0,0l0,0h-.14v0l.06-.08h.71v0l-.05.09h-.15v.91a.1.1,0,0,1,0,0l0,0h.35l.08,0,.07,0s0,0,0,0v0a.43.43,0,0,0,.05-.12h0L22.6,6h0Zm1.45.38h.13v-1s0,0,0,0l-.05,0h-.1v0l.05-.08h1.13v.36l-.06.08h0a1,1,0,0,0,0-.12l-.05-.07L25,5.4l-.08,0h-.29v.4h.13l.06,0v0a.51.51,0,0,0,0-.13h0l.06-.08h0V6.1l-.05.09h-.05a.29.29,0,0,0,0-.09.09.09,0,0,0,0-.07.13.13,0,0,0,0-.06l0,0-.07,0h0v.33s0,0,0,0v0l0,0h.16l.17,0a.31.31,0,0,0,.13-.06.23.23,0,0,0,.07-.07.2.2,0,0,0,0-.08h0L25.28,6h0l-.06.39-.05.08H24.05v0l.05-.08Zm3.43-1h.29l.08,0a.18.18,0,0,1,.07,0,.43.43,0,0,1,0,.07.83.83,0,0,1,0,.12h0l.05-.08V5.2H27L27,5.28v0h.11l0,0a0,0,0,0,1,0,0l0,0v1H27L27,6.44v0h1.16l.06-.08L28.24,6h0l-.06.09h0l0,.08a.27.27,0,0,1-.08.07.26.26,0,0,1-.13.06l-.16,0h-.16l0,0v0a.08.08,0,0,0,0,0V5.91h0l.06,0,.05,0s0,0,0,.06l0,.07s0,.06,0,.09h0l.05-.09V5.47h0l0,.08h0l0,.13v0a.15.15,0,0,1-.06,0h-.13v-.4ZM22.75,5.2h.72v0l0,.09h-.15v.91a.1.1,0,0,0,0,0l0,0h.35l.08,0,.07,0,0,0,0,0a.73.73,0,0,0,0-.12h0L24,6h0l0,.42-.05.08H22.7v0l.05-.08h.14V5.41a.08.08,0,0,1,0,0l0,0,0,0H22.7v0l.05-.08Zm-7.31,0h.45v0l-.06.08h0l-.07,0-.06,0h0a.45.45,0,0,1-.06.12l-.46.92-.05.08h0l-.46-1-.06-.13a.25.25,0,0,0-.05-.07l0,0h-.06v0l.05-.08h.65v0l-.06.09H15c.1.23.22.46.33.69l.25-.51,0,0v-.1l0,0h-.14v0l0-.08Zm1.49,0-.05.08v0H17l.05,0,0,0v0a.1.1,0,0,1,0,.06.13.13,0,0,1,0,0l-.22.34-.24-.39a.64.64,0,0,1-.06-.11h.06l.06-.09v0h-.65l-.05.08v0h.06l0,0,0,.06.08.12.32.51v.32h-.16l-.05.08v0H17L17,6.4v0h-.16l0,0v0s0,0,0,0V5.91L17,5.55v0l.08-.11a.22.22,0,0,1,.07-.07l0,0h.06l.05-.08v0Zm3.61.12a.42.42,0,0,0-.16,0l-.07.07a.53.53,0,0,0,0,.15,1.38,1.38,0,0,0,0,.22,1.12,1.12,0,0,0,0,.27.56.56,0,0,0,.09.19l.1.07a.28.28,0,0,0,.13,0h.09l.08,0,.06,0,0,0a.47.47,0,0,0,0-.14,1,1,0,0,0,0-.18,1.34,1.34,0,0,0,0-.21.47.47,0,0,0,0-.14.44.44,0,0,0-.06-.1l-.06-.07-.09,0ZM14,6.14a1.12,1.12,0,0,1,.1.22H14L14,6.44v0h.65l.06-.08v0h-.06l0,0-.05-.06-.06-.11-.48-1h0l-.05.08-.48,1,0,.08,0,0-.05,0h-.07l0,.09v0h.45l.05-.08v0h-.13s0,0,0,0,0,0,0,0v0l0-.05,0,0Zm-.22-.46L14,6h-.3l.15-.31ZM12,4.94h.13l.13,0a.36.36,0,0,1,.12.08.4.4,0,0,1,.1.12.85.85,0,0,1,.09.22,2.48,2.48,0,0,1,0,.29,1.06,1.06,0,0,1,0,.33.46.46,0,0,1-.05.14l0,0a.24.24,0,0,1-.14.1.42.42,0,0,1-.2,0H12l0,0v0s0,0,0,0V4.94Z"/><path class="cls-5" d="M11.29,6.4V6.35h.14l.05,0h0l0,0,0,0a.43.43,0,0,0,0,0V4.94a.18.18,0,0,1,0-.06h0l0,0s0,0,0,0h0l-.05,0h-.14v0h.82a1.42,1.42,0,0,1,.3,0,.77.77,0,0,1,.23.06.94.94,0,0,1,.22.12.8.8,0,0,1,.15.17,1.47,1.47,0,0,1,.1.22.85.85,0,0,1,0,.23.88.88,0,0,1,0,.17.38.38,0,0,1,0,.15A.61.61,0,0,1,13,6a.44.44,0,0,1-.09.11.39.39,0,0,1-.1.08l-.12.07-.15,0-.17,0H11.29ZM12,4.86V6.21s0,0,0,0,0,0,0,0,0,0,0,0h.1a.42.42,0,0,0,.2,0,.24.24,0,0,0,.14-.1.55.55,0,0,0,.13-.24,1.59,1.59,0,0,0,0-.34,1.2,1.2,0,0,0,0-.28,1.13,1.13,0,0,0-.08-.22.63.63,0,0,0-.1-.12.57.57,0,0,0-.13-.08l-.13,0Zm2.09,1.2h-.47l-.06.12s0,0,0,.05v0s0,0,0,0,0,0,0,0h.13v0h-.45v0h.07l.05,0s0,0,0-.07l.07-.11.47-1h0l.48,1,.06.11.05.06,0,0h.06v0H14v0h.09a.05.05,0,0,0,0,0h0V6.27h0v0l0,0-.07-.15Zm0-.07-.19-.41-.2.41Zm1.84-.79h-.45v0h.14s0,0,0,0h0v0a0,0,0,0,1,0,0,0,0,0,0,1,0,0v0h0s0,0,0,0l0,.08L15.29,6,15,5.44l0-.07,0,0V5.25h.15v0h-.65v0h0l.07,0,0,0,0,.07.07.13.46,1h0l.46-.92.07-.13a.28.28,0,0,1,.06-.08.09.09,0,0,1,.06,0l.06,0h0v0Zm1.45,0v0h0l-.06,0,0,0h0a.14.14,0,0,0-.06.07l-.1.13-.29.43v.29s0,.06,0,.08,0,0,0,0h0s0,0,0,0l0,0H17v0h-.76v0h.17l0,0,0,0h0a0,0,0,0,1,0,0V6l-.32-.51a.62.62,0,0,0-.08-.12s0-.05-.05-.06l0,0h-.06v0h.65v0h-.13s0,0,0,0l0,0a.64.64,0,0,0,.06.11l.24.39L17,5.47a.41.41,0,0,0,.06-.11.15.15,0,0,0,0-.06v0s0,0,0,0h0l0,0h-.08v0Zm2.31-.48v.57h0a.56.56,0,0,0-.09-.19A.47.47,0,0,0,19.38,5a.7.7,0,0,0-.17-.09.69.69,0,0,0-.2,0,.45.45,0,0,0-.16,0,.47.47,0,0,0-.15.06.63.63,0,0,0-.12.1.6.6,0,0,0-.09.13,1.39,1.39,0,0,0-.06.19,1.5,1.5,0,0,0,0,.22,1.48,1.48,0,0,0,0,.21c0,.06,0,.13,0,.19a.53.53,0,0,0,.08.15.43.43,0,0,0,.11.12l.15.07.19,0,.17,0a.44.44,0,0,0,.15,0,.55.55,0,0,0,.14-.09L19.62,6h0v.15h0l-.15.12a.65.65,0,0,1-.17.08.48.48,0,0,1-.18,0l-.21,0a1.18,1.18,0,0,1-.27,0,.73.73,0,0,1-.25-.08.82.82,0,0,1-.2-.12A.84.84,0,0,1,18,6a.88.88,0,0,1-.09-.2.83.83,0,0,1,0-.22.85.85,0,0,1,0-.23,1.13,1.13,0,0,1,.11-.22A.69.69,0,0,1,18.22,5a.6.6,0,0,1,.21-.14.85.85,0,0,1,.24-.09,1,1,0,0,1,.25,0l.2,0,.21,0,.1,0h.09l0,0a.05.05,0,0,0,0,0s0,0,0,0h0Zm.93.46a.86.86,0,0,1,.29,0,.59.59,0,0,1,.23.14.48.48,0,0,1,.15.2.47.47,0,0,1,.05.24.78.78,0,0,1,0,.22.76.76,0,0,1-.12.19.53.53,0,0,1-.24.17.79.79,0,0,1-.32.06.83.83,0,0,1-.32-.06A.63.63,0,0,1,20,6.21.52.52,0,0,1,19.92,6a.59.59,0,0,1,0-.23.64.64,0,0,1,.05-.24.48.48,0,0,1,.15-.2.74.74,0,0,1,.5-.17Zm0,.06a.29.29,0,0,0-.16,0,.36.36,0,0,0-.11.13.38.38,0,0,0-.06.17,1.38,1.38,0,0,0,0,.22,1.12,1.12,0,0,0,0,.27.56.56,0,0,0,.09.19l.1.07a.28.28,0,0,0,.13,0h.09l.08,0,.08-.07a.37.37,0,0,0,.05-.11.57.57,0,0,0,0-.14,1,1,0,0,0,0-.18,1.34,1.34,0,0,0,0-.21.54.54,0,0,0,0-.15l-.05-.1-.07-.06-.08,0ZM22.65,6l0,.42H21.41v0h.14l0,0v0h0s0,0,0,0V5.33s0,0,0,0v0l0,0h-.13v0h.71v0H22l0,0,0,0a.08.08,0,0,1,0,0v.91a.1.1,0,0,1,0,0l0,0h.35l.08,0,.07,0,.06-.06h0l0-.09,0-.12h0ZM24,6l0,.42H22.75v0h.14l0,0,0,0h0a.1.1,0,0,0,0,0V5.33s0,0,0,0l0,0,0,0h-.14v0h.72v0h-.15l0,0,0,0s0,0,0,0v.91a.1.1,0,0,0,0,0l0,0h.35l.08,0,.07,0,.05-.06a.19.19,0,0,0,0-.09S23.93,6,24,6h0Zm.63-.71v.48h.13a.2.2,0,0,0,.07-.06.19.19,0,0,0,.05-.09.37.37,0,0,0,0-.12h.05V6.1h-.05s0-.06,0-.09l0-.08-.05,0,0,0-.06,0h-.08v.41s0,0,0,0h0v0l0,0h.16l.17,0a.31.31,0,0,0,.13-.06.32.32,0,0,0,.1-.1A.81.81,0,0,0,25.28,6h0l-.06.39H24.1v0h.14l0,0,0,0h0a.1.1,0,0,0,0,0V5.34s0,0,0,0v0a0,0,0,0,0,0,0h0l0,0H24.1v0h1.13v.36h-.05l0-.11a.18.18,0,0,0,0-.07.1.1,0,0,0-.06,0,.19.19,0,0,0-.08,0h0l-.08,0h-.26Zm2.19-.1V5.6h0a.8.8,0,0,0-.08-.16l-.11-.11a.42.42,0,0,0-.14-.06l-.15,0-.14,0a.36.36,0,0,0-.19.15.34.34,0,0,0-.06.12l0,.13a.71.71,0,0,0,0,.14.91.91,0,0,0,0,.17.74.74,0,0,0,0,.14.37.37,0,0,0,.05.11L26,6.3l.11,0,.13,0h.15l.05,0V6a.08.08,0,0,1,0,0h0l0,0h0l0,0h-.08v0H27v0h-.1l0,0,0,0h0v.34h0l-.13,0-.13,0-.15,0h-.31l-.15,0-.12,0-.1-.07-.09-.08-.06-.09a.5.5,0,0,1,0-.13.36.36,0,0,1,0-.15.7.7,0,0,1,.05-.25,1,1,0,0,1,.16-.21.72.72,0,0,1,.24-.14,1,1,0,0,1,.3,0h.23l.09,0,.07,0h.09l0,0a.05.05,0,0,0,0,0h0Zm.72.1v.48h.13a.24.24,0,0,0,.08-.06.19.19,0,0,0,0-.09.21.21,0,0,0,0-.12h0V6.1h0a.29.29,0,0,0,0-.09l0-.08,0,0a.09.09,0,0,0,0,0l-.06,0h-.08v.41a.08.08,0,0,1,0,0h0v0l0,0h.16l.16,0A.26.26,0,0,0,28,6.25a.32.32,0,0,0,.1-.1A.4.4,0,0,0,28.2,6h0l-.06.39H27v0h.14l0,0v0h0s0,0,0,0,0,0,0-.08V5.4s0-.05,0-.06V5.28l0,0h0l-.05,0H27v0h1.12v.36h0a.36.36,0,0,0,0-.11.16.16,0,0,0,0-.07l-.06,0-.09,0h0l-.08,0h-.26Z"/><path class="cls-6" d="M8.4,37.72l3.85,1.19-1.58.7a29.08,29.08,0,0,0,17.82,0l-1.56-.68,3.79-1.35L30,39.34l.69,1.27-2.1.75v1.22a28.19,28.19,0,0,1-17.88.1l-.06-1.14L8.48,40.9l.74-1.24Z"/><path class="cls-7" d="M12.25,38.91l-1.58.7c.56.17,1.12.33,1.68.47l-.1-1.17ZM27,40c.51-.13,1-.28,1.53-.44l-1.56-.68Z"/><path class="cls-8" d="M3.65.91H36.12V20.82c-1.88,9-8.25,14.85-16.24,18.71a28.71,28.71,0,0,1-12-9c-2.68-3.41-4.17-7.24-4.26-9.88Z"/><g class="cls-9"><path class="cls-5" d="M5.77,3H34V21C33,27.13,27.72,34,19.88,37.47,12.05,34,6.79,27.13,5.77,21Z"/><path class="cls-10" d="M13.32,13.21c0,.07.16.15.16.18s0,0,0,0l.36.4s0,0,0,0a4.06,4.06,0,0,1,.47.12l.17.19a1.45,1.45,0,0,1,.3.56.49.49,0,0,0,.47.39l.08.08c-.06-.05.26.42.52.42l.16.08.12.07m0-3.09c.08,0,.47.3.55.3s.16.11.16.14,0,0,0,0l.09,0m2.46-1.34c.08,0,.27.21.37.21l.57.17s0,0,0,0m1.41-1.28c.25.36.8.16,1.09.44.06,0,.26.19.31.24M23,10.07a2.37,2.37,0,0,1,.33.22c.06,0,.12.07.19.07a.57.57,0,0,0,.23,0M29.3,7.33c.09,0,.18-.08.27-.1s.25-.15.41-.15a.37.37,0,0,0,.2-.12.43.43,0,0,1,.09-.1s.07-.09.09-.09l0,0M15.84,16.26s.05-.05.08-.05v0l.56-.29.23,0s0,0,0,0,.06.06.06.08h0l.07.1s.06.16.08.16,0,0,0,0,0,.05,0,.05,0,.09.06.09l.21.17.49-.36.13-.08s.49-.24.55-.24l.21-.13.15-.24.33-.12.39-.25.38-.27h0l.07-.12c0-.07.26-.3.32-.3s.2-.11.2-.17l.36-.33L22,13s.1.12.14.12.83.25.92.25c.32,0,.63.28,1,.28l.73-.09c0-.09.48-.24.48-.37l.21-.13c.05,0,.24-.26.33-.26h0s.57-.24.57-.38l.3-.19.12-.23c0-.11,0-.2.17-.2.3,0,.28.41.41.41l0,0s.06,0,.06,0l.59.52.43.54c.08,0,.29.27.34.27s.47.61.47.63.08-.28.25-.28l.11-.08s0,0,0,0l-.09-.21.07-.15.11-.19.08-.26c.06-.06.34-.22.34-.29h0s0,0,0,0-.22-.35.11-.35l0-.18-.9-.36,0,0s0-.45-.36-.45c-.14,0-.46-.27-.46-.43s-.2-.34-.32-.34a9.32,9.32,0,0,1-1-.76s-.24-.41-.34-.41M24.6,13.64l.06,0s.11.08.14.08l.12,0H25a1.12,1.12,0,0,1,.26.08,4.41,4.41,0,0,0,.89.09c-.6,0-.3,0,0,0,0,0-.1.1-.13.1s0,0,0,0l0,0s-.1.16-.12.18-.19.14-.19.16.17,0,.25,0c-.17,0-.08,0,0,0l-.44.42s-.08.07-.08.11a.15.15,0,0,0,0,.06.12.12,0,0,0-.05.05h0s0,0,0,0,0,.14,0,.15a.89.89,0,0,0,.28,0h0a.48.48,0,0,1-.2.37h0"/><path class="cls-11" d="M5.77,13.69H34v1.05H5.77V13.69ZM34,15.6v1H5.77v-1Zm0,1.94v1.05H5.77V17.54Z"/><polygon class="cls-12" points="5.72 13.06 19.97 17.65 34.05 13.14 34.05 0.2 5.72 0.13 5.72 13.06"/><g class="cls-13"><path class="cls-14" d="M16.41,16.63c.56.15,1.63.52,2.25.72,1.36.42.79.42,2.34-.06s3-.95,4.55-1.43,3-.95,4.55-1.44l3.4-1.07A9.13,9.13,0,0,0,34.62,13c.07-.1,0-2.46,0-2.88V10l0-.16a1.62,1.62,0,0,0,0-.22l-.06.14s0,0,0,0v0c-.1-.14-.17-.09-.1-.3-.24-.05-.33-.26-.55-.33s-.11,0-.2-.05L33.75,9c-.06-.11-.11-.13-.08-.31s.13-.54-.08-.66a.45.45,0,0,0-.36-.08c.09.06.08,0,.12.09L33.2,8c-.06,0-.06-.09-.2-.17l-.16-.12a.44.44,0,0,1-.15-.22c-.06-.13,0,0,0-.14a1.2,1.2,0,0,0,0-.19l-.13,0c0-.06,0,0,.07-.09h-.17c0-.08.09-.1.14-.16l-.23,0,.1-.12h0s0,0,0,0,0,0,0-.07l0-.08s0-.09,0-.12a2.64,2.64,0,0,1-.37-.2c.08-.11.11.06.1-.13-.11,0-.13,0-.21.08-.22-.11-.2,0-.16-.19l-.24,0s0,0-.05,0l-.12,0c-.2,0-.31,0-.34.21-.14,0-.19,0-.18.11s0,0,0,0h0s0,0,0,.11c-.12-.1,0-.09-.13-.11s-.07,0,0,.11a.34.34,0,0,0,.08.09l-.1.05.07.11c-.1,0-.12-.1-.26-.08,0,.08.08.11,0,.21l-.1.05c.11.18,0,.3-.12.39s.06.1-.28.27a1.56,1.56,0,0,0-.52.64c-.1,0-.05,0-.15,0a.49.49,0,0,0,0,.27A.29.29,0,0,0,29,8.37l0,.18c-.1,0,0,0-.12-.09-.12.12.06.07-.17.12l0,.1c-.09,0-.05-.06-.16,0l0,.18c-.21.1-.16,0-.3.24s0,.06-.09.07.06,0,0-.1l-.13.1c-.09.07,0,0-.06.17-.14,0,0,0-.12-.08l0,.11c-.09,0-.16-.06-.19,0s.42.31.12.48c0,.07,0,0,.06.11s0,0,0,0,.2.12.29.23.19.45.39.56.07.1.37.2.24.13.25.47c.45.31.67.21,1.05.37.09,0,.09,0,.13.1s-.24.16-.36.27c0,.06.06.06.1.13-.11.33-.61.47-.59.61s0,0,.09.09.06,0,.09.1a.82.82,0,0,1-.24.15l0,0,0,0c.05.15.21.17,0,.39s-.11.07-.17.13,0,.1-.13.18c-.26,0-.51-.68-.84-.87-.17-.1-.23,0-.38-.2a1.28,1.28,0,0,1-.18-.39c-.08-.19-.13-.17-.28-.29s-.17-.15-.31-.25-.19-.1-.29-.31-.19-.25-.34-.08-.06.25-.23.34-.31.24-.48.37a6.05,6.05,0,0,1-.55.32L24.9,13a.52.52,0,0,1-.19.08,1.68,1.68,0,0,0-.49.42l1.14.26c.14,0,.31,0,.42,0s-.25.24-.32.47l.14,0a.23.23,0,0,1-.15.23c-.13.08-.13.11-.23.17a.64.64,0,0,0-.21.19,1.3,1.3,0,0,0-.18.23c.19.06.45,0,.4.18a.61.61,0,0,1-.05.12.3.3,0,0,1-.18.17c-.12-.1,0-.1,0-.24s-.21-.07-.34-.13.11-.22.15-.42c-.19,0-.42,0-.53-.14l.14,0v-.1c.05,0,0,0,.08.05l.05-.09c-.09-.11-.06,0-.08-.28.09.05.08,0,.11.12s0,0,.07-.07l0,0a.21.21,0,0,0,.05.07c.06-.11.06,0,.11-.11s0-.14.06-.19c.25.06.06,0,.2.12l.05-.15c.16.05.27.08.34-.14a4.14,4.14,0,0,1-1-.22,9.44,9.44,0,0,0-1.06-.2,8.3,8.3,0,0,0-1-.26,2.78,2.78,0,0,1-.5-.11c-.38-.11-.35-.18-.46-.2s-.07.12-.22.2,0,0-.09.08l.18,0v.14l.14,0c0,.06,0,.09.05.15v0l0,.16c-.06.17-.3.22-.46.23-.07.21,0,0-.14.17a1,1,0,0,1-.4.3c-.15,0-.18,0-.22.12-.14-.06-.09-.06-.23,0l-.22-.22a1,1,0,0,0-.56.48,4.38,4.38,0,0,1-.62.47,2.78,2.78,0,0,1-.49.24c-.22.09-.21.26-.36.35a7,7,0,0,0-.95.5C16.66,16.41,16.42,16.52,16.41,16.63Z"/><path class="cls-15" d="M21.33,15.07c0,.11,0,.15-.12.19s0,0-.11,0l-.18,0c-.14,0,0,0-.14,0,0-.08,0-.12.08-.19S21,15,21,15l.12-.11s0,0,0,0,0,0,.08-.07,0,0,.05-.09c.27,0,.16,0,.31.11l.1.05c0,.16,0,.07,0,.12A.64.64,0,0,1,21.33,15.07Z"/><path class="cls-14" d="M20,10.92c.09,0,0,0,.06,0A.7.7,0,0,1,20,11c-.05,0,0,0-.05.05l0,0-.06.07s0,0,0,.06c-.06.22-.09.13-.15.21s0,.06,0,.12-.08,0-.05.25c.11,0,.11,0,.12.14-.17.06,0,0-.41-.09s-.26.05-.33.15a.51.51,0,0,1-.45,0c-.13-.08-.2-.19-.3,0-.14,0-.14-.09-.27,0s0,.12-.29.08c0,.12,0,.08-.12.11s0,0-.12.11,0-.06-.23.16c0,0-.18.15-.24.12s-.08-.12-.2,0-.07.14-.16.13a.27.27,0,0,0-.22,0c-.14.08,0,.09-.25.07l0,.14a1.24,1.24,0,0,0-.39,0c-.05-.07,0-.08-.3-.1h-.09c-.06,0,0,0-.15,0s.09.06-.07,0,0-.08,0-.2c-.18-.09-.07,0-.16,0s-.07-.08-.12-.11-.11,0-.18-.06,0,0-.07-.06l-.08,0a1.05,1.05,0,0,0-.36-.1c-.13,0-.13.13-.38.13-.43,0-.3,0-.74.25a1.82,1.82,0,0,1-.72.31c0,.15,0,0,.32.34a.58.58,0,0,0,.42.25.31.31,0,0,1,.23.1l.47.57a1.76,1.76,0,0,0,.23.43c.15.16.31.1.43.27s.16.27.33.35.41.1.42.28a1.05,1.05,0,0,1-.62-.26l-.21-.24c-.15-.19-.38-.18-.54-.38l-.17-.3c-.06-.09-.11-.2-.17-.28-.38-.61-.18-.15-.81-.58-.12-.08-.11-.15-.21-.24s-.08,0-.26-.21a5,5,0,0,1-.46-.46.36.36,0,0,0-.27-.2,5.35,5.35,0,0,1-.82-.58,4.34,4.34,0,0,0-.61-.31A1.78,1.78,0,0,1,9.14,11c-.17-.17-.18-.11-.26-.2s-.29-.44-.5-.39-.47.19-.66.26c-.35.13-.19.12-.53.4l-.25.21c-.06,0-.3.25-.14.25s.07,0,.16-.07,0,0,0,.12c.34,0,.08.22.28.4l0,0a.46.46,0,0,0,0,.36c0,.06.07,0,0,.06s-.24.12-.35.22-.12.21-.16.43c-.17.06-.09,0-.19.11a.3.3,0,0,1-.2.11l.06.08,1,.32c1,.33,2,.62,3,.95.18.06,3.9,1.26,4,1.27.26,0,.39.16.62,0,1-.55.77-.25,1.33.44.25-.05.49-.32.68-.43s.66-.27.75-.35.13-.2.25-.29A7.65,7.65,0,0,0,19,14.75c.21-.17,0-.19.55-.55.19-.13.35-.4.56-.52.52-.3.67-.52,1-.69s.14-.19.27-.3c.22.05.16.17.54.26l.66.13a1.76,1.76,0,0,1,.33.07,2.18,2.18,0,0,0,.61.2c.34,0,.44.12.65-.06s.15-.12.22-.18c.4-.29,1.14-.68,1.45-1a2.67,2.67,0,0,0,.43-.37c.08-.18.16-.4.43-.37s.26.3.37.44.13.08.22.17.12.13.22.2.27.11.38.42c.19.47.12.24.41.39a2.1,2.1,0,0,1,.42.37,1.52,1.52,0,0,0,.16.23,1.45,1.45,0,0,0,.19.23c.05,0,.29-.24.28-.31s-.16-.1-.17-.24.2-.1.31-.18c-.07-.07-.39-.14.26-.55.38-.24.08-.22,0-.38s.27-.11.35-.24,0,0,0,0l-.16,0a2.49,2.49,0,0,1-.53-.16c-.46-.2-.32-.25-.32-.55a1.28,1.28,0,0,1-.47-.18,1.15,1.15,0,0,1-.45-.54c-.08-.15,0-.1-.18-.14s-.27-.22-.4-.27-.07,0-.08.18l-.17.13c-.14.13,0,0-.08.17s-.07.1-.17.12-.17.09-.23.1c-.21,0,0-.05-.27,0,0,0-.05,0-.1,0l0-.09a.16.16,0,0,1-.19,0c-.15-.07,0-.1-.18-.07v-.14c-.13,0-.16,0-.19-.13s0,0,0-.15c-.21,0-.24-.05-.29-.26.11-.12.1,0,.08-.2a.11.11,0,0,1-.09,0c0-.15,0-.2-.1-.29s-.05-.15-.28-.15c0-.08,0,0,.1-.11H25l0-.13c-.12.06,0,0-.08.12a3,3,0,0,1-.31,0c-.24,0-.08,0-.28,0,.05-.12,0-.27,0-.41l-.11.08A.35.35,0,0,0,24,8.67l.11-.28a3.22,3.22,0,0,0-.41.32c-.11.12-.23.28-.33.4L23,9.48l-.19.16a.5.5,0,0,0-.2.18c.24,0,.34-.32.61-.26,0,.07-.11,0,0,.09s.14.06.19.1v.09c-.1.05,0,0-.09,0,.05.16,0,.1,0,.25s0,0,.1,0l-.15.25c-.09.17,0,.15-.29.17l.06.12c-.19.08,0,.06-.22.06-.06.18,0,.23,0,.4l-.19.06c0,.06.11.12,0,.17s-.09,0-.26,0c0,.09,0,.06,0,.15s0-.08-.18-.13c0,.1,0,0,.06.13v0c0,.06,0,0,0,.07s-.13-.16-.28-.18-.19.07-.38.09v-.18c-.13.1,0,.07-.36.07,0-.15-.16-.16-.26-.27L20.9,11c-.16,0,0,.06-.21,0-.07-.25-.09-.15-.19-.3.26-.23.25-.08.4-.17,0-.08,0,0-.11-.09s-.2-.17-.38,0S20.18,10.8,20,10.92Z"/><path class="cls-15" d="M21.8,10.36a.6.6,0,0,1,.14-.21l.14-.21c.16-.24.31-.14.38,0s0,0-.06.06-.36,0-.37.31c-.15,0-.1,0-.23,0ZM6.34,13.42l-.06-.08a.3.3,0,0,0,.2-.11c.1-.11,0-.05.19-.11,0-.22,0-.28.16-.43s.23-.13.35-.22,0,0,0-.06a.46.46,0,0,1,0-.36l0,0c-.2-.18.06-.4-.28-.4,0-.09,0,0,0-.12s-.11.07-.16.07.08-.21.14-.25l.25-.21c.34-.28.18-.27.53-.4.19-.07.49-.22.66-.26s.41.28.5.39.09,0,.26.2a1.78,1.78,0,0,0,.86.52,4.34,4.34,0,0,1,.61.31,5.35,5.35,0,0,0,.82.58.36.36,0,0,1,.27.2,5,5,0,0,0,.46.46c.18.2.16.13.26.21s.09.16.21.24c.63.43.43,0,.81.58.06.08.11.19.17.28l.17.3c.16.2.39.19.54.38l.21.24a1.05,1.05,0,0,0,.62.26c0-.18-.14-.14-.42-.28s-.22-.2-.33-.35-.28-.11-.43-.27a1.76,1.76,0,0,1-.23-.43l-.47-.57a.31.31,0,0,0-.23-.1.58.58,0,0,1-.42-.25c-.27-.31-.29-.19-.32-.34A1.82,1.82,0,0,0,13,12.7c.44-.24.31-.25.74-.25.25,0,.25-.11.38-.13a1.05,1.05,0,0,1,.36.1l.08,0s0,0,.07.06.12,0,.18.06.07.1.12.11,0-.08.16,0c0,.12,0,.06,0,.2s0,0,.07,0,.09,0,.15,0h.09c.28,0,.25,0,.3.1a1.24,1.24,0,0,1,.39,0l0-.14c.21,0,.11,0,.25-.07a.27.27,0,0,1,.22,0c.09,0,.08-.06.16-.13s.17,0,.2,0,.19-.07.24-.12c.23-.22.12-.08.23-.16s0-.07.12-.11.09,0,.12-.11c.26,0,.13,0,.29-.08s.13,0,.27,0c.1-.21.17-.1.3,0A.51.51,0,0,0,19,12c.07-.1-.1-.23.33-.15s.24.15.41.09c0-.11,0-.11-.12-.14a.7.7,0,0,0-.33-.13c-.14,0-.27,0-.32-.15l.49-.35a2.28,2.28,0,0,1,.57-.25c.15-.12.23-.32.38-.44s.23-.09.38,0,.06,0,.11.09c-.15.09-.14-.06-.4.17.1.15.12.05.19.3.21,0,0,0,.21,0l.08.11c.1.11.22.12.26.27.38,0,.23,0,.36-.07v.18c.19,0,.17-.11.38-.09s.17.14.28.18,0,0,0-.07v0c0-.08,0,0-.06-.13.18,0,0,.09.18.13s0-.06,0-.15c.17-.06.13,0,.26,0s.06-.11,0-.17l.19-.06c0-.17-.06-.22,0-.4.21,0,0,0,.22-.06L23,10.53c.25,0,.2,0,.29-.17l.15-.25c-.06,0,0,.05-.1,0s0-.09,0-.25c.07,0,0,.05.09,0V9.75c-.05,0-.14-.06-.19-.1s0,0,0-.09c-.27-.06-.37.25-.61.26a.5.5,0,0,1,.2-.18L23,9.48l.35-.37c.1-.12.22-.28.33-.4a3.22,3.22,0,0,1,.41-.32L24,8.67a.35.35,0,0,1,.17.09l.11-.08c0,.14,0,.29,0,.41.2,0,0-.06.28,0a3,3,0,0,0,.31,0c.08-.12,0-.06.08-.12l0,.13h.29c-.06.08-.06,0-.1.11.23,0,.15,0,.28.15s.14.14.1.29a.11.11,0,0,0,.09,0c0,.18,0,.08-.08.2,0,.21.08.23.29.26.05.11,0,.08,0,.15s.06.12.19.13v.14c.15,0,0,0,.18.07a.16.16,0,0,0,.19,0l0,.09c.05.06.07,0,.1,0,.25,0,.06,0,.27,0,.06,0,.1-.08.23-.1s.11,0,.17-.12-.06,0,.08-.17l.17-.13c0-.14-.06-.09.08-.18s.25.22.4.27.1,0,.18.14a1.15,1.15,0,0,0,.45.54,1.28,1.28,0,0,0,.47.18c0,.3-.14.35.32.55a2.49,2.49,0,0,0,.53.16l.16,0s0,0,0,0-.28.11-.35.24.37.14,0,.38c-.65.41-.33.48-.26.55-.11.08-.23.1-.31.18s.09.07.17.24-.23.27-.28.31a1.45,1.45,0,0,1-.19-.23,1.52,1.52,0,0,1-.16-.23,2.1,2.1,0,0,0-.42-.37c-.29-.15-.22.08-.41-.39-.11-.31-.15-.26-.38-.42s-.13-.13-.22-.2-.15-.07-.22-.17-.17-.41-.37-.44-.35.19-.43.37a2.67,2.67,0,0,1-.43.37c-.31.29-1,.68-1.45,1-.07.06-.15.11-.22.18s-.31.1-.65.06a2.18,2.18,0,0,1-.61-.2,1.76,1.76,0,0,0-.33-.07L21.89,13c-.38-.09-.32-.21-.54-.26-.13.11-.06.17-.27.3s-.44.39-1,.69c-.21.12-.37.39-.56.52-.51.36-.34.38-.55.55a7.65,7.65,0,0,1-1.05.62c-.12.09-.16.21-.25.29s-.61.27-.75.35-.43.38-.68.43c-.56-.69-.33-1-1.33-.44-.23.12-.36,0-.62,0l.05,0,.6.18c0-.09,0,0,.07-.07s.57-.28.65-.24a6.14,6.14,0,0,0,.44.61c-.05.05.07.05-.1,0l.37.13c0-.11.25-.22.39-.33a7,7,0,0,1,.95-.5c.15-.09.14-.26.36-.35a2.78,2.78,0,0,0,.49-.24,4.38,4.38,0,0,0,.62-.47,1,1,0,0,1,.56-.48l.22.22c.14,0,.09,0,.23,0,0-.16.07-.08.22-.12a1,1,0,0,0,.4-.3c.16-.13.07,0,.14-.17.16,0,.4-.06.46-.23l0-.16v0c0-.06-.06-.09-.05-.15l-.14,0V13.2l-.18,0c.05-.1,0,0,.09-.08s.11-.1.22-.2.08.09.46.2a2.78,2.78,0,0,0,.5.11,8.3,8.3,0,0,1,1,.26,9.44,9.44,0,0,1,1.06.2,4.14,4.14,0,0,0,1,.22c-.07.22-.18.19-.34.14l-.05.15c-.14-.08.05-.06-.2-.12,0,0,0,.15-.06.19s-.05,0-.11.11a.21.21,0,0,1-.05-.07l0,0c0,.09,0,0-.07.07s0-.07-.11-.12c0,.26,0,.17.08.28l-.05.09c-.06-.06,0,0-.08-.05v.1l-.14,0c.11.16.34.15.53.14,0,.2-.18.22-.15.42s.23,0,.34.13-.12.14,0,.24a.3.3,0,0,0,.18-.17.61.61,0,0,0,.05-.12c.05-.18-.21-.12-.4-.18a1.3,1.3,0,0,1,.18-.23.64.64,0,0,1,.21-.19c.1-.06.1-.09.23-.17a.23.23,0,0,0,.15-.23l-.14,0c.07-.23.33-.31.32-.47s-.28,0-.42,0l-1.14-.26a1.68,1.68,0,0,1,.49-.42A.52.52,0,0,0,24.9,13l.31-.26a6.05,6.05,0,0,0,.55-.32c.17-.13.29-.25.48-.37s.11-.21.23-.34.26-.08.34.08.12.19.29.31.2.17.31.25.2.1.28.29a1.28,1.28,0,0,0,.18.39c.15.15.21.1.38.2.33.19.58.85.84.87.08-.08.07-.11.13-.18s.1,0,.17-.13,0-.24,0-.39l0,0,0,0a.82.82,0,0,0,.24-.15c0-.08,0,0-.09-.1s-.05,0-.09-.09.48-.28.59-.61c0-.07-.07-.07-.1-.13.12-.11.32-.09.36-.27s0-.06-.13-.1c-.38-.16-.6-.06-1.05-.37,0-.34.12-.35-.25-.47s-.16-.08-.37-.2-.25-.39-.39-.56S28,10.13,27.9,10s0,0,0,0,0,0-.06-.11c.3-.17-.2-.26-.12-.48s.1,0,.19,0l0-.11c.12,0,0,0,.12.08,0-.14,0-.1.06-.17l.13-.1c.09.11,0,0,0,.1s0,0,.09-.07.09-.14.3-.24l0-.18c.11,0,.07,0,.16,0l0-.1c.23-.05.05,0,.17-.12.09,0,0,0,.12.09l0-.18a.29.29,0,0,1,.13.08.49.49,0,0,1,0-.27c.1,0,0,0,.15,0a1.56,1.56,0,0,1,.52-.64c.34-.17.12-.09.28-.27s.23-.21.12-.39l.1-.05c.08-.1,0-.13,0-.21.14,0,.16.05.26.08l-.07-.11.1-.05a.34.34,0,0,1-.08-.09c-.06-.14,0-.09,0-.11s0,0,.13.11c0-.08,0-.06,0-.11h0s0,0,0,0,0-.12.18-.11c0-.22.14-.16.34-.21l.12,0c.06,0,0,0,.05,0l.24,0c0,.15-.06.08.16.19.08-.06.1-.09.21-.08,0,.19,0,0-.1.13a2.64,2.64,0,0,0,.37.2s0,.1,0,.12l0,.08c0,.08,0,0,0,.07s0,0,0,0h0l-.1.12.23,0c0,.06-.1.08-.14.16h.17s0,0-.07.09l.13,0a1.2,1.2,0,0,1,0,.19c0,.12,0,0,0,.14a.44.44,0,0,0,.15.22l.16.12c.14.08.14.14.2.17l.15,0c0-.08,0,0-.12-.09a.45.45,0,0,1,.36.08c.21.12.11.47.08.66s0,.2.08.31l-.09.09c.09.07.12,0,.2.05s.31.28.55.33c-.07.21,0,.16.1.3v0s0,0,0,0l.06-.14a1.62,1.62,0,0,1,0,.22l0,.16v.05c0-.49,0-1.08,0-1.58s0-1.08,0-1.57h0c0,.06,0,0,0,.05a4.81,4.81,0,0,1-1-1,1.07,1.07,0,0,0-.27-.33c-.18,0-.16-.11-.26-.21a.72.72,0,0,1-.19-.25,3,3,0,0,1-.09-.35,2.1,2.1,0,0,0-.15-.3,2.53,2.53,0,0,0-.13-.22c-.07-.09-.12-.1-.17-.17A2,2,0,0,0,32,3.56c-.08-.08-.49-.44-.57-.43s-.65,1.18-.78,1.25l-.31.29c-.13.12-.22.11-.25.33s0,.29-.17.44l-.32.28c0,.19-.38.6-.58,1.15,0,.1-.09.07-.18.16a2,2,0,0,1-.4.31c-.07.1-.75.5-1,.78L27,8.6a2,2,0,0,1-.57.32c-.17,0-.41-.27-.49-.37a1.75,1.75,0,0,0-.35-.32,2.28,2.28,0,0,1-.64-.49c-.22-.22-.21-.45-.42-.44-.13.25.1.17-.24.49a2.4,2.4,0,0,0-.29.44,1.63,1.63,0,0,1-.39.35c-.13.1-.2.33-.33.4a1.3,1.3,0,0,0-.18.21,1.07,1.07,0,0,1-.19.18,3.45,3.45,0,0,1-.45.33c-.13,0-.16-.14-.34,0s-.15.36-.62.59-.28.25-.46.14c-.41-.25-.46-.4-.85.11s-.29.19-.59.39-.35.25-.59.38-.25.2-.68-.06-.38-.11-.67,0-.53.11-.77.21c-.43.18-.21.23-.54.43a3.15,3.15,0,0,1-.71.26l-.2.06c-.28.1-.06.11-.53,0a1.23,1.23,0,0,1-.35-.15c-.36-.2-.25,0-.62.15s-.28-.13-1.06.38a3.15,3.15,0,0,1-.71.26,1.69,1.69,0,0,1-.39-.41c-.17-.22-.28-.14-.48-.29l-.45-.35a5.61,5.61,0,0,0-1-.55c-.44-.18-.22-.07-.46-.31s-.19-.07-.42-.37a3.54,3.54,0,0,0-.42-.35,2.63,2.63,0,0,0-.57.21c-.2.09-.36.07-.54.23L7,11.1c-.08.07-.13.06-.22.15a.69.69,0,0,1-.2.17,1.82,1.82,0,0,0-.36.41,1,1,0,0,1-.65.52l-.33.24a1.23,1.23,0,0,1-.31.24l-.07.07V3c-.07.11,0,6.46,0,7.49,0,.26,0,2.4,0,2.47A14.08,14.08,0,0,0,6.34,13.42Z"/><path class="cls-16" d="M19.62,11.8c0-.2,0-.13.05-.25s0-.06,0-.12.09,0,.15-.21c0,0,0,0,0-.06l.06-.07,0,0s0,0,.05-.05a.7.7,0,0,0,.08-.1s0,0-.06,0a2.28,2.28,0,0,0-.57.25l-.49.35c.05.14.18.12.32.15A.7.7,0,0,1,19.62,11.8Z"/><path class="cls-14" d="M15,16.17A10.76,10.76,0,0,0,16,16.5c.17,0,.05,0,.1,0a6.14,6.14,0,0,1-.44-.61c-.08,0-.53.17-.65.24S15,16.08,15,16.17Z"/><path class="cls-17" d="M21.8,10.36c.13,0,.08,0,.23,0,0-.3.26-.22.37-.31s0,0,.06-.06-.22-.24-.38,0l-.14.21A.6.6,0,0,0,21.8,10.36Z"/></g><polygon class="cls-18" points="5.72 13.06 19.97 17.65 34.05 13.14 34.05 0.2 5.72 0.13 5.72 13.06"/><path class="cls-19" d="M11.37,31.48c-.68-.95-1.31-1.84-1.89-2.6A19,19,0,0,1,6.08,22a9.46,9.46,0,0,1-.21-1.51v-2H34V21C33,27.13,27.72,34,19.88,37.47A26.47,26.47,0,0,1,11.37,31.48Z"/><path class="cls-20" d="M5.77,18.56h14.1v19C12,34.06,6.79,27.18,5.77,21Z"/><path class="cls-5" d="M26.92,21.09a.29.29,0,0,1,.1,0,.22.22,0,0,1,.11.17c0,.13-.09.2-.2.24s-.08,0-.09,0L27,24.14h0l0,.2h0v0l.05.12a.59.59,0,0,1,0,.17h0s0,0,0,.07a.17.17,0,0,1,0,.12v0h0a2.72,2.72,0,0,0,0,.57c0,.18,0,.37,0,.55s0,.33,0,.49,0,.25,0,.38a2.8,2.8,0,0,1,0,.29,2.81,2.81,0,0,1,0,.41.18.18,0,0,1-.05.12l0,0a.92.92,0,0,0,0,.16.65.65,0,0,1,0,.14c0,.06,0,.08,0,.11a.73.73,0,0,1-.17.18c-.08.08-.17.14-.25.21a.24.24,0,0,0-.09.11.43.43,0,0,1,0,0c.12.24.37.12.48.41a.85.85,0,0,1,0,.32v.08h0a.33.33,0,0,1-.06.1v0a.71.71,0,0,1-.29.18l-.06,0h-.06a2.93,2.93,0,0,1-.73.12h-.31a3.22,3.22,0,0,1-.76-.09h-.06a1.07,1.07,0,0,1-.49-.24v0a.09.09,0,0,1,0-.06.08.08,0,0,1,0,0h0v-.08A.71.71,0,0,1,24.2,29c.1-.14.27-.16.39-.27a.13.13,0,0,0,.05-.09c0-.05-.09-.12-.13-.15a1.11,1.11,0,0,1-.33-.32l-.09-.06v0a1.93,1.93,0,0,0,0-.24.29.29,0,0,0,0-.14c-.13-.14-.09-.37-.09-.55s0-.38,0-.57,0-.38,0-.56a2.34,2.34,0,0,0,0-.59v0h0c0-.09,0-.19,0-.28a2.61,2.61,0,0,0,0-.28v0l0-.12v0h0l0,0h0a.28.28,0,0,0,0-.1.29.29,0,0,1,0-.09v-.18l.16-2.83s-.06,0-.07-.07a.2.2,0,0,1,0-.21.37.37,0,0,1,.31,0,1.72,1.72,0,0,0,.45,0s0,0,0,0S25,21,25,21a.4.4,0,0,1,0-.15.34.34,0,0,1,.56-.09.27.27,0,0,1,.1.13h.05a1.23,1.23,0,0,1,.54.08.14.14,0,0,1,.09.11v0l0-.05h0A.67.67,0,0,1,26.92,21.09Z"/><path class="cls-21" d="M26.65,24.26v0h.14v.15c.05,0,0,0,0-.15h.07l-.15-2.7-.11,0a.2.2,0,0,0,0-.11.3.3,0,0,0,0,.11h-.15v2.72Z"/><path class="cls-22" d="M25.24,21.71h-.13c0,.12,0,1.13,0,1.36s0,.47,0,.68,0,.24,0,.33l0,.3h0v.3l.15,0s.06,0,.13,0a2.21,2.21,0,0,0,0-.58v-.45c0-.09,0-.08.05-.11h0l0,0h.08a.55.55,0,0,1,.34.1,5.21,5.21,0,0,0,0,1.12c.12,0,.07,0,.19,0v-.32c-.05-.06,0-.22,0-.31,0-.47,0-1.17,0-1.66,0-.21,0-.47,0-.67a1,1,0,0,0-.25,0l-.06,0h-.09l0-.06c0,.09-.06.08-.16.07A.68.68,0,0,1,25.24,21.71Z"/><path class="cls-23" d="M26.89,29.58H26.8a.2.2,0,0,1,0-.17c0-.07.05-.08.11-.11v.27a.24.24,0,0,0,.05-.1v0h0a.62.62,0,0,0,0-.28c-.09-.25-.32-.12-.47-.4s.09-.24.35-.47c.05-.05.14-.12.15-.19a.22.22,0,0,0,0-.16c-.05,0,0,0-.08,0h0l0,0,.14,0v.15a2.9,2.9,0,0,1-.76.23.42.42,0,0,1,0-.23l-.14,0c0,.13,0,.12,0,.26l-.08,0a.39.39,0,0,1,0,.2c-.07.17-.09.15-.05.18H26c.08,0,.06,0,.13,0v.12c-.05,0,0,0,0,.08l0,.11a.39.39,0,0,1-.12.17.61.61,0,0,1-.47.14.55.55,0,0,1-.29-.08l0,0a.57.57,0,0,1-.21-.54c.16,0,.16,0,.2-.05s-.06,0-.07-.08,0-.18-.07-.22-.06,0-.09-.06h-.05a1.89,1.89,0,0,1-.21-.09v-.18l-.07,0h0l-.22-.09c0-.06.05-.16-.06-.16s0,0,0,.09a.3.3,0,0,0,0,.21s0,0,0,.08.23.25.31.31.25.23.09.38-.3.14-.38.25a.7.7,0,0,0-.07.35h0a.16.16,0,0,0,0,.1.1.1,0,0,0,0,.05.27.27,0,0,0,.12.05.19.19,0,0,0,0-.09c0-.06,0-.06,0-.11a1.56,1.56,0,0,1,.41.08l.43.06a1.14,1.14,0,0,0,.27,0h.31l.3,0c.26,0,.14.06.19.2s.13,0,.22,0h.09A.54.54,0,0,0,26.89,29.58Z"/><path class="cls-22" d="M26.48,23.76a4,4,0,0,0,0-.49c0-.17,0-.35,0-.51l0-1c-.07,0,0-.06-.1-.09s-.09,0-.14,0c0,.26,0,.53,0,.79v.79c0,.51,0,1.07,0,1.59a.36.36,0,0,0,.24-.11c.1-.08.07-.14.06-.29S26.46,23.9,26.48,23.76Z"/><path class="cls-24" d="M24.77,28.06v0h-.06c-.06-.06-.05,0-.06-.13a.7.7,0,0,0,0-.14c0-.11,0-.24,0-.36v-.06a2.58,2.58,0,0,1,.29,0c.1,0,.17,0,.18.11l0,.58c.3.09.34,0,.33.28a.93.93,0,0,1-.41,0l0,0h.05l.07,0c.07,0,0,.05.08.11s.21.21.38.08.07-.1.11-.24,0-.1,0-.18a.69.69,0,0,1,.34-.06l.14,0h0v0H26c-.06-.2.05-.08.05-.31a.8.8,0,0,1,0-.39h-.2c0,.1-.17-.07-.17.16v.1a2.8,2.8,0,0,1,0,.36c0,.23-.2.11-.2.11a3,3,0,0,1,0-.68c-.08,0-.1,0-.16,0s-.1,0-.14,0a1.51,1.51,0,0,1-.3,0,2,2,0,0,0-.28,0,.25.25,0,0,0-.17,0c0,.11,0,.23,0,.34s0,.18.06.29A.58.58,0,0,0,24.77,28.06Z"/><path class="cls-22" d="M24.75,21.71c-.1.12-.07.53-.07.73s0,.51,0,.75c0,.51,0,1-.05,1.52,0,.08.05.08.11.11a.43.43,0,0,0,.16.05c0-.14,0-.29,0-.42a2.8,2.8,0,0,1,0-.4h0c0-.1,0-.45,0-.59l0-1.16c0-.16,0-.46,0-.59A.54.54,0,0,0,24.75,21.71Z"/><path class="cls-25" d="M26.07,24.89c0,.07,0,0,0,.09s0,0-.08.07l0,0,0,0c.05,0,0,.2,0,.3s0,.25,0,.38H26a.15.15,0,0,0,0,.07h0c.05,0,.1,0,.15,0V25.2c0-.08,0-.11,0-.16s0,0,.06.2a6.6,6.6,0,0,1,0,.77c0,.17,0,.34,0,.52V27s0,0,0,0l0-.3V25.37l.11,0v1.39h0a.2.2,0,0,0,.11.09.36.36,0,0,1,.21,0v0l0,0h-.13c0-.25,0-.5,0-.75v-.58c0-.11,0-.09,0-.17-.12,0-.19.05-.31.06a1.6,1.6,0,0,1,0-.31h.11L26.5,25a.58.58,0,0,1,.14-.05c0-.08,0,0,0-.08l0-.06H27s-.13,0-.19,0h-.1c-.06,0,0,0-.07,0h-.08a5.71,5.71,0,0,1,0-.74v-.19h0v0c0,.14,0,.54,0,.7s0,.21-.06.29a.36.36,0,0,1-.24.11c0-.52,0-1.08,0-1.59v-.79c0-.26,0-.53,0-.79,0,0,.1,0,.14,0s0,0,.1.09-.07-.32,0-.41l.07,0v-.06l-.08,0a.28.28,0,0,1-.09-.07c-.05,0-.14,0-.19,0s0,0,.05.09,0,0,0,.09V22.9c0,.24,0,1.91,0,2Z"/><path class="cls-26" d="M25.84,25.39a1.7,1.7,0,0,1,0,.45l-.11,0c0-.34,0-.48.1-.47ZM24.67,25c-.07,0-.22,0-.16-.08a.09.09,0,0,1,.16.08Zm-.05-.26h0s0,0-.05,0,0,0,0,0a.31.31,0,0,1,0,.06.56.56,0,0,1-.39,0c.05.07.18,0,.26,0l0,.32h0a.86.86,0,0,1,0-.23,1.86,1.86,0,0,1,.46,0v2.29h0c0-.11,0-1,0-1.15V25.09c0-.1,0,0,0-.06s0,0,0,.16a1.21,1.21,0,0,0,0,.19l.13,0c0-.21,0-.27.06-.29h.12a.27.27,0,0,1,.13,0c0,.22,0,.22.05.3v1.19c.2,0,.15,0,.15-.4,0-.07,0-.21,0-.25s.14,0,.2-.07a1,1,0,0,0,0-.48l-.22,0,0-.29a1.09,1.09,0,0,1-.34-.06c0-.06.08,0,.19-.06a1.08,1.08,0,0,0,.21-.05v-.18c-.09,0-.11,0-.15-.06v0s0,0-.07,0h-.08c.09,0,.09,0,.09.09v.16a.22.22,0,0,1-.15,0,.16.16,0,0,1-.14-.05,1.33,1.33,0,0,1,0-.2l-.06,0c0,.11,0,.21-.1.21v-.06s0,0-.06.06a.3.3,0,0,1,0-.2V24h0a2.8,2.8,0,0,0,0,.4c0,.13,0,.28,0,.42a.43.43,0,0,1-.16-.05C24.67,24.79,24.64,24.79,24.62,24.71Z"/><path class="cls-23" d="M25.52,26.58s0,0,0,0a1.17,1.17,0,0,1,.5.06,5.41,5.41,0,0,1,0-.81.15.15,0,0,1,0-.07h.12c0-.13,0-.26,0-.38s0-.26,0-.3l0,0,0,0c.07,0,0,0,.08-.07s0,0,0-.09a.41.41,0,0,0,0-.19c-.12,0-.07,0-.19,0H25.8l-.08,0-.17,0s.06,0,.15.06v.18a1.08,1.08,0,0,1-.21.05c-.11,0-.16,0-.19.06a1.09,1.09,0,0,0,.34.06l0,.29.22,0a1,1,0,0,1,0,.48c-.06,0-.17,0-.2.07s0,.18,0,.25C25.67,26.62,25.72,26.57,25.52,26.58Z"/><path class="cls-23" d="M25.78,21.71h-.1a.78.78,0,0,1,0-.34h.08a.69.69,0,0,1,0,.35Zm-.2-.28a.26.26,0,0,1-.22-.07.41.41,0,0,1,.22,0v.07Zm-.43-.53c-.06.15,0,.24-.12.34,0,1.05,0,2.13,0,3.17h0l0-.3c0-.09,0-.22,0-.33s0-.46,0-.68,0-1.24,0-1.36h.13l0,0h-.06v-.21a2.14,2.14,0,0,1,.44.08v.16h-.33a.68.68,0,0,0,.21,0c.1,0,.12,0,.16-.07l0,.06h.09l.06,0a1,1,0,0,1,.25,0c0,.2,0,.46,0,.67,0,.49,0,1.19,0,1.66,0,.09,0,.25,0,.31l0-2.9s0,0-.08,0,0,.13,0,.18,0-.19-.07-.38a.45.45,0,0,0,.12-.06,2,2,0,0,1-.49,0s0,0,0,0l0,0,0,0a.16.16,0,0,1,.11-.05l0,0h-.11c0,.07,0,.1-.07.15s-.14,0-.21,0v-.09c.06,0,.1,0,.16-.05a.15.15,0,0,0,0-.11h-.06a.44.44,0,0,1-.15,0l0-.17C25.21,20.84,25.21,20.86,25.15,20.9Z"/><path class="cls-25" d="M25,28.35h-.15c0,.05,0,0,.09.06s0,.12.07.22,0,0,.07.08,0,0-.2.05a.57.57,0,0,0,.21.54l0,0a.55.55,0,0,0,.29.08.61.61,0,0,0,.47-.14A.39.39,0,0,0,26,29.1l0-.11c0-.07,0,0,0-.08v-.12c-.07,0-.05,0-.13,0l0,0A.24.24,0,0,1,26,29a.5.5,0,0,1-.82.13.36.36,0,0,1-.1-.14.47.47,0,0,1,0-.16v-.05h.86s0,0,0,0,0,0,.05-.18a.39.39,0,0,0,0-.2l.08,0c0-.14,0-.13,0-.26a.69.69,0,0,0-.34.06c0,.08,0,.09,0,.18s.06.1-.11.24-.37-.06-.38-.08,0-.09-.08-.11l-.07,0h-.05Z"/><path class="cls-27" d="M24.48,25.23a.2.2,0,0,0,.09.06h0c.11,0,.08.12.08.33v1.2s0,0-.06,0,0,0,0,0h0s0,0,0-.05,0-.25,0-.34V25.35h.16a8.82,8.82,0,0,1,0,1.26.14.14,0,0,1-.05.13h.06V27c0,.11,0,.09-.33,0-.11,0-.24,0-.28-.13l0,0,0,0c-.07-.06-.05-.12-.05-.24a3.7,3.7,0,0,0,0-.82l-.06.94c0,.11,0,.25-.06.28v-.6a4.69,4.69,0,0,0-.08,1,.6.6,0,0,0,.06.29c.05,0,0,0,.09,0,0-.14,0-.17,0-.36s0,0,0-.11-.08-.08,0-.11a.22.22,0,0,1,.16,0,1.83,1.83,0,0,0,.33.11l-.05,0c0-.05,0,0,0-.06s0,0,0-.07l.2,0v.16l-.17,0c.06.06.15,0,.24.08V25a1.86,1.86,0,0,0-.46,0A.86.86,0,0,0,24.48,25.23Z"/><path class="cls-21" d="M25.65,21.1h0l0,0a.74.74,0,0,1,.34.07c0,.05,0,0,0,.05a.45.45,0,0,1-.12.06c0,.19,0,.38.07.38s0-.13,0-.18,0,0,.08,0l0,2.9v.32a.41.41,0,0,1,0,.19h.07c0-.07,0-1.74,0-2V21.39c0-.05,0-.05,0-.09s0,0-.05-.09.14,0,.19,0h.15c-.27,0-.07-.08-.19-.15a1.38,1.38,0,0,0-.5-.07C25.75,21.09,25.77,21.1,25.65,21.1Z"/><path class="cls-21" d="M24.36,22.37s0,0,0,0a.59.59,0,0,0,0-.23c0-.06,0-.16,0-.24,0-.82-.05-.38-.07-.59,0,0,.16-.05.2,0s0,.05.08.11h0c-.05.59-.08,1.24-.08,1.84l0-.06v-.42c0-.15,0-.3,0-.46a4.15,4.15,0,0,1,.06-.89h.08c0-.07,0,0,.23-.05l0,.27c0-.05,0-.14,0-.2h-.07a.41.41,0,0,0,0,.19c0,.12,0,0,.11.11s0,.43,0,.59l0,1.16c0,.14,0,.49,0,.59v.69a.3.3,0,0,0,0,.2s0,0,.06-.06,0-.19,0-.23v-.23c0-1,0-2.12,0-3.17a1.6,1.6,0,0,1-.49,0c-.07,0-.19,0-.23,0s0,.07,0,.1.06,0,.08.06a3.69,3.69,0,0,1,0,.47c0,.07,0,.18,0,.24a.25.25,0,0,1,0,.12A.66.66,0,0,0,24.36,22.37Z"/><path class="cls-22" d="M25.37,26.89a.22.22,0,0,1-.14,0c-.06,0-.06,0-.06-.1a2.92,2.92,0,0,1,.6,0v.07a.47.47,0,0,1-.4,0Zm0-.24h.11v.1h-.08s0-.05,0-.1Zm-.16,0h-.06l-.11,0v.43l.25,0c.26,0,.58,0,.83,0v-.44s0,0-.05,0H26a1.17,1.17,0,0,0-.5-.06h0Z"/><path class="cls-21" d="M24.22,24.2a1.07,1.07,0,0,0,0,.25c0,.1,0,0,0,.26l0,0h0l0,0h.35s0,0,0,0,0,0,.05,0a.25.25,0,0,1-.17,0,2.59,2.59,0,0,1,.05-.56,2.67,2.67,0,0,0,.06-.56v.05a.17.17,0,0,1,0,.07.1.1,0,0,1,0,.08c-.05-.32.1-2.28,0-2.39s0,0,0,.05h-.1l-.15,2.75Z"/><path class="cls-28" d="M24.55,23.21v.38a2.67,2.67,0,0,1-.06.56,2.59,2.59,0,0,0-.05.56.25.25,0,0,0,.17,0h0c.08-.49,0-1,.05-1.52,0-.24,0-.51,0-.75s0-.61.07-.73,0,0,0-.07a.31.31,0,0,0,0-.25h-.08a4.15,4.15,0,0,0-.06.89c0,.16,0,.31,0,.46v.42Z"/><path class="cls-27" d="M26.47,21.22h-.15a.28.28,0,0,0,.09.07l.08,0v.06a5.61,5.61,0,0,0,0,.71c0,.11,0,.24,0,.34s0,.25,0,.37a2.09,2.09,0,0,0,0,.36h0v-.87a3.47,3.47,0,0,1,0-.86,9.82,9.82,0,0,1,.06,1.14c0,.24,0,.61,0,.83v.23c0,.05,0,0,0,.06s0-1.08,0-1.36c0-.13,0-.37,0-.47a2.62,2.62,0,0,1,0-.28c0-.1.08-.11.16-.14.26-.09.11-.26,0-.27a.59.59,0,0,0-.23,0A.41.41,0,0,1,26.47,21.22Z"/><path class="cls-21" d="M26.66,25.24l0,0s0,0,0,0l0-.29s0,.82,0,1,0,.32,0,.48.05.37,0,.44,0,0,0,0h0v-.77c0-.05,0-.08,0-.11a6.73,6.73,0,0,1,.06.72c0,.07,0,.19,0,.22a8.54,8.54,0,0,0,0-.9,5.68,5.68,0,0,1,.09.88c0,.07,0,.25,0,.3C27.1,27,27,26.37,27,26a7.41,7.41,0,0,1,0-1.14h-.26c0,.07,0,.13,0,.19A.37.37,0,0,1,26.66,25.24Z"/><path class="cls-7" d="M24.36,22.37v.07c0,.59-.05,1.09,0,1.61a11.86,11.86,0,0,0,.13-2v-.61c0-.08,0,0,0-.05s-.08,2.07,0,2.39a.1.1,0,0,0,0-.08.17.17,0,0,0,0-.07v-.43c0-.6,0-1.25.08-1.84h0c-.12-.06,0-.08-.08-.11s-.17,0-.2,0c0,.21.11-.23.07.59,0,.08,0,.18,0,.24a.59.59,0,0,1,0,.23S24.37,22.35,24.36,22.37Z"/><path class="cls-28" d="M26.66,25.24s0,0-.07,0h0c0,.08,0,.06,0,.17V26c0,.25,0,.5,0,.75h.13l0,0v0h.08c.06-.07,0-.33,0-.44s0-.32,0-.48,0-.91,0-1l0,.29s0-.05,0,0Z"/><path class="cls-29" d="M25,27.31h0l.07,0a.93.93,0,0,1,.24,0c0-.17,0-.06-.06-.16h0l-.25,0v-.43l.11,0,0,0h0c0-.21,0-.42,0-.63a6.05,6.05,0,0,0,0-.61l-.12,0c0,.08,0,.33,0,.37l0-.18a2.59,2.59,0,0,0,0-.53s0,2.05,0,2.21Z"/><path class="cls-7" d="M25.39,23.51a.19.19,0,0,1,.15,0v.84a1.36,1.36,0,0,0,0,.29v0l.17,0,.08,0h.09a5.21,5.21,0,0,1,0-1.12.55.55,0,0,0-.34-.1h-.08l0,0Z"/><path class="cls-30" d="M26.43,21.78l0,1c0,.16,0,.34,0,.51a4,4,0,0,1,0,.49v0h0V24a5.71,5.71,0,0,0,0,.74h.08c.05,0,0,0,.05,0v-.42c0-.23-.07-.47-.09-.7a4,4,0,0,1,0-.77c0-.12,0-.24,0-.37s0-.23,0-.34a5.61,5.61,0,0,1,0-.71l-.07,0C26.36,21.46,26.41,21.68,26.43,21.78Z"/><path class="cls-7" d="M26.23,27v.08c0,.19,0,.16,0,.22h.13l.13,0h0l0,0c.07,0,.17,0,.33-.06a.32.32,0,0,1,.14,0c0-.12,0,0,0-.11s0-.06,0-.11a.13.13,0,0,0-.05-.09s0,0,0,0l-.05,0s0,0,0,0h-.08a.36.36,0,0,0-.21,0,.2.2,0,0,1-.11-.09l-.07,0,0,.3S26.25,27,26.23,27Z"/><path class="cls-29" d="M24.7,29.8h0a3.63,3.63,0,0,0,.8.1h.31a3,3,0,0,0,.77-.14,4.17,4.17,0,0,1-.66.1c0-.16.06-.23-.12-.27h-.28a1.14,1.14,0,0,1-.27,0h-.4C24.84,29.76,24.92,29.81,24.7,29.8Z"/><path class="cls-5" d="M25.19,29.84c0-.24,0-.22.13-.22s.1,0,.14.06a.41.41,0,0,1,0,.16A1.4,1.4,0,0,1,25.19,29.84Z"/><path class="cls-5" d="M24.57,25.29a.2.2,0,0,1-.09-.06h-.06l0,.36a2.41,2.41,0,0,1,0,.38,4.59,4.59,0,0,0,0,.73h.07c0,.05,0,.05,0,.07s0,0,0-.05,0,0,0,0,0,0,.09,0Z"/><path class="cls-29" d="M24.13,25.44s0,0,0,0a1.9,1.9,0,0,0,.09.53c0-.1,0-.23,0-.34s0-.08,0-.14v-.18s0,0,0,0l0,.34c0,.13,0,.26,0,.38s-.05.69,0,.82,0,0,.07,0,.08,0,.15,0l0,0V25.29h0v1.44c-.07,0-.05,0-.09,0s0,0,0,0,0,0,0,.05,0,0,0-.07h-.07a4.59,4.59,0,0,1,0-.73,2.41,2.41,0,0,0,0-.38l0-.36h0l0-.32c-.08,0-.21,0-.26,0h0C24.16,25,24.14,25.31,24.13,25.44Z"/><path class="cls-21" d="M24.13,25.44a7.8,7.8,0,0,1-.05,1.17c0,.18,0,.38,0,.58s-.05.37.06.48h0a.6.6,0,0,1-.06-.29,4.69,4.69,0,0,1,.08-1V27c.08,0,.06-.17.06-.28l.06-.94a3.7,3.7,0,0,1,0,.82c0,.12,0,.18.05.24s0,0,0,0,0,0,0,0,0,0-.07,0,0-.66,0-.82,0-.25,0-.38l0-.34s0,0,0,0v.18c0,.06,0,.09,0,.14s0,.24,0,.34a1.9,1.9,0,0,1-.09-.53C24.14,25.45,24.16,25.42,24.13,25.44Z"/><path class="cls-29" d="M25,28.33v-.22a.25.25,0,0,1,.16,0c0,.16,0,.22-.16.18Zm-.39-.92,0,0,.24,0a2,2,0,0,1,0,.49s0,0,.07.06l0,.1h-.12v0h0c.17,0,.1.08.12.23s0,0,.08.05h0a.93.93,0,0,0,.41,0c0-.26,0-.19-.33-.28l0-.58c0-.1-.08-.09-.18-.11a2.58,2.58,0,0,0-.29,0Z"/><path class="cls-31" d="M24.74,26.81l.08-.07a.14.14,0,0,0,.05-.13,8.82,8.82,0,0,0,0-1.26h-.16v1.12C24.71,26.56,24.68,26.76,24.74,26.81Z"/><path class="cls-32" d="M25.39,23.51c-.06,0-.05,0-.05.11v.45a2.21,2.21,0,0,1,0,.58c-.07,0-.09,0-.13,0l.09,0h.19c.07,0,.05,0,.07,0a1.36,1.36,0,0,1,0-.29v-.84A.19.19,0,0,0,25.39,23.51Z"/><path class="cls-29" d="M26,25.85h.1a3.93,3.93,0,0,1,0,.76h.05a1.61,1.61,0,0,1,0,.38c0,.09,0,.3.07.31s0-.08,0-.13,0,0,0,0v-.59c0-.18,0-.35,0-.52a6.6,6.6,0,0,0,0-.77c0-.16,0-.18-.06-.2s0,.08,0,.16v.63C26.09,25.84,26,25.82,26,25.85Z"/><path class="cls-25" d="M24.13,27.68a1.49,1.49,0,0,1,0,.19v.23l.08,0c0-.06,0,0,0-.08a.3.3,0,0,1,0-.21q0-.08,0-.09c.11,0,.06.1.06.16l.22.09h0l.07,0v.18a1.89,1.89,0,0,0,.21.09h0a.51.51,0,0,1,0-.13c0-.07,0-.1,0-.14h0a.58.58,0,0,1-.28-.09c0-.11,0-.18-.06-.29s0-.23,0-.34a.25.25,0,0,1,.17,0,.72.72,0,0,0-.21,0l-.2,0c0,.1,0,0,0,.11s0,.22,0,.36C24.15,27.7,24.18,27.69,24.13,27.68Z"/><path class="cls-33" d="M25.35,29.15a.36.36,0,0,1-.19-.33c.05,0,.21,0,.27,0s.23,0,.39,0,.07,0,.06.06a.39.39,0,0,1-.53.27Zm.63-.38h-.09s0,0,0,0H25v.05a.47.47,0,0,0,0,.16.36.36,0,0,0,.1.14A.5.5,0,0,0,26,29a.24.24,0,0,0,0-.22Z"/><path class="cls-27" d="M26.77,26.85l.05,0s0,0,0,0a.13.13,0,0,1,.05.09c0,.05,0,.05,0,.11s0,0,0,.11,0,.32,0,.44h0s.05,0,.09-.06,0-.29,0-.39,0-.23,0-.3A5.68,5.68,0,0,0,27,26a8.54,8.54,0,0,1,0,.9c-.06,0,0-.15,0-.22a6.73,6.73,0,0,0-.06-.72s0,.06,0,.11v.77Z"/><path class="cls-29" d="M26.13,27.36h0a.8.8,0,0,0,0,.39c0,.23-.11.11-.05.31h.28c-.06,0-.07,0-.13,0s0-.08,0-.15a4,4,0,0,0,0-.48.26.26,0,0,1,.27-.05,1.25,1.25,0,0,1,0,.34c0,.13-.06.12-.06.29h.07c0-.09,0-.1.05-.16s.05,0,.07-.14c.07-.55-.13-.31-.29-.37A.63.63,0,0,1,26.13,27.36Z"/><path class="cls-34" d="M26.28,28.06a.39.39,0,0,1,.14,0c0-.17,0-.16.06-.29a1.25,1.25,0,0,0,0-.34.26.26,0,0,0-.27.05,4,4,0,0,1,0,.48c0,.07,0,0,0,.15S26.22,28,26.28,28.06Z"/><path class="cls-35" d="M25.18,27.38s.08,0,.14,0,.08,0,.16,0a3,3,0,0,0,0,.68s.2.12.2-.11a2.8,2.8,0,0,0,0-.36v-.1c0-.23.14-.06.17-.16Z"/><path class="cls-29" d="M26.65,24.28v.42s0,0-.05,0,0,0,.07,0h.1c.06,0,.15,0,.19,0v.09s0-.05,0-.09,0,0,0-.07a.9.9,0,0,0,0-.16l-.06.06a3.38,3.38,0,0,1,0-.45L26.8,23s0-.09,0-.11,0,.59,0,.78a2.51,2.51,0,0,1,0,.39,1.34,1.34,0,0,0,0,.2c0,.11,0,.14,0,.16v-.19a1.24,1.24,0,0,0,0-.16s0,0,0,0,.05-.19,0-.24,0,.3,0,.41Z"/><path class="cls-25" d="M26.45,27.31c.17,0,.27,0,.37,0v.33c0,.15,0,.14-.12.21V28a1.3,1.3,0,0,1-.43.11h-.06v0l.31-.05a2.34,2.34,0,0,0,.28-.09l0,0h0c.05,0,0,0,.08,0a.22.22,0,0,1,0,.16s0,0,0-.06v-.12a.46.46,0,0,1,0-.2c0-.06.06,0,.08-.15s-.06,0-.09.06h0c0-.12,0-.32,0-.44a.32.32,0,0,0-.14,0c-.16.05-.26,0-.33.06l0,0Z"/><path class="cls-24" d="M25.45,29c-.14-.06-.08-.21.21-.12,0,0,0,.1-.05.12s0,0,0,0Zm-.29-.14a.36.36,0,0,0,.19.33.39.39,0,0,0,.53-.27c0-.06,0-.05-.06-.06s-.19,0-.39,0S25.21,28.79,25.16,28.82Z"/><path class="cls-7" d="M24.19,27.24l.2,0a.72.72,0,0,1,.21,0,2,2,0,0,1,.28,0,1.51,1.51,0,0,0,.3,0h.95l.05,0a.14.14,0,0,0-.13-.06.38.38,0,0,0-.15,0l-.29,0a1.41,1.41,0,0,0-.29,0,1.26,1.26,0,0,0-.28,0H25c-.05,0,0,0,0,0h0c-.09-.09-.18,0-.24-.08h0a1.83,1.83,0,0,1-.33-.11.22.22,0,0,0-.16,0C24.11,27.16,24.12,27.2,24.19,27.24Z"/><path class="cls-21" d="M25.4,25.4h0c0,.21,0,.44,0,.65,0,.4.06.53-.13.52v-.73c-.06.07,0,.25,0,.37,0,.47-.1.38.21.37h0s0,0,0,0V25.39c-.09-.08,0-.08-.05-.3a.27.27,0,0,0-.13,0c.06.13,0,.18,0,.26s0,.06,0,.06Z"/><path class="cls-5" d="M24.61,27.41c0,.12,0,.25,0,.36a.7.7,0,0,1,0,.14c0,.12,0,.07.06.13h.18l0-.1s0,0-.07-.06a2,2,0,0,0,0-.49l-.24,0Z"/><path class="cls-21" d="M26.45,27.31l-.13,0c.16.06.36-.18.29.37,0,.1,0,.08-.07.14s0,.07-.05.16h-.07a.39.39,0,0,0-.14,0,1.3,1.3,0,0,0,.43-.11v-.12c.1-.07.12-.06.12-.21v-.33C26.72,27.26,26.62,27.31,26.45,27.31Z"/><path class="cls-26" d="M24.77,29.82c.14,0,.07-.08.09-.25h.4l-.43-.06a1.56,1.56,0,0,0-.41-.08s0,0,0,.11a.19.19,0,0,1,0,.09.32.32,0,0,1-.13-.06A1,1,0,0,0,24.77,29.82Z"/><path class="cls-36" d="M26.81,28a2.34,2.34,0,0,1-.28.09l-.31.05h0a.42.42,0,0,0,0,.23,2.9,2.9,0,0,0,.76-.23v-.15Z"/><path class="cls-37" d="M25,27.32s0,0,0,0h0l0,0c0-.16,0-2.18,0-2.21a2.59,2.59,0,0,1,0,.53l0,.18s0-.29,0-.37l.12,0a6.05,6.05,0,0,1,0,.61c0,.21,0,.42,0,.63h0l0,0h.06c0-.08,0-1.06,0-1.23.13,0,.1.08.1.18a1.22,1.22,0,0,0,0,.27l0,0v-.44l-.14,0a.44.44,0,0,1,0-.3c-.1,0,0,.08-.06.29l-.13,0a1.21,1.21,0,0,1,0-.19c0-.12,0-.17,0-.16s0,0,0,.06v1.08C24.94,26.35,24.92,27.21,25,27.32Z"/><polygon class="cls-28" points="26.29 26.71 26.36 26.75 26.39 26.74 26.39 25.35 26.29 25.37 26.29 26.71"/><path class="cls-21" d="M24.4,26.83a.12.12,0,0,1,.11,0,.2.2,0,0,1,.11,0c.09,0,0,0,.06,0v-1.2c0-.21,0-.3-.08-.33v1.48l0,0C24.48,26.81,24.46,26.77,24.4,26.83Z"/><path class="cls-34" d="M25.35,25.44v.39l0,0v.73c.19,0,.13-.12.13-.52,0-.21,0-.44,0-.65h-.06Z"/><path class="cls-26" d="M25.81,29.59c.18,0,.12.11.12.27a2.83,2.83,0,0,0,.54-.07h.06l.11,0c-.15,0-.24.05-.31,0s.07-.22-.19-.2l-.3,0Z"/><path class="cls-22" d="M24.82,26.74l-.08.07s0,0,0,.05h0s0,0,0,0a.2.2,0,0,0-.11,0,.12.12,0,0,0-.11,0s0,0,0,0,0,0,0,0l0,0,0,0c0,.09.17.11.28.13.34,0,.33.07.33,0v-.25Z"/><path class="cls-36" d="M26.37,25h-.11a1.6,1.6,0,0,0,0,.31c.12,0,.19-.06.31-.06h0a.41.41,0,0,0,.08-.32A1.87,1.87,0,0,0,26.37,25Z"/><path class="cls-25" d="M26.06,26.66c.06,0,0,0,.05,0v.44c-.25,0-.57,0-.83,0h0a1.56,1.56,0,0,1,.31,0l.06,0a.13.13,0,0,1,0,.05c0,.06,0,0,0,.06h0s0,0,0,0l.29,0a.38.38,0,0,1,.15,0,.14.14,0,0,1,.13.06l-.05,0a.63.63,0,0,0,.19,0h-.13c0-.06,0,0,0-.22,0,0,0,0,0,0s0,.08,0,.13-.08-.22-.07-.31a1.61,1.61,0,0,0,0-.38h-.05Z"/><path class="cls-28" d="M26,26.66h.07l0-.05a3.93,3.93,0,0,0,0-.76H26A5.41,5.41,0,0,0,26,26.66Z"/><path class="cls-25" d="M25.19,26.63l.29,0c-.31,0-.21.1-.21-.37,0-.12,0-.3,0-.37a1.22,1.22,0,0,1,0-.27c0-.1,0-.2-.1-.18C25.21,25.57,25.22,26.55,25.19,26.63Z"/><path class="cls-34" d="M25.24,21.71h.33v-.16a2.14,2.14,0,0,0-.44-.08v.21h.06Z"/><path class="cls-23" d="M26.37,25a1.87,1.87,0,0,1,.3-.05.41.41,0,0,1-.08.32c.05,0,.05,0,.07,0a.37.37,0,0,0,0-.15c0-.06,0-.12,0-.19H27v-.12h-.3l0,.06c0,.05,0,0,0,.08a.58.58,0,0,0-.14.05Z"/><path class="cls-21" d="M25,27.31a1.26,1.26,0,0,1,.28,0,1.41,1.41,0,0,1,.29,0s0,0,0,0h0s0,0,0-.06a.13.13,0,0,0,0-.05l-.06,0a1.56,1.56,0,0,0-.31,0c.1.1.06,0,.06.16a.93.93,0,0,0-.24,0Z"/><path class="cls-33" d="M25.48,21.25l-.12,0c0-.1,0-.11.12-.12v.1ZM25.42,21h.06a.15.15,0,0,1,0,.11c-.06.05-.1,0-.16.05v.09c.07,0,.13.07.21,0s0-.08.07-.15h.1l0,0c0-.1,0-.07,0-.12a.16.16,0,0,0-.09-.12h0s0,.05,0,.09A.07.07,0,0,1,25.42,21Z"/><path class="cls-23" d="M25.37,26.89v-.08c.08,0,.21,0,.22.08Zm0,0a.47.47,0,0,0,.4,0v-.07a2.92,2.92,0,0,0-.6,0c0,.08,0,.07.06.1A.22.22,0,0,0,25.37,26.89Z"/><path class="cls-22" d="M26,21.25s0,0,0-.05a.74.74,0,0,0-.34-.07.16.16,0,0,0-.11.05l0,0,0,0s0,0,0,0A2,2,0,0,0,26,21.25Z"/><path class="cls-21" d="M25.15,20.9c.06,0,.06-.06.14-.06l0,.17a.44.44,0,0,0,.15,0,.07.07,0,0,0,.06-.06s0-.06,0-.09h0C25.48,20.7,25.2,20.76,25.15,20.9Z"/><path class="cls-29" d="M25.84,25.39c-.15,0-.1.13-.1.47l.11,0A1.7,1.7,0,0,0,25.84,25.39Z"/><path class="cls-29" d="M25.35,25.44l0,0h0s0,0,0-.06,0-.13,0-.26h-.12a.44.44,0,0,0,0,.3l.14,0Z"/><path class="cls-38" d="M25.78,21.71a.69.69,0,0,0,0-.35h-.08a.78.78,0,0,0,0,.34Z"/><path class="cls-25" d="M24.75,21.39a.31.31,0,0,1,0,.25c0,.06,0,0,0,.07a.54.54,0,0,1,.22,0c-.08-.1-.09,0-.11-.11a.41.41,0,0,1,0-.19h.07c0,.06,0,.15,0,.2l0-.27C24.74,21.36,24.76,21.32,24.75,21.39Z"/><path class="cls-27" d="M24.15,24.85h0a.56.56,0,0,0,.39,0,.31.31,0,0,0,0-.06h-.35Z"/><path class="cls-29" d="M25.61,29s.05-.08.05-.12c-.29-.09-.35.06-.21.12h.12C25.62,29,25.59,29,25.61,29Z"/><path class="cls-29" d="M25.3,24.94h.05s0,0,0,0,0,0,0,0v-.18h-.18c0,.08,0,.15,0,.21h0C25.36,25,25.26,24.9,25.3,24.94Z"/><path class="cls-34" d="M25,28.33c.19,0,.17,0,.16-.18a.25.25,0,0,0-.16,0Z"/><path class="cls-26" d="M24.68,27.24h0l.17,0V27.1l-.2,0c0,.08,0,0,0,.07s0,0,0,.06Z"/><path class="cls-7" d="M26.91,29.31c-.06,0-.1,0-.11.11a.2.2,0,0,0,0,.17h.1Z"/><path class="cls-21" d="M26.47,21.22a.41.41,0,0,0,.19,0,.59.59,0,0,1,.23,0,.58.58,0,0,0-.38-.07A.56.56,0,0,0,26.47,21.22Z"/><path class="cls-27" d="M25,24.87v.06c.14,0,.1-.1.1-.21l.06,0h0l-.15,0v-.07S25,24.81,25,24.87Z"/><path class="cls-21" d="M24.85,28.34H25s0,0-.08-.05,0-.21-.12-.23c0,0,0,.07,0,.14A.51.51,0,0,0,24.85,28.34Z"/><path class="cls-39" d="M25.19,24.69h0a1.33,1.33,0,0,0,0,.2c.09,0,0,0,.11,0s.06,0,0,0h0c0-.06,0-.13,0-.21h.18v.18s0,0,0,0,0,0,0,0h.06a.34.34,0,0,0,0-.2c0-.09,0,0,0,0s0,0,0,0h-.12Z"/><path class="cls-31" d="M25.37,26.89h.23c0-.1-.14-.09-.22-.08Z"/><path class="cls-21" d="M25.35,24.93H25.3c-.08,0,0,0-.11,0a.16.16,0,0,0,.14.05.22.22,0,0,0,.15,0v-.16c0-.09,0-.09-.09-.09h0s0,0,0,0,0-.07,0,0a.34.34,0,0,1,0,.2Z"/><path class="cls-31" d="M24.67,25a.09.09,0,0,0-.16-.08C24.45,25,24.6,25,24.67,25Z"/><path class="cls-40" d="M25.36,21.36a.26.26,0,0,0,.22.07v-.07A.41.41,0,0,0,25.36,21.36Z"/><path class="cls-31" d="M25.48,21.25v-.1c-.09,0-.11,0-.12.12Z"/><path class="cls-25" d="M25.35,26.65c0,.05,0,.09,0,.1h.08v-.1Z"/></g><path class="cls-41" d="M5.77,3H34V21C33,27.13,27.72,34,19.88,37.47,12.05,34,6.79,27.13,5.77,21Z"/><path class="cls-4" d="M8.44,37.61c1.24.38,2.64.75,3.84,1.18a.12.12,0,0,1,.09.11L12.46,40a28.72,28.72,0,0,0,7.14.88,28.51,28.51,0,0,0,7.24-1l0-1h.08l3.79-1.34a.12.12,0,0,1,.16.07.14.14,0,0,1,0,.09h0l-.69,1.75.66,1.22a.12.12,0,0,1,0,.16h0l-2,.73v1.13a.12.12,0,0,1-.1.11,29.32,29.32,0,0,1-8.93,1.52,28.57,28.57,0,0,1-9-1.41.12.12,0,0,1-.08-.12l-.06-1L8.45,41a.12.12,0,0,1-.07-.18l.7-1.19-.79-1.88a.12.12,0,0,1,.06-.16Zm3.7,1.48-1.12.5c.39.12.79.23,1.19.33l-.07-.83Zm-1.36.68v1.75h0l.06,1.06A27.85,27.85,0,0,0,19.68,44a28.93,28.93,0,0,0,8.79-1.47c0-1,0-1.81,0-2.78l-.83.24h0a29.18,29.18,0,0,1-8,1.16,30.69,30.69,0,0,1-8.82-1.34Zm-.24,1.6V39.63a.15.15,0,0,1,.07-.13l1.29-.57-3.28-1,.71,1.7h0a.09.09,0,0,1,0,.1l-.66,1.11,1.87.54Zm16.54-1.53c.36-.09.71-.2,1.06-.3l-1.08-.47,0,.77Zm1.56-.26.06,1.61,1.82-.65-.61-1.14h0a.12.12,0,0,1,0-.1l.61-1.56-3.25,1.15,1.28.55A.18.18,0,0,1,28.64,39.58Z"/><path class="cls-4" d="M14.46,40.92l-.14.59-.07,0h0a.86.86,0,0,0,0-.15.51.51,0,0,0,0-.13.47.47,0,0,0-.05-.1L14.11,41,14,41l-.11,0h-.12l-.1,0-.08.07a.2.2,0,0,0,0,.08.08.08,0,0,0,0,.07.24.24,0,0,0,0,.08.76.76,0,0,0,.1.13l.2.19.18.16.1.11a.24.24,0,0,1,.06.09l0,.1a.41.41,0,0,1,0,.11.34.34,0,0,1,0,.1.34.34,0,0,1-.08.17.47.47,0,0,1-.15.13.48.48,0,0,1-.2.07.93.93,0,0,1-.23,0l-.07,0-.06,0-.06,0-.09-.06-.09,0-.05,0h0v0l0,0h0l-.07,0,.14-.59h.07V42s0,.09,0,.12a.41.41,0,0,0,.05.09l.08.09a.41.41,0,0,0,.11.07.34.34,0,0,0,.12,0,.33.33,0,0,0,.14,0,.2.2,0,0,0,.11,0,.22.22,0,0,0,.09-.07.36.36,0,0,0,0-.09.13.13,0,0,0,0-.06s0,0,0-.07l0-.06a.18.18,0,0,0-.05-.07l-.07-.08-.15-.14-.16-.15-.11-.11-.06-.1a.3.3,0,0,1,0-.1.3.3,0,0,1,0-.1.36.36,0,0,1,0-.1A.44.44,0,0,1,13.4,41a.44.44,0,0,1,.15-.12.55.55,0,0,1,.18-.06.74.74,0,0,1,.21,0l.14,0a1,1,0,0,1,.13.09l0,0,0,0h0l0,0s0,0,0,0h0l.07,0ZM15,42.66v.07a.14.14,0,0,0,0,.07l0,0,.06,0a.24.24,0,0,0,.14,0,.88.88,0,0,0,.17-.12h0l0-.11,0,0-.07,0-.05,0h0v-.05a.35.35,0,0,0,0-.06s0-.08,0-.14l.07-.38,0-.14a.22.22,0,0,0,0-.09.11.11,0,0,0,0-.08.18.18,0,0,0-.05-.07l-.11-.06-.14,0a.57.57,0,0,0-.18,0,.42.42,0,0,0-.16,0,.27.27,0,0,0-.1.08.24.24,0,0,0-.05.1.06.06,0,0,0,0,.06.09.09,0,0,0,0,0l0,0,0,0h.05l0,0,0,0s0,0,0-.06v-.07a.05.05,0,0,1,0,0,.08.08,0,0,1,0,0l.05,0H15a.14.14,0,0,1,.09,0,.12.12,0,0,1,.05.05.3.3,0,0,1,0,.1.42.42,0,0,1,0,.14v0l-.27.05-.18,0a.52.52,0,0,0-.13.06.22.22,0,0,0-.09.07.09.09,0,0,0,0,.06l0,.08a.24.24,0,0,0,0,.12.21.21,0,0,0,0,.11.34.34,0,0,0,.08.09l.11,0h.15l.09,0,.14-.07Zm0-.11a.47.47,0,0,1-.15.06.22.22,0,0,1-.11,0l-.05,0-.05-.05a.25.25,0,0,1,0-.07.11.11,0,0,1,0-.08.14.14,0,0,1,0-.07l0,0,.07,0,.09,0,.1,0,.15,0-.09.4Zm.49-.7.38-.1H16L16,42l.08-.08a.34.34,0,0,1,.11-.07l.1,0h.1a.38.38,0,0,1,.16.05.4.4,0,0,1,.13.13.5.5,0,0,1,.08.2.7.7,0,0,1,0,.25.77.77,0,0,1-.07.27.83.83,0,0,1-.16.21.54.54,0,0,1-.18.1.5.5,0,0,1-.21,0L16,43l-.08,0,0,0,0,0,0,.32a.34.34,0,0,0,0,.09v0s0,0,0,0l0,0,0,0,.08,0h0v.07l-.64-.08v-.07h.18l0,0a.43.43,0,0,0,0-.05s0-.06,0-.1l.14-1.08s0-.07,0-.09V42a0,0,0,0,0,0,0h0s0,0,0,0h-.08l0-.07Zm.4.27-.06.42c0,.05,0,.08,0,.11v.07a.19.19,0,0,0,0,.07l0,.06a.18.18,0,0,0,.07,0l.09,0a.14.14,0,0,0,.11,0l.09,0a.71.71,0,0,0,.1-.14,1.17,1.17,0,0,0,.05-.2.88.88,0,0,0,0-.23.48.48,0,0,0-.06-.18.6.6,0,0,0-.08-.08l-.09,0h-.06l-.06,0L16,42l-.09.08Zm1.13.25a1.55,1.55,0,0,0,0,.22.58.58,0,0,0,.08.18.4.4,0,0,0,.12.11.3.3,0,0,0,.16,0h.1l.09,0a.27.27,0,0,0,.08-.07l.08-.12v0l.05,0h0a.51.51,0,0,1-.07.17.53.53,0,0,1-.12.14.37.37,0,0,1-.16.09.49.49,0,0,1-.38,0A.37.37,0,0,1,17,43a.51.51,0,0,1-.1-.21,1,1,0,0,1,0-.25.66.66,0,0,1,.07-.26.69.69,0,0,1,.13-.2.72.72,0,0,1,.19-.11.53.53,0,0,1,.22,0,.48.48,0,0,1,.18.05.53.53,0,0,1,.14.11.38.38,0,0,1,.08.17.4.4,0,0,1,0,.19v0l-.81-.08Zm0-.1.51,0v-.08a.13.13,0,0,0,0-.06l0-.06a.12.12,0,0,0,0,0l-.06,0-.06,0H17.3a.19.19,0,0,0-.09,0,.24.24,0,0,0-.08.09,1,1,0,0,0,0,.1Zm1.3-.28v.21a1,1,0,0,1,.13-.15.23.23,0,0,1,.17,0h.06l.06,0s0,0,0,.05a.13.13,0,0,1,0,.06.09.09,0,0,1,0,.05l0,0,0,0h-.1l-.06,0,0,0h-.07l-.06.07a.35.35,0,0,0-.06.09l0,.55a.11.11,0,0,0,0,.08.13.13,0,0,0,0,.06l0,0,0,0,.05,0h.08v.07l-.62,0V43.1H18l0,0,0,0v0s0-.05,0-.08l0-.45a1,1,0,0,0,0-.16v-.08a0,0,0,0,0,0,0v0H18V42.1l.37-.12h.07Zm.68.52a1.36,1.36,0,0,0,0,.21.56.56,0,0,0,.09.17.33.33,0,0,0,.13.11.28.28,0,0,0,.15,0,.2.2,0,0,0,.11,0l.09,0a.3.3,0,0,0,.08-.08.67.67,0,0,0,.06-.12h0l.06,0h0a.49.49,0,0,1-.06.17l-.11.15a.39.39,0,0,1-.16.1.36.36,0,0,1-.18,0,.46.46,0,0,1-.2-.05.52.52,0,0,1-.17-.13.63.63,0,0,1-.1-.2,1,1,0,0,1,0-.25.67.67,0,0,1,.05-.26.46.46,0,0,1,.13-.2.36.36,0,0,1,.18-.12.51.51,0,0,1,.22,0l.18,0a.49.49,0,0,1,.14.11.32.32,0,0,1,.09.16.58.58,0,0,1,0,.19v0l-.81,0Zm0-.1.51,0a.19.19,0,0,0,0-.08s0-.05,0-.06l0-.06-.05,0-.06,0h-.15a.18.18,0,0,0-.09.06.22.22,0,0,0-.07.09.35.35,0,0,0,0,.11Zm2.49.19-.65,0-.1.26a.46.46,0,0,1,0,.09v.06a0,0,0,0,0,0,0l0,0H21v.07l-.57,0v-.07h0l.09,0s0,0,0,0h0a.35.35,0,0,0,.06-.09.48.48,0,0,0,.07-.16l.52-1.45h.06l.7,1.39a.76.76,0,0,0,.07.13.22.22,0,0,0,.07.07l.07,0h.1v.07l-.71,0V43.1h.1l0,0,0,0v0a.2.2,0,0,0,0-.07l-.05-.1-.11-.23Zm-.06-.11-.31-.63-.24.66.55,0Zm1.77-.67h0l-.42,0v.07H23L23,42a.05.05,0,0,1,0,0,.19.19,0,0,1,0,.08l.08.64-.07.08-.07.06-.06,0-.06,0h-.07a.09.09,0,0,1-.06,0s0,0-.05-.06a.44.44,0,0,1,0-.13l-.1-.78-.43,0V42h.13l0,0,0,0a.05.05,0,0,1,0,0,.13.13,0,0,1,0,.06l.06.52,0,.14a.62.62,0,0,0,0,.1.56.56,0,0,0,.05.08.16.16,0,0,0,.08.06.2.2,0,0,0,.08,0h.1l.09,0L23,43l.09-.09.09-.12,0,.23h.07l.35-.19,0-.07h0l0,0h-.08a0,0,0,0,1,0,0l0,0s0,0,0-.08a.63.63,0,0,1,0-.16l-.09-.7Zm1.17.88a.18.18,0,0,1-.05.07l-.07.06-.08.05-.1,0a.37.37,0,0,1-.18,0,.61.61,0,0,1-.18-.09.46.46,0,0,1-.14-.17.63.63,0,0,1-.08-.22,1,1,0,0,1,0-.24.75.75,0,0,1,.08-.24.6.6,0,0,1,.16-.19.63.63,0,0,1,.22-.09h.15l.1,0,0-.18q0-.09,0-.15l0-.08s0,0,0,0h-.1a.05.05,0,0,1,0,0h0l0-.06.33-.21h.08l.23,1.33c0,.06,0,.12,0,.16a.45.45,0,0,0,0,.08s0,0,0,0l0,0h.05l0,0,.05,0h0l0,.07-.33.2-.07,0,0-.15Zm0-.12-.1-.58a.13.13,0,0,0,0-.08l0-.06-.05,0-.06,0H24a.25.25,0,0,0-.09,0l-.08.08a.49.49,0,0,0-.06.17.83.83,0,0,0,0,.22,1.14,1.14,0,0,0,.07.22.49.49,0,0,0,.11.14.42.42,0,0,0,.12.08.3.3,0,0,0,.13,0,.27.27,0,0,0,.11,0,.24.24,0,0,0,.08-.09ZM25,42l.79-.17v0a.75.75,0,0,0-.08-.18.4.4,0,0,0-.13-.13.51.51,0,0,0-.17-.07h-.18a.67.67,0,0,0-.21.09.73.73,0,0,0-.14.16.62.62,0,0,0-.07.23.86.86,0,0,0,0,.27.69.69,0,0,0,.09.23.66.66,0,0,0,.16.17.52.52,0,0,0,.19.08.37.37,0,0,0,.21,0,.38.38,0,0,0,.17-.08.33.33,0,0,0,.12-.14.87.87,0,0,0,.07-.17.47.47,0,0,0,0-.17h0l-.07,0v0l0,.14a.2.2,0,0,1-.06.09.23.23,0,0,1-.07.07l-.1,0a.43.43,0,0,1-.16,0,.51.51,0,0,1-.15-.07.47.47,0,0,1-.13-.15A.76.76,0,0,1,25,42Zm0-.1v-.11a.31.31,0,0,1,.05-.1.27.27,0,0,1,.07-.08.2.2,0,0,1,.08,0h.13a.09.09,0,0,1,.06,0l.05,0,0,.05,0,.07Z"/><g class="cls-42"><rect class="cls-43" x="10.36" y="21.9" width="6.13" height="6.94"/></g><g class="cls-42"><path class="cls-3" d="M5.44,23.59H4.63c-.38,0-.73,0-1.07,0s-.68,0-1.05,0-.42,0-.65,0H1.34l-.21,0a.4.4,0,0,1,.18-.3l.26-.24c.14-.09,0,0,.19-.15s.42-.34.54-.46.24-.11.54.13c.11.08.12.13.16.15a1,1,0,0,0,.21.1c.1.05.15.14.24.21s.29.31.48.31.29-.25.53-.4c.07,0,.2-.09.31-.16l.09-.06.19-.13a1,1,0,0,1,.43-.19,8.21,8.21,0,0,1,0,1.11.49.49,0,0,0,0,.07Zm.39-6.34H5.75a.75.75,0,0,0-.15,0l-.29,0H4.85l-.49,0c-.12,0-.49,0-.65,0H3.47l-.22,0-.66,0c-.15,0-.53,0-.74,0s-.39,0-.53,0H.07a.85.85,0,0,0-.07.41c0,.42.06.8.06,1.21,0,.18,0,.34,0,.51a1.08,1.08,0,0,0,0,.18c0,.08,0,.1,0,.17A1,1,0,0,1,0,20c0,.18.11.1.09.26a1.8,1.8,0,0,0-.06.32v.73c0,.12,0,.22,0,.35v.27c0,.38.08.71.08,1.08a2.32,2.32,0,0,1-.06.38c0,.1.11.21.07.49s0,.13.23.13.17-.08.29-.08.22,0,.36,0h.66a1.29,1.29,0,0,1,.21.05,2.78,2.78,0,0,0,.51,0h.76c.47,0,1.1,0,1.5,0L6,24a2.45,2.45,0,0,0,0-.27v-.28c0-.18.08-.31.07-.48a1.4,1.4,0,0,1,0-.39v-.44c0-.15,0-.27,0-.41s0-.14,0-.21,0-.18,0-.18-.19.1-.25.18c-.39.48-.86.61-1,.77s-.07.15-.22.22-.15.14-.26.18-.09,0-.14.07-.15.09-.23,0l-.21-.19a4.83,4.83,0,0,1-.4-.38c-.08-.11-.18-.14-.28-.22l-.06-.08s0-.06,0-.09l.34-.28a.73.73,0,0,0,.09-.08c.07-.11.11-.06.17-.14s0-.07.15-.17l.08-.07A.55.55,0,0,1,3.79,21,.61.61,0,0,0,4,20.87a.46.46,0,0,0,.15-.32c-.17-.05-.28-.29-.39-.39S3.6,20.1,3.56,20A.2.2,0,0,0,3.5,20s0,0-.07-.06a1.35,1.35,0,0,1-.35-.32.07.07,0,0,1,0-.09.94.94,0,0,1,.38-.41c.22-.12.61-.58.75-.58s.52.44.62.54.18.07.26.13.1.13.2.19a2.06,2.06,0,0,1,.3.29l.1.09c.49.48.24-.37.29-.72s0-.2,0-.53,0-.41,0-.59,0-.08,0-.13a1.49,1.49,0,0,1,0-.43c0-.06,0-.09,0-.1Zm-3,4.09h0c-.14,0-.08.24-.26.28h0s-.07-.05-.1-.09a.76.76,0,0,0-.18-.18A2.06,2.06,0,0,1,2,21.07c-.11-.12-.4-.28-.3-.39s.07-.07.11-.11l.1-.12c.21-.3.32-.28.43-.42a.37.37,0,0,1,.24-.19c.18-.06.18,0,.29.08a5.9,5.9,0,0,1,.46.39c.22.21.37.1.13.46-.06.11-.12.1-.19.19a.24.24,0,0,1-.11.09c-.22.13-.09.24-.26.29ZM.63,18.49a1.2,1.2,0,0,0,0,.2V20c0,.08,0,.12,0,.19A5.81,5.81,0,0,0,.7,21a3.53,3.53,0,0,1,0,.8c0,.2.05.36.05.57,0,.56-.13.68.09.68s.09-.11.13-.17a.23.23,0,0,1,.16-.14c.1,0,.13,0,.2-.09a.8.8,0,0,1,.2-.23c.18-.15.3-.3.46-.42s.06-.1,0-.18a.23.23,0,0,0-.07-.07c-.16-.12-.19-.12-.24-.29s-.08-.09-.14-.13-.06-.1-.1-.18-.07-.06-.15-.11L1.21,21c-.05-.05-.18-.12-.18-.22s.23-.37.26-.38.07,0,.1-.06,0-.08.05-.11.06,0,.11-.05L1.74,20c.05,0,.16-.08.18-.13s0-.05.05-.11.28-.19.18-.31l0,0c-.1-.09-.24-.15-.38-.27s-.23-.16-.35-.29-.08-.07-.22-.19-.32-.4-.44-.43-.1.15-.1.26Zm2,.59a.84.84,0,0,1-.38-.21c-.13-.1,0-.09-.39-.35a4.32,4.32,0,0,1-.39-.34c-.12-.09-.14-.1-.14-.22s.19-.06.29-.08a2.89,2.89,0,0,1,.55,0,.36.36,0,0,0,.15,0,1,1,0,0,1,.3,0c.1,0,.15,0,.25,0,.31,0,.61,0,1,0a5.7,5.7,0,0,1,1.24,0l.17,0h.21a3.27,3.27,0,0,1,0,.35,3.73,3.73,0,0,0,0,.41c0,.12.06.07.06.28a.59.59,0,0,1-.36-.21c-.16-.15-.09-.16-.3-.27s-.63-.47-.69-.47-.19.19-.38.28-.11.07-.19.14a3,3,0,0,1-.32.18c-.09.06-.17.05-.21.13a.67.67,0,0,1-.22.28S2.72,19.08,2.64,19.08Z"/></g><path class="cls-44" d="M13.25,26c-.13,0-.17.3-.33.29s-.06-.06-.09-.09-.24-.21-.45-.44-.39-.28-.29-.39.12-.1.21-.23c.21-.31.37-.29.48-.43s.15-.18.24-.18.15,0,.25.09a3.57,3.57,0,0,1,.46.4c.22.2.37.09.14.46-.07.1-.13.09-.2.18a.28.28,0,0,1-.1.09C13.42,25.79,13.42,25.85,13.25,26Z"/><g class="cls-45"><rect class="cls-46" x="10.48" y="21.88" width="6.01" height="6.79"/></g><g class="cls-45"><path class="cls-3" d="M5.57,23.42H4.75l-1.07,0-1.05,0-.65,0H1.25a.45.45,0,0,1,.18-.31l.26-.24c.14-.08,0,0,.19-.15s.42-.33.55-.45c.26-.27.24-.11.54.13a1.9,1.9,0,0,1,.15.15s.15.06.21.1.16.14.24.21.29.31.49.31.28-.26.53-.4c.07-.05.19-.09.3-.16l.1-.06.19-.13a1,1,0,0,1,.42-.19,8.21,8.21,0,0,1,0,1.11l0,.07ZM6,17.07H5.72l-.28,0H5l-.49,0c-.13,0-.5,0-.66,0H3.38c-.13,0-.56,0-.67,0s-.52,0-.74,0-.38-.05-.53-.05H1.12l-.46,0H.2a.82.82,0,0,0-.08.41c0,.42.07.8.07,1.21,0,.17,0,.34,0,.51v.18c0,.08,0,.1,0,.17s0,.09,0,.17.12.1.09.26,0,.21,0,.31v.74c0,.12,0,.21,0,.35v.27c0,.38.07.7.07,1.08a3.69,3.69,0,0,1,0,.37c0,.11.1.21.07.5s0,.13.23.13.16-.09.29-.09.21.05.35.05h.66a.79.79,0,0,1,.22,0,2.69,2.69,0,0,0,.5,0l.12,0h.53l.12,0c.46,0,1.1,0,1.5,0l1.3,0c0-.09,0-.17,0-.26v-.28c0-.18.07-.32.07-.48a1.84,1.84,0,0,1,0-.39V22c0-.15,0-.27,0-.41a1.34,1.34,0,0,1,0-.21c0-.06,0-.18,0-.18a.37.37,0,0,0-.26.18c-.38.48-.86.61-1,.77s-.06.14-.21.22-.16.14-.26.18-.09,0-.15.07-.14.09-.23,0l-.2-.19a4.83,4.83,0,0,1-.4-.38,1.63,1.63,0,0,0-.29-.23L3,21.76a.36.36,0,0,0,0-.09l.35-.28a.6.6,0,0,0,.08-.08c.07-.11.11-.06.17-.14s0-.07.15-.17l.09-.07.08-.08a.8.8,0,0,0,.17-.15.46.46,0,0,0,.14-.33c-.17,0-.27-.29-.39-.38s-.11-.06-.15-.12l-.05-.07-.08-.06a1.53,1.53,0,0,1-.35-.32.07.07,0,0,1,0-.09,1,1,0,0,1,.38-.41c.23-.12.62-.58.75-.58s.53.44.62.54.18.07.26.13.1.13.2.19a1.38,1.38,0,0,1,.3.29.9.9,0,0,1,.1.09c.5.47.25-.37.3-.72s0-.21,0-.53,0-.41,0-.59,0-.08,0-.13a2.82,2.82,0,0,1-.05-.43c0-.06,0-.09,0-.11Zm-3,4.1H3c-.15,0-.09.24-.26.28h0c-.05,0-.06-.05-.09-.09a.76.76,0,0,0-.18-.18,2.16,2.16,0,0,1-.32-.3c-.11-.11-.39-.27-.3-.38a.57.57,0,0,1,.11-.11l.1-.12c.22-.31.32-.28.43-.43a.42.42,0,0,1,.24-.18c.18-.06.19,0,.3.08l.46.39c.21.21.36.1.13.46-.07.11-.13.1-.2.18s0,0-.1.1c-.23.13-.1.24-.27.29ZM.76,18.32a1,1,0,0,0,0,.19l0,1.27c0,.08,0,.12,0,.19a4.62,4.62,0,0,0,0,.84,4.14,4.14,0,0,1,0,.79c0,.21.05.37.05.58,0,.56-.14.68.08.68s.1-.11.13-.18a.26.26,0,0,1,.16-.13c.1,0,.14,0,.2-.09s0-.05.21-.23a5.63,5.63,0,0,1,.45-.42c.09-.07.06-.1,0-.18l-.07-.07c-.17-.13-.19-.12-.25-.29s-.08-.09-.13-.13a.35.35,0,0,1-.1-.18c-.05-.09-.08-.07-.16-.12l-.07-.05c-.05-.05-.19-.12-.19-.22s.24-.37.27-.38.06,0,.09-.07,0-.07.06-.1.06,0,.1-.05l.2-.14S2,19.75,2,19.7s0-.05.06-.11.27-.19.18-.32l0,0c-.09-.09-.23-.15-.37-.28a2.53,2.53,0,0,1-.35-.28c-.15-.18-.08-.08-.22-.2S1,18.09.86,18.06s-.1.15-.1.26Zm2,.59a.81.81,0,0,1-.37-.21c-.14-.1,0-.09-.4-.35-.16-.11-.24-.22-.39-.34s-.13-.1-.13-.22.19-.06.28-.08a3,3,0,0,1,.56,0l.15,0a1,1,0,0,1,.3,0c.1,0,.14,0,.24,0,.31,0,.61,0,1,0a5.78,5.78,0,0,1,1.25,0l.17,0h.2c0,.09,0,.24,0,.34s0,.19,0,.42.06.06.06.28c-.14,0-.25-.11-.37-.21s-.08-.16-.3-.27-.62-.47-.69-.47-.19.19-.38.28-.11.07-.18.14-.16.07-.32.18-.18.05-.22.12a.56.56,0,0,1-.22.29S2.84,18.91,2.76,18.91Z"/></g></g></g></svg>