<?xml version="1.0" encoding="UTF-8"?> <!-- Generator: Adobe Illustrator 21.1.0, SVG Export Plug-In . SVG Version: 6.00 Build 0) --> <svg xmlns="http://www.w3.org/2000/svg" xmlns:xlink="http://www.w3.org/1999/xlink" version="1.1" id="Layer_1" x="0px" y="0px" width="140px" height="66px" viewBox="0 0 632 300" xml:space="preserve"> <path fill="#006944" d="M316,0C141.44,0,0,67.13,0,150s141.44,150,316,150s316-67.13,316-150S490.5,0,316,0"></path> <path fill="#FFFFFF" d="M117.74,105.44h27.62V213.4h-27.62V105.44z M114.77,71.68c-0.35-9.28,6.89-17.09,16.17-17.43 c9.28-0.35,17.08,6.89,17.43,16.17s-6.89,17.09-16.17,17.43c-0.25,0.01-0.5,0.01-0.75,0.01c-8.9,0.31-16.36-6.64-16.67-15.54 C114.77,72.11,114.77,71.9,114.77,71.68 M163.62,105.44h22.82l2.72,12.07c10.09-8.87,22.86-14.1,36.28-14.85 c12.06-0.7,23.38,5.86,28.76,16.69c10.61-9.89,24.33-15.79,38.8-16.69c18.96,0,35.83,10.49,35.83,39.06v71.68h-27.18v-64.1 c0-12.64-2.53-22.82-16.43-22.82c-9.39,0.65-18.29,4.44-25.28,10.75c0.13,1.37,0.13,2.74,0,4.11v72.06h-27.43v-63.91 c0-12.64-2.09-23.07-15.99-23.07c-9.55,0.63-18.61,4.41-25.79,10.75v76.23h-27.18L163.62,105.44z M407.58,216.81 c-16.87,44.94-34.7,50.57-54.29,50.57c-8.33,0.05-16.58-1.65-24.21-4.99l6.83-21.43c4.93,2.82,10.5,4.32,16.18,4.36 c12.07,0,21.68-7.96,30.15-32.62l-48.6-107.46h29.01l31.98,76.23h0.44l25.79-76.23h27.87L407.58,216.81z M448.72,160.24 c-0.95-30.81,23.26-56.56,54.06-57.51c0.94-0.03,1.88-0.03,2.82-0.02c10.17-0.32,20.22,2.22,29.01,7.33v23.07 c-7.56-5.66-16.79-8.64-26.23-8.47c-20.1,0-31.98,15.04-31.98,34.89c0,22.12,12.07,34.26,30.59,34.26 c8.93-0.13,17.66-2.66,25.28-7.33l7.96,18.96c-11.05,7.01-23.89,10.65-36.97,10.49C467.68,215.68,448.72,191.53,448.72,160.24"></path> </svg> 