<?xml version="1.0" encoding="UTF-8"?> <!-- Generator: Adobe Illustrator 21.1.0, SVG Export Plug-In . SVG Version: 6.00 Build 0) --> <svg xmlns="http://www.w3.org/2000/svg" xmlns:xlink="http://www.w3.org/1999/xlink" version="1.1" id="Layer_1" x="0px" y="0px" width="99px" height="100px" viewBox="0 0 298 300" xml:space="preserve"> <path fill="#CAD400" d="M231.04,66.87C162.39-1.67,69.99-20.68,24.66,24.62C7.55,41.77-0.41,65.59,0.02,92.31 c0,44.5,23.41,97.42,66.91,140.86c7.75,7.72,15.96,14.95,24.6,21.65l20.68,14.46c59.59,37.48,125.26,41.99,161.13,6.13 c17.02-17.02,25.07-40.97,24.64-67.69c0-44.5-23.41-97.42-66.91-140.86"></path> <path fill="#FFFFFF" d="M56.41,107.41h20.9v82.24h-20.9V107.41z M54.15,81.67c-0.05-6.86,5.47-12.46,12.34-12.51 c0.14,0,0.29,0,0.43,0c6.88-0.4,12.78,4.84,13.18,11.72c0.4,6.87-4.85,12.77-11.72,13.17c-0.49,0.03-0.97,0.03-1.46,0 c-6.76,0.28-12.48-4.97-12.76-11.73c-0.01-0.2-0.01-0.4-0.01-0.61 M123.23,174.21c15.32,0,23.15-10.08,23.15-25.91 c0-17.57-9.75-25.91-24.56-25.91c-3.3,0-6.58,0.47-9.75,1.4v48.29c3.54,1.43,7.33,2.13,11.15,2.08 M91.39,110.6 c10.03-3.44,20.55-5.21,31.15-5.23c29.79,0,45.07,16.72,45.07,42.97c0,25.23-17.02,43.14-42.82,43.14 c-4.33-0.01-8.63-0.65-12.77-1.91v79.77l-20.73-14.46L91.39,110.6z M174.05,149.15c-0.71-23.49,17.76-43.1,41.25-43.81 c0.75-0.02,1.5-0.03,2.24-0.01c7.74-0.24,15.39,1.69,22.09,5.57v17.57c-5.77-4.3-12.81-6.56-20-6.42 c-15.32,0-24.34,11.49-24.34,26.63c0,17.02,9.24,26.08,23.32,26.08c6.77-0.12,13.38-2.04,19.15-5.57l6.09,14.25 c-8.43,5.34-18.24,8.12-28.22,8C188.82,191.44,174.05,173.01,174.05,149.15"></path> </svg> 