<?xml version="1.0" encoding="UTF-8"?> <!-- Generator: Adobe Illustrator 21.1.0, SVG Export Plug-In . SVG Version: 6.00 Build 0) --> <svg xmlns="http://www.w3.org/2000/svg" xmlns:xlink="http://www.w3.org/1999/xlink" version="1.1" id="Layer_1" x="0px" y="0px" width="140px" height="69px" viewBox="0 0 612 300" xml:space="preserve"> <path fill="#57C1E8" d="M343.22,29.96c-47.38-6.23-95.06-9.84-142.84-10.82h-0.43C59.38,19.38,4.69,81.88,0.23,135.32 c-4.77,61.15,53.04,136.66,191.17,158.55c109.19,17.24,201.32-1.96,273.75-57.05C553.29,170.3,594.03,65.43,611.96,0 c-56.89,53.75-160.33,42.13-268.61,29.96"></path> <path fill="#FFFFFF" d="M120.55,107.8h26.12v102.91h-26.06L120.55,107.8z M117.68,75.58c-0.34-8.84,6.56-16.28,15.4-16.62 c8.85-0.34,16.29,6.56,16.63,15.4c0.34,8.84-6.56,16.28-15.4,16.62c-0.24,0.01-0.48,0.01-0.72,0.01c-8.47,0.3-15.59-6.32-15.9-14.79 C117.68,75.99,117.68,75.79,117.68,75.58 M225.89,148.22c0-11.74-6.12-23.3-19.82-23.24c-13.7,0.06-19.82,10.88-20,23.3 L225.89,148.22z M186.32,166.57c0.67,15.9,12.23,26.11,29.18,26.11c9.09,0,18.02-2.4,25.88-6.97l7.83,17.85 c-10.99,6.5-23.57,9.83-36.34,9.6c-37.44,0-52.67-25.62-52.73-53.5c0-30.88,16.94-54.18,46.31-54.24 c29.36-0.06,45.7,20.85,45.76,55.03v6.11L186.32,166.57z M324.81,214.02c-16.09,42.8-33.03,48.31-51.75,48.37 c-7.94,0.04-15.79-1.58-23.06-4.77l6.48-20.48c4.72,2.67,10.05,4.08,15.48,4.1c11.56,0,20.68-7.64,28.69-31.12l-46.49-102.42h27.47 l30.59,72.64h0.43l24.47-72.7h26.79L324.81,214.02z M363.72,159.84c-1.02-29.36,21.96-53.99,51.34-55.01 c1.01-0.04,2.03-0.04,3.04-0.02c9.68-0.33,19.26,2.07,27.65,6.91v21.95c-7.22-5.38-16.02-8.19-25.02-8.01 c-19.15,0-30.59,14.37-30.59,33.33c0,21.1,11.56,32.65,29.18,32.59c8.45-0.16,16.71-2.56,23.92-6.97l7.65,17.85 c-10.53,6.68-22.77,10.16-35.24,10.03c-33.52,0-52.06-22.99-52.06-52.83"></path> </svg> 