<svg xmlns="http://www.w3.org/2000/svg" xmlns:xlink="http://www.w3.org/1999/xlink" viewBox="0 0 53.75 65.47"><defs><style>.cls-1,.cls-17,.cls-2,.cls-40,.cls-9{fill:none;}.cls-1{clip-rule:evenodd;}.cls-10,.cls-11,.cls-13,.cls-14,.cls-15,.cls-16,.cls-17,.cls-18,.cls-19,.cls-2,.cls-20,.cls-21,.cls-22,.cls-23,.cls-24,.cls-25,.cls-26,.cls-27,.cls-28,.cls-29,.cls-3,.cls-30,.cls-31,.cls-32,.cls-33,.cls-34,.cls-35,.cls-36,.cls-37,.cls-38,.cls-39,.cls-4,.cls-40,.cls-43,.cls-44,.cls-5,.cls-6,.cls-7,.cls-9{fill-rule:evenodd;}.cls-3,.cls-42{fill:#231f20;}.cls-4{fill:#fff;}.cls-5{fill:url(#GradientFill_1);}.cls-6{fill:#83441c;}.cls-7{fill:#98bac9;stroke-width:0.42px;}.cls-40,.cls-7,.cls-9{stroke:#171b1e;}.cls-17,.cls-18,.cls-40,.cls-7{stroke-linecap:round;stroke-linejoin:round;}.cls-8{clip-path:url(#clip-path);}.cls-9{stroke-miterlimit:22.93;stroke-width:0.14px;}.cls-10{fill:#f8c534;}.cls-11{fill:url(#GradientFill_2);}.cls-12{clip-path:url(#clip-path-2);}.cls-13{fill:#5f9b47;}.cls-14{fill:#1a723a;}.cls-15{fill:#628d49;}.cls-16{fill:#5c9747;}.cls-17,.cls-18{stroke:#231f20;}.cls-17{stroke-width:0.27px;}.cls-18,.cls-28,.cls-46{fill:#f1dfb9;}.cls-18{stroke-width:0.27px;}.cls-19{fill:#9d0b0f;}.cls-20{fill:#e1bd87;}.cls-21{fill:#300203;}.cls-22{fill:#a56d26;}.cls-23{fill:#ecc087;}.cls-24{fill:#ab7e48;}.cls-25{fill:#d7a045;}.cls-26{fill:#ad7029;}.cls-27{fill:#fdf3f2;}.cls-29{fill:#f5f9f1;}.cls-30{fill:#f5d7b1;}.cls-31{fill:#648a46;}.cls-32{fill:#d7a04b;}.cls-33{fill:#fffdf3;}.cls-34{fill:#d8a844;}.cls-35{fill:#7a1214;}.cls-36{fill:#e0c687;}.cls-37{fill:#e2bc7f;}.cls-38{fill:#ecc88e;}.cls-39{fill:#e6d0aa;}.cls-40{stroke-width:0.42px;}.cls-41{clip-path:url(#clip-path-3);}.cls-43{fill:#a11d20;}.cls-44{fill:#f27235;}.cls-45{clip-path:url(#clip-path-5);}</style><linearGradient id="GradientFill_1" x1="12.45" y1="60.43" x2="45.54" y2="60.43" gradientUnits="userSpaceOnUse"><stop offset="0" stop-color="#a46725"/><stop offset="0.08" stop-color="#ab7e48"/><stop offset="0.16" stop-color="#ecc087"/><stop offset="0.24" stop-color="#f1dfb9"/><stop offset="0.31" stop-color="#f7f4ea"/><stop offset="0.37" stop-color="#f1dfb9"/><stop offset="0.43" stop-color="#e0c687"/><stop offset="0.5" stop-color="#d8a844"/><stop offset="0.56" stop-color="#e3c98c"/><stop offset="0.62" stop-color="#f1dfb9"/><stop offset="0.68" stop-color="#f1ddb7"/><stop offset="0.76" stop-color="#f7f2e7"/><stop offset="0.82" stop-color="#f3e1bd"/><stop offset="0.87" stop-color="#e8bb82"/><stop offset="0.91" stop-color="#ac7f48"/><stop offset="1" stop-color="#a56d26"/></linearGradient><clipPath id="clip-path"><path class="cls-1" d="M8.55,4.34H50.4V31c-1.52,9.16-9.31,19.37-20.93,24.48C17.85,50.37,10.07,40.16,8.55,31Z"/></clipPath><linearGradient id="GradientFill_2" x1="29.47" y1="4.34" x2="29.47" y2="15.06" gradientUnits="userSpaceOnUse"><stop offset="0" stop-color="#0087c9"/><stop offset="0.44" stop-color="#80bce0"/><stop offset="1" stop-color="#fff"/></linearGradient><clipPath id="clip-path-2"><polygon class="cls-1" points="8.48 19.3 29.6 26.1 50.47 19.41 50.47 0.23 8.48 0.13 8.48 19.3"/></clipPath><clipPath id="clip-path-3"><path class="cls-1" d="M23.42,42H22.21c-.56,0-1.08,0-1.59,0S19.56,42,19,42c-.35,0-.62,0-1,0h-.78l-.31,0a.61.61,0,0,1,.27-.45l.38-.36c.21-.12.07,0,.29-.22s.62-.49.8-.68c.39-.39.42-.16.87.2a2,2,0,0,1,.22.22,1.55,1.55,0,0,0,.32.14c.15.08.23.22.35.32s.43.45.72.45.43-.37.78-.58c.11-.07.3-.13.46-.24s.77-.57,1-.57a13,13,0,0,1,0,1.65.36.36,0,0,0,0,.11ZM24,32.63c-.16,0-.21,0-.34,0l-.42,0H23l-.46,0-.72,0c-.18,0-.73.06-1,.06H20.5l-.32,0c-.2,0-.84,0-1,0s-.78,0-1.1.06c-.13,0-.57-.07-.79-.07s-.3-.09-.46-.09l-.69,0a1.55,1.55,0,0,1-.21,0l-.29-.27-.18.26a1.22,1.22,0,0,0-.11.61c0,.62.08,1.28.08,1.88,0,.26,0,.51,0,.76v.27c0,.11,0,.14,0,.25s0,.14,0,.25.17.14.13.39-.13.3-.14.46v1.09c0,.18,0,.32,0,.52v.4c0,.56.11,1,.11,1.6a3.28,3.28,0,0,1-.08.56c0,.16.15.31.1.73,0,.27.07.19.35.19s.24-.12.43-.12.32.07.52.07l1,0a1.07,1.07,0,0,1,.32.08,4.5,4.5,0,0,0,.75.05.79.79,0,0,1,.17,0l.85,0c.09,0,.09,0,.18,0,.69,0,1.63,0,2.22,0l1.93,0,.19-.26-.23-.55c0-.27.11-.46.11-.71a2.41,2.41,0,0,1-.07-.57l0-.65c0-.23,0-.41,0-.62s.07-.58-.05-.58-.29.16-.38.27c-.57.71-1.28.9-1.47,1.14s-.1.22-.32.33-.23.21-.38.26-.14,0-.22.11-.22.14-.34,0l-.3-.27a6.5,6.5,0,0,1-.6-.57,2.18,2.18,0,0,0-.42-.33c-.12-.12-.08-.13-.14-.25l.88-.74c.13-.16,0-.08.18-.23l.17-.13c.06,0,.26-.26.31-.3a1.26,1.26,0,0,0,.24-.22c.12-.15.21-.2.21-.43,0,0-.26.06-.31,0s-.31-.35-.44-.46-.17-.09-.23-.18a.57.57,0,0,0-.19-.19,3.14,3.14,0,0,1-.6-.55c0-.06,0-.09,0-.14a2.7,2.7,0,0,1,.64-.53c.33-.17.91-.85,1.12-.85s.77.65.91.8.27.1.39.19.15.19.29.29a2.24,2.24,0,0,1,.45.42.93.93,0,0,0,.15.13c.4.39.65,0,.64-.32s-.26-.5-.22-.73a2.4,2.4,0,0,0,0-.8,6.37,6.37,0,0,0,0-1.07,3.19,3.19,0,0,1-.08-.63c0-.19,0-.16-.16-.16Zm-4.54,6c-.19.05-.24.45-.48.42-.07,0-.1-.08-.14-.13-.19-.27-.35-.3-.66-.66-.15-.17-.58-.4-.44-.57s.18-.15.31-.34c.32-.45.56-.42.73-.63s.22-.28.34-.27.22,0,.38.14a6.3,6.3,0,0,1,.68.58c.32.3.54.14.2.68-.1.16-.19.14-.29.27a.44.44,0,0,1-.16.14c-.21.13-.21.22-.47.37Zm-3.16-4.19a2.16,2.16,0,0,0,0,.29l0,1.88c0,.12,0,.18,0,.29a8.79,8.79,0,0,0,0,1.24,5.11,5.11,0,0,1,0,1.18c0,.3.07.54.07.84,0,.84-.2,1,.13,1s.08-.35.43-.46c.14,0,.2,0,.29-.14s0-.08.31-.34.43-.44.67-.62.09-.15,0-.27a.52.52,0,0,0-.11-.1c-.24-.19-.28-.18-.36-.43s-.12-.13-.2-.2-.1-.15-.15-.26-.14-.09-.34-.26-.25-.15-.25-.3.41-.55.45-.57.1,0,.14-.09,0-.11.08-.15.09,0,.16-.08l.26-.22c.29-.21.19-.28.31-.4s.4-.29.26-.47-.33-.21-.57-.42a4.39,4.39,0,0,1-.51-.42c-.22-.26-.12-.11-.33-.29s-.47-.59-.65-.63-.15.23-.15.38Zm3,.89c-.17,0-.43-.22-.56-.32s0-.14-.58-.52a7.2,7.2,0,0,1-.58-.5c-.17-.14-.2-.15-.2-.33s.28-.09.42-.12c.73-.12.65,0,1-.09a1.62,1.62,0,0,1,.44,0c.15,0,.22,0,.37,0,.46,0,.91,0,1.41,0a8.68,8.68,0,0,1,1.84,0,1.21,1.21,0,0,0,.42,0,.78.78,0,0,0,.14,0c0,.13.07.35.07.51s-.07.27-.07.61c0,.18.09.1.09.42a.89.89,0,0,1-.54-.31c-.23-.22-.13-.24-.45-.4s-.92-.7-1-.7-.28.28-.56.41-.16.11-.27.22-.24.1-.48.26-.26.08-.32.18a.83.83,0,0,1-.32.42C19.49,35.21,19.38,35.36,19.26,35.36Z"/></clipPath><clipPath id="clip-path-5"><path class="cls-1" d="M23.61,41.78l-.82,0-.39,0c-.56,0-1.09,0-1.59,0s-1.07,0-1.62,0c-.34,0-.62,0-1,0h-.77l-.31,0a.62.62,0,0,1,.26-.46L17.8,41c.2-.13.06,0,.28-.22s.62-.5.81-.68c.38-.39.42-.16.86.19.15.13.18.2.23.23s.22.09.31.14.23.21.36.31.42.46.72.46.42-.37.78-.59c.11-.06.29-.13.45-.23A2.82,2.82,0,0,1,23.66,40a12.75,12.75,0,0,1,0,1.64c0,.06,0,.06,0,.11Zm.56-9.41a2.06,2.06,0,0,1-.34,0l-.42,0h-.23l-.45,0-.73,0c-.18,0-.73.06-1,.05h-.34c-.13,0-.19,0-.33,0s-.83,0-1,0-.77,0-1.09.06c-.13,0-.58-.07-.79-.07s-.31-.09-.47-.09l-.68,0a1.8,1.8,0,0,1-.22,0l-.47,0a1.29,1.29,0,0,0-.11.62c0,.61.09,1.27.09,1.87,0,.27-.05.52-.06.76,0,.09,0,.18,0,.27a2.46,2.46,0,0,0,0,.26c0,.09,0,.13,0,.25s.16.14.13.38-.14.31-.14.47v1.08c0,.19,0,.32,0,.52v.4c0,.57.11,1,.11,1.61a4.54,4.54,0,0,1-.08.55c0,.16.15.31.1.73s.07.2.34.2.25-.13.43-.13.32.07.53.08l1,0a1.5,1.5,0,0,1,.32.07,3.69,3.69,0,0,0,.75,0c.09,0,.1,0,.18,0l.84,0,.18,0c.69,0,1.63,0,2.23,0l1.93,0,0-.81c0-.26.11-.46.11-.7a2.88,2.88,0,0,1-.08-.58l0-.65c0-.22,0-.41,0-.61s.07-.58-.06-.58-.29.15-.38.27c-.57.71-1.28.9-1.46,1.13s-.1.22-.32.33-.24.21-.39.27-.13,0-.22.11-.21.13-.33,0L21,40.33a7.91,7.91,0,0,1-.59-.56c-.13-.17-.27-.21-.42-.34s-.09-.12-.15-.25l.89-.74c.12-.16,0-.07.17-.23l.18-.12.12-.11a1.09,1.09,0,0,0,.25-.23c.11-.15.2-.19.2-.42a.41.41,0,0,0-.13-.18c-.16-.13-.31-.35-.44-.46s-.16-.09-.22-.17a.5.5,0,0,0-.19-.19,2.93,2.93,0,0,1-.6-.56c0-.06,0-.09,0-.14a2.91,2.91,0,0,1,.65-.52c.33-.18.9-.86,1.11-.86s.78.66.91.81.27.1.4.18.14.2.29.29a2.94,2.94,0,0,1,.44.42l.15.14c.73.7.34-.53.42-1.06a2.4,2.4,0,0,0,0-.8,6.25,6.25,0,0,0,0-1.06,2.59,2.59,0,0,1-.07-.63c0-.2,0-.17-.17-.17Zm-4.53,6c-.2.05-.25.44-.48.41s-.1-.07-.14-.13c-.2-.26-.35-.3-.66-.65-.16-.18-.58-.41-.44-.57s.17-.15.31-.34c.32-.46.56-.43.72-.63s.22-.28.34-.28c.27-.06.23,0,.38.14a7.83,7.83,0,0,1,.69.58c.31.31.54.15.19.69-.1.15-.19.14-.29.26a.29.29,0,0,1-.15.14c-.22.13-.21.22-.47.38Zm-3.16-4.19a2.36,2.36,0,0,0,0,.29l0,1.87c0,.13,0,.18,0,.29a8.76,8.76,0,0,0,0,1.24,5.78,5.78,0,0,1,0,1.18c0,.31.07.55.07.85,0,.83-.19,1,.13,1s.08-.34.43-.45c.15,0,.2,0,.3-.14s0-.08.3-.34.44-.44.68-.63.08-.15,0-.27a.43.43,0,0,0-.1-.09c-.25-.19-.28-.19-.37-.43s-.12-.14-.2-.2a.61.61,0,0,1-.15-.26c-.06-.14-.13-.09-.34-.26s-.25-.15-.25-.31.41-.54.45-.56.1,0,.14-.1,0-.11.09-.15.09,0,.15-.08l.27-.21c.28-.22.19-.29.3-.4s.4-.29.26-.47-.33-.22-.56-.42a3.72,3.72,0,0,1-.52-.43c-.21-.26-.12-.11-.32-.29s-.48-.58-.66-.62-.14.22-.14.38Zm3,.88c-.17,0-.42-.21-.55-.31s0-.14-.58-.52a7.28,7.28,0,0,1-.58-.51c-.17-.13-.21-.14-.21-.32s.29-.1.42-.12c.73-.12.66,0,1-.09a1.69,1.69,0,0,1,.45,0c.15,0,.21,0,.36,0,.46,0,.91,0,1.41,0a8.08,8.08,0,0,1,1.84,0,2.18,2.18,0,0,0,.42,0,.52.52,0,0,1,.14,0c0,.12.08.35.08.5s-.07.27-.07.62c0,.18.09.1.09.41a.89.89,0,0,1-.54-.31c-.24-.22-.13-.24-.45-.4s-.92-.7-1-.7-.28.28-.56.42-.16.11-.28.21a5.06,5.06,0,0,1-.48.26c-.13.09-.25.09-.31.19a1,1,0,0,1-.32.42C19.67,35,19.57,35.1,19.44,35.1Z"/></clipPath></defs><title>davy faviconRecurso 3</title><g id="Capa_2" data-name="Capa 2"><g id="Capa_1-2" data-name="Capa 1"><path class="cls-3" d="M16.74,9.35l-.08.12v.08H18.1l.16,0,.26,0,.21-.08.18-.1.16-.12c0-.05.09-.1.13-.16l.06-.11a.7.7,0,0,1-.13.16L19,9.19a.77.77,0,0,1-.18.1,1,1,0,0,1-.21.08l-.25.05-.16,0H16.73V9.35Zm2.53-.46-2.53.46h.2l.07,0,0,0V7.38a.13.13,0,0,0,0-.08s0,0,0,0l0,0-.08,0h-.2V7.11L16.74,7H18a2.81,2.81,0,0,1,.43,0,1.62,1.62,0,0,1,.35.09,1,1,0,0,1,.32.18,1.16,1.16,0,0,1,.23.26,1.46,1.46,0,0,1,.14.31,1.34,1.34,0,0,1,0,.35,1,1,0,0,1,0,.25,1.55,1.55,0,0,1-.07.23,1.14,1.14,0,0,1-.1.19Zm7.48-1.28,0,0A1,1,0,0,1,27,7.31a2.11,2.11,0,0,1,.31-.21A2.6,2.6,0,0,1,27.67,7a2.33,2.33,0,0,1,.38,0l.29,0,.31.08.15,0,.08,0h.06l0,0v0h0l.08-.12h.08v.85l-.07.12H29a1.1,1.1,0,0,0-.12-.29,1,1,0,0,0-.2-.21.71.71,0,0,0-.26-.13.87.87,0,0,0-.28,0,1,1,0,0,0-.25,0l-.22.1-.18.15,0,0,0,0a1.4,1.4,0,0,0-.09.29,1.55,1.55,0,0,0,0,.31,3,3,0,0,0,0,.31,1.91,1.91,0,0,0,.07.28A.9.9,0,0,0,27.5,9a.55.55,0,0,0,.17.17.64.64,0,0,0,.22.1,1.2,1.2,0,0,0,.28,0,.93.93,0,0,0,.24,0,.9.9,0,0,0,.23-.08.8.8,0,0,0,.21-.13,2.19,2.19,0,0,0,.23-.21h0v.22L29,9.19a1.28,1.28,0,0,1-.23.19l-.25.13-.26.07L28,9.6a1.78,1.78,0,0,1-.41,0,1.37,1.37,0,0,1-.36-.11,1.57,1.57,0,0,1-.3-.2A1,1,0,0,1,26.67,9a1.23,1.23,0,0,1-.14-.31,1.13,1.13,0,0,1-.05-.32A1,1,0,0,1,26.54,8a1,1,0,0,1,.15-.32l.06-.1Zm2.83.47h0v0a.75.75,0,0,1,.17-.19.92.92,0,0,1,.33-.19,1.1,1.1,0,0,1,.41-.06,1.18,1.18,0,0,1,.43.06.88.88,0,0,1,.34.19.89.89,0,0,1,.22.3.86.86,0,0,1,.08.36.83.83,0,0,1-.06.32,1,1,0,0,1-.08.18l-.08.12-.08.1a.93.93,0,0,1-.36.26,1.13,1.13,0,0,1-.47.09A1.42,1.42,0,0,1,30,9.51a1.07,1.07,0,0,1-.35-.25A.91.91,0,0,1,29.45,9a1,1,0,0,1-.06-.33.87.87,0,0,1,.07-.37l.06-.11.06-.09Zm8.32,0v0h0a1.18,1.18,0,0,1,.18-.21,1.13,1.13,0,0,1,.35-.21,1.56,1.56,0,0,1,.44-.07H39l.13,0,.08,0,.24.07h.09l0,0,.06-.1h.06v.63l-.07.12h-.07a.84.84,0,0,0-.12-.23A.87.87,0,0,0,39.3,8a.75.75,0,0,0-.2-.1.83.83,0,0,0-.22,0,.71.71,0,0,0-.21,0,.35.35,0,0,0-.16.08L38.42,8s0,.07,0,.11a1.46,1.46,0,0,0-.05.2,1.48,1.48,0,0,0,0,.21.9.9,0,0,0,0,.24.8.8,0,0,0,0,.21.6.6,0,0,0,.08.16.49.49,0,0,0,.13.12l.16.07.19,0H39l.07,0h.07V9s0,0,0,0l0,0,0,0-.05,0h-.12V8.79L39,8.67h1v.06l-.08.12h-.15v.44l-.07.12h0l-.19.07-.2.05-.21,0h-.22l-.26,0-.21-.05-.17-.08L38,9.34l-.13-.12a.67.67,0,0,1-.09-.14.64.64,0,0,1-.08-.19.75.75,0,0,1,0-.21,1,1,0,0,1,.07-.38l.06-.1.06-.09Zm-4.33.69-.07.63-.08.12H31.65V9.49l.08-.12h.2V8a.35.35,0,0,0,0-.06l0,0,0,0-.05,0h-.15v0l.08-.12H32.8v.05l-.08.12h-.17l0,0V9.19a.35.35,0,0,0,0,.06l0,0,0,0h.34l.14,0a.35.35,0,0,0,.12,0l.1-.07a.12.12,0,0,0,0,0l0-.05.07-.18h0l.08-.12h.06Zm2.16.57h.19V7.92a.05.05,0,0,0,0,0l0,0-.07,0h-.15v0l.08-.12h1.66v.53l-.08.12h-.06a.69.69,0,0,0,0-.17A.41.41,0,0,0,37.13,8,.35.35,0,0,0,37,7.94l-.12-.05-.12,0h-.31v.59h0l.16,0a.24.24,0,0,0,.08-.06l0,0a.84.84,0,0,0,0-.18h0L36.9,8H37V9l-.08.13h-.07a.59.59,0,0,0,0-.14.54.54,0,0,0,0-.11l-.06-.08-.07,0-.09,0h0v.5a.18.18,0,0,1,0,.06l0,0,0,0h.24a1,1,0,0,0,.25,0,.56.56,0,0,0,.19-.09.27.27,0,0,0,.11-.1L37.4,9h0l.07-.12h.07l-.09.58-.08.12H35.65V9.49l.08-.12Zm5.08-1.5h.31l.12,0a.33.33,0,0,1,.12.05.35.35,0,0,1,.09.07.41.41,0,0,1,.07.11.69.69,0,0,1,0,.17h.07l.07-.12V7.64H40.05L40,7.76v0h.16l.06,0,0,0a.05.05,0,0,1,0,0V9.35h-.2L40,9.49v.06h1.72l.08-.12.09-.58H41.8L41.72,9h0s0,.09,0,.13a.5.5,0,0,1-.11.1.61.61,0,0,1-.2.09.9.9,0,0,1-.25,0h-.23l0,0v0s0,0,0-.06v-.5h0l.09,0,.07,0,.06.08a.54.54,0,0,1,0,.11l0,.14h.06L41.29,9V8h-.07l-.07.12h0a.8.8,0,0,1,0,.18l0,0a.24.24,0,0,1-.08.06l-.16,0h0V7.87Zm-7.08-.23h1.06v.05l-.08.12h-.16l-.06,0V9.19s0,.05,0,.06l0,0,0,0h.34l.15,0,.12,0,.09-.07.06,0,0-.05a.75.75,0,0,0,.07-.18h0l.08-.12h.07l-.08.63-.07.12H33.65V9.49l.08-.12h.19V8s0,0,0-.06,0,0,0,0l0,0-.06,0h-.14v0l.08-.12Zm-10.84,0h.66v.05l-.08.12h0l-.1,0a.16.16,0,0,0-.09.07h0a1,1,0,0,1-.09.17l-.68,1.37-.08.12h-.05l-.68-1.42-.1-.2s0-.09-.07-.1a.1.1,0,0,0-.05,0l-.1,0h0v0l.07-.12h1v.05l-.08.12h-.15c.15.35.33.69.49,1L23,8.1l0-.07V7.91l0,0,0,0,0,0-.07,0h-.1v0l.08-.12Zm2.2,0L25,7.76v0h0l.11,0,.07,0,0,0v0a.31.31,0,0,1,0,.09.59.59,0,0,1,0,.08l-.33.5L24.47,8l-.08-.15v0h.1l.08-.12V7.64h-1l-.08.12v0h.09l.06,0,.08.09.12.18.46.76v.47h-.24L24,9.49v.06h1.12l.08-.12V9.37H25l-.06,0,0,0,0,0a.35.35,0,0,1,0-.06V8.69l.35-.53,0,0L25.38,8a.57.57,0,0,1,.1-.11l.06,0,.08,0h0l.08-.12V7.64Zm5.36.18a.4.4,0,0,0-.24.07A.31.31,0,0,0,30.1,8,1.14,1.14,0,0,0,30,8.2a1.72,1.72,0,0,0,0,.34,1.48,1.48,0,0,0,.05.39.73.73,0,0,0,.13.28.33.33,0,0,0,.15.11.38.38,0,0,0,.19,0l.14,0a.22.22,0,0,0,.11-.05.18.18,0,0,0,.09-.08l0-.06A1.05,1.05,0,0,0,31,8.94a2.26,2.26,0,0,0,0-.27,2.91,2.91,0,0,0,0-.31,1,1,0,0,0-.06-.22A.53.53,0,0,0,30.81,8a.41.41,0,0,0-.1-.09.34.34,0,0,0-.12-.06l-.14,0ZM20.8,9a1.91,1.91,0,0,1,.15.32H20.8l-.07.12v.06h1l.08-.12V9.37h0l-.08,0a.07.07,0,0,1-.06,0l-.08-.09-.09-.17L20.75,7.6h0l-.07.12-.71,1.42-.06.11,0,0-.08.05-.1,0h0l-.08.12v.06h.67l.08-.12V9.37H20.2l-.07,0-.05-.05s0,0,0-.06a.13.13,0,0,1,0-.06l0-.08,0-.05Zm-.33-.69.22.46h-.45l.23-.46Zm-2.69-1.1.2,0a.69.69,0,0,1,.19,0,.52.52,0,0,1,.19.11.86.86,0,0,1,.14.18,1.08,1.08,0,0,1,.13.33,2.5,2.5,0,0,1,0,.42,1.85,1.85,0,0,1-.06.5,1,1,0,0,1-.08.21l0,0a.48.48,0,0,1-.22.15.65.65,0,0,1-.29,0h-.09l-.06,0,0,0,0,0s0,0,0-.06V7.25Z"/><path class="cls-4" d="M16.74,9.42V9.35h.2l.07,0h0l.06,0s0,0,0,0a.12.12,0,0,0,0-.07V7.26s0-.07,0-.08h0l0,0L17,7.1h0l-.07,0h-.2V7H18a2.81,2.81,0,0,1,.43,0,1.62,1.62,0,0,1,.35.09,1,1,0,0,1,.32.18,1.16,1.16,0,0,1,.23.26,1.46,1.46,0,0,1,.14.31,1.34,1.34,0,0,1,0,.35,1,1,0,0,1,0,.25,1.55,1.55,0,0,1-.07.23c0,.07-.07.14-.1.2l-.14.16L19,9.17l-.18.1-.22.08-.25.05-.16,0H16.74Zm1-2.29v2s0,0,0,.06l0,0,0,0h0l.06,0H18a.65.65,0,0,0,.29,0,.48.48,0,0,0,.22-.15.89.89,0,0,0,.18-.35,2.41,2.41,0,0,0,0-.5,1.76,1.76,0,0,0,0-.42.87.87,0,0,0-.12-.33.65.65,0,0,0-.15-.18.42.42,0,0,0-.18-.11.49.49,0,0,0-.19,0l-.28,0Zm3.1,1.79h-.69l-.08.17a.13.13,0,0,0,0,.08.13.13,0,0,0,0,.06s0,0,0,.06l.05.05h0l.07,0h.13v.06h-.67V9.37h0l.1,0,.08-.05.07-.1A.87.87,0,0,0,20,9l.71-1.42h0l.71,1.46.09.17.08.09a.07.07,0,0,0,.06,0l.08,0h0v.06h-1V9.37H21l.06,0,0,0s0,0,0,0v0h0v0l0-.07-.11-.22Zm-.05-.11-.29-.6-.3.6Zm2.72-1.17h-.66v.05H23l.07,0h0l0,0h0v0s0,0,0,0a493234200477.19,493234200477.19,0,0,1,0,.08h0a.17.17,0,0,1,0,.07l-.05.12-.39.78L22.24,8l0-.11s0,0,0-.06a0,0,0,0,0,0,0v0s0,0,0,0l0,0h0l.07,0h.14V7.64h-1v.05h0l.09,0a.09.09,0,0,1,.06,0,.21.21,0,0,1,.06.1l.11.2.68,1.42h0l.68-1.37c0-.08.08-.14.11-.19a.42.42,0,0,1,.07-.11.28.28,0,0,1,.09-.07l.11,0h0V7.64Zm2.16,0v.05h0l-.08,0-.07,0h0l-.09.11L25.32,8l-.42.65v.54a.35.35,0,0,0,0,.06h0l0,0,0,0,.06,0h.18v.06H24.09V9.37h.19l.06,0h0l0,0,0,0h0a.18.18,0,0,1,0-.06V8.76L24,8l-.12-.18-.08-.09-.06,0H23.6V7.64h1v.05h-.12l-.05,0h0a0,0,0,0,0,0,0s0,0,0,0a.27.27,0,0,0,0,.08l.08.15.36.59.35-.53a.82.82,0,0,0,.1-.17.23.23,0,0,0,0-.09,0,0,0,0,0,0,0l0,0h0l-.07,0-.11,0h0V7.64Zm3.42-.7v.84h-.08a.86.86,0,0,0-.13-.29.67.67,0,0,0-.2-.21.89.89,0,0,0-.25-.14,1.35,1.35,0,0,0-.29,0l-.24,0-.22.1-.18.15a1.27,1.27,0,0,0-.13.19,1.4,1.4,0,0,0-.09.29,1.55,1.55,0,0,0,0,.31,3,3,0,0,0,0,.31,1.91,1.91,0,0,0,.07.28A.9.9,0,0,0,27.5,9a.55.55,0,0,0,.17.17.64.64,0,0,0,.22.1,1.2,1.2,0,0,0,.28,0,.93.93,0,0,0,.24,0,.9.9,0,0,0,.23-.08.8.8,0,0,0,.21-.13,2.19,2.19,0,0,0,.23-.21h0v.22h0a1.88,1.88,0,0,1-.24.18,1.83,1.83,0,0,1-.24.13l-.27.07-.3,0a1.73,1.73,0,0,1-.41,0,1.09,1.09,0,0,1-.36-.12.91.91,0,0,1-.3-.19,1,1,0,0,1-.22-.25,1,1,0,0,1-.14-.31,1.13,1.13,0,0,1-.05-.32,1.27,1.27,0,0,1,.05-.34,1.37,1.37,0,0,1,.16-.32A1,1,0,0,1,27,7.31a2.11,2.11,0,0,1,.31-.21A2.6,2.6,0,0,1,27.67,7a2.33,2.33,0,0,1,.38,0l.29,0,.31.08.15,0,.08,0h.06l0,0L29,7s0,0,0-.07h.08Zm1.38.67a1.18,1.18,0,0,1,.43.06.88.88,0,0,1,.34.19.89.89,0,0,1,.22.3.86.86,0,0,1,.08.36.83.83,0,0,1-.06.32.78.78,0,0,1-.16.28.93.93,0,0,1-.36.26,1.16,1.16,0,0,1-.47.09,1.21,1.21,0,0,1-.48-.09.85.85,0,0,1-.35-.24,1,1,0,0,1-.18-.28,1.26,1.26,0,0,1-.05-.33.87.87,0,0,1,.07-.37.93.93,0,0,1,.23-.3.92.92,0,0,1,.33-.19,1.1,1.1,0,0,1,.41-.06Zm0,.09a.4.4,0,0,0-.24.07.42.42,0,0,0-.17.18A.81.81,0,0,0,30,8.2a1.72,1.72,0,0,0,0,.34,1.48,1.48,0,0,0,.05.39.73.73,0,0,0,.13.28.33.33,0,0,0,.15.11.38.38,0,0,0,.19,0l.14,0a.22.22,0,0,0,.11-.05.38.38,0,0,0,.12-.1A.8.8,0,0,0,31,9,.65.65,0,0,0,31,8.82a1.14,1.14,0,0,0,0-.27,1.47,1.47,0,0,0,0-.31A1,1,0,0,0,31,8a.53.53,0,0,0-.08-.15.31.31,0,0,0-.11-.09.23.23,0,0,0-.12-.06l-.13,0Zm3,1.1-.07.63H31.73V9.37h.15l.06,0h0l0,0,0,0h0a.18.18,0,0,1,0-.06V7.84a.18.18,0,0,1,0-.06s0,0,0,0l0,0h0l-.05,0h-.15V7.64H32.8v.05h-.17l-.06,0h0l0,0,0,0a.35.35,0,0,0,0,.06V9.19a.35.35,0,0,0,0,.06l0,0,0,0h.34l.14,0a.35.35,0,0,0,.12,0l.1-.07a.24.24,0,0,0,.08-.09h0A.4.4,0,0,0,33.43,9a1.82,1.82,0,0,0,.08-.19h.06Zm2,0-.08.63H33.73V9.37h.14l.06,0h0a.05.05,0,0,0,0,0s0,0,0,0h0s0,0,0-.06,0-.06,0-.1V8s0-.09,0-.12a.07.07,0,0,0,0,0s0,0,0,0l0,0h0l-.06,0h-.14V7.64h1.06v.05h-.17l-.06,0h0l0,0s0,0,0,0,0,0,0,.06V9.19s0,.05,0,.06l0,0,0,0h.34l.15,0,.12,0,.09-.07.09-.09A.76.76,0,0,0,35.43,9a2,2,0,0,0,.07-.19h.07Zm.92-1.05v.71h0l.16,0,.11-.08a.52.52,0,0,0,.06-.13.8.8,0,0,0,0-.18H37V9H36.9a.59.59,0,0,0,0-.14,1.17,1.17,0,0,0-.05-.11l-.06-.08L36.7,8.6l-.09,0h-.12v.62a.18.18,0,0,1,0,.06h0s0,0,0,0l0,0h.24a1,1,0,0,0,.25,0,.56.56,0,0,0,.19-.09.4.4,0,0,0,.15-.14.67.67,0,0,0,.09-.21h.07l-.09.58H35.73V9.37h.14l.06,0h0a.05.05,0,0,0,0,0s0,0,0,0h0s0,0,0-.06,0-.06,0-.1V8a.28.28,0,0,0,0-.1v0s0,0,0,0l0,0h0l-.07,0h-.15V7.64h1.66v.53h-.06c0-.07,0-.12,0-.17a.41.41,0,0,0-.07-.11.35.35,0,0,0-.09-.07L37,7.77h0l-.12,0h-.39Zm3.24-.15v.63h-.06A.84.84,0,0,0,39.55,8a.85.85,0,0,0-.17-.16.75.75,0,0,0-.2-.1.85.85,0,0,0-.23,0l-.2,0a.51.51,0,0,0-.16.09.8.8,0,0,0-.13.13.75.75,0,0,0-.08.18,1.46,1.46,0,0,0-.05.2,1.48,1.48,0,0,0,0,.21.9.9,0,0,0,0,.24.8.8,0,0,0,0,.21.6.6,0,0,0,.08.16.49.49,0,0,0,.13.12l.16.07.19,0H39l.07,0h.08l.07,0V8.85a.08.08,0,0,1,0,0h0l0,0,0,0-.05,0H39V8.67h1v.06h-.16l0,0a.05.05,0,0,0,0,0h0s0,0,0,0,0,.05,0,.08v.37h0l-.19.07-.2,0-.21,0h-.22l-.26,0-.21,0-.18-.08-.15-.1L38,9.1A1.1,1.1,0,0,1,37.89,9a.64.64,0,0,1-.08-.19.78.78,0,0,1,0-.22,1,1,0,0,1,.08-.37,1,1,0,0,1,.24-.31,1.13,1.13,0,0,1,.35-.21,1.56,1.56,0,0,1,.44-.07H39l.13,0,.08,0,.13,0,.11,0h.09l0,0,0,0,0-.06h.06Zm1.08.15v.71h0l.16,0,.11-.08a.54.54,0,0,0,.07-.13.84.84,0,0,0,0-.18h.07V9h-.07a.59.59,0,0,0,0-.14.37.37,0,0,0-.05-.11l-.06-.08A.18.18,0,0,0,41,8.6l-.09,0h-.12v.5a.41.41,0,0,0,0,.12s0,.05,0,.06h0v0l0,0h.23a.9.9,0,0,0,.25,0,.61.61,0,0,0,.2-.09.47.47,0,0,0,.14-.14,1,1,0,0,0,.1-.21h.06l-.09.58H40.05V9.37h.14l.07,0h0l0,0,0,0h0s0,0,0-.06a.28.28,0,0,0,0-.1V7.85a.13.13,0,0,1,0,0,.05.05,0,0,0,0,0l0,0h0l-.07,0h-.15V7.64h1.66v.53h-.06a.69.69,0,0,0,0-.17.41.41,0,0,0-.07-.11.35.35,0,0,0-.09-.07l-.12-.05h0l-.12,0h-.39Z"/><path class="cls-5" d="M12.45,55.85l5.71,1.76-2.35,1a43,43,0,0,0,26.42-.08l-2.31-1,5.62-2-1,2.68,1,1.88-3.11,1.12v1.8a41.79,41.79,0,0,1-26.5.16l-.09-1.7-3.23-.94,1.1-1.84Z"/><path class="cls-6" d="M18.16,57.61l-2.35,1c.83.26,1.66.49,2.49.7l-.14-1.74ZM40,59.23c.75-.2,1.5-.42,2.26-.66l-2.31-1Z"/><path class="cls-7" d="M5.41,1.29H53.54V30.8c-2.79,13.34-12.22,22-24.07,27.73C22.54,56,16.12,50.72,11.72,45.14c-4-5.06-6.18-10.74-6.31-14.66Z"/><g class="cls-8"><path class="cls-4" d="M8.55,4.34H50.4V31c-1.52,9.16-9.31,19.37-20.93,24.48C17.85,50.37,10.07,40.16,8.55,31Z"/><path class="cls-9" d="M19.74,19.52c0,.11.24.22.24.27s0,0,0,0l.54.59s0,0,0,0,.64.12.69.17l.26.29a2.08,2.08,0,0,1,.44.83.72.72,0,0,0,.7.57l.13.13c-.1-.08.37.62.76.62l.24.11.17.1m0-4.57c.12,0,.7.44.81.44s.24.16.24.2,0,0,0,0,.12.06.13.06m3.65-2c.12,0,.4.31.55.31l.84.25c0-.06,0,0,.06,0m2.08-1.89c.37.54,1.18.23,1.61.66.09,0,.4.27.47.34m-.31-2.19a4.32,4.32,0,0,1,.5.33c.08,0,.17.1.27.1a1,1,0,0,0,.35,0m8.18-4.52c.13,0,.27-.12.41-.15s.37-.23.61-.23a.51.51,0,0,0,.28-.17c0-.06.1-.1.14-.14S45,10,45,10s0,0,0,0M23.47,24c.06,0,.08-.08.13-.08v0l.83-.42.35,0s0,0,0,0,.09.08.09.12h0l.1.16s.08.23.12.23,0,0,0,0,0,.07,0,.07.05.14.08.14l.31.25.74-.53.18-.12c-.06.05.72-.36.82-.36l.31-.2.22-.35.49-.18.57-.37.57-.4h0l.1-.18c0-.1.39-.45.48-.45s.29-.16.29-.25l.53-.49,1.71-1.52s.14.18.2.18c0,.16,1.24.36,1.37.36.47,0,.93.41,1.44.41L36.73,20c0-.13.71-.35.71-.55a1.84,1.84,0,0,0,.31-.19c.09,0,.37-.38.49-.38v0s0,0,0,0,.84-.35.84-.56l.44-.28.18-.33c0-.17.07-.31.25-.31.45,0,.42.61.62.61l0,0s.09,0,.09.05l.88.78.64.8c.11.05.42.4.5.4-.07-.1.69.9.69.93.2,0,.13-.41.38-.41l.16-.12s0,0,0,0l-.13-.31.11-.23.16-.28.12-.39c.08-.08.5-.33.5-.42s0,0,0,0,0,0,0,0-.33-.53.17-.53l.06-.27-1.34-.53-.05,0s0-.67-.52-.67c-.21,0-.69-.4-.69-.64s-.3-.5-.48-.5a17,17,0,0,1-1.51-1.12c-.05,0-.35-.61-.5-.61m-3.46,6.35s.07.06.09.06.17.12.2.12.18.05.19.06h.13a1.64,1.64,0,0,1,.38.1,5.72,5.72,0,0,0,1.31.14c-.89,0-.44,0,0,0,0,0-.14.14-.19.14l0,0s0,0,0,0-.16.23-.18.27-.29.21-.29.24.25.06.38.06c-.26-.06-.13,0,0,0l-.65.63c0,.06-.13.1-.13.16a.27.27,0,0,0-.07.08s-.07.06-.07.08,0,0,0,0,0,0,0,0,0,.2.06.22a1.39,1.39,0,0,0,.41,0h0a.74.74,0,0,1-.29.55h0"/><path class="cls-10" d="M8.55,20.23H50.4v1.55H8.55V20.23ZM50.4,23.06v1.55H8.55V23.06Zm0,2.88v1.55H8.55V25.94Z"/><polygon class="cls-11" points="8.48 19.3 29.6 26.1 50.47 19.41 50.47 0.23 8.48 0.13 8.48 19.3"/><g class="cls-12"><path class="cls-13" d="M24.32,24.59c.84.21,2.42.77,3.35,1.06,2,.63,1.16.62,3.45-.08s4.5-1.41,6.76-2.12,4.48-1.41,6.73-2.14l5-1.59a14.6,14.6,0,0,0,1.66-.57c.11-.15,0-3.64,0-4.28a0,0,0,0,1,0,0v0l0-.25c0-.11,0-.2,0-.31l-.09.2s0,0,0,0,0,0,0,0C51,14.2,50.9,14.27,51,14c-.36-.07-.49-.38-.82-.48-.12,0-.15,0-.29-.07a.86.86,0,0,1,.13-.14c-.09-.16-.16-.19-.12-.45s.2-.8-.12-1a.67.67,0,0,0-.54-.11c.14.08.13,0,.19.12a.62.62,0,0,1-.23-.07c-.09,0-.08-.12-.3-.25l-.23-.18a.57.57,0,0,1-.22-.32c-.09-.2-.07,0,0-.2s0-.17,0-.29l-.2-.08c0-.08,0-.06.11-.13h-.26a1.59,1.59,0,0,1,.2-.24l-.33.05.14-.17,0,0s0,0,0,0,0,0-.06-.1l-.07-.14s0-.12,0-.17a5.77,5.77,0,0,1-.55-.29c.11-.16.16.09.15-.19-.17,0-.2,0-.31.12-.33-.17-.31-.07-.24-.29l-.37-.05s0,0-.07,0a.47.47,0,0,0-.16,0c-.31.07-.47,0-.52.3-.21,0-.28,0-.27.17a.14.14,0,0,1,0,.06v0c0,.07,0,.05,0,.17-.19-.16,0-.14-.21-.17,0,0-.09,0,0,.16a.55.55,0,0,0,.12.14l-.14.07.11.16c-.16,0-.19-.14-.4-.11,0,.12.13.16,0,.31l-.14.08c.16.26,0,.44-.18.58s.08.13-.42.39a2.38,2.38,0,0,0-.77.94.49.49,0,0,1-.21,0,.72.72,0,0,0,0,.41c-.06,0-.1-.1-.19-.11l0,.26c-.15-.07,0-.06-.19-.14-.17.18.1.11-.24.18l0,.15c-.14-.07-.07-.09-.23-.08l0,.28c-.33.15-.25,0-.46.35-.08.13,0,.09-.13.1s.09,0,0-.15c-.09.07-.11.1-.2.16s0,0-.09.24c-.21,0,0,0-.18-.11l0,.17c-.13,0-.24-.09-.29.05-.12.32.64.46.19.71.05.11.05.05.08.17a.11.11,0,0,1,0,.05c.07.22.29.18.43.35s.27.66.57.83.11.14.56.29.35.2.36.7c.67.45,1,.31,1.56.55.13.05.14.06.2.15-.07.26-.36.23-.54.4,0,.09.09.08.14.18-.16.5-.89.71-.87.91s0,0,.14.14.08,0,.13.15a1.16,1.16,0,0,1-.36.22l-.07.05-.06.06c.08.22.31.26,0,.58-.11.12-.17.1-.25.19s-.07.15-.19.28c-.39,0-.77-1-1.25-1.3-.25-.14-.35-.06-.56-.29s-.17-.35-.27-.58-.19-.26-.42-.43-.25-.23-.46-.38-.28-.13-.43-.45-.29-.38-.51-.13-.08.37-.33.52a4.91,4.91,0,0,0-.71.54,8.37,8.37,0,0,1-.82.48l-.47.38c-.12.1-.15.07-.28.13a2.84,2.84,0,0,0-.72.61l1.69.39c.2,0,.45,0,.62.08,0,.23-.37.35-.47.69l.21.07a.37.37,0,0,1-.23.35,4,4,0,0,0-.33.25.8.8,0,0,0-.32.28,1.77,1.77,0,0,0-.26.35c.28.07.66,0,.59.26l-.08.17a.51.51,0,0,1-.26.26c-.18-.16-.05-.16,0-.36-.16-.13-.31-.11-.51-.19,0-.3.16-.33.22-.62-.27,0-.62,0-.78-.21l.21,0,0-.16c.08,0,0,0,.12.08l.07-.14c-.13-.16-.08,0-.11-.4.14.06.12,0,.16.17.09-.06,0,0,.1-.11,0,.05,0,0,0,.08s0,.06.08.11c.09-.17.08,0,.16-.18s.06-.2.09-.27c.36.09.09,0,.29.17l.08-.21c.25.07.41.12.5-.21a6.43,6.43,0,0,1-1.51-.34,13,13,0,0,0-1.57-.29,10.16,10.16,0,0,0-1.49-.38,3.88,3.88,0,0,1-.75-.17c-.56-.15-.51-.26-.67-.29-.17.14-.11.18-.34.3s-.06,0-.12.11l.26,0v.2l.21,0a.43.43,0,0,0,.06.22,0,0,0,0,1,0,0l0,.25c-.09.25-.45.33-.69.33-.11.33,0,.07-.2.26a1.53,1.53,0,0,1-.59.44c-.23.07-.27-.05-.34.18-.2-.08-.13-.08-.34,0l-.31-.34a1.48,1.48,0,0,0-.83.71,6.65,6.65,0,0,1-.93.7,3.69,3.69,0,0,1-.72.35c-.33.15-.32.39-.54.53a11.48,11.48,0,0,0-1.41.73C24.69,24.25,24.35,24.42,24.32,24.59Z"/><path class="cls-14" d="M31.62,22.28c0,.16-.07.22-.18.27s-.06,0-.16,0l-.27,0c-.21,0,0,.05-.21,0,.06-.13,0-.19.12-.29s.15-.05.27-.19l.17-.15s0,0,.05-.06,0,0,.12-.1,0,0,.08-.14c.39,0,.23,0,.45.17l.15.08c0,.22,0,.09-.06.16A1,1,0,0,1,31.62,22.28Z"/><path class="cls-13" d="M29.69,16.12c.13.05,0,.05.08,0a.36.36,0,0,1-.11.14.44.44,0,0,0-.07.08l0,0-.08.1s0,.05,0,.08c-.09.34-.13.2-.22.32s0,.08-.07.18-.12.07-.08.36c.17.06.17,0,.19.21-.25.1-.09,0-.62-.13s-.38.07-.49.22-.52.12-.66,0-.29-.28-.45,0c-.2-.05-.21-.13-.4,0s0,.18-.43.12c0,.18,0,.12-.18.16s-.06.06-.18.16,0-.09-.33.24c-.08.08-.26.22-.37.18s-.11-.19-.29,0-.1.19-.23.19a.39.39,0,0,0-.33.07c-.21.12-.06.13-.37.1l-.06.21a2.09,2.09,0,0,0-.57,0c-.08-.1,0-.12-.45-.15h-.14c-.08,0,0,0-.21,0s.13.09-.11,0c-.08-.21,0-.11,0-.29-.26-.14-.1,0-.24,0s-.11-.13-.17-.17-.17,0-.27-.1-.06-.06-.1-.09l-.12,0c-.07,0-.35-.17-.54-.14s-.19.18-.57.18c-.63,0-.44,0-1.09.38a2.43,2.43,0,0,1-1.07.44c0,.24.07.06.48.51a.83.83,0,0,0,.63.37c.16,0,.22,0,.33.15l.69.85a3,3,0,0,0,.35.64c.22.23.45.15.64.4s.23.4.48.51c.42.21.61.16.62.42a1.57,1.57,0,0,1-.91-.39c-.11-.11-.21-.23-.31-.35-.23-.28-.57-.26-.81-.56l-.25-.44-.24-.42c-.57-.91-.27-.22-1.21-.87-.18-.12-.17-.22-.31-.34a1.88,1.88,0,0,1-.39-.32,5.53,5.53,0,0,1-.67-.69.54.54,0,0,0-.4-.29,7.34,7.34,0,0,1-1.22-.86,7.72,7.72,0,0,0-.91-.46,2.63,2.63,0,0,1-1.27-.76c-.25-.26-.27-.17-.39-.31s-.43-.65-.74-.58-.7.29-1,.4c-.51.18-.27.17-.78.58l-.38.32c-.08.06-.44.37-.2.37.08,0,.11-.05.24-.11,0,.13,0,0-.05.18.51,0,.13.33.41.6l0,0a.77.77,0,0,0-.05.54c0,.09.1,0,0,.08a5.54,5.54,0,0,0-.51.33c-.23.22-.19.31-.25.64-.24.09-.13,0-.28.16a.49.49,0,0,1-.28.16l.08.11,1.42.48c1.47.49,3,.93,4.48,1.42.27.09,5.78,1.86,5.94,1.88.39,0,.58.23.92,0,1.48-.81,1.15-.37,2,.65.37-.07.73-.47,1-.63s1-.41,1.11-.52.19-.29.37-.43a10.87,10.87,0,0,0,1.55-.93c.32-.24.07-.28.82-.8.28-.2.53-.6.84-.78.76-.44,1-.77,1.42-1s.21-.28.39-.44c.33.07.25.25.81.38l1,.2a1.94,1.94,0,0,1,.49.1,3.06,3.06,0,0,0,.9.29c.5.07.65.18,1-.09a3.19,3.19,0,0,1,.33-.25c.59-.44,1.69-1,2.15-1.44.14-.13.58-.42.63-.55s.25-.6.64-.55.39.44.55.64.2.13.34.25a1.89,1.89,0,0,0,.32.31c.34.23.39.16.56.61.27.71.17.37.6.58a3,3,0,0,1,.63.55,2.65,2.65,0,0,0,.24.35,2.24,2.24,0,0,0,.27.34c.08-.06.43-.36.43-.46-.12-.25-.24-.15-.26-.37a4.77,4.77,0,0,1,.46-.25c-.11-.1-.58-.22.39-.83.55-.35.11-.31,0-.55.1-.2.4-.16.52-.36,0,0,0,0,0,0l-.24-.08a3.34,3.34,0,0,1-.8-.24c-.68-.29-.46-.37-.47-.81a1.92,1.92,0,0,1-.69-.27,1.73,1.73,0,0,1-.68-.8c-.11-.23,0-.15-.26-.21s-.4-.32-.59-.4c-.2.13-.11.06-.11.28l-.27.18c-.2.19.06,0-.11.25s-.11.15-.26.18-.24.14-.34.15c-.31,0,0-.08-.39,0,0,0-.08,0-.15,0l-.06-.14a.26.26,0,0,1-.28,0c-.22-.11,0-.15-.27-.1v-.21c-.2,0-.24,0-.29-.19s0-.07,0-.23c-.32,0-.36-.07-.43-.39.16-.18.14,0,.11-.29,0,0-.08,0-.14,0,.07-.22,0-.29-.13-.43s-.08-.22-.42-.22c.06-.12.06-.05.14-.16H37l-.07-.2c-.17.09,0,0-.12.19l-.46,0c-.35-.05-.11,0-.4,0a1.93,1.93,0,0,0,0-.59l-.16.11a.62.62,0,0,0-.25-.14l.16-.41a4.88,4.88,0,0,0-.62.48c-.16.17-.33.41-.49.58s-.33.36-.52.55a1.31,1.31,0,0,1-.28.24.71.71,0,0,0-.29.28c.35,0,.5-.48.91-.39,0,.1-.17,0,.06.14s.19.08.27.13v.15c-.14.07,0,0-.14,0,.08.22,0,.14,0,.36s.06,0,.16,0l-.24.37c-.13.24-.05.21-.42.25l.09.17c-.28.13,0,.09-.34.09a1.35,1.35,0,0,0,0,.6l-.28.09c0,.08.15.17,0,.25s-.14-.06-.39,0c0,.13,0,.08,0,.22-.21-.06,0-.13-.26-.2,0,.16.06.08.08.19v.07a.17.17,0,0,1,0,.1c-.17-.06-.2-.24-.42-.27S32.29,17,32,17v-.27c-.2.15,0,.11-.53.1-.06-.21-.25-.24-.38-.4A1.67,1.67,0,0,1,31,16.3c-.25.06,0,.09-.33,0-.09-.36-.13-.22-.27-.43.38-.35.37-.13.59-.26-.07-.12-.06-.06-.16-.14s-.29-.24-.56,0S29.91,16,29.69,16.12Z"/><path class="cls-14" d="M32.32,15.29a1.1,1.1,0,0,1,.2-.31l.21-.31c.24-.35.46-.21.56,0-.06.1,0,0-.09.1s-.52,0-.54.44c-.23,0-.16.08-.34.08ZM9.4,19.82l-.08-.11a.49.49,0,0,0,.28-.16c.15-.16,0-.07.28-.16.06-.33,0-.42.25-.64a5.54,5.54,0,0,1,.51-.33c.06-.08,0,0,0-.08a.77.77,0,0,1,.05-.54l0,0c-.28-.27.1-.61-.41-.6,0-.14.05-.05.05-.18-.13.06-.16.11-.24.11-.24,0,.12-.31.2-.37l.38-.32c.51-.41.27-.4.78-.58.28-.11.73-.33,1-.4s.6.42.74.58.14.05.39.31a2.63,2.63,0,0,0,1.27.76,7.72,7.72,0,0,1,.91.46,7.34,7.34,0,0,0,1.22.86.54.54,0,0,1,.4.29,5.53,5.53,0,0,0,.67.69,1.88,1.88,0,0,0,.39.32c.14.12.13.22.31.34.94.65.64,0,1.21.87l.24.42.25.44c.24.3.58.28.81.56.1.12.2.24.31.35a1.57,1.57,0,0,0,.91.39c0-.26-.2-.21-.62-.42-.25-.11-.33-.29-.48-.51s-.42-.17-.64-.4a3,3,0,0,1-.35-.64l-.69-.85c-.11-.12-.17-.11-.33-.15a.83.83,0,0,1-.63-.37c-.41-.45-.44-.27-.48-.51a2.43,2.43,0,0,0,1.07-.44c.65-.37.46-.38,1.09-.38.38,0,.38-.16.57-.18s.47.13.54.14l.12,0s0,.05.1.09.17,0,.27.1.1.15.17.17,0-.13.24,0c0,.18-.08.08,0,.29.24.09,0,0,.11,0s.13,0,.21,0h.14c.41,0,.37.05.45.15a2.09,2.09,0,0,1,.57,0l.06-.21c.31,0,.16,0,.37-.1a.39.39,0,0,1,.33-.07c.13,0,.12-.09.23-.19s.25,0,.29,0,.29-.1.37-.18c.34-.33.18-.12.33-.24s0-.1.18-.16.14,0,.18-.16c.38.06.19,0,.43-.12s.2,0,.4,0c.16-.31.26-.15.45,0s.56.1.66,0-.14-.33.49-.22.37.23.62.13c0-.17,0-.15-.19-.21a1,1,0,0,0-.48-.18c-.22,0-.4,0-.48-.23l.73-.52a4.34,4.34,0,0,1,.84-.37c.22-.17.34-.47.57-.65s.33-.13.56,0,.09,0,.16.14c-.22.13-.21-.09-.59.26.14.21.18.07.27.43.33.05.08,0,.33,0a1.67,1.67,0,0,0,.12.16c.13.16.32.19.38.4.55,0,.33.05.53-.1V17c.28,0,.25-.17.56-.14s.25.21.42.27a.17.17,0,0,0,0-.1V17c0-.11,0,0-.08-.19.25.07,0,.14.26.2,0-.14,0-.09,0-.22.25-.09.19.06.39,0s.08-.17,0-.25l.28-.09a1.35,1.35,0,0,1,0-.6c.32,0,.06,0,.34-.09l-.09-.17c.37,0,.29,0,.42-.25l.24-.37c-.1,0,0,.06-.16,0s.06-.14,0-.36c.12,0,0,.07.14,0v-.15c-.08-.05-.19-.08-.27-.13s0,0-.06-.14c-.41-.09-.56.37-.91.39a.71.71,0,0,1,.29-.28,1.31,1.31,0,0,0,.28-.24c.19-.19.34-.34.52-.55s.33-.41.49-.58a4.88,4.88,0,0,1,.62-.48l-.16.41a.62.62,0,0,1,.25.14l.16-.11a1.93,1.93,0,0,1,0,.59c.29,0,.05-.07.4,0l.46,0c.12-.18,0-.1.12-.19l.07.2h.42c-.08.11-.08,0-.14.16.34,0,.23,0,.42.22s.2.21.13.43c.06,0,.12,0,.14,0,0,.26,0,.11-.11.29.07.32.11.35.43.39.07.16,0,.12,0,.23s.09.17.29.19v.21c.23-.05,0,0,.27.1a.26.26,0,0,0,.28,0l.06.14c.07.09.1,0,.15,0,.37-.06.08,0,.39,0,.1,0,.16-.11.34-.15s.17-.06.26-.18-.09-.06.11-.25l.27-.18c0-.22-.09-.15.11-.28.19.08.37.33.59.4s.15,0,.26.21a1.73,1.73,0,0,0,.68.8,1.92,1.92,0,0,0,.69.27c0,.44-.21.52.47.81a3.34,3.34,0,0,0,.8.24l.24.08s0,0,0,0c-.12.2-.42.16-.52.36.1.24.54.2,0,.55-1,.61-.5.73-.39.83a4.77,4.77,0,0,0-.46.25c0,.22.14.12.26.37,0,.1-.35.4-.43.46a2.24,2.24,0,0,1-.27-.34,2.65,2.65,0,0,1-.24-.35,3,3,0,0,0-.63-.55c-.43-.21-.33.13-.6-.58-.17-.45-.22-.38-.56-.61a1.89,1.89,0,0,1-.32-.31c-.14-.12-.23-.1-.34-.25s-.25-.6-.55-.64-.52.28-.64.55-.49.42-.63.55c-.46.42-1.56,1-2.15,1.44a3.19,3.19,0,0,0-.33.25c-.31.27-.46.16-1,.09a3.06,3.06,0,0,1-.9-.29,1.94,1.94,0,0,0-.49-.1l-1-.2c-.56-.13-.48-.31-.81-.38-.18.16-.08.25-.39.44s-.66.58-1.42,1c-.31.18-.56.58-.84.78-.75.52-.5.56-.82.8a10.87,10.87,0,0,1-1.55.93c-.18.14-.24.31-.37.43s-.9.4-1.11.52-.64.56-1,.63c-.82-1-.49-1.46-2-.65-.34.18-.53,0-.92,0l.08,0,.89.25c0-.12-.06,0,.1-.11s.84-.41,1-.34.55.84.65.9c-.08.07.11.08-.14,0l.54.19c0-.17.37-.34.58-.5a11.48,11.48,0,0,1,1.41-.73c.22-.14.21-.38.54-.53a3.69,3.69,0,0,0,.72-.35,6.65,6.65,0,0,0,.93-.7,1.48,1.48,0,0,1,.83-.71l.31.34c.21-.05.14-.05.34,0,.07-.23.11-.11.34-.18a1.53,1.53,0,0,0,.59-.44c.23-.19.09.07.2-.26.24,0,.6-.08.69-.33l0-.25a0,0,0,0,0,0,0,.43.43,0,0,1-.06-.22l-.21,0v-.2l-.26,0c.06-.14-.06,0,.12-.11s.17-.16.34-.3c.16,0,.11.14.67.29a3.88,3.88,0,0,0,.75.17,10.16,10.16,0,0,1,1.49.38,13,13,0,0,1,1.57.29,6.43,6.43,0,0,0,1.51.34c-.09.33-.25.28-.5.21l-.08.21c-.2-.12.07-.08-.29-.17,0,.07-.06.22-.09.27s-.07,0-.16.18c-.05-.05,0,0-.08-.11s0,0,0-.08c-.06.14,0,.05-.1.11,0-.13,0-.11-.16-.17,0,.37,0,.24.11.4l-.07.14c-.09-.09,0-.07-.12-.08l0,.16-.21,0c.16.24.51.21.78.21-.06.29-.26.32-.22.62.2.08.35.06.51.19-.05.2-.18.2,0,.36a.51.51,0,0,0,.26-.26l.08-.17c.07-.27-.31-.19-.59-.26a1.77,1.77,0,0,1,.26-.35.8.8,0,0,1,.32-.28,4,4,0,0,1,.33-.25A.37.37,0,0,0,38,21.1L37.74,21c.1-.34.49-.46.47-.69-.17-.11-.42-.06-.62-.08l-1.69-.39a2.84,2.84,0,0,1,.72-.61c.13-.06.16,0,.28-.13l.47-.38a8.37,8.37,0,0,0,.82-.48,4.91,4.91,0,0,1,.71-.54c.25-.15.16-.32.33-.52s.39-.11.51.13.18.28.43.45.3.26.46.38.3.14.42.43.11.42.27.58.31.15.56.29c.48.29.86,1.26,1.25,1.3.12-.13.1-.17.19-.28s.14-.07.25-.19c.29-.32.06-.36,0-.58l.06-.06.07-.05a1.16,1.16,0,0,0,.36-.22c0-.12,0-.08-.13-.15s-.08,0-.14-.14.71-.41.87-.91c0-.1-.1-.09-.14-.18.18-.17.47-.14.54-.4-.06-.09-.07-.1-.2-.15-.57-.24-.89-.1-1.56-.55,0-.5.18-.52-.36-.7s-.24-.11-.56-.29-.36-.59-.57-.83-.36-.13-.43-.35a.11.11,0,0,0,0-.05c0-.12,0-.06-.08-.17.45-.25-.31-.39-.19-.71,0-.14.16-.06.29-.05l0-.17c.18.07,0,.06.18.11,0-.2,0-.15.09-.24s.11-.09.2-.16c.13.16,0,.06,0,.15s0,0,.13-.1c.21-.34.13-.2.46-.35l0-.28c.16,0,.09,0,.23.08l0-.15c.34-.07.07,0,.24-.18.14.08,0,.07.19.14l0-.26c.09,0,.13.07.19.11a.72.72,0,0,1,0-.41.49.49,0,0,0,.21,0,2.38,2.38,0,0,1,.77-.94c.5-.26.18-.13.42-.39s.34-.32.18-.58l.14-.08c.13-.15,0-.19,0-.31.21,0,.24.07.4.11l-.11-.16.14-.07a.55.55,0,0,1-.12-.14c-.08-.2,0-.12,0-.16.21,0,0,0,.21.17,0-.12,0-.1,0-.17v0a.14.14,0,0,0,0-.06c0-.16.06-.18.27-.17.05-.33.21-.23.52-.3a.47.47,0,0,1,.16,0c.1,0,0,0,.07,0l.37.05c-.07.22-.09.12.24.29.11-.09.14-.15.31-.12,0,.28,0,0-.15.19a5.77,5.77,0,0,0,.55.29s0,.14,0,.17l.07.14c0,.1,0,0,.06.1s0,0,0,0l0,0-.14.17.33-.05a1.59,1.59,0,0,0-.2.24h.26c-.07.07-.07,0-.11.13l.2.08c0,.12,0,.2,0,.29s-.06,0,0,.2a.57.57,0,0,0,.22.32l.23.18c.22.13.21.21.3.25a.62.62,0,0,0,.23.07c-.06-.11,0,0-.19-.12a.67.67,0,0,1,.54.11c.32.19.17.69.12,1s0,.29.12.45a.86.86,0,0,0-.13.14c.14.09.17,0,.29.07.33.1.46.41.82.48-.11.32,0,.25.15.46,0,0,0,0,0,0s0,0,0,0l.09-.2c0,.11,0,.2,0,.31l0,.25v0a0,0,0,0,0,0,0c0-.73,0-1.6,0-2.34s0-1.6,0-2.32H51.3c0,.09.05,0,0,.07a7.32,7.32,0,0,1-1.4-1.47c-.33-.51-.25-.31-.41-.49s-.23-.17-.38-.31a1.21,1.21,0,0,1-.28-.38,2.74,2.74,0,0,1-.13-.53c-.05-.14-.16-.29-.22-.44s-.12-.21-.2-.32A2.94,2.94,0,0,0,48,6.09a2.91,2.91,0,0,0-.63-.88,3.9,3.9,0,0,0-.84-.64c-.26,0-1,1.75-1.16,1.86l-.45.43c-.2.17-.33.15-.39.49s0,.42-.24.64l-.47.42c0,.29-.57.89-.86,1.71-.05.14-.15.1-.28.23a2.65,2.65,0,0,1-.59.47C42,11,41,11.56,40.6,12l-.62.71a3.24,3.24,0,0,1-.84.48c-.26.05-.61-.4-.73-.56a3.37,3.37,0,0,0-.53-.47,2.91,2.91,0,0,1-.93-.72c-.33-.33-.32-.66-.63-.65-.19.36.14.25-.37.73a3.55,3.55,0,0,0-.42.64,2.06,2.06,0,0,1-.58.52c-.19.15-.29.49-.49.59s-.15.15-.27.31a.9.9,0,0,1-.28.27,4.33,4.33,0,0,1-.66.49c-.19,0-.23-.2-.5,0s-.23.53-.93.88c-.5.25-.41.37-.68.2-.6-.37-.67-.59-1.25.17s-.44.27-.88.57a7.7,7.7,0,0,1-.87.56c-.35.18-.38.31-1-.08s-.56-.17-1,.05-.78.17-1.14.32c-.63.27-.31.34-.8.63a4.86,4.86,0,0,1-1.05.4l-.29.08c-.42.15-.1.17-.79,0a1.84,1.84,0,0,1-.51-.23c-.55-.3-.38,0-.92.22s-.42-.19-1.59.57A4.75,4.75,0,0,1,18,19a2.12,2.12,0,0,1-.58-.61c-.25-.32-.42-.21-.72-.42L16,17.49a8.86,8.86,0,0,0-1.52-.82c-.67-.26-.33-.1-.68-.46s-.29-.1-.63-.55a6.71,6.71,0,0,0-.63-.52,4.76,4.76,0,0,0-.84.31c-.3.14-.54.11-.81.34l-.55.59c-.12.11-.19.1-.32.23a2,2,0,0,1-.3.26,2.12,2.12,0,0,0-.53.61,1.54,1.54,0,0,1-1,.76l-.5.36a1.88,1.88,0,0,1-.45.36l-.11.1V4.34c-.11.16,0,9.58,0,11.09,0,.4,0,3.57,0,3.67A19.66,19.66,0,0,0,9.4,19.82Z"/><path class="cls-15" d="M29.08,17.42c0-.29,0-.19.08-.36s0-.09.07-.18.13,0,.22-.32c0,0,0-.06,0-.08l.08-.1,0,0a.44.44,0,0,1,.07-.08.36.36,0,0,0,.11-.14c0,.05.05.05-.08,0a4.34,4.34,0,0,0-.84.37l-.73.52c.08.21.26.18.48.23A1,1,0,0,1,29.08,17.42Z"/><path class="cls-13" d="M22.21,23.9a15.84,15.84,0,0,0,1.57.5c.25,0,.06,0,.14,0-.1-.06-.51-.73-.65-.9s-.78.25-1,.34S22.23,23.78,22.21,23.9Z"/><path class="cls-16" d="M32.32,15.29c.18,0,.11-.06.34-.08,0-.43.38-.32.54-.44s0,0,.09-.1c-.1-.21-.32-.35-.56,0l-.21.31A1.1,1.1,0,0,0,32.32,15.29Z"/></g><polygon class="cls-17" points="8.48 19.3 29.6 26.1 50.47 19.41 50.47 0.23 8.48 0.13 8.48 19.3"/><path class="cls-18" d="M16.85,46.59c-1-1.4-1.93-2.72-2.8-3.85A28.27,28.27,0,0,1,9,32.5a15.15,15.15,0,0,1-.31-2.23V27.35H50.4V31c-1.52,9.16-9.31,19.37-20.93,24.48A39.07,39.07,0,0,1,16.85,46.59Z"/><path class="cls-19" d="M8.55,27.45h20.9V55.54C17.84,50.42,10.07,40.22,8.55,31.07Z"/><path class="cls-4" d="M39.91,31.19a.35.35,0,0,1,.14.06.32.32,0,0,1,.17.25c0,.19-.14.3-.3.35s-.12,0-.14.06l.2,3.81v0h0V36h0v.06l.07.18a1.29,1.29,0,0,1,.06.25h0a.3.3,0,0,1,0,.1.31.31,0,0,1,0,.19v0a3.45,3.45,0,0,0,0,.85c0,.26,0,.54.06.81s0,.49,0,.73,0,.37.05.55a3.23,3.23,0,0,1,0,.44c0,.15,0,.46,0,.6a.36.36,0,0,1-.08.19l0,.06a1,1,0,0,0,0,.24,1.21,1.21,0,0,1,0,.19c0,.1,0,.13-.08.17a1,1,0,0,1-.25.28l-.37.31s-.12.1-.13.15a.31.31,0,0,0,0,.08c.18.35.54.17.71.61a1.23,1.23,0,0,1,0,.47v.12h0a.28.28,0,0,1-.08.15v0a1.21,1.21,0,0,1-.43.27l-.1,0h-.08a4.37,4.37,0,0,1-1.08.19h-.46a6.22,6.22,0,0,1-1.14-.13l0,0h0a1.54,1.54,0,0,1-.72-.36h0l-.07-.09a.24.24,0,0,1,0-.08h0v-.12a1.14,1.14,0,0,1,.13-.61c.16-.21.41-.24.57-.39s.09-.09.08-.14-.13-.17-.19-.22a2.18,2.18,0,0,1-.49-.47l-.14-.09V41.6c0-.12,0-.23,0-.35a1.08,1.08,0,0,0,0-.21c-.2-.2-.14-.55-.13-.81s0-.57.05-.86,0-.55.07-.82a4.31,4.31,0,0,0,0-.88v0c0-.13,0-.27,0-.41a2,2,0,0,0,0-.42v0l0-.18,0,0h0a.17.17,0,0,1,.06-.06h0a.58.58,0,0,0,0-.15.74.74,0,0,1,0-.14,2.35,2.35,0,0,1,0-.26l.23-4.2a.21.21,0,0,1-.11-.1.31.31,0,0,1,0-.31.55.55,0,0,1,.47-.06,2.45,2.45,0,0,0,.66,0s0,0,0-.06a.57.57,0,0,0,0-.13.8.8,0,0,1,0-.21.51.51,0,0,1,.83-.15.43.43,0,0,1,.15.2h.08a1.79,1.79,0,0,1,.8.12.24.24,0,0,1,.13.17s0,0,0-.06l0-.07h.08A1,1,0,0,1,39.91,31.19Z"/><path class="cls-20" d="M39.51,35.9v0s0,0,0,0h.16a1.62,1.62,0,0,1,0,.22c.07,0,.06-.07,0-.22h.1l-.22-4-.16,0a.75.75,0,0,0,0-.17s0,.08-.05.16h-.22v4Z"/><path class="cls-21" d="M37.42,32.11h-.2c0,.19,0,1.68,0,2s0,.69,0,1a4,4,0,0,1,0,.49l0,.44v0h0v.44l.23,0c.06-.05.09,0,.2-.05a3.5,3.5,0,0,0,0-.86v-.68c0-.13,0-.11.08-.16h0s0,0,.06,0h.12a.88.88,0,0,1,.51.15,8.35,8.35,0,0,0,0,1.66c.18,0,.12.06.29,0l0-.46c-.07-.09,0-.33,0-.46,0-.69,0-1.74,0-2.47,0-.3,0-.7,0-1a1.36,1.36,0,0,0-.36,0s0,0-.09,0H38l0-.09c-.06.13-.08.11-.23.1S37.47,32.15,37.42,32.11Z"/><path class="cls-22" d="M39.86,43.79h-.14a.42.42,0,0,1,0-.25.21.21,0,0,1,.17-.16v.39a.33.33,0,0,0,.06-.14s0,0,0-.06h0a1.24,1.24,0,0,0,0-.41c-.14-.37-.49-.19-.7-.6s.14-.36.51-.71c.07-.06.21-.17.23-.27a.39.39,0,0,0,0-.24.17.17,0,0,0-.12,0l-.05,0,0,0,.19,0v.21a4.22,4.22,0,0,1-1.11.35.61.61,0,0,1,0-.34l-.2,0c-.07.2,0,.18,0,.39l-.12,0a.67.67,0,0,1-.06.3c-.11.25-.14.22-.08.27h.13c.12,0,.09,0,.19,0v.18c-.07.05,0,0,0,.12l-.07.16c-.08.16-.09.19-.18.25a.9.9,0,0,1-.7.21.86.86,0,0,1-.43-.12l-.06,0a.86.86,0,0,1-.3-.81c.23,0,.23,0,.28-.07s-.08,0-.1-.12,0-.27-.1-.33-.09,0-.14-.09h-.07a2,2,0,0,1-.31-.13v-.26l-.1-.06-.05,0L36,41.34c0-.09.06-.24-.09-.23s0,0-.05.12a.55.55,0,0,0,0,.31.21.21,0,0,1,0,.12c0,.12.34.37.46.46s.37.34.13.57-.44.21-.56.37a.88.88,0,0,0-.1.52h0a.4.4,0,0,0,0,.15l.06.07a.42.42,0,0,0,.19.07.32.32,0,0,0,.06-.13c0-.1,0-.09,0-.16a2.31,2.31,0,0,1,.62.11l.64.09a3.85,3.85,0,0,0,.4,0l.41,0,.05,0,.44,0c.39,0,.2.09.28.29s.19,0,.33,0h.13A.81.81,0,0,0,39.86,43.79Z"/><path class="cls-21" d="M39.25,35.16a6.12,6.12,0,0,0,0-.74c0-.24,0-.5,0-.75,0-.48,0-1,0-1.45-.11-.06,0-.09-.14-.13a.54.54,0,0,0-.22,0c0,.39,0,.78,0,1.16v1.18c0,.75.05,1.59,0,2.35a.65.65,0,0,0,.37-.15c.13-.13.09-.21.08-.43A9.24,9.24,0,0,1,39.25,35.16Z"/><path class="cls-23" d="M36.72,41.53v0h-.09c-.09-.09-.07,0-.09-.19s0-.13,0-.2,0-.36,0-.54v-.09a2,2,0,0,1,.43.05c.16,0,.26,0,.27.16l0,.85c.44.14.51,0,.49.43a1.51,1.51,0,0,1-.61,0l0,0,.06,0,.12,0c.1,0,.06.08.11.16s.31.32.56.12.11-.14.17-.36a.76.76,0,0,0,0-.26,1.07,1.07,0,0,1,.5-.09l.2,0h0v-.05h-.32c-.1-.3.07-.12.06-.45a1.22,1.22,0,0,1,.06-.59h-.29c0,.14-.26-.11-.25.24v.14c0,.29,0,.37,0,.54,0,.34-.3.17-.3.16a4.2,4.2,0,0,1,0-1c-.13,0-.16,0-.25,0s-.14,0-.21,0a3.37,3.37,0,0,1-.44,0,2.3,2.3,0,0,0-.41,0,.36.36,0,0,0-.25,0,4.34,4.34,0,0,0,0,.51c0,.16.05.26.08.43A.87.87,0,0,0,36.72,41.53Z"/><path class="cls-21" d="M36.68,32.12c-.14.17-.09.78-.09,1.07s0,.76,0,1.12a18.54,18.54,0,0,1-.07,2.25c0,.12.08.12.17.16a.4.4,0,0,0,.23.08c0-.2,0-.42,0-.62a3.9,3.9,0,0,1,0-.59h0c0-.16,0-.67,0-.88L37,33a8.41,8.41,0,0,1,0-.87A.74.74,0,0,0,36.68,32.12Z"/><path class="cls-24" d="M38.65,36.83c0,.11.06.05,0,.14s0,.05-.12.09l.05.06,0,0c.07.06,0,.29,0,.45s0,.37,0,.55h-.18a.3.3,0,0,0,0,.1h0c.07,0,.14,0,.22,0v-.93c0-.12,0-.17,0-.24s.07.06.09.3a10.65,10.65,0,0,1,0,1.13c0,.26,0,.52,0,.78s0,.51,0,.76c0,0,0,0,0-.05l.07-.44,0-2,.16,0v2.07h0a.26.26,0,0,0,.15.14.66.66,0,0,1,.32,0l0,0,0,0h-.2c0-.38,0-.74,0-1.12v-.85c0-.17,0-.14,0-.25a3.55,3.55,0,0,0-.47.09,2.32,2.32,0,0,1,0-.46l.15,0,.21-.07.19-.08c0-.11,0,0,0-.11a.88.88,0,0,1,.06-.1H40s-.19,0-.27,0h-.15c-.09,0-.07,0-.1,0h-.12a7.25,7.25,0,0,1,0-1.08l0-.29h0v0a9.24,9.24,0,0,0,0,1c0,.22,0,.3-.08.43a.65.65,0,0,1-.37.15c0-.76,0-1.6,0-2.35V33.25c0-.38,0-.77,0-1.16a.54.54,0,0,1,.22,0c.11,0,0,.07.14.13,0-.15-.1-.47,0-.6l.11,0v-.09l-.12,0a.26.26,0,0,1-.13-.1c-.07,0-.22-.08-.29,0s.05,0,.07.12,0,.08,0,.14,0,.26,0,.36v1.89c0,.35,0,2.83,0,2.93Z"/><path class="cls-25" d="M38.3,37.57a2.15,2.15,0,0,1,0,.67l-.16,0c0-.49-.08-.7.14-.69ZM36.56,37c-.09,0-.31,0-.23-.12a.13.13,0,0,1,.23.12Zm-.07-.39h0c0,.06,0,0-.06,0s0,0-.07,0,0,0,.06.08a.8.8,0,0,1-.58.06c.08.11.27,0,.39.08l.06.47h0a1.86,1.86,0,0,1,0-.33,2.59,2.59,0,0,1,.69,0l0,3.39h0c-.05-.17,0-1.44,0-1.72V37.13c0-.14,0-.06.05-.09s.06.05.06.23a1.41,1.41,0,0,0,0,.29s.12,0,.19,0c0-.3-.06-.39.09-.43h.17a.56.56,0,0,1,.2,0c0,.33-.06.34.08.45v1.76c.31,0,.22.06.22-.59a1.09,1.09,0,0,1,0-.37c0-.08.2-.06.29-.1a1.31,1.31,0,0,0,0-.71l-.32,0,0-.42a2.14,2.14,0,0,1-.49-.09c0-.09.12-.06.28-.09a2.05,2.05,0,0,0,.31-.07l0-.28c-.13,0-.16,0-.21-.08l0,0c0,.07,0,0-.11,0h-.11c.12,0,.13,0,.13.12v.24a.38.38,0,0,1-.22.05c-.1,0-.15,0-.2-.07a1.05,1.05,0,0,1,0-.31l-.08,0c0,.17,0,.32-.15.32l0-.09s0,.06-.09.09-.06-.16-.06-.3v-1h0a3.9,3.9,0,0,0,0,.59c0,.2,0,.42,0,.62a.4.4,0,0,1-.23-.08C36.57,36.68,36.52,36.68,36.49,36.56Z"/><path class="cls-22" d="M37.82,39.33c-.06,0,0,0,0,0a1.75,1.75,0,0,1,.73.09,9.58,9.58,0,0,1,0-1.21.3.3,0,0,1,0-.1h.18c0-.18,0-.38,0-.55s0-.39,0-.45l0,0-.05-.06c.11,0,.08,0,.12-.09s0,0,0-.14a.7.7,0,0,0,0-.29c-.17.07-.11,0-.29,0h-.24l-.25,0c0,.06.08,0,.21.08l0,.28a2.05,2.05,0,0,1-.31.07c-.16,0-.24,0-.28.09a2.14,2.14,0,0,0,.49.09l0,.42.32,0a1.31,1.31,0,0,1,0,.71c-.09,0-.24,0-.29.1a1.09,1.09,0,0,0,0,.37C38,39.39,38.13,39.32,37.82,39.33Z"/><path class="cls-22" d="M38.22,32.11h-.16a1.08,1.08,0,0,1,0-.51h.11a1.1,1.1,0,0,1,0,.51Zm-.3-.4a.39.39,0,0,1-.32-.11.57.57,0,0,1,.32,0v.12Zm-.64-.79c-.08.22,0,.35-.17.5,0,1.56,0,3.15,0,4.7h0v0l0-.44a4,4,0,0,0,0-.49c0-.32,0-.69,0-1s0-1.83,0-2h.19s0,0,0,0h-.1v-.32a3.65,3.65,0,0,1,.66.12l0,.24h-.48s.22,0,.31,0,.17,0,.23-.1l0,.09h.14c.08,0,.07,0,.09,0a1.36,1.36,0,0,1,.36,0c0,.29,0,.69,0,1,0,.73,0,1.78,0,2.47,0,.13,0,.37,0,.46l0-4.3c-.06,0-.05,0-.11,0s0,.21,0,.28,0-.28-.1-.57c.06,0,.14,0,.18-.08a3.42,3.42,0,0,1-.72,0l0,0,0,0a.34.34,0,0,1,.06-.06.22.22,0,0,1,.16-.07l-.06,0h-.17c-.06.09,0,.15-.1.22s-.21,0-.31,0V31.3c.09,0,.15,0,.23-.07a.17.17,0,0,0,.07-.17h-.1a.57.57,0,0,1-.22,0l0-.25C37.37,30.83,37.38,30.86,37.28,30.92Z"/><path class="cls-24" d="M37.09,42h0l-.2,0c0,.08,0,.05.14.09s.06.17.1.33.06.06.1.12-.05.05-.28.07a.86.86,0,0,0,.3.81l.06,0a.86.86,0,0,0,.43.12.9.9,0,0,0,.7-.21c.09-.06.1-.09.18-.25l.07-.16c0-.1,0-.07,0-.12v-.18c-.1,0-.07,0-.19,0l0,0a.41.41,0,0,1,0,.33.74.74,0,0,1-1.22.2.66.66,0,0,1-.15-.22.49.49,0,0,1-.05-.24v-.07l1.27,0h0c-.06-.05,0,0,.08-.27a.67.67,0,0,0,.06-.3l.12,0c0-.21,0-.19,0-.39a1.07,1.07,0,0,0-.5.09.76.76,0,0,1,0,.26c-.06.22.08.16-.17.36s-.55-.08-.56-.12,0-.12-.11-.16l-.12,0-.06,0Z"/><path class="cls-26" d="M36.29,37.33c0,.05.08.07.13.1h0c.17,0,.12.17.12.48V39.7s.06,0-.09,0c0,0,0,0,0,0h.06s0,0,.07-.08,0-.36,0-.49V37.51h.25a14.41,14.41,0,0,1,0,1.86c0,.1,0,.14-.08.19h.08v.37c0,.17,0,.13-.49.06-.17,0-.35-.06-.41-.19s0,0,.05,0l0,0c-.11-.09-.08-.18-.07-.35a7,7,0,0,0,0-1.22l-.1,1.4c0,.15,0,.36-.09.41V39.1a7.5,7.5,0,0,0-.13,1.43,1.07,1.07,0,0,0,.09.44c.09,0,0,0,.14,0,0-.2.05-.25,0-.54s0,0-.07-.16-.12-.11,0-.16a.28.28,0,0,1,.25,0,3.13,3.13,0,0,0,.49.16s0,0-.08,0,0,0,.05-.08,0,0,0-.11l.31,0v.24l-.25,0c.09.08.23,0,.36.11l0-3.39a2.59,2.59,0,0,0-.69,0A1.86,1.86,0,0,0,36.29,37.33Z"/><path class="cls-20" d="M38,31.21v0l.06,0a1,1,0,0,1,.49.11c0,.07,0,0-.05.07s-.12,0-.18.08c.07.29,0,.56.1.57s0-.19,0-.28,0,0,.11,0l0,4.3,0,.46a.7.7,0,0,1,0,.29h.1c0-.1,0-2.58,0-2.93V32c0-.1,0-.27,0-.36s0-.07,0-.14,0,0-.07-.12.22,0,.29,0h.18l0,0c-.4,0-.11-.12-.29-.22a2,2,0,0,0-.73-.11C38.17,31.19,38.21,31.22,38,31.21Z"/><path class="cls-20" d="M36.11,33.09s0,0,0,0a1.29,1.29,0,0,0,0-.34c0-.09,0-.24,0-.35.06-1.22-.09-.56-.1-.88,0,0,.23-.08.28-.05s-.05.09.13.17c0,0,0,0,0,0h0c-.07.87-.11,1.83-.11,2.71l0-.08s0-.08,0-.09l0-.53c0-.22,0-.45,0-.68a6,6,0,0,1,.1-1.32.18.18,0,0,1,.11,0c0-.11,0,0,.34-.09L37,32c0-.08,0-.2,0-.3h-.1a.53.53,0,0,0,0,.28c0,.18,0,0,.16.16A8.41,8.41,0,0,0,37,33l0,1.73c0,.21,0,.72,0,.88v1c0,.14,0,.23.06.3s0,0,.09-.09,0-.28,0-.33v-.35c0-1.55,0-3.14,0-4.7a2.63,2.63,0,0,1-.74,0c-.09,0-.28,0-.34,0a.18.18,0,0,0,0,.15s.08.06.12.09c0,.21,0,.47,0,.7a2.08,2.08,0,0,0,0,.35c0,.07,0,.11,0,.18A.45.45,0,0,0,36.11,33.09Z"/><path class="cls-21" d="M37.61,39.8a.36.36,0,0,1-.21,0c-.08,0-.09,0-.1-.15a4.37,4.37,0,0,1,.9.08v.1a.68.68,0,0,1-.59,0Zm0-.36h.16v.14h-.12c-.06,0-.06-.07,0-.14Zm-.23,0-.09,0a1,1,0,0,0-.17,0v.65l.38,0c.38-.06.84,0,1.22,0v-.65c-.05,0,0,0-.06,0h-.12a1.75,1.75,0,0,0-.73-.09v0Z"/><path class="cls-20" d="M35.91,35.81a1.5,1.5,0,0,0,0,.36c0,.16.06,0,0,.4l0,0h0l0,0h.51s0,0,.07,0,0,0,.06,0a.49.49,0,0,1-.24,0,3.77,3.77,0,0,1,.07-.83,4.07,4.07,0,0,0,.09-.84l0,.08a.38.38,0,0,1,0,.1.23.23,0,0,1-.06.12c-.08-.47.15-3.38,0-3.54,0,0,0,0-.06.08h-.15l-.22,4.07Z"/><path class="cls-27" d="M36.39,34.33v.57a4.07,4.07,0,0,1-.09.84,3.77,3.77,0,0,0-.07.83.49.49,0,0,0,.24,0h0a18.54,18.54,0,0,0,.07-2.25c0-.36,0-.75,0-1.12s-.05-.9.09-1.07.06,0,.07-.1,0-.3-.06-.37a.18.18,0,0,0-.11,0,6,6,0,0,0-.1,1.32c0,.23,0,.46,0,.68l0,.53s0,.08,0,.09Z"/><path class="cls-26" d="M39.24,31.39l0,0H39a.26.26,0,0,0,.13.1l.12,0v.09a9.07,9.07,0,0,0,0,1c0,.16,0,.36,0,.51s0,.37,0,.56a3.05,3.05,0,0,0,0,.52h0l0-1.3a4.82,4.82,0,0,1,0-1.27,16.92,16.92,0,0,1,.09,1.69c0,.35.06.9.07,1.23V35c0,.07,0,.07,0,.09.07-.15,0-1.6,0-2,0-.19,0-.55,0-.69s0-.28,0-.42.11-.16.24-.2c.39-.13.15-.39,0-.4a1,1,0,0,0-.34,0A.64.64,0,0,1,39.24,31.39Z"/><path class="cls-20" d="M39.52,37.35l.06,0s0,0,0,0l0-.42c0,.07,0,1.21,0,1.41s0,.49,0,.72.08.54,0,.65l0,0h.06V38.58c0-.07,0-.11,0-.16a9.59,9.59,0,0,1,.1,1.06c0,.1,0,.28.05.33a11.38,11.38,0,0,0,0-1.34,8.42,8.42,0,0,1,.13,1.31c0,.11,0,.37.06.45,0-.35-.1-1.21-.11-1.71A10.78,10.78,0,0,1,40,36.83h-.39c0,.1,0,.19,0,.29A.64.64,0,0,1,39.52,37.35Z"/><path class="cls-6" d="M36.11,33.09v.11c0,.87-.08,1.61,0,2.38a17.31,17.31,0,0,0,.2-2.95v-.89c0-.12,0-.07.06-.08.11.16-.12,3.07,0,3.54a.23.23,0,0,0,.06-.12.38.38,0,0,0,0-.1l0-.08v-.57c0-.88,0-1.84.11-2.71h0s0,0,0,0c-.18-.08,0-.11-.13-.17s-.24,0-.28.05c0,.32.16-.34.1.88,0,.11,0,.26,0,.35a1.29,1.29,0,0,1,0,.34S36.12,33.07,36.11,33.09Z"/><path class="cls-27" d="M39.52,37.35s0,0-.11,0h0c-.06.11,0,.08,0,.25v.85c0,.38,0,.74,0,1.12h.2l0,0,0,0h.11c.1-.11,0-.49,0-.65s0-.47,0-.72,0-1.34,0-1.41l0,.42c-.06,0,0-.06,0,0Z"/><path class="cls-28" d="M37.07,40.42h0l.1,0a2.1,2.1,0,0,1,.36,0c0-.24.05-.08-.08-.23h0l-.38,0v-.65a1,1,0,0,1,.17,0l0,0h0c0-.31,0-.63,0-.94a8.87,8.87,0,0,0,0-.9l-.18.05c0,.13,0,.49,0,.56l0-.26a3.66,3.66,0,0,0,0-.8c0,.06,0,3,0,3.29Z"/><path class="cls-6" d="M37.64,34.78a.28.28,0,0,1,.22,0V36a1.9,1.9,0,0,0,0,.42l0,0,.25,0h.24a8.35,8.35,0,0,1,0-1.66.88.88,0,0,0-.51-.15h-.12c-.05,0-.05,0-.06,0Z"/><path class="cls-29" d="M39.18,32.22c0,.47,0,1,0,1.45,0,.25,0,.51,0,.75a6.12,6.12,0,0,1,0,.74v0h0l0,.29a7.25,7.25,0,0,0,0,1.08h.12l.08,0,0-.62c0-.34-.11-.7-.13-1a4.73,4.73,0,0,1,0-1.12c0-.19,0-.37,0-.56s0-.35,0-.51a9.07,9.07,0,0,1,0-1l-.11,0C39.08,31.75,39.15,32.07,39.18,32.22Z"/><path class="cls-6" d="M38.89,40v.12c0,.28,0,.24-.07.32H39l.2,0h0l.06,0a2.9,2.9,0,0,0,.49-.09.75.75,0,0,1,.21,0c0-.17,0-.06,0-.17s0-.09,0-.16l-.08-.14s0,0-.07,0l-.07,0,0,0h-.11a.66.66,0,0,0-.32,0,.26.26,0,0,1-.15-.14l-.1,0-.07.44C38.9,40,38.91,40,38.89,40Z"/><path class="cls-28" d="M36.61,44.11h0a5,5,0,0,0,1.19.15h.45a4.15,4.15,0,0,0,1.14-.21,4.82,4.82,0,0,1-1,.14c0-.22.08-.33-.18-.39l-.41,0a3.85,3.85,0,0,1-.4,0l-.6,0C36.82,44.05,36.93,44.13,36.61,44.11Z"/><path class="cls-4" d="M37.33,44.17c-.06-.36,0-.33.21-.32a.21.21,0,0,1,.2.08.39.39,0,0,1,0,.24A2.05,2.05,0,0,1,37.33,44.17Z"/><path class="cls-4" d="M36.42,37.43c-.05,0-.11,0-.13-.1H36.2c0,.18,0,.36,0,.54a5.37,5.37,0,0,1,0,.57,6.54,6.54,0,0,0,0,1.07h.1c0,.06,0,.06.07.09s0,0,0-.06,0,0,0,0,0,0,.13,0Z"/><path class="cls-28" d="M35.77,37.64s0,0,0,0a2.55,2.55,0,0,0,.13.78c0-.14,0-.34,0-.5s0-.12,0-.2v-.28s0,0,0,.06l0,.5c0,.19,0,.38,0,.55s-.06,1,0,1.22c.07,0,0,0,.11,0s.12,0,.22-.07l0,0V37.43h0v2.12c-.11,0-.07,0-.13,0s0,0,0,0,0,0,0,.06,0,0-.07-.09h-.1a6.54,6.54,0,0,1,0-1.07,5.37,5.37,0,0,0,0-.57c0-.18,0-.36,0-.54h.06l-.06-.47c-.12,0-.31,0-.39-.08h0A5.13,5.13,0,0,1,35.77,37.64Z"/><path class="cls-20" d="M35.77,37.64a10.33,10.33,0,0,1-.08,1.74c0,.27,0,.56,0,.86s-.06.55.1.71h0a1.07,1.07,0,0,1-.09-.44,7.5,7.5,0,0,1,.13-1.43V40c.12-.05.09-.26.09-.41l.1-1.4a7,7,0,0,1,0,1.22c0,.17,0,.26.07.35h0c.05,0,0,0,.05,0s0,0-.11,0c0-.2,0-1,0-1.22s0-.36,0-.55l0-.5c0-.06,0,0,0-.06v.28c0,.08,0,.12,0,.2s0,.36,0,.5a2.55,2.55,0,0,1-.13-.78C35.78,37.66,35.81,37.61,35.77,37.64Z"/><path class="cls-28" d="M37.06,41.93V41.6a.44.44,0,0,1,.25.06c0,.24,0,.33-.24.27Zm-.58-1.36.05-.06.35,0a3.54,3.54,0,0,1-.05.74s0,0,.1.07l0,.16h-.17v0l0,0c.25,0,.15.12.19.34,0,0,0,0,.11.07h0a1.51,1.51,0,0,0,.61,0c0-.4-.05-.29-.49-.43l0-.85c0-.15-.11-.14-.27-.16a2,2,0,0,0-.43-.05Z"/><path class="cls-30" d="M36.67,39.67l.12-.1c.07,0,.07-.09.08-.19a14.41,14.41,0,0,0,0-1.86h-.25v1.67C36.63,39.31,36.58,39.6,36.67,39.67Z"/><path class="cls-31" d="M37.64,34.78c-.09,0-.08,0-.08.16v.68a3.5,3.5,0,0,1,0,.86c-.11,0-.14,0-.2.05l.14,0h.27c.12,0,.08,0,.11,0a1.9,1.9,0,0,1,0-.42V34.79A.28.28,0,0,0,37.64,34.78Z"/><path class="cls-28" d="M38.53,38.25h.14a6,6,0,0,1,0,1.13h.06a2.71,2.71,0,0,1,0,.57c0,.12,0,.43.11.45s0-.12,0-.19l0-.06V40c0-.25,0-.51,0-.76s0-.52,0-.78a10.65,10.65,0,0,0,0-1.13c0-.24,0-.27-.09-.3s0,.12,0,.24v.93C38.67,38.24,38.6,38.21,38.53,38.25Z"/><path class="cls-24" d="M35.76,41c0,.12.06.1.06.28s0,.22,0,.34l.12.07a.21.21,0,0,0,0-.12.55.55,0,0,1,0-.31c0-.08,0-.11.05-.12s.09.14.09.23l.32.13.05,0,.1.06v.26a2,2,0,0,0,.31.13h0l0-.2c0-.1,0-.15,0-.2l0,0a.87.87,0,0,1-.42-.13c0-.17-.06-.27-.08-.43a4.34,4.34,0,0,1,0-.51.36.36,0,0,1,.25,0,1.16,1.16,0,0,0-.32-.08c-.1,0-.19,0-.29-.06,0,.15,0,0,.07.16s0,.34,0,.54C35.8,41,35.85,41,35.76,41Z"/><path class="cls-32" d="M37.58,43.15a.55.55,0,0,1-.29-.5,1.31,1.31,0,0,1,.4,0,4.85,4.85,0,0,1,.58,0c.09,0,.1,0,.09.09a.59.59,0,0,1-.78.4Zm.93-.56h-.15l-1.27,0v.07a.49.49,0,0,0,.05.24.66.66,0,0,0,.15.22.74.74,0,0,0,1.22-.2.41.41,0,0,0,0-.33Z"/><path class="cls-26" d="M39.68,39.73l.07,0s0,0,.07,0l.08.14c0,.07,0,.08,0,.16s.08,0,0,.17,0,.47,0,.65h0a.18.18,0,0,1,.12-.09c0-.07,0-.44,0-.58s0-.34-.06-.45A8.42,8.42,0,0,0,40,38.47a11.38,11.38,0,0,1,0,1.34c-.09-.05-.05-.23-.05-.33a9.59,9.59,0,0,0-.1-1.06c-.05,0,0,.09,0,.16v1.14Z"/><path class="cls-28" d="M38.74,40.49h-.07a1.22,1.22,0,0,0-.06.59c0,.33-.16.15-.06.45H39c-.08,0-.1,0-.19,0,0-.15,0-.11,0-.21s0-.63,0-.72a.39.39,0,0,1,.4-.07,1.69,1.69,0,0,1,0,.51c0,.19-.09.17-.09.43l.1,0c.05-.13,0-.14.08-.24s.08-.06.1-.2c.1-.82-.19-.46-.43-.55A.61.61,0,0,1,38.74,40.49Z"/><path class="cls-33" d="M39,41.53a1,1,0,0,1,.21-.07c0-.26.08-.24.09-.43a1.69,1.69,0,0,0,0-.51.39.39,0,0,0-.4.07c0,.09,0,.61,0,.72s-.06.06,0,.21C38.85,41.52,38.87,41.5,39,41.53Z"/><path class="cls-34" d="M37.32,40.53c.07,0,.12,0,.21,0s.12,0,.25,0a4.2,4.2,0,0,0,0,1s.3.18.3-.16c0-.17,0-.25,0-.54v-.14c0-.35.21-.1.25-.24Z"/><path class="cls-28" d="M39.51,35.93l0,.62-.08,0c0,.06,0,0,.1,0h.15c.08,0,.22,0,.27,0v.14a.15.15,0,0,0,0-.13c0-.08,0,0,0-.11a.86.86,0,0,0-.05-.23l-.08.09c0-.23,0-.45,0-.67L39.72,34a.26.26,0,0,0,0-.16c0,.13.07.88.07,1.15a3.75,3.75,0,0,1,0,.58,1.51,1.51,0,0,0,0,.3c0,.17,0,.22,0,.24a2.61,2.61,0,0,0,0-.28,2,2,0,0,0-.05-.24s0,0-.07,0,.07-.27,0-.35c-.08.12,0,.44-.06.61S39.54,35.92,39.51,35.93Z"/><path class="cls-24" d="M39.21,40.42c.24,0,.4-.08.54,0s0,.32,0,.48,0,.22-.18.32v.18a1.94,1.94,0,0,1-.64.16h-.08v.05a2.19,2.19,0,0,0,.47-.08,3.08,3.08,0,0,0,.42-.12l0,0,.05,0a.17.17,0,0,1,.12,0,.39.39,0,0,1,0,.24c.06,0,0,0,.06-.08v-.18a.73.73,0,0,1,0-.3c.05-.1.09-.07.11-.22a.18.18,0,0,0-.12.09h0c0-.18,0-.47,0-.65a.75.75,0,0,0-.21,0,2.9,2.9,0,0,1-.49.09l-.06,0Z"/><path class="cls-23" d="M37.73,42.87c-.21-.09-.12-.32.31-.18a.22.22,0,0,1-.07.17s0,0-.06,0Zm-.44-.22a.55.55,0,0,0,.29.5.59.59,0,0,0,.78-.4c0-.1,0-.08-.09-.09a4.85,4.85,0,0,0-.58,0A1.31,1.31,0,0,0,37.29,42.65Z"/><path class="cls-6" d="M35.86,40.31c.1,0,.19,0,.29.06a1.16,1.16,0,0,1,.32.08,2.3,2.3,0,0,1,.41,0,3.37,3.37,0,0,0,.44,0l1.06,0h.36l.07,0a.21.21,0,0,0-.19-.1.91.91,0,0,0-.23,0l-.43,0c-.14,0-.28,0-.42,0l-.42,0h0s0,0,0,0,0,0,0,0h0c-.13-.14-.27,0-.36-.11h0a3.13,3.13,0,0,1-.49-.16.28.28,0,0,0-.25,0C35.74,40.2,35.76,40.26,35.86,40.31Z"/><path class="cls-20" d="M37.65,37.59l0,0c0,.3,0,.64,0,1,0,.6.1.79-.19.77l0-1.08c-.1.11-.05.38-.06.55,0,.7-.15.57.32.55v0s0,0,0,0V37.57c-.14-.11,0-.12-.08-.45a.56.56,0,0,0-.2,0c.1.2,0,.28.05.4a.11.11,0,0,0,0,.09Z"/><path class="cls-4" d="M36.48,40.57c0,.18,0,.36,0,.54s0,.13,0,.2,0,.1.09.19h.26l0-.16c-.06,0-.07,0-.1-.07a3.54,3.54,0,0,0,.05-.74l-.35,0Z"/><path class="cls-20" d="M39.21,40.42l-.2,0c.24.09.53-.27.43.55,0,.14,0,.11-.1.2s0,.11-.08.24l-.1,0a1,1,0,0,0-.21.07,1.94,1.94,0,0,0,.64-.16v-.18c.14-.1.18-.09.18-.32s0-.32,0-.48S39.45,40.41,39.21,40.42Z"/><path class="cls-25" d="M36.71,44.14c.21,0,.11-.12.14-.38l.6,0-.64-.09a2.31,2.31,0,0,0-.62-.11c0,.07.05.06,0,.16a.32.32,0,0,1-.06.13.38.38,0,0,1-.2-.08A1.45,1.45,0,0,0,36.71,44.14Z"/><path class="cls-35" d="M39.75,41.39a3.08,3.08,0,0,1-.42.12,2.19,2.19,0,0,1-.47.08h0a.61.61,0,0,0,0,.34,4.22,4.22,0,0,0,1.11-.35v-.21Z"/><path class="cls-36" d="M37,40.44s0,0,0,0,0,0,0,0l-.06,0c0-.25,0-3.23,0-3.29a3.66,3.66,0,0,1,0,.8l0,.26c.08-.07,0-.43,0-.56l.18-.05a8.87,8.87,0,0,1,0,.9c0,.31,0,.63,0,.94h0l0,0,.09,0c0-.12,0-1.57,0-1.82.19,0,.15.11.14.26a2.67,2.67,0,0,0,0,.4l.06,0v-.67h-.21a.66.66,0,0,1,0-.46c-.15,0-.06.13-.09.43-.07,0-.14,0-.19,0a1.41,1.41,0,0,1,0-.29c0-.18.05-.24-.06-.23s0,0-.05.09v1.59C37,39,36.94,40.27,37,40.44Z"/><polygon class="cls-27" points="38.98 39.53 39.08 39.59 39.12 39.58 39.12 37.51 38.96 37.55 38.98 39.53"/><path class="cls-20" d="M36.17,39.71a.24.24,0,0,1,.16,0,.34.34,0,0,1,.16.06c.15,0,0,0,.09,0V37.91c0-.31,0-.44-.12-.48v2.19l0,0C36.29,39.67,36.26,39.62,36.17,39.71Z"/><path class="cls-33" d="M37.58,37.65v.58l-.06,0,0,1.08c.29,0,.19-.17.19-.77,0-.31,0-.65,0-1l0,0h0Z"/><path class="cls-25" d="M38.26,43.8c.26.06.17.17.18.39a3.24,3.24,0,0,0,.79-.09l.09,0a.49.49,0,0,0,.17-.06c-.22,0-.36.08-.46,0s.11-.33-.28-.29l-.44,0Z"/><path class="cls-21" d="M36.79,39.57l-.12.1s0,.06-.07.08h-.06s0,0,0,0a.34.34,0,0,0-.16-.06.24.24,0,0,0-.16,0s0,0-.05,0h0l0,0s0,0-.05,0,.24.17.41.19c.51.07.49.11.49-.06v-.37Z"/><path class="cls-35" d="M39.08,37l-.15,0a2.32,2.32,0,0,0,0,.46,3.55,3.55,0,0,1,.47-.09h0a.6.6,0,0,0,.13-.46A2.71,2.71,0,0,0,39.08,37Z"/><path class="cls-24" d="M38.64,39.45c.07,0,0,0,.06,0v.65c-.38.07-.84,0-1.22,0h0a3.39,3.39,0,0,1,.45,0l.09,0,0,.08c0,.08,0,.05,0,.08s0,0-.05,0,0,0,0,0l.43,0a.91.91,0,0,1,.23,0,.21.21,0,0,1,.19.1l-.07,0a.61.61,0,0,0,.27,0h-.19c.08-.08.08,0,.07-.32l0,.06c0,.07,0,.12,0,.19s-.12-.33-.11-.45a2.71,2.71,0,0,0,0-.57h-.06Z"/><path class="cls-27" d="M38.52,39.46h.12l0-.07a6,6,0,0,0,0-1.13h-.18A9.58,9.58,0,0,0,38.52,39.46Z"/><path class="cls-24" d="M37.34,39.41l.44-.06c-.47,0-.32.15-.32-.55,0-.17,0-.44.06-.55a2.67,2.67,0,0,1,0-.4c0-.15.05-.29-.14-.26C37.37,37.84,37.39,39.29,37.34,39.41Z"/><path class="cls-33" d="M37.41,32.12h.49l0-.24a3.65,3.65,0,0,0-.66-.12v.32h.1C37.42,32.12,37.38,32.09,37.41,32.12Z"/><path class="cls-22" d="M39.08,37a2.71,2.71,0,0,1,.46-.07.6.6,0,0,1-.13.46c.07,0,.08,0,.11,0a.64.64,0,0,0,.06-.22c0-.1,0-.19,0-.29H40v-.18h-.44a.88.88,0,0,0-.06.1c0,.07,0,0,0,.11l-.19.08Z"/><path class="cls-20" d="M37.12,40.41l.42,0c.14,0,.28,0,.42,0s0,0,0,0,0,0,.05,0,0,0,0-.08l0-.08-.09,0a3.39,3.39,0,0,0-.45,0c.13.15.08,0,.08.23a2.1,2.1,0,0,0-.36,0Z"/><path class="cls-32" d="M37.77,31.44l-.18,0c0-.14,0-.16.17-.17v.15Zm-.1-.39h.1a.17.17,0,0,1-.07.17c-.08.08-.14,0-.23.07v.14c.1,0,.19.09.31,0s0-.13.1-.22H38v0l-.08,0c0-.15,0-.11.07-.19a.29.29,0,0,0-.13-.17h-.08c0,.05,0,.08,0,.14S37.72,31,37.67,31.05Z"/><path class="cls-22" d="M37.61,39.8v-.12c.13,0,.33,0,.33.11A.91.91,0,0,1,37.61,39.8Zm0,0a.68.68,0,0,0,.59,0v-.1a4.37,4.37,0,0,0-.9-.08c0,.12,0,.11.1.15A.36.36,0,0,0,37.61,39.8Z"/><path class="cls-21" d="M38.54,31.44c.05,0,0,0,.05-.07a1,1,0,0,0-.49-.11.22.22,0,0,0-.16.07.34.34,0,0,0-.06.06l0,0,0,0A3.42,3.42,0,0,0,38.54,31.44Z"/><path class="cls-20" d="M37.28,30.92c.1-.06.09-.09.21-.1l0,.25a.57.57,0,0,0,.22,0s.08,0,.11-.08,0-.09,0-.14h.08C37.77,30.62,37.35,30.71,37.28,30.92Z"/><path class="cls-28" d="M38.3,37.57c-.22,0-.14.2-.14.69l.16,0A2.15,2.15,0,0,0,38.3,37.57Z"/><path class="cls-28" d="M37.58,37.65l0-.07h0a.11.11,0,0,1,0-.09c0-.12,0-.2-.05-.4h-.17a.66.66,0,0,0,0,.46h.21Z"/><path class="cls-37" d="M38.22,32.11a1.1,1.1,0,0,0,0-.51h-.11a1.08,1.08,0,0,0,0,.51Z"/><path class="cls-24" d="M36.69,31.65c.08.07.08.25.06.37s0,0-.07.1a.74.74,0,0,1,.33,0c-.11-.14-.14,0-.16-.16a.53.53,0,0,1,0-.28h.1c0,.1,0,.22,0,.3l.06-.41C36.67,31.6,36.7,31.54,36.69,31.65Z"/><path class="cls-26" d="M35.79,36.77h0a.8.8,0,0,0,.58-.06c0-.06,0,0-.06-.08h-.51Z"/><path class="cls-28" d="M38,42.86a.22.22,0,0,0,.07-.17c-.43-.14-.52.09-.31.18h.18C38,42.87,37.93,42.89,38,42.86Z"/><path class="cls-28" d="M37.51,36.9h.07s0,0,0,0l0,0v-.27H37.4c0,.12,0,.23,0,.3l0,0C37.59,37,37.44,36.84,37.51,36.9Z"/><path class="cls-33" d="M37.06,41.93c.28.06.25,0,.24-.27a.44.44,0,0,0-.25-.06Z"/><path class="cls-25" d="M36.59,40.32h0l.25,0V40.1l-.31,0c0,.11,0,0,0,.11s0,0-.05.08S36.55,40.28,36.59,40.32Z"/><path class="cls-6" d="M39.89,43.39a.21.21,0,0,0-.17.16.42.42,0,0,0,0,.25h.16Z"/><path class="cls-20" d="M39.24,31.39a.64.64,0,0,0,.28-.07,1,1,0,0,1,.34,0,1,1,0,0,0-.57-.11A1.67,1.67,0,0,0,39.24,31.39Z"/><path class="cls-26" d="M37.09,36.8l0,.09c.19,0,.14-.15.15-.32l.08,0h0l-.23,0v-.09C37.06,36.52,37.08,36.71,37.09,36.8Z"/><path class="cls-20" d="M36.83,42h0l.2,0c-.07-.06-.06,0-.11-.07,0-.22.06-.32-.19-.34.05.05,0,.1,0,.2Z"/><path class="cls-38" d="M37.34,36.53h0a1.05,1.05,0,0,0,0,.31c.12,0,0,.06.16,0-.07-.06.08.05,0,0l0,0c-.07-.07,0-.18,0-.3h.26v.27l0,0s0,0,0,0h.08a.45.45,0,0,0,0-.3c0-.13,0,.05,0,0v0s0,0,0,0h-.16Z"/><path class="cls-30" d="M37.61,39.8a.91.91,0,0,0,.33,0c0-.15-.2-.13-.33-.11Z"/><path class="cls-20" d="M37.58,36.89h-.07c-.13,0,0,0-.16,0,0,.06.1.07.2.07a.38.38,0,0,0,.22-.05v-.24c0-.12,0-.12-.13-.12s0,0,0,0v0c0,.09,0-.09,0,0a.45.45,0,0,1,0,.3Z"/><path class="cls-30" d="M36.56,37a.13.13,0,0,0-.23-.12C36.25,37,36.47,37,36.56,37Z"/><path class="cls-39" d="M37.6,31.6a.39.39,0,0,0,.32.11v-.12A.57.57,0,0,0,37.6,31.6Z"/><path class="cls-30" d="M37.77,31.44v-.15c-.13,0-.15,0-.17.17Z"/><path class="cls-24" d="M37.57,39.44c0,.07,0,.13,0,.14h.12v-.14Z"/></g><path class="cls-40" d="M8.55,4.34H50.4V31c-1.52,9.16-9.31,19.37-20.93,24.48C17.85,50.37,10.07,40.16,8.55,31Z"/><path class="cls-3" d="M12.51,55.68c1.84.57,3.92,1.11,5.7,1.76a.18.18,0,0,1,.13.16l.13,1.6a43.25,43.25,0,0,0,10.59,1.31,42.78,42.78,0,0,0,10.72-1.42l0-1.51h.13l5.61-2a.2.2,0,0,1,.24.11.2.2,0,0,1,0,.13h0l-1,2.6,1,1.8a.19.19,0,0,1-.08.25h0l-3,1.07v1.68a.17.17,0,0,1-.14.17,43.41,43.41,0,0,1-13.25,2.25,42.31,42.31,0,0,1-13.35-2.09.19.19,0,0,1-.12-.17l-.08-1.56-3.11-.91a.17.17,0,0,1-.1-.27l1-1.75-1.18-2.8a.19.19,0,0,1,.1-.24ZM18,57.88l-1.66.74c.59.17,1.17.34,1.77.49L18,57.88Zm-2,1V61.5l.09,1.57a41.59,41.59,0,0,0,13.11,2,43.27,43.27,0,0,0,13-2.19c0-1.44-.05-2.68-.09-4.13l-1.22.37h0a43.51,43.51,0,0,1-11.84,1.71,45.84,45.84,0,0,1-13.08-2Zm-.36,2.38V58.68a.25.25,0,0,1,.11-.2l1.91-.84-4.87-1.5,1.06,2.52h0a.15.15,0,0,1,0,.16l-1,1.64,2.77.81ZM40.14,59c.54-.12,1-.3,1.57-.45l-1.6-.69,0,1.14Zm2.32-.38L42.55,61l2.69-1-.91-1.7h0a.19.19,0,0,1,0-.15l.91-2.3-4.82,1.71,1.89.81A.24.24,0,0,1,42.46,58.61Z"/><path class="cls-3" d="M21.44,60.59l-.21.87-.1,0v0a1.85,1.85,0,0,0,0-.23,1.16,1.16,0,0,0,0-.18.51.51,0,0,0-.07-.15.63.63,0,0,0-.11-.13.71.71,0,0,0-.14-.1l-.16-.05a.52.52,0,0,0-.17,0l-.16,0a.55.55,0,0,0-.11.1.31.31,0,0,0-.06.13.34.34,0,0,0,0,.1.45.45,0,0,0,0,.11,1.51,1.51,0,0,0,.16.2,2.92,2.92,0,0,0,.3.28l.25.23.16.17.09.14a.53.53,0,0,1,0,.15.77.77,0,0,1,0,.15.39.39,0,0,1,0,.15.62.62,0,0,1-.12.26.84.84,0,0,1-.22.19.75.75,0,0,1-.3.09,1,1,0,0,1-.33,0l-.1,0L20,63l-.09,0-.13-.08-.14-.07-.07,0h-.07l0,0,0,.06v0l-.11,0,.22-.89.1,0h0a1,1,0,0,0,0,.25.47.47,0,0,0,0,.17.61.61,0,0,0,.07.14.49.49,0,0,0,.12.13.65.65,0,0,0,.15.1l.19.07a.71.71,0,0,0,.2,0l.17,0a.36.36,0,0,0,.13-.11.31.31,0,0,0,.06-.13.28.28,0,0,0,0-.09.34.34,0,0,0,0-.1.42.42,0,0,0,0-.1l-.07-.1-.12-.12-.22-.2-.23-.22-.16-.17a.8.8,0,0,1-.09-.14.47.47,0,0,1-.06-.15.39.39,0,0,1,0-.15.92.92,0,0,1,0-.16.68.68,0,0,1,.12-.24.63.63,0,0,1,.21-.18.72.72,0,0,1,.27-.09,1.1,1.1,0,0,1,.31,0l.21.07.2.13.08,0,.05,0h.07l0,0,0-.07h0l.1,0v0Zm.86,2.59a.38.38,0,0,0,0,.1l0,.1.06.06a.19.19,0,0,0,.09,0,.4.4,0,0,0,.21,0,.92.92,0,0,0,.25-.17h0l0-.15,0,0-.11.07-.06,0h-.08v-.07a.46.46,0,0,1,0-.1c0-.05,0-.11,0-.19l.11-.57c0-.08,0-.15,0-.21V62a.43.43,0,0,0-.05-.12.28.28,0,0,0-.09-.1.61.61,0,0,0-.16-.09.66.66,0,0,0-.2-.06.86.86,0,0,0-.27,0,.77.77,0,0,0-.23.06l-.16.12a.51.51,0,0,0-.07.15.11.11,0,0,0,0,.08.24.24,0,0,0,0,.08l.05,0,.07,0h.07l.06,0s0,0,.05-.06A.11.11,0,0,0,22,62l0-.1a.09.09,0,0,1,0-.07s0,0,.06,0l.08,0h.1a.29.29,0,0,1,.13.05.3.3,0,0,1,.08.08,1.3,1.3,0,0,1,0,.13.88.88,0,0,1,0,.21v.06a3.08,3.08,0,0,0-.39.07,1.42,1.42,0,0,0-.28.07.75.75,0,0,0-.18.08.36.36,0,0,0-.13.11.31.31,0,0,0-.07.09.56.56,0,0,0,0,.12,1.28,1.28,0,0,0,0,.19.37.37,0,0,0,.07.16.43.43,0,0,0,.11.12.44.44,0,0,0,.16.06H22l.14,0,.21-.1Zm0-.17a.93.93,0,0,1-.22.09.53.53,0,0,1-.16,0l-.09,0a.27.27,0,0,1-.07-.08.3.3,0,0,1,0-.1.49.49,0,0,1,0-.12l0-.09.07-.08.09-.06a.59.59,0,0,1,.14-.06l.14,0,.22,0-.12.6Zm.73-1,.55-.15.1,0,0,.34.11-.12a.57.57,0,0,1,.16-.11l.15-.05h.15a.49.49,0,0,1,.24.08.52.52,0,0,1,.18.18.77.77,0,0,1,.12.31.91.91,0,0,1,0,.37,1.33,1.33,0,0,1-.12.4.83.83,0,0,1-.23.3.76.76,0,0,1-.58.18l-.13,0-.11,0-.08,0s0,0-.05-.05l-.06.47a.82.82,0,0,0,0,.14v.08s0,0,0,0l0,0,.07,0,.11,0h0v.11l-.94-.12v-.1h.16l.08,0,0,0,0,0a.22.22,0,0,0,0-.08,1.15,1.15,0,0,1,0-.14l.21-1.61c0-.05,0-.1,0-.13v-.11l0,0,0,0h-.18l0-.1Zm.58.4-.08.62c0,.07,0,.13,0,.17v.1l0,.1a.31.31,0,0,0,.07.09.25.25,0,0,0,.1.08.58.58,0,0,0,.14,0,.29.29,0,0,0,.16,0,.42.42,0,0,0,.14-.09.48.48,0,0,0,.14-.2,1.19,1.19,0,0,0,.08-.3,1.92,1.92,0,0,0,0-.34.67.67,0,0,0-.1-.26.43.43,0,0,0-.11-.12.35.35,0,0,0-.14-.06H24l-.09,0a.19.19,0,0,0-.1,0l-.14.11Zm1.68.38a1.1,1.1,0,0,0,0,.32.85.85,0,0,0,.11.26.75.75,0,0,0,.19.17.53.53,0,0,0,.22.08H26a.38.38,0,0,0,.13-.06.31.31,0,0,0,.12-.11.56.56,0,0,0,.11-.17v0l.09.07h0a.88.88,0,0,1-.11.24.84.84,0,0,1-.41.36,1.18,1.18,0,0,1-.27,0,.66.66,0,0,1-.29-.09.79.79,0,0,1-.24-.21.83.83,0,0,1-.14-.3,1.18,1.18,0,0,1,0-.38,1.24,1.24,0,0,1,.09-.39,1,1,0,0,1,.2-.28.72.72,0,0,1,.28-.16.72.72,0,0,1,.33,0,.77.77,0,0,1,.27.08.53.53,0,0,1,.2.16.7.7,0,0,1,.13.24,1,1,0,0,1,0,.3v0l-1.19-.11Zm0-.15.75.07a.24.24,0,0,0,0-.12s0-.06,0-.08a.31.31,0,0,0,0-.1L26,62.3l-.09,0a.26.26,0,0,0-.23,0,.46.46,0,0,0-.14.07.64.64,0,0,0-.1.13.44.44,0,0,0-.06.16Zm1.92-.42,0,.32a.87.87,0,0,1,.2-.22.31.31,0,0,1,.25-.09l.1,0a.21.21,0,0,1,.08.06l.05.07a.28.28,0,0,1,0,.09.14.14,0,0,1,0,.07.09.09,0,0,1,0,.06l-.06,0h-.08l-.07,0a.21.21,0,0,1-.08-.06l-.07-.05h-.07l0,0a.38.38,0,0,0-.09.09.85.85,0,0,0-.09.14l-.05.81v.12a.64.64,0,0,0,0,.09l0,0a.1.1,0,0,0,.05,0l.07,0h.11V64l-.93,0v-.11h.13l.08,0,0,0,0,0a.43.43,0,0,0,0-.05s0-.07,0-.12l0-.66c0-.1,0-.18,0-.24v-.12l0,0,0,0,0,0h-.18l0-.11.56-.18h.1v0Zm1,.76a1.51,1.51,0,0,0,0,.32.79.79,0,0,0,.13.26.7.7,0,0,0,.19.16.46.46,0,0,0,.23.06H29l.13-.07a.29.29,0,0,0,.11-.11.67.67,0,0,0,.1-.19v0l.09.06v0a1,1,0,0,1-.09.24,1.12,1.12,0,0,1-.16.22.61.61,0,0,1-.51.2A.73.73,0,0,1,28.4,64a.76.76,0,0,1-.24-.2.64.64,0,0,1-.16-.29.93.93,0,0,1,0-.38,1.18,1.18,0,0,1,.07-.39.73.73,0,0,1,.19-.29.8.8,0,0,1,.27-.18.68.68,0,0,1,.32-.05.6.6,0,0,1,.27.06.78.78,0,0,1,.22.15.7.7,0,0,1,.13.24.85.85,0,0,1,0,.29v0l-1.2-.05Zm0-.14.76,0s0-.09,0-.12a.64.64,0,0,0,0-.09.41.41,0,0,0-.05-.09.27.27,0,0,0-.08-.07l-.09-.05H28.7a.22.22,0,0,0-.14,0,.35.35,0,0,0-.13.08.41.41,0,0,0-.1.13.84.84,0,0,0,0,.17Zm3.69.29-1,.06-.14.4a.93.93,0,0,0,0,.13s0,.06,0,.08,0,0,0,.05l0,0,.08,0,.15,0h0V64l-.85.06v-.11h0l.13,0,.06,0h0a.56.56,0,0,0,.09-.14,1.74,1.74,0,0,0,.1-.23l.76-2.15h.1l1,2.06a1.17,1.17,0,0,0,.12.2.35.35,0,0,0,.09.11l.1,0H33v.11L32,63.94v-.11h0l.12,0,.07,0a.05.05,0,0,0,0,0,.11.11,0,0,0,0,0,.44.44,0,0,0,0-.1l-.07-.15L32,63.09Zm-.08-.17L31.42,62l-.35,1,.82,0Zm2.62-1v0l-.63.08,0,.1h.15s.07,0,.08,0a.09.09,0,0,1,0,.06.2.2,0,0,1,0,.11l.12,1-.11.12-.1.09-.09,0-.08,0h-.11l-.09,0a.26.26,0,0,1-.07-.1.78.78,0,0,1,0-.19L33.49,62l-.64.08v.11h.2l0,0s0,0,0,0,0,0,0,0a.3.3,0,0,1,0,.1l.09.76a1.12,1.12,0,0,0,0,.21.6.6,0,0,0,0,.16.75.75,0,0,0,.07.12l.11.08a.21.21,0,0,0,.13,0,.32.32,0,0,0,.14,0l.13,0,.12-.06.13-.13.15-.18,0,.33h.1l.51-.28-.05-.1h0a.09.09,0,0,1-.06,0l-.06,0h0l0,0,0,0s0,0,0,0a.71.71,0,0,1,0-.12q0-.09,0-.24l-.13-1Zm1.74,1.31-.08.09a.52.52,0,0,1-.11.1l-.12.06-.13,0a.66.66,0,0,1-.28,0,1.16,1.16,0,0,1-.27-.14,1,1,0,0,1-.21-.25,1,1,0,0,1-.11-.32,1.15,1.15,0,0,1,0-.37,1.21,1.21,0,0,1,.12-.35.91.91,0,0,1,.23-.28.82.82,0,0,1,.33-.13h.22a.47.47,0,0,1,.15.06l-.05-.27c0-.09,0-.17,0-.23a.5.5,0,0,0,0-.12l0,0,0,0h-.07l0,0s0,0-.06,0h0l-.06-.1.5-.3.1,0,.34,2,0,.23a.49.49,0,0,0,0,.13l0,0s0,0,0,0h.07l0,0,.07,0h0l.06.09-.49.31-.11,0,0-.21Zm0-.19-.15-.86s0-.07,0-.11L36,62l-.08-.07-.09,0-.09,0a.14.14,0,0,0-.09,0,.35.35,0,0,0-.14.06.43.43,0,0,0-.11.12.68.68,0,0,0-.09.25,1.47,1.47,0,0,0,.11.64,1,1,0,0,0,.16.22.66.66,0,0,0,.2.11.4.4,0,0,0,.19,0,.34.34,0,0,0,.15-.07.6.6,0,0,0,.13-.14Zm.84-.87,1.17-.26v0a.81.81,0,0,0-.11-.27.58.58,0,0,0-.19-.19.77.77,0,0,0-.25-.1.82.82,0,0,0-.27,0,1,1,0,0,0-.31.13,1,1,0,0,0-.21.25.71.71,0,0,0-.1.33,1.13,1.13,0,0,0,0,.4,1,1,0,0,0,.14.35.66.66,0,0,0,.23.24.79.79,0,0,0,.28.13.82.82,0,0,0,.31,0,.71.71,0,0,0,.25-.11.63.63,0,0,0,.18-.21.77.77,0,0,0,.1-.25.76.76,0,0,0,0-.26v0l-.1,0v0a1.08,1.08,0,0,1,0,.21.64.64,0,0,1-.08.14.54.54,0,0,1-.12.09l-.14,0a.49.49,0,0,1-.24,0,.53.53,0,0,1-.23-.11.78.78,0,0,1-.19-.21,1.46,1.46,0,0,1-.11-.3ZM37,62a.47.47,0,0,1,0-.17.44.44,0,0,1,.06-.16.52.52,0,0,1,.1-.11.31.31,0,0,1,.13-.06h.09l.1,0a.19.19,0,0,1,.09,0,.27.27,0,0,1,.08.07.59.59,0,0,1,0,.08s0,.07,0,.11Z"/><g class="cls-41"><rect class="cls-42" x="15.35" y="32.39" width="9.09" height="10.29"/></g><g class="cls-41"><path class="cls-43" d="M8.07,34.91H6.86c-.56,0-1.08,0-1.59,0s-1,0-1.55,0c-.35,0-.62,0-1,0H2l-.31,0a.61.61,0,0,1,.27-.45l.38-.36c.21-.12.07,0,.29-.22s.62-.49.8-.68c.39-.39.36-.16.81.2.15.12.17.19.22.22a1.55,1.55,0,0,0,.32.14c.15.08.23.22.35.32s.43.45.72.45.43-.37.78-.58c.11-.07.3-.14.45-.24l.15-.09.28-.19a1.46,1.46,0,0,1,.63-.29,13,13,0,0,1,0,1.65.36.36,0,0,0,0,.11Zm.57-9.41H8.29l-.41,0H7.64l-.45,0-.72,0c-.19,0-.74.06-1,.06H5.15l-.33,0c-.19,0-.83,0-1,0s-.78,0-1.1.06c-.13,0-.57-.07-.79-.07H1.48l-.69,0a1.55,1.55,0,0,1-.21,0H.11a1.22,1.22,0,0,0-.11.61c0,.62.09,1.19.09,1.79,0,.26,0,.51,0,.76V29c0,.11,0,.14,0,.25s0,.14,0,.25c0,.26.17.14.13.39s-.07.3-.08.46v1.09c0,.18,0,.32,0,.52v.4c0,.56.11,1.05.11,1.6a3.28,3.28,0,0,1-.08.56c0,.15.15.31.1.73s.07.19.35.19.24-.12.43-.12.32.07.52.07l1,0a1.07,1.07,0,0,1,.32.08,4.5,4.5,0,0,0,.75,0,.79.79,0,0,1,.17,0h.22l.56,0c.1,0,.1,0,.18,0,.7,0,1.63,0,2.23,0l1.93,0c0-.13,0-.26,0-.4l0-.41c0-.27.11-.46.11-.71a2.44,2.44,0,0,1-.07-.58l0-.65c0-.22,0-.4,0-.61a2.85,2.85,0,0,1,0-.31c0-.09,0-.27-.07-.27s-.29.16-.39.27c-.56.71-1.27.9-1.46,1.14s-.1.22-.32.33-.23.21-.39.26-.13,0-.21.11-.22.14-.34,0l-.3-.27a6.5,6.5,0,0,1-.6-.57,2.18,2.18,0,0,0-.42-.33l-.09-.11a.84.84,0,0,0-.06-.14l.51-.42a.75.75,0,0,0,.13-.11c.1-.16.16-.1.25-.21s0-.1.22-.25l.13-.11c.06,0,.07-.07.13-.11a1,1,0,0,0,.24-.22.7.7,0,0,0,.22-.49c-.26-.07-.41-.43-.58-.57s-.17-.09-.23-.18a.86.86,0,0,0-.07-.1l-.12-.09A2.6,2.6,0,0,1,4.56,29c0-.06,0-.09,0-.14a1.43,1.43,0,0,1,.56-.61c.33-.17.91-.85,1.11-.85s.78.65.92.8.27.1.39.19.15.19.29.29a2,2,0,0,1,.44.42,1.83,1.83,0,0,0,.16.13c.73.71.36-.54.44-1.07s0-.3,0-.78c0-.31,0-.6,0-.87a1.2,1.2,0,0,0,0-.2,4.19,4.19,0,0,1-.07-.63c0-.1,0-.14,0-.16ZM4.22,31.57h0c-.21.06-.12.36-.38.42h0c-.07,0-.1-.07-.14-.13a1,1,0,0,0-.27-.27,3.12,3.12,0,0,1-.47-.44c-.15-.17-.58-.4-.44-.57s.11-.11.17-.16l.14-.18c.32-.45.48-.42.64-.63a.6.6,0,0,1,.36-.27c.26-.09.27,0,.43.12a5.43,5.43,0,0,1,.69.58c.31.3.54.14.19.68-.1.16-.19.14-.29.27a.41.41,0,0,1-.15.14c-.34.2-.14.36-.4.43ZM.94,27.34a2.16,2.16,0,0,0,0,.29l0,1.88c0,.12,0,.18,0,.28A8.55,8.55,0,0,0,1,31a5.74,5.74,0,0,1,0,1.18c0,.3.07.54.07.84,0,.84-.2,1,.13,1,.13,0,.14-.16.19-.25a.35.35,0,0,1,.24-.2c.14,0,.2,0,.29-.14s0-.08.31-.34.43-.44.67-.62.09-.15,0-.27a.52.52,0,0,0-.11-.1c-.24-.19-.28-.18-.36-.43s-.12-.13-.2-.2-.1-.15-.15-.26-.11-.1-.23-.17L1.8,31c-.08-.06-.28-.17-.28-.32s.35-.54.39-.57.1,0,.14-.09,0-.11.09-.15.09,0,.16-.08l.28-.2c.07-.05.23-.13.27-.2s0-.08.08-.16.4-.29.26-.47l0-.05c-.14-.13-.35-.23-.56-.41a3.69,3.69,0,0,1-.51-.42c-.22-.26-.12-.11-.33-.29S1.27,27,1.09,27s-.15.23-.15.38Zm3,.88a1.3,1.3,0,0,1-.56-.31c-.19-.15,0-.14-.58-.52a7.2,7.2,0,0,1-.58-.5c-.17-.14-.2-.15-.2-.33s.28-.09.42-.12a3.58,3.58,0,0,1,.83-.05.78.78,0,0,0,.22,0,1.62,1.62,0,0,1,.44,0c.15,0,.22,0,.37,0,.46,0,.9,0,1.41,0a8.68,8.68,0,0,1,1.84,0l.25.05a.85.85,0,0,0,.16,0c.09,0,.08,0,.15,0s.07.35.07.51-.07.27-.07.61c0,.18.09.1.09.42a.86.86,0,0,1-.54-.32c-.23-.21-.13-.24-.45-.39s-.92-.7-1-.7-.28.28-.56.41-.16.11-.27.22-.24.1-.48.26-.26.08-.32.18a.83.83,0,0,1-.32.42C4.14,28.08,4,28.22,3.91,28.22Z"/></g><path class="cls-44" d="M19.64,38.41c-.2.05-.25.44-.48.41s-.1-.07-.14-.13c-.2-.26-.35-.3-.66-.65-.16-.18-.58-.41-.44-.57s.17-.15.31-.34c.32-.46.56-.43.72-.63s.22-.28.34-.28c.27-.06.23,0,.38.14a7.83,7.83,0,0,1,.69.58c.31.31.54.15.19.69-.1.15-.19.14-.29.26a.29.29,0,0,1-.15.14C19.89,38.16,19.9,38.25,19.64,38.41Z"/><g class="cls-45"><rect class="cls-46" x="15.54" y="32.37" width="8.91" height="10.06"/></g><g class="cls-45"><path class="cls-43" d="M8.26,34.65l-.4,0H7.44l-.4,0c-.55,0-1.08,0-1.59,0s-1,0-1.55,0c-.34,0-.62,0-1,0H2.16l-.3,0a.62.62,0,0,1,.26-.46l.39-.35c.2-.13.06,0,.28-.23s.62-.49.81-.67c.38-.39.36-.16.8.19.15.13.18.2.23.23s.22.09.31.14.23.21.36.31.42.46.71.46.43-.37.79-.59c.11-.06.29-.13.45-.23l.14-.1.28-.19a1.49,1.49,0,0,1,.64-.28,12.75,12.75,0,0,1,0,1.64c0,.06,0,.06,0,.11Zm.56-9.41-.11,0H8.48l-.42,0a1.77,1.77,0,0,0-.23,0l-.45,0-.73,0c-.18,0-.73.06-1,0H5.33c-.12,0-.18,0-.32,0s-.83,0-1,0-.78,0-1.09.06c-.13,0-.58-.07-.79-.07H1.67l-.69,0a1.8,1.8,0,0,1-.22,0l-.47,0A1.29,1.29,0,0,0,.18,26c0,.61.1,1.18.1,1.78,0,.27-.05.52-.06.76v.27c0,.12,0,.15,0,.26a1.69,1.69,0,0,1,0,.25c0,.26.17.14.14.38a2.57,2.57,0,0,0-.08.47v1.08c0,.19,0,.32,0,.52v.4c0,.57.11,1,.11,1.61a4.54,4.54,0,0,1-.08.55c0,.16.15.31.1.73,0,.27.07.2.34.2s.25-.13.43-.13.32.07.53.07h1a1.5,1.5,0,0,1,.32.07,3.69,3.69,0,0,0,.75.05l.18,0h.21l.57,0,.18,0c.69,0,1.63,0,2.22,0l1.94,0c0-.13,0-.25,0-.39l0-.42c0-.26.11-.46.11-.7A2.28,2.28,0,0,1,9,33.17l0-.65c0-.22,0-.41,0-.61s0-.21,0-.31,0-.27-.07-.27-.29.15-.38.27c-.57.71-1.28.9-1.46,1.13s-.1.22-.33.33-.23.21-.38.27-.13,0-.22.11-.21.13-.33,0L5.6,33.2A7.91,7.91,0,0,1,5,32.64c-.13-.17-.27-.21-.42-.34l-.1-.11s0-.09,0-.14L5,31.64a1.31,1.31,0,0,0,.12-.11c.11-.17.17-.1.26-.22a.82.82,0,0,1,.22-.25l.12-.1.13-.11a1.37,1.37,0,0,0,.25-.23.71.71,0,0,0,.21-.48c-.26-.07-.41-.43-.58-.58a1.7,1.7,0,0,1-.23-.17l-.07-.11-.11-.08a2.18,2.18,0,0,1-.52-.48c0-.06,0-.09,0-.14a1.5,1.5,0,0,1,.57-.6c.33-.18.9-.86,1.11-.86s.78.66.91.81.27.1.39.18.15.2.29.29a2.26,2.26,0,0,1,.45.42c.06.06.1.08.15.14.73.7.36-.55.44-1.07s0-.3,0-.79a8.61,8.61,0,0,0,0-.87c0-.08,0-.12,0-.19A2.59,2.59,0,0,1,9,25.41c0-.1,0-.15,0-.17ZM4.4,31.31l0,0c-.21.05-.12.35-.38.42H4c-.08,0-.1-.08-.14-.14a1.37,1.37,0,0,0-.27-.27,3,3,0,0,1-.47-.43c-.16-.18-.58-.41-.44-.57s.11-.11.16-.17A1.22,1.22,0,0,0,2.94,30c.32-.46.47-.42.63-.63a.66.66,0,0,1,.36-.28c.27-.09.28,0,.44.12a7.68,7.68,0,0,1,.68.58c.32.31.54.15.2.69-.1.15-.19.14-.29.26a.43.43,0,0,1-.16.14c-.33.2-.14.36-.4.43ZM1.13,27.09a1.29,1.29,0,0,0,0,.29l0,1.87c0,.13,0,.18,0,.29a10.06,10.06,0,0,0,0,1.24,5.11,5.11,0,0,1,0,1.18c0,.31.07.55.07.85,0,.83-.19,1,.13,1,.14,0,.15-.16.19-.26a.31.31,0,0,1,.24-.19c.15,0,.2,0,.3-.14s0-.08.3-.34.44-.45.68-.63.08-.15,0-.27A.43.43,0,0,0,3,31.9c-.25-.19-.28-.19-.37-.43s-.12-.14-.2-.2A.61.61,0,0,1,2.32,31c-.06-.13-.11-.1-.22-.18L2,30.75c-.07-.07-.27-.17-.27-.32s.35-.55.39-.57.1,0,.14-.1,0-.11.08-.14.09,0,.16-.08l.29-.2c.07-.05.23-.13.26-.21s0-.07.08-.15.4-.29.26-.47l-.05-.06c-.14-.13-.35-.22-.55-.4a3.72,3.72,0,0,1-.52-.43c-.22-.26-.12-.11-.32-.29s-.48-.58-.66-.62-.14.22-.14.38Zm3,.88c-.17,0-.42-.21-.55-.31s0-.15-.59-.52c-.24-.17-.35-.33-.58-.51s-.2-.15-.2-.32.29-.1.42-.12a3.94,3.94,0,0,1,.83-.06l.22,0a1.68,1.68,0,0,1,.45,0c.15,0,.21,0,.36,0,.46,0,.91,0,1.41,0a8.08,8.08,0,0,1,1.84,0l.26.05h.16a.52.52,0,0,1,.14,0c0,.12.08.35.08.5a5.75,5.75,0,0,0-.08.62c0,.18.1.1.1.41a.86.86,0,0,1-.54-.31c-.24-.22-.13-.24-.45-.4s-.92-.7-1-.7-.28.28-.57.42-.15.1-.27.21a5.06,5.06,0,0,1-.48.26c-.13.09-.25.08-.31.19a1,1,0,0,1-.32.42C4.32,27.83,4.21,28,4.09,28Z"/></g></g></g></svg>