<svg xmlns="http://www.w3.org/2000/svg" xmlns:xlink="http://www.w3.org/1999/xlink" viewBox="0 0 190.7 75.97"><defs><style>.cls-1,.cls-17,.cls-2,.cls-40,.cls-9{fill:none;}.cls-1{clip-rule:evenodd;}.cls-10,.cls-11,.cls-13,.cls-14,.cls-15,.cls-16,.cls-17,.cls-18,.cls-19,.cls-2,.cls-20,.cls-21,.cls-22,.cls-23,.cls-24,.cls-25,.cls-26,.cls-27,.cls-28,.cls-29,.cls-3,.cls-30,.cls-31,.cls-32,.cls-33,.cls-34,.cls-35,.cls-36,.cls-37,.cls-38,.cls-39,.cls-4,.cls-40,.cls-43,.cls-44,.cls-5,.cls-6,.cls-7,.cls-9{fill-rule:evenodd;}.cls-3{fill:#fff;}.cls-4,.cls-42{fill:#231f20;}.cls-5{fill:url(#GradientFill_1);}.cls-6{fill:#83441c;}.cls-7{fill:#98bac9;stroke-width:0.42px;}.cls-40,.cls-7,.cls-9{stroke:#171b1e;}.cls-17,.cls-18,.cls-40,.cls-7{stroke-linecap:round;stroke-linejoin:round;}.cls-8{clip-path:url(#clip-path);}.cls-9{stroke-miterlimit:22.93;stroke-width:0.14px;}.cls-10{fill:#f8c534;}.cls-11{fill:url(#GradientFill_2);}.cls-12{clip-path:url(#clip-path-2);}.cls-13{fill:#5f9b47;}.cls-14{fill:#1a723a;}.cls-15{fill:#628d49;}.cls-16{fill:#5c9747;}.cls-17,.cls-18{stroke:#231f20;}.cls-17{stroke-width:0.27px;}.cls-18,.cls-28,.cls-46{fill:#f1dfb9;}.cls-18{stroke-width:0.27px;}.cls-19{fill:#9d0b0f;}.cls-20{fill:#e1bd87;}.cls-21{fill:#300203;}.cls-22{fill:#a56d26;}.cls-23{fill:#ecc087;}.cls-24{fill:#ab7e48;}.cls-25{fill:#d7a045;}.cls-26{fill:#ad7029;}.cls-27{fill:#fdf3f2;}.cls-29{fill:#f5f9f1;}.cls-30{fill:#f5d7b1;}.cls-31{fill:#648a46;}.cls-32{fill:#d7a04b;}.cls-33{fill:#fffdf3;}.cls-34{fill:#d8a844;}.cls-35{fill:#7a1214;}.cls-36{fill:#e0c687;}.cls-37{fill:#e2bc7f;}.cls-38{fill:#ecc88e;}.cls-39{fill:#e6d0aa;}.cls-40{stroke-width:0.42px;}.cls-41{clip-path:url(#clip-path-3);}.cls-43{fill:#a11d20;}.cls-44{fill:#f27235;}.cls-45{clip-path:url(#clip-path-5);}</style><linearGradient id="GradientFill_1" x1="14.45" y1="70.12" x2="52.86" y2="70.12" gradientUnits="userSpaceOnUse"><stop offset="0" stop-color="#a46725"/><stop offset="0.08" stop-color="#ab7e48"/><stop offset="0.16" stop-color="#ecc087"/><stop offset="0.24" stop-color="#f1dfb9"/><stop offset="0.31" stop-color="#f7f4ea"/><stop offset="0.37" stop-color="#f1dfb9"/><stop offset="0.43" stop-color="#e0c687"/><stop offset="0.5" stop-color="#d8a844"/><stop offset="0.56" stop-color="#e3c98c"/><stop offset="0.62" stop-color="#f1dfb9"/><stop offset="0.68" stop-color="#f1ddb7"/><stop offset="0.76" stop-color="#f7f2e7"/><stop offset="0.82" stop-color="#f3e1bd"/><stop offset="0.87" stop-color="#e8bb82"/><stop offset="0.91" stop-color="#ac7f48"/><stop offset="1" stop-color="#a56d26"/></linearGradient><clipPath id="clip-path"><path class="cls-1" d="M9.92,5H58.5V36C56.74,46.59,47.7,58.44,34.21,64.38,20.73,58.44,11.68,46.59,9.92,36Z"/></clipPath><linearGradient id="GradientFill_2" x1="34.21" y1="5.02" x2="34.21" y2="17.46" gradientUnits="userSpaceOnUse"><stop offset="0" stop-color="#0087c9"/><stop offset="0.44" stop-color="#80bce0"/><stop offset="1" stop-color="#fff"/></linearGradient><clipPath id="clip-path-2"><polygon class="cls-1" points="9.85 22.39 34.36 30.28 58.58 22.51 58.58 0.24 9.85 0.13 9.85 22.39"/></clipPath><clipPath id="clip-path-3"><path class="cls-1" d="M27.19,48.77l-1,0-.46,0c-.65,0-1.26,0-1.84,0s-1.24,0-1.88,0c-.4,0-.71,0-1.11,0h-.9l-.36,0a.73.73,0,0,1,.31-.53l.44-.41c.24-.15.08,0,.33-.26s.72-.57.94-.78c.45-.46.49-.19,1,.23.18.14.21.22.27.26s.25.1.36.16a2,2,0,0,1,.41.36c.31.24.5.53.84.53s.49-.43.91-.68c.12-.08.34-.15.52-.27a3.44,3.44,0,0,1,1.23-.66,15.18,15.18,0,0,1,0,1.91.56.56,0,0,0,0,.12Zm.65-10.92a2.75,2.75,0,0,1-.39,0l-.49.05a2.43,2.43,0,0,0-.27,0l-.52,0-.84,0c-.22,0-.86.07-1.13.07h-.4l-.38,0c-.23,0-1,0-1.15,0s-.9,0-1.27.07c-.15,0-.67-.08-.92-.08s-.35-.11-.53-.11l-.8,0a2.29,2.29,0,0,1-.25,0l-.33-.31-.22.29a1.65,1.65,0,0,0-.12.72c0,.71.1,1.48.1,2.18,0,.3-.06.59-.07.88,0,.1,0,.21,0,.31s0,.17,0,.29a2.51,2.51,0,0,1,0,.3c0,.3.2.16.16.44s-.16.36-.16.54v1.26c0,.21,0,.38,0,.61v.46c0,.66.13,1.22.13,1.86a6,6,0,0,1-.09.65c0,.18.17.36.11.85,0,.31.08.22.4.22s.28-.14.5-.14.37.08.61.08l1.13,0a1.41,1.41,0,0,1,.38.09,4.8,4.8,0,0,0,.86,0l.21,0,1,0a1.2,1.2,0,0,0,.2,0c.81,0,1.9,0,2.59,0l2.24,0,.21-.29L28,48.54c0-.31.12-.53.12-.82a2.94,2.94,0,0,1-.08-.67l0-.75c0-.26,0-.47,0-.71s.08-.67-.07-.67-.33.17-.44.31c-.66.82-1.48,1.05-1.7,1.32s-.11.25-.37.38-.27.24-.45.3-.15,0-.25.13-.25.16-.39,0l-.35-.32a8.63,8.63,0,0,1-.69-.65c-.15-.2-.32-.25-.49-.4s-.1-.14-.17-.29l1-.85c.14-.19,0-.09.2-.27.05,0,.15-.1.2-.15s.3-.3.36-.34a1.73,1.73,0,0,0,.28-.26c.14-.18.24-.24.24-.5,0-.06-.3.07-.36,0s-.36-.41-.51-.54a1.24,1.24,0,0,1-.26-.19.69.69,0,0,0-.22-.23,3.58,3.58,0,0,1-.7-.64.12.12,0,0,1,0-.16,3.14,3.14,0,0,1,.75-.62c.38-.2,1.05-1,1.29-1s.9.76,1.06.94.31.11.45.21.18.23.34.34a2.7,2.7,0,0,1,.52.49,1.3,1.3,0,0,0,.18.15c.46.46.75,0,.74-.37s-.3-.58-.26-.85c.11-.71,0-.37,0-.93a7.33,7.33,0,0,0,0-1.24A3.4,3.4,0,0,1,28,38c0-.22,0-.19-.2-.19Zm-5.26,7c-.23,0-.28.51-.56.48-.09,0-.11-.09-.16-.15-.22-.31-.4-.35-.76-.76-.18-.21-.68-.47-.51-.67s.2-.17.36-.39c.37-.53.64-.49.83-.73s.26-.33.4-.32c.31-.07.26,0,.44.16a7.54,7.54,0,0,1,.8.68c.36.35.63.16.22.79-.11.18-.22.16-.33.31s-.06.09-.18.16-.25.26-.55.44ZM18.91,40a1.67,1.67,0,0,0,0,.34l0,2.18c0,.14,0,.21,0,.33a10.13,10.13,0,0,0,0,1.44,6.24,6.24,0,0,1,0,1.37c0,.35.09.63.09,1,0,1-.23,1.18.15,1.18s.09-.4.5-.53c.17-.05.23,0,.34-.16s0-.09.36-.4.5-.51.78-.72.1-.18,0-.31a.63.63,0,0,0-.12-.11c-.29-.22-.33-.22-.42-.5,0-.13-.14-.16-.24-.23a.78.78,0,0,1-.17-.31c-.08-.16-.15-.1-.39-.3s-.3-.17-.3-.35.48-.63.53-.66.11,0,.16-.11,0-.13.1-.17.1,0,.18-.09l.3-.26c.34-.24.23-.33.36-.46s.47-.34.3-.55-.38-.25-.65-.48a4.3,4.3,0,0,1-.6-.5c-.25-.3-.14-.12-.38-.33s-.55-.68-.76-.73c-.17.12-.17.26-.17.44Zm3.44,1c-.19,0-.49-.25-.64-.37s0-.16-.68-.6c-.28-.2-.41-.38-.67-.59s-.23-.17-.23-.37.33-.11.49-.14c.84-.14.76,0,1.21-.1a1.8,1.8,0,0,1,.52,0c.17,0,.25,0,.42,0,.54,0,1.05,0,1.64,0a9.47,9.47,0,0,1,2.13,0,2.18,2.18,0,0,0,.49.06.79.79,0,0,1,.17,0c0,.14.08.41.08.59s-.08.31-.08.71c0,.21.1.12.1.48a1,1,0,0,1-.62-.36c-.28-.25-.15-.28-.52-.46s-1.07-.81-1.19-.81-.32.32-.65.48-.19.12-.32.25-.28.12-.55.3-.3.1-.37.22a1,1,0,0,1-.37.48C22.62,40.85,22.5,41,22.35,41Z"/></clipPath><clipPath id="clip-path-5"><path class="cls-1" d="M27.4,48.48l-.94,0-.46,0c-.65,0-1.26,0-1.85,0s-1.24,0-1.87,0c-.4,0-.72,0-1.12,0h-.9l-.36,0a.74.74,0,0,1,.31-.53l.45-.42c.24-.14.07,0,.33-.25s.72-.57.93-.79c.45-.45.49-.19,1,.23.17.14.2.22.26.26a3,3,0,0,0,.36.16c.19.09.27.25.42.36.31.24.49.54.83.54s.49-.44.91-.69a5.33,5.33,0,0,0,.52-.27c.31-.2.9-.66,1.23-.66a13.48,13.48,0,0,1,0,1.91.93.93,0,0,1,0,.13Zm.66-10.92a2.82,2.82,0,0,1-.4,0l-.48,0a2.43,2.43,0,0,1-.27,0l-.53,0-.84,0c-.21,0-.85.06-1.13.06H24l-.38,0c-.22,0-1,0-1.14,0s-.9,0-1.27.07c-.16,0-.67-.08-.92-.08s-.36-.1-.54-.1l-.8,0a2.11,2.11,0,0,1-.25,0l-.54,0a1.46,1.46,0,0,0-.13.71c0,.72.1,1.48.1,2.18,0,.31-.05.6-.06.88,0,.1,0,.21,0,.32a2.83,2.83,0,0,0,0,.29c0,.11,0,.16,0,.29,0,.3.2.17.15.45s-.16.35-.16.54v1.25c0,.22,0,.38,0,.61v.46c0,.66.13,1.22.13,1.87a4.29,4.29,0,0,1-.09.64c0,.19.18.36.12.85,0,.31.08.23.39.23s.29-.15.51-.15.37.08.6.08l1.14,0a1.43,1.43,0,0,1,.37.09,4.06,4.06,0,0,0,.87.06l.2,0,1,0c.11,0,.12,0,.21,0,.8,0,1.89,0,2.58,0l2.24,0,0-.94c0-.31.13-.54.13-.82a2.94,2.94,0,0,1-.09-.67l0-.76c0-.26,0-.47,0-.71s.08-.67-.06-.67-.34.18-.45.31c-.66.83-1.48,1-1.69,1.32s-.12.26-.38.38-.26.25-.44.31-.16,0-.25.13-.26.15-.39,0l-.36-.32a7.14,7.14,0,0,1-.69-.65,2.63,2.63,0,0,0-.49-.39c-.14-.14-.1-.14-.17-.29l1-.86c.15-.18,0-.09.2-.26l.21-.15.14-.13a1.2,1.2,0,0,0,.29-.26c.13-.17.23-.23.23-.49a.43.43,0,0,0-.14-.2c-.19-.16-.37-.41-.52-.54s-.19-.1-.26-.2a.52.52,0,0,0-.22-.22,3.3,3.3,0,0,1-.69-.65c0-.07,0-.1,0-.16a3.35,3.35,0,0,1,.75-.61c.38-.2,1.05-1,1.29-1s.9.76,1.06.93.32.12.46.22.17.22.34.33a3,3,0,0,1,.51.49l.18.16c.85.82.39-.62.48-1.23a2.62,2.62,0,0,0,0-.92,8.49,8.49,0,0,0,0-1.24,3.55,3.55,0,0,1-.08-.73c0-.23,0-.19-.19-.19Zm-5.27,7c-.22.06-.28.52-.56.48-.08,0-.11-.08-.16-.15-.22-.31-.4-.35-.76-.76-.18-.2-.67-.47-.51-.66s.2-.18.36-.4c.37-.52.65-.49.84-.73s.26-.32.4-.32c.3-.07.25,0,.44.17a7.18,7.18,0,0,1,.79.67c.37.35.63.17.23.79-.12.18-.22.17-.34.32a.38.38,0,0,1-.18.15c-.25.16-.24.26-.55.44ZM19.13,39.7a3.07,3.07,0,0,0,0,.34l0,2.17c0,.15,0,.21,0,.33a12.08,12.08,0,0,0,0,1.45,6.11,6.11,0,0,1,0,1.36c0,.36.08.64.08,1,0,1-.23,1.17.15,1.17s.09-.4.5-.52c.17-.06.23,0,.34-.17s0-.09.36-.39.5-.51.78-.73.1-.17,0-.31a.43.43,0,0,0-.12-.11c-.28-.22-.32-.21-.42-.5,0-.13-.14-.15-.23-.23s-.12-.18-.18-.3-.15-.11-.39-.31-.29-.17-.29-.35.47-.63.52-.66.12,0,.16-.11,0-.12.1-.17.1,0,.18-.09l.31-.25c.33-.25.22-.33.35-.47s.47-.33.31-.54-.39-.25-.66-.49a4.91,4.91,0,0,1-.6-.49c-.25-.3-.14-.13-.38-.34s-.55-.68-.76-.73c-.17.12-.16.27-.16.45Zm3.44,1c-.2,0-.49-.25-.64-.36s0-.17-.68-.61a6.34,6.34,0,0,1-.67-.58c-.2-.16-.24-.17-.24-.38s.33-.11.49-.14c.84-.14.76,0,1.22-.1a1.73,1.73,0,0,1,.51,0c.18,0,.25,0,.42,0,.54,0,1.06,0,1.64,0a10.19,10.19,0,0,1,2.14,0,1.35,1.35,0,0,0,.48.06l.17,0c0,.14.09.4.09.58a6.87,6.87,0,0,0-.09.71c0,.22.11.12.11.49a1.08,1.08,0,0,1-.63-.36c-.27-.26-.15-.28-.52-.47s-1.07-.81-1.18-.81-.33.33-.66.48-.18.13-.31.25a4.7,4.7,0,0,1-.56.3c-.15.1-.3.1-.37.22a1,1,0,0,1-.37.49C22.83,40.56,22.71,40.72,22.57,40.72Z"/></clipPath></defs><title>23Recurso 1logodavy</title><g id="Capa_2" data-name="Capa 2"><g id="Capa_1-2" data-name="Capa 1"><path class="cls-3" d="M121.31,33.89ZM82.54,48.73ZM97.3,56.79ZM119.57,53Zm0,0h0Zm16.59,0h0Zm0,0h0Zm11.75,1.79h0Zm0,0ZM160,54.12Zm24.8.71Zm0,0ZM121.32,33.89h0Zm-.28-.53Zm0,0ZM79.67,18.07V38.2h5.41l.88,0,.81-.07L87.5,38c.23,0,.45-.07.67-.12l.62-.14.57-.18h0l.53-.21h0l.49-.24.45-.27.42-.31h0a4.32,4.32,0,0,0,.39-.34h0a7.16,7.16,0,0,0,1.23-1.45,8.86,8.86,0,0,0,.88-1.8,12.19,12.19,0,0,0,.53-2.16,18,18,0,0,0,.17-2.52,14.88,14.88,0,0,0-.35-3.34c-.06-.27-.12-.53-.19-.77s-.15-.48-.24-.71-.17-.45-.27-.67-.2-.41-.31-.6h0c-.11-.2-.23-.39-.35-.58h0c-.13-.19-.26-.36-.39-.53h0c-.14-.18-.29-.34-.44-.5h0l-.47-.47h0c-.13-.12-.28-.24-.42-.35s-.31-.22-.46-.31a5.5,5.5,0,0,0-.48-.28l-.5-.23h0a9.33,9.33,0,0,0-1.13-.38,6.23,6.23,0,0,0-.62-.15l-.67-.11c-.46-.07-1-.12-1.52-.15l-.88,0H79.67Zm4,34.72h.73l-.1.37,0,.05c0,.15-.08.3-.13.44s-.09.27-.14.41a3,3,0,0,1-.14.36,3.54,3.54,0,0,1-.16.34c0,.11-.11.21-.17.32h0c-.06.11-.13.21-.2.32h0c-.07.1-.14.21-.23.32h0l-.25.32-.07.09h0a7.26,7.26,0,0,1-1.09,1.06,7,7,0,0,1-2.89,1.3,9.15,9.15,0,0,1-1.69.16A10.32,10.32,0,0,1,76,58.6,9.43,9.43,0,0,1,75,58.4a7.23,7.23,0,0,1-1-.32h0a8.83,8.83,0,0,1-1-.45l-.14-.07h0a9.09,9.09,0,0,1-1.62-1.14,10.21,10.21,0,0,1-.73-.74,8.53,8.53,0,0,1-.62-.83,6.35,6.35,0,0,1-.51-.91h0A7.6,7.6,0,0,1,69,53a7,7,0,0,1-.22-1,6.77,6.77,0,0,1-.08-1,6.41,6.41,0,0,1,.12-1.23,6.76,6.76,0,0,1,.35-1.22l.06-.17h0c.06-.14.13-.29.2-.42a3.91,3.91,0,0,1,.31-.57,6.65,6.65,0,0,1,.36-.56,6.21,6.21,0,0,1,.41-.52c.14-.18.3-.34.45-.5l.49-.46h0c.16-.15.34-.29.52-.43l.56-.38a7,7,0,0,1,2.92-1.06,8,8,0,0,1,1.1-.07h.38l.37,0,.35,0h0l.34.06.34.07.33.1h0l.32.11h0l.32.13.31.16a2.48,2.48,0,0,1,.31.18h0l.31.19.31.22h0l.31.2h0l.26.14h0a.64.64,0,0,0,.2.08l.13,0a.71.71,0,0,0,.29-.07h0a1.89,1.89,0,0,0,.37-.24,6,6,0,0,0,.45-.44h0a7.31,7.31,0,0,0,.5-.63h0l.07-.1h.74V44l.3,6.75h0v.34h-.82l0-.21v0h0l-.08-.33-.08-.32L83,49.89l0-.16,0-.08c0-.07,0-.15-.08-.22h0l-.09-.21L82.67,49l-.12-.23h0c-.11-.22-.23-.45-.36-.66a6.49,6.49,0,0,0-.39-.62,6.23,6.23,0,0,0-.41-.56q-.22-.27-.45-.51c-.15-.16-.31-.32-.47-.46h0a4.87,4.87,0,0,0-.5-.4,5.16,5.16,0,0,0-.51-.35h0a5.52,5.52,0,0,0-.54-.28,5.31,5.31,0,0,0-.55-.23,5.62,5.62,0,0,0-.55-.15,3.78,3.78,0,0,0-.57-.1,5.12,5.12,0,0,0-.56,0,4.45,4.45,0,0,0-.65,0h0a4.52,4.52,0,0,0-.58.13,2.61,2.61,0,0,0-.51.22h0a2.28,2.28,0,0,0-.44.3h0a2,2,0,0,0-.38.39,2.93,2.93,0,0,0-.34.48,4.17,4.17,0,0,0-.28.6h0a4.42,4.42,0,0,0-.23.7c-.07.25-.14.53-.19.81s-.1.61-.13.93-.06.67-.08,1,0,.75,0,1.15,0,.9,0,1.3.06.79.11,1.14l.09.49a4.57,4.57,0,0,0,.1.46h0c0,.14.08.28.12.42h0c0,.13.09.25.14.37h0c0,.12.11.23.16.33h0l.18.31.2.27.21.24.29.26h0l.32.23a4.36,4.36,0,0,0,.75.37h0l.43.13c.14,0,.29.07.44.09a3.2,3.2,0,0,0,.46.06l.48,0,.46,0,.45,0,.43-.07h0l.42-.1.41-.13h0l.4-.16h0l.39-.19.37-.21.36-.24.34-.28h0a4.28,4.28,0,0,0,.33-.29h0l.31-.32.23-.28c.08-.1.15-.19.21-.28l.18-.27h0c.06-.1.12-.2.16-.28h0l.14-.3h0l.16-.35h0c0-.12.1-.26.15-.4h0l.16-.45h0v0l.06-.17h.19Zm10.91-9.38a11.36,11.36,0,0,1,2,.16,8.62,8.62,0,0,1,.91.2c.3.08.59.18.88.28h0c.28.11.56.23.82.36h0a7.44,7.44,0,0,1,.78.44c.24.16.48.33.71.51a7.63,7.63,0,0,1,.67.59c.17.17.34.36.5.55h0q.24.28.45.57h0a6.64,6.64,0,0,1,.38.6c.11.2.22.4.31.61h0l0,0a6.16,6.16,0,0,1,.26.67h0c.07.22.14.45.19.67s.08.46.11.69h0c0,.23,0,.47,0,.7a6.9,6.9,0,0,1-.08,1h0a6.48,6.48,0,0,1-.23,1,7.64,7.64,0,0,1-.37.94h0a6.77,6.77,0,0,1-.52.9,8.24,8.24,0,0,1-.64.82,10.31,10.31,0,0,1-.75.73h0c-.27.22-.55.44-.85.64s-.63.37-1,.54a10.28,10.28,0,0,1-1,.44,9.41,9.41,0,0,1-1.07.31c-.36.08-.74.14-1.12.19a11.46,11.46,0,0,1-1.17.06,8.7,8.7,0,0,1-.89,0,8.58,8.58,0,0,1-.87-.1c-.29,0-.57-.11-.85-.18a8.54,8.54,0,0,1-.82-.25c-.27-.09-.53-.2-.78-.31s-.49-.24-.73-.37-.47-.28-.69-.43-.43-.32-.64-.5a7.55,7.55,0,0,1-.59-.54c-.18-.19-.35-.39-.51-.59A7,7,0,0,1,86.59,54a6.36,6.36,0,0,1-.31-.71h0a7.67,7.67,0,0,1-.22-.74h0a6.35,6.35,0,0,1-.13-.76,6.49,6.49,0,0,1-.05-.77,6.37,6.37,0,0,1,.31-2,7,7,0,0,1,.38-.95,7.56,7.56,0,0,1,.53-.9,8.26,8.26,0,0,1,1.4-1.57,7.87,7.87,0,0,1,.85-.64,8.79,8.79,0,0,1,1-.56,10.25,10.25,0,0,1,1-.44,8.55,8.55,0,0,1,1.06-.32,9.34,9.34,0,0,1,1.1-.19,10.88,10.88,0,0,1,1.14-.06Zm.27,1-.44,0-.43.05-.41.1-.4.13-.37.16h0l-.34.2h0l-.3.22a2.16,2.16,0,0,0-.27.25l-.07.07h0c-.07.08-.15.16-.22.25s-.17.22-.25.34h0l-.23.37a3.78,3.78,0,0,0-.22.4,4.08,4.08,0,0,0-.19.42h0c-.06.15-.12.3-.17.45s-.1.32-.14.48h0a4.05,4.05,0,0,0-.12.5,4.34,4.34,0,0,0-.09.52h0c0,.18,0,.37-.07.55s0,.37,0,.57,0,.38,0,.59a10.91,10.91,0,0,0,.08,1.43,6.49,6.49,0,0,0,.11.66c0,.21.09.42.14.63v0h0c.06.19.11.37.18.54a5.54,5.54,0,0,0,.21.54,6.33,6.33,0,0,0,.55,1c.11.14.21.28.32.4h0a3.85,3.85,0,0,0,.35.35,3.57,3.57,0,0,0,.38.3h0a3.45,3.45,0,0,0,.41.25h0a3.49,3.49,0,0,0,.44.2,2.69,2.69,0,0,0,.46.14,4.21,4.21,0,0,0,.49.09,4.45,4.45,0,0,0,.53,0,5.09,5.09,0,0,0,.69-.05,6.19,6.19,0,0,0,.65-.15,4,4,0,0,0,.6-.25,4.51,4.51,0,0,0,.54-.35l.06,0a5.48,5.48,0,0,0,.44-.4h0a5.83,5.83,0,0,0,.43-.53,5.2,5.2,0,0,0,.37-.61,5.69,5.69,0,0,0,.32-.71h0c.09-.25.18-.52.25-.79s.13-.56.18-.86a13.28,13.28,0,0,0,.14-2c0-.23,0-.45,0-.67h0c0-.22,0-.44-.06-.65a9.4,9.4,0,0,0-.23-1.22h0c-.06-.19-.11-.39-.17-.56h0a5.36,5.36,0,0,0-.2-.53,4.44,4.44,0,0,0-.24-.49l-.27-.45c-.1-.13-.2-.27-.31-.4s-.22-.25-.33-.36a2.73,2.73,0,0,0-.37-.32,2.62,2.62,0,0,0-.34-.24h0l-.05,0-.2-.12h0l-.23-.11-.24-.1h0l-.25-.09h0a3.25,3.25,0,0,0-.52-.12h0l-.25,0Zm9.82-.73h10v1h-1.3a5.28,5.28,0,0,0-.59,0c-.18,0-.34.07-.49.11a2.1,2.1,0,0,0-.4.18,1.14,1.14,0,0,0-.3.23h0a1.73,1.73,0,0,0-.23.29,2.06,2.06,0,0,0-.16.37h0a3.35,3.35,0,0,0-.14,1V57.36h3.43a4.28,4.28,0,0,0,.52,0l.5-.08.48-.14.46-.2h0a4.79,4.79,0,0,0,.45-.25,4.43,4.43,0,0,0,.42-.29h0a3.9,3.9,0,0,0,.38-.33c.12-.12.24-.25.35-.38l.2-.26h0l.2-.26h0l.17-.25.16-.26c.05-.07.1-.16.16-.26h0c0-.09.1-.18.15-.29a7.16,7.16,0,0,0,.29-.66l.15-.38.14-.4.15-.44h0c.05-.15.1-.3.14-.45h0v0l.06-.19h.84v6.85H104.45v-.3h0l0-.37h0v0l0-.3h.82a2.42,2.42,0,0,0,1.78-.57,1.72,1.72,0,0,0,.41-.68,3.26,3.26,0,0,0,.14-1V46.94a3.26,3.26,0,0,0-.14-1,1.76,1.76,0,0,0-.41-.67h0a1.91,1.91,0,0,0-.71-.42,3.7,3.7,0,0,0-1.07-.14h-.78v-1h.27Zm16.6,0h10v1H130a5.22,5.22,0,0,0-.58,0c-.18,0-.34.07-.49.11a2.53,2.53,0,0,0-.4.17h0a1.19,1.19,0,0,0-.31.23,1.34,1.34,0,0,0-.23.29,3.17,3.17,0,0,0-.17.37h0a3.35,3.35,0,0,0-.14,1V57.36h3.44a4.12,4.12,0,0,0,.51,0l.5-.08.48-.14a5.11,5.11,0,0,0,.47-.2h0l.45-.25.41-.29h0a3.9,3.9,0,0,0,.38-.33h0a4,4,0,0,0,.34-.38l.21-.26h0l.19-.26h0l.17-.25.17-.26,0,0,.13-.22.15-.29c.09-.19.19-.41.29-.66l.14-.38.15-.4.14-.44h0c.05-.15.09-.3.14-.45h0v0l.05-.19h.84v6.85H121.05l0-.26v0h0l0-.37h0v0l0-.3h.82a2.46,2.46,0,0,0,1.78-.57,1.72,1.72,0,0,0,.41-.68,3.26,3.26,0,0,0,.14-1V46.94a3.26,3.26,0,0,0-.14-1,1.76,1.76,0,0,0-.41-.67h0a2,2,0,0,0-.72-.42,3.63,3.63,0,0,0-1.06-.14H121v-1h.27Zm16.66,0h15.46v6.08h-.76l-.06-.19v0h0c-.06-.22-.13-.44-.2-.64s-.13-.41-.19-.58l-.17-.47c-.06-.15-.12-.28-.17-.39s-.11-.22-.17-.33-.13-.22-.2-.33l-.21-.31-.24-.3c-.1-.11-.2-.22-.31-.32a2.79,2.79,0,0,0-.32-.28h0a1.9,1.9,0,0,0-.33-.22h0a2.79,2.79,0,0,0-.34-.18h0a5.34,5.34,0,0,0-.64-.21,7.18,7.18,0,0,0-.7-.16q-.37-.06-.78-.09c-.27,0-.55,0-.85,0h-2.54v6h.49a3.5,3.5,0,0,0,.74-.08,2.74,2.74,0,0,0,.66-.25,2.68,2.68,0,0,0,.57-.4,4.1,4.1,0,0,0,.5-.58h0l.22-.35c.07-.13.13-.26.19-.39s.11-.28.16-.43.09-.3.13-.46h0c0-.06,0-.13,0-.21l.06-.3.05-.33h0l.05-.39v0l0-.24H149v9.85h-.84l0-.22v0l-.06-.35-.07-.36h0l-.07-.33-.08-.33h0l-.09-.29c0-.1-.05-.19-.08-.27l-.09-.23h0a1.29,1.29,0,0,0-.09-.2h0c-.07-.13-.14-.26-.22-.38l-.14-.2-.14-.19a3.17,3.17,0,0,0-.46-.44A2.52,2.52,0,0,0,146,52h0a2.73,2.73,0,0,0-.65-.2,4.47,4.47,0,0,0-.76-.07h-.32v5.64h2.58l.47,0,.45,0h0l.42-.06.39-.08.37-.1.35-.12.33-.14h0l.31-.15.3-.18.3-.2.28-.23.06-.05h0c.13-.11.26-.24.39-.37a3.6,3.6,0,0,0,.39-.47,4.52,4.52,0,0,0,.34-.51,5.93,5.93,0,0,0,.29-.56h0c.05-.11.1-.24.15-.37s.11-.28.16-.43l.17-.51c.05-.16.11-.35.17-.56v0L153,52h.84v6.41H137.72v-.3l0-.37v0l0-.3h.68a2.41,2.41,0,0,0,1.77-.57,1.72,1.72,0,0,0,.41-.68,3.26,3.26,0,0,0,.14-1V46.94a4.86,4.86,0,0,0,0-.56,2.82,2.82,0,0,0-.11-.46,2.06,2.06,0,0,0-.16-.37,1.73,1.73,0,0,0-.23-.29h0a1.33,1.33,0,0,0-.3-.23,2.1,2.1,0,0,0-.4-.18l-.5-.11a5.09,5.09,0,0,0-.58,0h-.66v-1H138Zm33,.09h.64v.31l.11,6.06h0v.33h-.79l-.06-.18v0l-.17-.52h0c-.06-.17-.11-.33-.16-.45l-.15-.4-.15-.34h0l-.15-.3c0-.09-.1-.19-.15-.28a2.26,2.26,0,0,0-.16-.26h0l-.15-.23h0a6.73,6.73,0,0,0-.52-.65,7.8,7.8,0,0,0-.57-.58,6,6,0,0,0-.64-.51c-.23-.16-.47-.31-.71-.45a7.12,7.12,0,0,0-.74-.35h0a7.49,7.49,0,0,0-.76-.25,6.38,6.38,0,0,0-.76-.15,6.49,6.49,0,0,0-.77-.05,5.4,5.4,0,0,0-.8.07l-.4.09-.22.07-.17.06-.37.15-.33.18h0l-.3.19-.25.22h0a5,5,0,0,0-.36.42,3.76,3.76,0,0,0-.31.5h0a4.43,4.43,0,0,0-.27.58h0c-.07.2-.14.42-.2.65a7.76,7.76,0,0,0-.17.76h0c0,.27-.08.56-.11.87s-.06.64-.07,1,0,.7,0,1.09,0,.9.07,1.34l0,.32,0,.31,0,.28h0l0,.26.05.25.06.26.07.24.07.25.07.23h0c0,.07.06.14.08.2l.08.18a1.09,1.09,0,0,0,.08.15h0l.14.23.17.22h0a1.63,1.63,0,0,0,.17.2l.18.19.2.18.21.16.24.16.24.14h0l.27.13.27.11h0a1.31,1.31,0,0,0,.28.09l.28.08h0l.3,0,.3,0,.31,0h.33a6.9,6.9,0,0,0,1.68-.21l.39-.11.36-.13.31-.14h0l.26-.15a3.35,3.35,0,0,0,.4-.33h0a1.84,1.84,0,0,0,.27-.37,1.38,1.38,0,0,0,.15-.4,1.63,1.63,0,0,0,.06-.45v-.73a3,3,0,0,0-.15-1,1.58,1.58,0,0,0-.41-.67h0a1.72,1.72,0,0,0-.72-.42A3.35,3.35,0,0,0,166,52.4h-1.51v-1h10.32v1h-.6a2.48,2.48,0,0,0-1.79.56h0a1.09,1.09,0,0,0-.23.29,2.09,2.09,0,0,0-.17.37h0a3.11,3.11,0,0,0-.1.46,3.24,3.24,0,0,0,0,.55v3.62h-.74l-.06-.06h0l-.2-.17h0l-.19-.14-.17-.12h0l-.16-.07-.15-.05h0l-.18,0-.2,0h-.44l-.2,0-.19,0h0l-.18,0-.2.06h0l-.25.08h0l-.26.09-.3.12h0l-.53.18h0l-.47.15h0l-.42.12h0l-.38.09h0l-.34,0-.39.05h0l-.43,0h-.47a11.43,11.43,0,0,1-1.77-.14,8.52,8.52,0,0,1-.85-.17l-.81-.23h0c-.26-.09-.52-.2-.77-.31s-.5-.23-.73-.36a7.57,7.57,0,0,1-.67-.42h0a6.74,6.74,0,0,1-.62-.47l0,0h0c-.19-.17-.37-.34-.54-.52h0a7.12,7.12,0,0,1-.49-.58,6.26,6.26,0,0,1-.43-.62,7.19,7.19,0,0,1-.37-.67,5.7,5.7,0,0,1-.29-.72,4.79,4.79,0,0,1-.21-.74,6.35,6.35,0,0,1-.13-.76,7.09,7.09,0,0,1,0-.79c0-.17,0-.33,0-.49s0-.31,0-.48h0c0-.16.05-.32.08-.48h0q.06-.25.12-.48h0c0-.15.09-.31.14-.46h0c.05-.15.11-.3.17-.45s.13-.3.2-.43.15-.28.23-.42l.26-.4a4.73,4.73,0,0,1,.28-.39c.1-.12.2-.25.31-.37s.23-.25.34-.36h0l.42-.38h0a5.2,5.2,0,0,1,.44-.35h0c.16-.13.32-.23.46-.33h0q.24-.16.48-.3l.5-.25.51-.23a10.34,10.34,0,0,1,1.07-.36,5.47,5.47,0,0,1,.55-.13l.55-.1a8,8,0,0,1,1.09-.07,7.83,7.83,0,0,1,1.08.07c.26,0,.52.08.77.13h0l.29.07.53.16h0l.56.2c.19.07.39.15.58.24l.61.28h0l.41.19h0a2.37,2.37,0,0,0,.34.13,1,1,0,0,0,.25.08h0a.59.59,0,0,0,.17,0h.15l.14,0,.15-.07h0l.16-.11.16-.15h0l.18-.19h0l.2-.25h0c.06-.08.13-.17.2-.28h0v0l.07-.1h.13Zm3.93-.09h15.47v6.08h-.77l-.05-.19v0h0c-.07-.22-.13-.44-.2-.64s-.13-.41-.19-.58-.12-.33-.18-.47-.11-.28-.16-.39l-.17-.33-.2-.33a3.46,3.46,0,0,0-.22-.31l-.23-.3-.31-.32a2.79,2.79,0,0,0-.32-.28h0a2.37,2.37,0,0,0-.33-.22h0l-.34-.18h0A6,6,0,0,0,186,45c-.23-.06-.46-.12-.71-.16s-.5-.07-.77-.09-.56,0-.85,0h-2.54v6h.48a3.59,3.59,0,0,0,.75-.08,2.83,2.83,0,0,0,.65-.25,2.5,2.5,0,0,0,.58-.4,4,4,0,0,0,.49-.58h0c.08-.11.16-.23.23-.35l.19-.39c.05-.14.11-.28.16-.43s.09-.3.13-.46h0q0-.09.06-.21l.05-.3.06-.33h0l0-.39v0l0-.24h.86v9.85h-.85l0-.22v0l-.06-.35-.07-.36h0l-.08-.33-.08-.33h0a2.45,2.45,0,0,0-.08-.29q0-.15-.09-.27a1.55,1.55,0,0,0-.08-.23h0c0-.08-.07-.15-.1-.2h0a2.88,2.88,0,0,0-.22-.38l-.13-.2-.15-.19a2.4,2.4,0,0,0-.46-.44,2.45,2.45,0,0,0-.55-.31h0a2.88,2.88,0,0,0-.65-.2,4.56,4.56,0,0,0-.76-.07h-.32v5.64h2.58l.47,0,.44,0h0l.41-.06.39-.08.38-.1.35-.12.33-.14h0l.31-.15.3-.18.29-.2.28-.23.06-.05h0a4.4,4.4,0,0,0,.38-.37,4.7,4.7,0,0,0,.4-.47c.12-.16.23-.33.34-.51a5.85,5.85,0,0,0,.28-.56h0a3.17,3.17,0,0,0,.16-.37c0-.14.11-.28.16-.43s.11-.32.16-.51.11-.35.17-.56v0l0-.19h.85v6.41H174.62l0-.26v-.75h.67a2.44,2.44,0,0,0,1.78-.57,1.72,1.72,0,0,0,.41-.68,3.26,3.26,0,0,0,.14-1V46.94a3.28,3.28,0,0,0,0-.56,2.85,2.85,0,0,0-.1-.46,1.56,1.56,0,0,0-.17-.37,1.09,1.09,0,0,0-.23-.29h0a1.33,1.33,0,0,0-.3-.23,2.43,2.43,0,0,0-.4-.18l-.5-.11a5.41,5.41,0,0,0-.59,0h-.66v-1h.27ZM68.93,16.94h16.2a29.13,29.13,0,0,1,3.73.22c.58.07,1.14.17,1.68.28s1,.24,1.55.39h0a15.24,15.24,0,0,1,1.44.51,13.38,13.38,0,0,1,1.32.63,12.28,12.28,0,0,1,1.21.75c.38.28.74.57,1.09.88s.6.55.87.83h0c.27.29.53.59.77.89h0a8.81,8.81,0,0,1,.66.94,9.66,9.66,0,0,1,.56,1c.17.34.32.69.45,1a8.41,8.41,0,0,1,.32,1,9.4,9.4,0,0,1,.19,1.06,9.77,9.77,0,0,1,.06,1.08,8.92,8.92,0,0,1-.07,1.16,8.19,8.19,0,0,1-.2,1.12,8,8,0,0,1-.35,1.08h0a9.64,9.64,0,0,1-.48,1,8.93,8.93,0,0,1-.61,1c-.22.31-.46.61-.71.9a9.29,9.29,0,0,1-.83.83,11.55,11.55,0,0,1-.94.76c-.33.25-.68.47-1,.69s-.73.41-1.13.6-.8.36-1.22.52h0c-.41.15-.85.3-1.31.43h0c-.45.13-.9.24-1.35.34s-.94.18-1.44.24-1,.12-1.49.15-1,0-1.55,0H68.66V38.2h1.16A6.58,6.58,0,0,0,71.71,38,3.29,3.29,0,0,0,73,37.29a2.85,2.85,0,0,0,.74-1.13h0A4.87,4.87,0,0,0,74,34.5V21.77a6.42,6.42,0,0,0-.06-.91,3.52,3.52,0,0,0-.19-.76,3.08,3.08,0,0,0-.31-.63A2.58,2.58,0,0,0,73,19a2.54,2.54,0,0,0-.56-.39h0a3.85,3.85,0,0,0-.72-.28,5.13,5.13,0,0,0-.87-.18c-.32,0-.66-.05-1-.05H68.66V16.94h.27Zm46.57,5.55-4.36,8.88H120l-4.47-8.88Zm1.85-6h.8l.06.12v0h0L128,35.77l.23.41h0l.25.37h0c.09.12.17.23.26.33s.18.21.27.3h0l.28.25.3.21h0l.31.18h0a2.52,2.52,0,0,0,.33.13h0l.36.1h0l.4.08.42,0,.47,0h.91v1.16H118.13V38.2h2.12l.62,0h0l.53-.06h0l.43-.1a1.52,1.52,0,0,0,.31-.13.79.79,0,0,0,.23-.16.8.8,0,0,0,.15-.17.78.78,0,0,0,.09-.21,1,1,0,0,0,0-.26,1.76,1.76,0,0,0-.06-.42,2.68,2.68,0,0,0-.17-.53h0l-.16-.37h0l-.24-.5h0l-.31-.62h0l-.39-.76-.06-.12h0l-.07-.15h0v0l-.06-.11h0l0-.1-.05-.09,0-.08h0l0,0-.32-.65h-10L109.86,34a3.89,3.89,0,0,0-.16.38h0c0,.13-.08.26-.11.39s0,.26-.07.39h0c0,.13,0,.26,0,.39a3,3,0,0,0,0,.31,1.67,1.67,0,0,0,.08.32,2.08,2.08,0,0,0,.12.32,3.58,3.58,0,0,0,.18.32,2.32,2.32,0,0,0,.22.3h0a3.07,3.07,0,0,0,.25.26l.28.22h0l.31.18.13.07h0l.09,0,.21.09.18.07.18.05.19,0,.23,0h0l.29,0h0l.32,0H113v1.15H102.57V38.22l.2,0h0l.5-.06h0l.45-.08h0l.39-.09.32-.1h0l.31-.13.33-.17.36-.21.37-.24h0a6.67,6.67,0,0,0,.89-.76,9.57,9.57,0,0,0,.88-1,14.61,14.61,0,0,0,.88-1.33c.29-.47.57-1,.85-1.56h0l0,0,7.76-15.75h0v0l.06-.12h.16Zm9.14.45h-.26v1.13h1.12a3.56,3.56,0,0,1,1.18.19,3.69,3.69,0,0,1,1.07.57h0a5.63,5.63,0,0,1,1,1,8.18,8.18,0,0,1,.87,1.38l9.45,18.47v0l.06.14h.17l.61,0h.15l.06-.12v0h0l8.11-16.36c.15-.3.3-.58.45-.85s.3-.52.45-.76.29-.46.45-.68a6,6,0,0,1,.45-.59h0c.15-.19.3-.35.45-.51s.31-.29.47-.43.33-.26.49-.38h0a5.77,5.77,0,0,1,1.06-.56,5.66,5.66,0,0,1,.58-.2,6.23,6.23,0,0,1,.62-.15l.66-.1h0l.21,0v-1.1H146.09v1.11h.25a5.5,5.5,0,0,1,.75.09,3.19,3.19,0,0,1,.66.16,4.1,4.1,0,0,1,.56.24,3.28,3.28,0,0,1,.47.33,2.26,2.26,0,0,1,.37.39,2.51,2.51,0,0,1,.26.45h0a2.76,2.76,0,0,1,.16.51,3.39,3.39,0,0,1,.05.58,2.25,2.25,0,0,1,0,.44,3.61,3.61,0,0,1-.11.51h0c-.06.17-.12.36-.2.55h0c-.08.19-.18.39-.28.61h0l-5.36,10.83L137.2,21.12h0a5,5,0,0,1-.21-.48h0a4.43,4.43,0,0,1-.15-.43,3.7,3.7,0,0,1-.09-.4c0-.12,0-.23,0-.35a1.2,1.2,0,0,1,.13-.57h0a1.18,1.18,0,0,1,.17-.22,1,1,0,0,1,.25-.21h0a2.55,2.55,0,0,1,.33-.17,2.09,2.09,0,0,1,.4-.12,3.14,3.14,0,0,1,.46-.08,4.7,4.7,0,0,1,.54,0h2V16.94H126.49Zm31.13,0h15.9V18h-2.08l-.49,0-.42.07a2,2,0,0,0-.35.1,1.57,1.57,0,0,0-.29.14h0a1.16,1.16,0,0,0-.21.16.55.55,0,0,0-.14.17h0a.66.66,0,0,0-.09.19h0a.88.88,0,0,0,0,.24.49.49,0,0,0,0,.12.5.5,0,0,0,0,.12h0s0,.08,0,.11h0l.06.11a.93.93,0,0,0,.12.19l.23.31h0l.31.4h0l.36.48h0l5.86,7.26,5.18-6.1h0l.06-.07a4.6,4.6,0,0,0,.46-.57,4.53,4.53,0,0,0,.33-.53h0a3.45,3.45,0,0,0,.19-.46h0a1.39,1.39,0,0,0,.05-.39,1.42,1.42,0,0,0-.05-.42h0a1.26,1.26,0,0,0-.15-.38h0a1.92,1.92,0,0,0-.26-.34,2,2,0,0,0-.38-.31l0,0a4.13,4.13,0,0,0-.42-.22,4.43,4.43,0,0,0-.55-.18,5.86,5.86,0,0,0-.63-.12c-.22,0-.45,0-.7,0h-1.88V16.94H190.7V18l-.21,0h0l-.6.07h0l-.56.1h0l-.53.11a5.16,5.16,0,0,0-.5.13l-.48.15-.45.17-.44.19-.42.22-.41.24h0l-.42.29h0l-.43.32-.43.36h0l-.44.4h0c-.14.13-.29.27-.43.42l-.43.44-.41.46L177,29.31V34.5a4.75,4.75,0,0,0,.25,1.64,3.1,3.1,0,0,0,.32.63h0a2.38,2.38,0,0,0,.44.51,2.87,2.87,0,0,0,.57.39h0a3.51,3.51,0,0,0,.71.29,5.57,5.57,0,0,0,.87.18,8,8,0,0,0,1,.06h1.91v1.16H165.17V38.2h2A6.63,6.63,0,0,0,169,38a3.18,3.18,0,0,0,1.28-.67,2.87,2.87,0,0,0,.75-1.13h0a4.87,4.87,0,0,0,.25-1.66V29.88L164.08,21,164,21h0l-.62-.71h0c-.23-.24-.45-.45-.67-.65h0a7.33,7.33,0,0,0-.66-.51h0a6.11,6.11,0,0,0-.65-.38h0a4.61,4.61,0,0,0-.68-.28c-.25-.07-.51-.14-.79-.2a7.91,7.91,0,0,0-.9-.11c-.31,0-.64,0-1,0h-.7V16.94h.26Z"/><path class="cls-4" d="M19.43,10.83l-.09.14v.09H21l.19,0a2.47,2.47,0,0,0,.29-.06l.25-.09.21-.11.18-.15a.9.9,0,0,0,.15-.19l.08-.12a1.57,1.57,0,0,1-.15.19,1.39,1.39,0,0,1-.19.15,1,1,0,0,1-.21.11.85.85,0,0,1-.24.09l-.3.07-.18,0H19.42v-.11Zm2.94-.54-2.94.54h.23a.12.12,0,0,0,.09,0h0V8.54a.64.64,0,0,0,0-.09.1.1,0,0,0,0,0s0,0-.06,0l-.09,0h-.23V8.23l.09-.14h1.41a3.89,3.89,0,0,1,.51,0,2.11,2.11,0,0,1,.4.11,1.23,1.23,0,0,1,.37.21,1.31,1.31,0,0,1,.27.3,1.46,1.46,0,0,1,.16.36,1.4,1.4,0,0,1,.05.41,2.64,2.64,0,0,1,0,.29,2,2,0,0,1-.08.26,2.18,2.18,0,0,1-.12.22Zm8.68-1.48,0,0a1.75,1.75,0,0,1,.28-.33,1.8,1.8,0,0,1,.35-.24l.42-.15A2,2,0,0,1,32.55,8a2.09,2.09,0,0,1,.35,0l.36.09.17.06.09,0h.07l0,0v0h0L33.72,8h.1V9l-.09.14h-.1a1.17,1.17,0,0,0-.15-.34.92.92,0,0,0-.23-.25A1.59,1.59,0,0,0,33,8.41a1.27,1.27,0,0,0-.34-.05.9.9,0,0,0-.28,0,.8.8,0,0,0-.25.11.91.91,0,0,0-.21.18.08.08,0,0,0,0,0s0,0,0,0a1.6,1.6,0,0,0-.11.33,2.1,2.1,0,0,0,0,.36,2.06,2.06,0,0,0,0,.36,2.66,2.66,0,0,0,.08.33.86.86,0,0,0,.14.27.73.73,0,0,0,.19.2,1,1,0,0,0,.26.12,1.66,1.66,0,0,0,.33,0,1.27,1.27,0,0,0,.28,0,1.14,1.14,0,0,0,.26-.09,1.17,1.17,0,0,0,.25-.16,1.46,1.46,0,0,0,.27-.24h0v.26l-.09.14a1.79,1.79,0,0,1-.28.22,1.47,1.47,0,0,1-.28.14,1.4,1.4,0,0,1-.31.09l-.36,0a2.35,2.35,0,0,1-.47,0,1.88,1.88,0,0,1-.42-.14,1.38,1.38,0,0,1-.35-.22,1.42,1.42,0,0,1-.25-.3,1,1,0,0,1-.16-.35,1.19,1.19,0,0,1-.06-.37,1.34,1.34,0,0,1,.06-.4A1.41,1.41,0,0,1,31,8.93l.07-.12Zm3.29.55v0h0a1.37,1.37,0,0,1,.19-.23,1.26,1.26,0,0,1,.39-.22,1.45,1.45,0,0,1,.47-.07,1.55,1.55,0,0,1,.5.07,1,1,0,0,1,.4.22,1.23,1.23,0,0,1,.26.35,1,1,0,0,1,.08.42,1.06,1.06,0,0,1-.06.37,1.36,1.36,0,0,1-.1.21l-.09.14-.09.12a1.21,1.21,0,0,1-.41.3,1.59,1.59,0,0,1-1.11,0,1.15,1.15,0,0,1-.41-.28,1.12,1.12,0,0,1-.2-.33,1.23,1.23,0,0,1-.07-.39,1,1,0,0,1,.09-.42.75.75,0,0,1,.07-.12l.07-.11Zm9.65,0,0,0v0a1.07,1.07,0,0,1,.2-.23,1.38,1.38,0,0,1,.42-.25,1.59,1.59,0,0,1,.5-.08h.17l.14,0,.1,0,.28.09.06,0h0l0,0,.08-.12h.07v.73L46,9.67H46a1.26,1.26,0,0,0-.14-.26.72.72,0,0,0-.2-.19.9.9,0,0,0-.24-.12,1,1,0,0,0-.25,0,.61.61,0,0,0-.24,0,.66.66,0,0,0-.19.09.47.47,0,0,0-.1.1.61.61,0,0,0-.05.12,2,2,0,0,0,0,.24,1,1,0,0,0,0,.24,2.46,2.46,0,0,0,0,.28.84.84,0,0,0,.06.24.49.49,0,0,0,.1.19.5.5,0,0,0,.15.14l.18.08.23,0h.17l.08,0V10.4s0-.05,0-.06l0,0,0,0-.07,0h-.14v-.07l.09-.14h1.13v.07l-.09.14h-.11l-.07,0v.51l-.09.14h0L45.8,11l-.23.05-.24,0h-.26l-.29,0L44.53,11l-.21-.1-.17-.11a1,1,0,0,1-.15-.14.57.57,0,0,1-.11-.16.85.85,0,0,1-.09-.22,1.07,1.07,0,0,1,.06-.68.54.54,0,0,1,.07-.13l.06-.1Zm-5,.8-.09.73-.09.14h-2V11l.09-.14H37l.06,0V9.21s0-.05,0-.07l0,0,0,0-.07,0h-.17V9l.09-.14h1.24v.07L38,9.05h-.2l-.06,0v1.57a.64.64,0,0,0,0,.07l0,0,0,0h.56l.13,0,.12-.08.06-.07,0-.05c0-.06.05-.13.08-.21h0l.09-.14H39Zm2.5.66h.17l.06,0V9.17l0-.05,0,0-.07,0h-.18V9l.09-.14H43.4v.62l-.09.14h-.07c0-.07,0-.14-.06-.19a.41.41,0,0,0-.08-.13.49.49,0,0,0-.25-.14l-.13,0h-.36V9.8h0a.48.48,0,0,0,.18,0,.17.17,0,0,0,.1-.06l0,0a.65.65,0,0,0,0-.21h0l.09-.14h.07v1.09l-.09.14h-.08a.41.41,0,0,0,0-.16.5.5,0,0,0-.05-.13l-.07-.09-.08-.06-.11,0h0v.57a.35.35,0,0,0,0,.07l0,0,0,0,.06,0h.22a1.35,1.35,0,0,0,.29,0,.55.55,0,0,0,.22-.1.69.69,0,0,0,.13-.11l.06-.15h0l.09-.14h.07l-.1.67-.09.14h-2V11l.09-.14Zm5.9-1.74h.36l.14,0A.35.35,0,0,1,48,9.2l.11.08a.41.41,0,0,1,.08.13c0,.05,0,.12.06.19h.07l.09-.14V8.84H46.49L46.4,9v.07h.18l.07,0,0,0s0,0,0,.05v1.66l-.06,0h-.17L46.4,11v.07h2l.09-.14.11-.67h-.07l-.09.14h0a.47.47,0,0,1-.06.15.43.43,0,0,1-.12.11.6.6,0,0,1-.23.1,1.19,1.19,0,0,1-.29,0H47.5l0,0,0,0,0,0s0,0,0-.07v-.57h.05l.11,0,.08.06.07.09a.5.5,0,0,1,0,.13l0,.16h.08l.09-.14V9.32h-.08l-.09.14h0a1.12,1.12,0,0,1,0,.21l0,0a.21.21,0,0,1-.1.06.5.5,0,0,1-.19,0h0V9.11Zm-8.22-.27h1.23v.07l-.09.14H40.1l-.06,0v1.57a.14.14,0,0,0,0,.07l0,0,.05,0h.56l.14,0,.11-.08a.23.23,0,0,0,.07-.07l0-.05.08-.21h0l.09-.14h.08l-.09.73-.09.14h-2V11l.09-.14h.17l.06,0V9.21a.64.64,0,0,0,0-.07l0,0-.05,0-.06,0h-.17V9l.09-.14Zm-12.58,0h.76v.07l-.09.14h0a.28.28,0,0,0-.12,0,.35.35,0,0,0-.1.08l0,0c0,.05-.06.12-.1.2L26.1,11l-.09.14H26l-.79-1.65L25,9.23A.54.54,0,0,0,25,9.11a.15.15,0,0,0-.06,0l-.12,0h0V9l.09-.14H26v.07l-.09.14h-.17c.17.4.37.8.56,1.19l.44-.88,0-.08,0-.05V9.16l0,0,0,0,0,0h-.2V9l.09-.14Zm2.56,0L29,9v.07h.13l.08,0,0,0a.06.06,0,0,1,0,0,.24.24,0,0,1,0,.11.59.59,0,0,1,0,.08l-.39.59-.41-.68-.1-.18v0h.11l.09-.14V8.84H27.39L27.3,9v.07h.1l.08,0a.3.3,0,0,1,.09.1,2.36,2.36,0,0,1,.13.2l.55.89v.54l-.06,0H28l-.09.14v.07h1.29l.1-.14v-.07h-.22l-.06,0,0,0,0,0s0,0,0-.07v-.62l.4-.61,0,0,.13-.19a.69.69,0,0,1,.11-.12l.07,0,.1,0h0l.09-.14V8.84Zm6.21.22a.5.5,0,0,0-.27.07.69.69,0,0,0-.13.11,1,1,0,0,0-.08.26,2.21,2.21,0,0,0,0,.39,1.62,1.62,0,0,0,.05.46.79.79,0,0,0,.15.32.52.52,0,0,0,.17.13.56.56,0,0,0,.23,0,.41.41,0,0,0,.16,0l.13-.05.11-.1,0-.07a.92.92,0,0,0,.06-.25,1.47,1.47,0,0,0,0-.31,1.94,1.94,0,0,0,0-.36.83.83,0,0,0-.06-.25.55.55,0,0,0-.1-.17.34.34,0,0,0-.12-.12l-.14-.06-.16,0ZM24.15,10.47a2.56,2.56,0,0,1,.17.37h-.17l-.09.14v.07h1.12l.09-.14v-.07h-.1l-.06,0a.35.35,0,0,1-.09-.11s-.07-.11-.11-.19l-.83-1.7h0L24,8.94l-.82,1.65c0,.05-.05.09-.07.13a.08.08,0,0,1,0,0,.16.16,0,0,1-.08.06l-.12,0h0l-.09.14v.07h.77l.09-.14v-.07h-.15l-.07,0s-.05,0-.06-.05a.19.19,0,0,1,0-.08.2.2,0,0,1,0-.07l0-.09,0-.06Zm-.39-.8.26.54H23.5l.26-.54ZM20.64,8.4h.23a1,1,0,0,1,.23.05.77.77,0,0,1,.38.34,1.42,1.42,0,0,1,.14.38,2.46,2.46,0,0,1,.05.49,2.42,2.42,0,0,1-.07.58,1.33,1.33,0,0,1-.1.24l0,0a.64.64,0,0,1-.25.18.85.85,0,0,1-.33.05h-.11l-.07,0,0,0,0,0a.45.45,0,0,1,0-.08V8.4Z"/><path class="cls-3" d="M19.43,10.91v-.08h.23a.12.12,0,0,0,.09,0h0l.06,0,0-.06a.13.13,0,0,0,0-.08s0-.11,0-.18V8.58c0-.08,0-.13,0-.18a.64.64,0,0,0,0-.09h0a.1.1,0,0,0,0-.05s0,0-.06,0h0a.16.16,0,0,0-.09,0h-.23V8.09h1.41a3.89,3.89,0,0,1,.51,0,2.11,2.11,0,0,1,.4.11,1.23,1.23,0,0,1,.37.21,1.31,1.31,0,0,1,.27.3,1.46,1.46,0,0,1,.16.36,1.4,1.4,0,0,1,.05.41,2.64,2.64,0,0,1,0,.29,2,2,0,0,1-.08.26,1.26,1.26,0,0,1-.13.23.9.9,0,0,1-.15.19l-.18.15-.21.11-.25.09a2.47,2.47,0,0,1-.29.06l-.18,0H19.43Zm1.21-2.65v2.33a.45.45,0,0,0,0,.08l0,0,0,0h0l.07,0h.11a.85.85,0,0,0,.33-.05.64.64,0,0,0,.25-.18,1.13,1.13,0,0,0,.21-.41,2.42,2.42,0,0,0,.07-.58A2.46,2.46,0,0,0,21.71,9a1.42,1.42,0,0,0-.14-.38,1.2,1.2,0,0,0-.17-.21,1.2,1.2,0,0,0-.21-.13A1,1,0,0,0,21,8.27Zm3.6,2.07h-.81l-.09.2a.36.36,0,0,0,0,.09.2.2,0,0,0,0,.07.19.19,0,0,0,0,.08s0,0,.06.05h0l.07,0h.15v.07h-.77v-.07h0l.12,0a.16.16,0,0,0,.08-.06.35.35,0,0,0,.09-.11,1.8,1.8,0,0,0,.11-.2L24,8.8h0l.83,1.7c0,.08.08.14.11.19a.35.35,0,0,0,.09.11l.06,0h.1v.07H24.15v-.07h.16l.08,0s0,0,0,0,0,0,0,0v0s0,0,0,0h0s0,0,0,0l0-.07-.12-.26Zm-.06-.12-.34-.7-.34.7Zm3.15-1.36h-.76v.07h.11l.09,0h0l0,0,0,0h0l0,0a.08.08,0,0,1,0,0v0s0,0,0,.05h0s0,0,0,.08l-.07.14-.45.91-.48-1-.07-.13,0-.07a.06.06,0,0,1,0,0,0,0,0,0,1,0,0V9l0,0h0l.08,0H26V8.84H24.88v.07h0l.12,0a.15.15,0,0,1,.06,0,.54.54,0,0,1,.07.12,1,1,0,0,1,.12.23L26,11h.06l.8-1.58L27,9.15,27.11,9a.35.35,0,0,1,.1-.08l.12,0h0V8.85Zm2.51,0v.06h0l-.1,0-.07,0h0a.69.69,0,0,0-.11.12,2.33,2.33,0,0,0-.15.23l-.5.74v.63s0,.06,0,.07h0l0,0,0,0,.06,0h.22v.07H28v-.07h.21l.07,0h0s0,0,0,0l0,0h0a.35.35,0,0,0,0-.06s0-.08,0-.13v-.41l-.54-.89-.14-.2a.3.3,0,0,0-.09-.1.2.2,0,0,0-.08,0h-.1V8.84H28.5v.07h-.19l0,0V9a.49.49,0,0,0,0,.1l.1.18.41.68.41-.62a1.44,1.44,0,0,0,.11-.19.24.24,0,0,0,0-.11.06.06,0,0,0,0,0l0,0h0l-.08,0h-.13V8.84h.71Zm4-.82V9h-.1a1,1,0,0,0-.15-.34.92.92,0,0,0-.23-.25,1.59,1.59,0,0,0-.29-.15,1.27,1.27,0,0,0-.34,0,.9.9,0,0,0-.28,0,.8.8,0,0,0-.25.11.91.91,0,0,0-.21.18.86.86,0,0,0-.15.22,1.6,1.6,0,0,0-.11.33,2.1,2.1,0,0,0,0,.36,2.06,2.06,0,0,0,0,.36,2.66,2.66,0,0,0,.08.33.86.86,0,0,0,.14.27.73.73,0,0,0,.19.2,1,1,0,0,0,.26.12,1.66,1.66,0,0,0,.33,0,1.27,1.27,0,0,0,.28,0,1.14,1.14,0,0,0,.26-.09,1.17,1.17,0,0,0,.25-.16,1.46,1.46,0,0,0,.27-.24h0v.26h0a1.13,1.13,0,0,1-.27.22,1,1,0,0,1-.28.14,1.4,1.4,0,0,1-.31.09l-.36,0a2.42,2.42,0,0,1-.47,0,1.88,1.88,0,0,1-.42-.14,1.38,1.38,0,0,1-.35-.22,1.42,1.42,0,0,1-.25-.3,1,1,0,0,1-.16-.35,1.19,1.19,0,0,1-.06-.37,1.34,1.34,0,0,1,.06-.4,1.41,1.41,0,0,1,.18-.37,1.75,1.75,0,0,1,.28-.33,1.8,1.8,0,0,1,.35-.24l.42-.15A2,2,0,0,1,32.55,8a2.09,2.09,0,0,1,.35,0l.36.09.17.06.09,0h.07l.06,0a.21.21,0,0,0,0-.06.32.32,0,0,0,0-.09h.1Zm1.59.78a1.55,1.55,0,0,1,.5.07,1,1,0,0,1,.4.22,1.23,1.23,0,0,1,.26.35,1,1,0,0,1,.08.42,1.06,1.06,0,0,1-.06.37,1.09,1.09,0,0,1-.19.33,1.21,1.21,0,0,1-.41.3,1.58,1.58,0,0,1-.55.1,1.4,1.4,0,0,1-.56-.1,1.15,1.15,0,0,1-.41-.28,1.12,1.12,0,0,1-.2-.33,1.23,1.23,0,0,1-.07-.39,1,1,0,0,1,.09-.42,1.23,1.23,0,0,1,.26-.35,1.26,1.26,0,0,1,.39-.22,1.45,1.45,0,0,1,.47-.07Zm0,.11a.5.5,0,0,0-.27.07.54.54,0,0,0-.2.22.76.76,0,0,0-.1.29,2.21,2.21,0,0,0,0,.39,1.62,1.62,0,0,0,.05.46.79.79,0,0,0,.15.32.52.52,0,0,0,.17.13.56.56,0,0,0,.23,0,.41.41,0,0,0,.16,0l.13-.05a.8.8,0,0,0,.13-.13.77.77,0,0,0,.1-.18.92.92,0,0,0,.06-.25,1.47,1.47,0,0,0,0-.31,1.94,1.94,0,0,0,0-.36A.83.83,0,0,0,36,9.29a.55.55,0,0,0-.1-.17A.34.34,0,0,0,35.73,9l-.14-.06-.16,0ZM39,10.19l-.09.73H36.83v-.07H37l.07,0h0s0,0,0,0l0,0h0a.35.35,0,0,0,0-.06.53.53,0,0,0,0-.13V9.2a.53.53,0,0,0,0-.13.35.35,0,0,0,0-.06l0,0,0,0h0l-.07,0h-.17V8.84h1.24v.07h-.2l-.07,0h0l0,0,0,0s0,0,0,.07v1.57a.64.64,0,0,0,0,.07l0,0,0,0h.56l.13,0,.12-.08a.53.53,0,0,0,.09-.11h0l.09-.15a1,1,0,0,0,.08-.21H39Zm2.32,0-.09.73H39.15v-.07h.17l.07,0h0s0,0,0,0a.05.05,0,0,0,0,0h0a.08.08,0,0,0,0-.06V9.07a.08.08,0,0,0,0-.06.05.05,0,0,0,0,0l0,0h0l-.06,0h-.17V8.84h1.23v.07h-.19l-.07,0h0l0,0,0,0a.56.56,0,0,0,0,.07v1.57a.14.14,0,0,0,0,.07l0,0,.05,0h.56l.14,0,.11-.08a.36.36,0,0,0,.1-.11l.09-.15.08-.21h.08ZM42.36,9V9.8h0a.48.48,0,0,0,.18,0,.25.25,0,0,0,.13-.09.53.53,0,0,0,.08-.15,1.08,1.08,0,0,0,.05-.21h.07v1.09h-.07a.75.75,0,0,0,0-.16.43.43,0,0,0,0-.12.36.36,0,0,0-.07-.1l-.08,0a.18.18,0,0,0-.11,0h-.13v.71a.35.35,0,0,0,0,.07h0l0,0,0,0h0l.06,0h.22a1.35,1.35,0,0,0,.29,0,.68.68,0,0,0,.39-.27,1,1,0,0,0,.11-.23h.07c0,.22-.07.45-.1.67h-2v-.07h.17l.07,0h0s0,0,0,0l0,0h0a.35.35,0,0,0,0-.06V9l0,0,0,0h0l-.08,0h-.18V8.84H43.4v.62h-.07c0-.07,0-.14-.06-.19a.41.41,0,0,0-.08-.13.39.39,0,0,0-.1-.08A.34.34,0,0,0,42.94,9h0l-.13,0h-.45Zm3.76-.17v.73h-.07a1.26,1.26,0,0,0-.14-.26.72.72,0,0,0-.2-.19A.9.9,0,0,0,45.47,9a1,1,0,0,0-.25,0A.86.86,0,0,0,45,9a.66.66,0,0,0-.19.09.7.7,0,0,0-.14.16.75.75,0,0,0-.1.2,2,2,0,0,0,0,.24,1,1,0,0,0,0,.24,2.46,2.46,0,0,0,0,.28.84.84,0,0,0,.06.24.49.49,0,0,0,.1.19.5.5,0,0,0,.15.14l.18.08.23,0h.17l.08,0,.09,0v-.52s0,0,0-.06h0l0,0-.05,0-.07,0h-.14V10h1.13v.07h-.11l-.07,0,0,0,0,.05h0s0,0,0,0a.31.31,0,0,0,0,.1v.43h0l-.23.08-.23.05-.24,0h-.26l-.29,0-.25-.06-.21-.1-.17-.11a1,1,0,0,1-.15-.14.91.91,0,0,1-.11-.16.85.85,0,0,1-.09-.22A1.07,1.07,0,0,1,44,9.48a1,1,0,0,1,.27-.36,1.38,1.38,0,0,1,.42-.25,1.59,1.59,0,0,1,.5-.08h.17l.14,0,.1,0,.15.05.13,0,.06,0h0l0,0,0,0a.16.16,0,0,0,0-.07h.07ZM47.37,9V9.8h0a.5.5,0,0,0,.19,0,.3.3,0,0,0,.13-.09.53.53,0,0,0,.08-.15,1.12,1.12,0,0,0,0-.21h.08v1.09h-.08a.76.76,0,0,0,0-.16.43.43,0,0,0,0-.12.86.86,0,0,0-.07-.1l-.08,0a.2.2,0,0,0-.11,0h-.14v.57a.53.53,0,0,0,0,.14s0,.06,0,.07h0l0,0,0,0h0l0,0h.22a1.19,1.19,0,0,0,.29,0,.6.6,0,0,0,.23-.1.52.52,0,0,0,.16-.17.55.55,0,0,0,.11-.23h.08c0,.22-.07.45-.11.67h-2v-.07h.17l.07,0h0s0,0,0,0,0,0,0,0h0s0,0,0-.06V9.09s0-.05,0-.06a.05.05,0,0,0,0,0,.08.08,0,0,0,0,0h0l-.07,0h-.18V8.84h1.93v.62h-.07c0-.07,0-.14-.06-.19a.41.41,0,0,0-.08-.13.31.31,0,0,0-.11-.08A.35.35,0,0,0,48,9h0l-.14,0h-.45Z"/><path class="cls-5" d="M14.45,64.81l6.62,2-2.72,1.21A50,50,0,0,0,49,68L46.34,66.8l6.53-2.32-1.23,3.11,1.18,2.18-3.62,1.3v2.09a48.46,48.46,0,0,1-30.76.19l-.1-2-3.75-1.1,1.27-2.13Z"/><path class="cls-6" d="M21.07,66.85l-2.72,1.21c1,.29,1.93.57,2.89.81l-.17-2Zm25.32,1.88c.88-.23,1.75-.49,2.62-.77L46.34,66.8Z"/><path class="cls-7" d="M6.28,1.48H62.15V35.73C58.91,51.21,48,61.28,34.21,67.92c-8-3-15.5-9.07-20.6-15.55C9,46.51,6.43,39.91,6.28,35.36Z"/><g class="cls-8"><path class="cls-3" d="M9.92,5H58.5V36C56.74,46.59,47.7,58.44,34.21,64.38,20.73,58.44,11.68,46.59,9.92,36Z"/><path class="cls-9" d="M22.92,22.63c0,.13.27.26.27.32s0,0,0,0l.62.68s0,0,0,0a6.21,6.21,0,0,1,.81.2l.3.33a2.41,2.41,0,0,1,.51,1,.85.85,0,0,0,.81.67l.15.15c-.11-.1.43.71.89.71l.27.14.2.11m0-5.3c.14,0,.82.51.94.51s.29.18.29.23,0,0,0,0,.14.07.15.07m4.23-2.31c.15,0,.47.36.64.36l1,.29c0-.07,0,0,.06,0m2.43-2.19c.42.62,1.37.27,1.87.76.1,0,.45.32.54.4m-.36-2.54a5.65,5.65,0,0,1,.57.38c.11,0,.21.12.32.12a1.12,1.12,0,0,0,.41,0m9.49-5.25c.16,0,.31-.14.47-.17s.43-.26.71-.26a.61.61,0,0,0,.34-.21c0-.06.11-.11.15-.15s.13-.16.16-.16,0,0,0,0m-25,16.37c.06,0,.09-.1.14-.1l0,0,1-.49.4,0s0,0,0,0,.1.1.1.14,0,0,0,0l.11.19s.1.26.15.26,0,.05,0,.05,0,.08.06.08.06.15.1.15l.36.3.85-.62a1.53,1.53,0,0,0,.21-.14c-.06.06.85-.42,1-.42l.35-.23.26-.4.57-.22L33.6,26l.65-.46,0,0,.12-.21a1.26,1.26,0,0,1,.55-.52s.34-.18.34-.29L35.9,24l2-1.77c.06,0,.17.21.24.21,0,.2,1.43.43,1.58.43.56,0,1.09.47,1.68.47l1.26-.15c0-.15.82-.41.82-.63a2.41,2.41,0,0,0,.36-.23c.1,0,.42-.44.57-.44v0s0,0,0,0,1-.41,1-.65l.52-.32.19-.4c0-.19.09-.35.3-.35.52,0,.48.7.72.7l0,.05s.1,0,.1.05l1,.9.74.93c.13.06.48.46.58.46-.08-.11.8,1.06.8,1.09.24,0,.15-.48.44-.48a1.15,1.15,0,0,1,.19-.14s0,0,0,0l-.15-.37L51,23l.18-.32.14-.45c.1-.1.59-.38.59-.49s0,0,0,0,0,0,0,0-.39-.62.19-.62l.08-.31-1.56-.62,0,0s0-.78-.61-.78c-.25,0-.8-.47-.8-.74-.11-.11-.35-.58-.56-.58-.25-.25-1.75-1.14-1.75-1.31-.07,0-.4-.7-.58-.7m-4,7.37a.33.33,0,0,0,.1.06c0,.05.2.14.23.14s.2.06.22.07H43a1.67,1.67,0,0,1,.45.13,6.94,6.94,0,0,0,1.52.16c-1-.05-.51,0,0,0-.06,0-.16.16-.22.16a0,0,0,0,1,0,0s0,0,0,0-.19.27-.21.32-.34.24-.34.27.29.07.45.07c-.31-.07-.16,0,0,0l-.76.74c0,.07-.15.11-.15.18a.34.34,0,0,0-.08.09s-.08.07-.08.1,0,0,0,0,0,0,0,0,0,.24.07.27a1.87,1.87,0,0,0,.48,0h0a.86.86,0,0,1-.34.64h0"/><path class="cls-10" d="M9.92,23.46H58.5v1.8H9.92v-1.8ZM58.5,26.75v1.8H9.92v-1.8Zm0,3.34v1.8H9.92v-1.8Z"/><polygon class="cls-11" points="9.85 22.39 34.36 30.28 58.58 22.51 58.58 0.24 9.85 0.13 9.85 22.39"/><g class="cls-12"><path class="cls-13" d="M28.24,28.52c1,.25,2.8.89,3.88,1.23,2.32.73,1.35.72,4-.09S41.35,28,44,27.2s5.2-1.64,7.81-2.48l5.86-1.85a16.1,16.1,0,0,0,1.93-.66c.13-.17,0-4.23,0-5v0s0,0,0,0l0-.29c0-.13,0-.23,0-.37l-.1.25s0,0,0,0a.1.1,0,0,1,0,0c-.18-.24-.3-.16-.18-.53-.42-.08-.56-.44-1-.56-.14,0-.18,0-.34-.08.08-.1.07-.07.15-.16-.1-.19-.18-.23-.13-.52s.22-.93-.14-1.15a.81.81,0,0,0-.63-.13c.16.09.15,0,.22.14a1.07,1.07,0,0,1-.27-.08c-.1-.05-.1-.15-.35-.29l-.26-.21a.73.73,0,0,1-.27-.37c-.09-.23-.07,0,0-.24a1.7,1.7,0,0,0,0-.33L56,12.1c0-.1,0-.07.12-.16h-.29c.06-.13.14-.17.23-.27l-.39,0,.16-.2,0,0s0,0,0,0,0,0-.07-.12l-.09-.15s0-.15,0-.21a6.25,6.25,0,0,1-.63-.33c.13-.19.19.1.17-.23-.2,0-.23,0-.36.14-.38-.19-.36-.08-.27-.33L54,10.17s0,0-.09,0-.1,0-.19,0c-.35.09-.54,0-.59.36-.25,0-.34,0-.31.19,0,0,0,0,0,.07v0c0,.08,0,.06,0,.19-.22-.18,0-.16-.24-.2,0,0-.11-.05,0,.19a.53.53,0,0,0,.13.16l-.16.09.12.18c-.17,0-.21-.16-.46-.13.06.14.15.19,0,.36l-.17.09c.18.3,0,.51-.2.67-.28.31.09.16-.5.46a2.73,2.73,0,0,0-.89,1.1c-.17,0-.08,0-.25,0a.83.83,0,0,0,0,.47c-.08,0-.12-.11-.23-.13l0,.3c-.17-.07,0-.07-.21-.15-.2.2.11.12-.29.2l0,.18c-.16-.09-.08-.11-.27-.09l.06.32c-.38.17-.29,0-.52.4-.1.15,0,.11-.16.13s.11,0,0-.18a2,2,0,0,1-.23.18c-.15.11-.06.05-.1.28-.25-.06,0,0-.21-.13L48,16c-.15,0-.28-.11-.34.06-.13.37.74.54.22.82.07.13.06.07.1.2s0,0,0,.06c.09.25.34.21.5.4s.32.78.66,1,.13.17.65.34.41.24.42.81c.77.53,1.15.37,1.81.64.15.06.16.07.23.18-.08.3-.41.26-.62.47.05.1.1.09.16.21-.19.58-1,.82-1,1s0,.05.16.16.1,0,.16.17a1.49,1.49,0,0,1-.42.26s-.08.05-.08.06a.29.29,0,0,0-.08.07c.09.26.36.3,0,.67-.12.14-.19.12-.29.23s-.08.17-.22.31c-.45,0-.89-1.17-1.45-1.5-.29-.17-.4-.08-.65-.34a1.81,1.81,0,0,1-.31-.67c-.14-.34-.22-.3-.48-.5s-.3-.26-.55-.44-.32-.16-.49-.53-.33-.43-.59-.14-.1.43-.38.6a7.94,7.94,0,0,0-.84.62,8,8,0,0,1-.94.56l-.54.44c-.14.12-.18.09-.33.15a2.9,2.9,0,0,0-.83.72l2,.45a1.75,1.75,0,0,1,.73.08c0,.27-.43.42-.56.8l.26.09a.47.47,0,0,1-.27.41,3.6,3.6,0,0,0-.39.29.83.83,0,0,0-.37.32,3.9,3.9,0,0,0-.31.4c.33.09.78,0,.69.3a.78.78,0,0,1-.09.21.53.53,0,0,1-.3.29c-.21-.17-.06-.18,0-.41-.19-.15-.36-.12-.59-.22,0-.35.19-.38.26-.72-.32,0-.72,0-.91-.24l.24-.05,0-.19c.09,0,0,0,.14.1l.08-.16c-.16-.19-.1,0-.13-.47.16.07.14,0,.19.2.1-.07,0,0,.11-.13,0,.06,0,0,0,.09s0,.07.09.13c.1-.2.09,0,.19-.2s.06-.24.09-.32c.43.1.11.06.35.2l.09-.25c.28.08.47.14.58-.24a7.65,7.65,0,0,1-1.76-.39,13.94,13.94,0,0,0-1.82-.34,11.84,11.84,0,0,0-1.73-.44,4.89,4.89,0,0,1-.86-.2c-.66-.18-.6-.3-.79-.34-.19.17-.13.21-.39.35s-.07,0-.14.13l.31,0v.24l.25,0c0,.11,0,.16.07.26s0,0,0,0l-.05.28c-.1.29-.52.38-.8.39-.12.37,0,.08-.23.3a2,2,0,0,1-.69.51c-.27.08-.31-.06-.39.21-.23-.1-.15-.09-.39,0L34,24.44a1.76,1.76,0,0,0-1,.82,7.42,7.42,0,0,1-1.08.81,4.27,4.27,0,0,1-.83.41c-.38.17-.38.45-.63.62A10.92,10.92,0,0,0,28.9,28C28.66,28.13,28.26,28.33,28.24,28.52Z"/><path class="cls-14" d="M36.7,25.84c0,.19-.08.25-.2.32s-.08,0-.19,0l-.32,0c-.24,0,0,.05-.24,0,.07-.14,0-.21.15-.33s.16-.06.3-.21l.2-.18s0,0,.06-.07,0,0,.14-.12,0-.05.09-.16c.46,0,.26,0,.52.19l.17.09c0,.26,0,.12-.06.2A1.19,1.19,0,0,1,36.7,25.84Z"/><path class="cls-13" d="M34.46,18.69c.15.06.07.06.1,0a1,1,0,0,1-.13.17c-.08.08,0,0-.09.09l0,0-.09.12a.24.24,0,0,0,0,.09c-.11.39-.16.23-.26.37s0,.1-.08.21-.14.09-.09.42c.2.06.19.05.21.24-.29.12-.1,0-.71-.14s-.44.07-.57.24-.61.15-.77.05-.34-.33-.53,0c-.22-.06-.23-.15-.46,0s-.05.22-.5.15c-.05.2,0,.13-.2.19s-.07.06-.21.17,0-.09-.39.29c-.09.09-.3.25-.42.2s-.13-.21-.35,0-.11.23-.25.22a.49.49,0,0,0-.39.08c-.25.15-.07.15-.44.12l-.06.24a2.32,2.32,0,0,0-.66.06c-.1-.12,0-.14-.53-.17h-.16c-.09,0-.05-.05-.24-.05s.15.1-.13,0c-.09-.24,0-.13,0-.34-.3-.16-.12,0-.28,0s-.12-.15-.2-.2-.2-.05-.31-.11-.07-.07-.12-.1l-.13,0a1.87,1.87,0,0,0-.63-.17c-.22,0-.22.22-.66.22-.73,0-.51,0-1.27.43a2.91,2.91,0,0,1-1.24.52c.05.27.08.06.56.59a1,1,0,0,0,.72.43c.2,0,.26,0,.39.17l.8,1a3.73,3.73,0,0,0,.41.74c.26.27.52.17.74.47s.27.46.56.59c.49.25.71.18.72.48A1.81,1.81,0,0,1,25,26.3c-.12-.14-.24-.27-.36-.42-.27-.32-.66-.3-.94-.64l-.29-.52c-.1-.16-.19-.34-.28-.49-.66-1-.31-.25-1.4-1-.21-.14-.19-.26-.36-.4s-.13,0-.45-.37a6.49,6.49,0,0,1-.78-.79.65.65,0,0,0-.47-.35,7.46,7.46,0,0,1-1.41-1,7,7,0,0,0-1.06-.52,3.19,3.19,0,0,1-1.47-.89c-.3-.3-.31-.19-.45-.36s-.5-.76-.86-.67-.82.34-1.14.46c-.6.21-.32.2-.91.67l-.44.38c-.08.07-.51.42-.23.42.09,0,.13,0,.28-.13,0,.16,0,.06-.06.22.59,0,.15.38.48.69l0,.06a.81.81,0,0,0-.07.61c0,.11.12,0,0,.1a4.29,4.29,0,0,0-.59.39c-.27.25-.22.35-.29.74-.28.1-.15,0-.32.18a.66.66,0,0,1-.34.19l.11.13,1.64.55c1.71.57,3.5,1.08,5.2,1.65.31.1,6.71,2.16,6.89,2.18.46,0,.68.27,1.07.06,1.72-.94,1.34-.43,2.29.76.43-.09.85-.55,1.17-.73s1.13-.48,1.28-.61.23-.34.44-.5a12.27,12.27,0,0,0,1.8-1.07c.37-.29.08-.33.95-.94.33-.23.61-.7,1-.9.88-.51,1.14-.9,1.64-1.19s.24-.32.46-.51c.38.09.29.3.93.44.4.09.76.15,1.14.24a2.13,2.13,0,0,1,.57.11,3.8,3.8,0,0,0,1.05.34c.58.08.76.2,1.11-.11.13-.11.27-.2.39-.29.68-.51,1.95-1.18,2.49-1.67.16-.15.67-.49.73-.64.14-.31.29-.69.74-.63s.45.5.64.74.23.14.39.29a3.22,3.22,0,0,0,.38.35c.39.28.45.19.65.72.32.82.2.43.69.67a3.2,3.2,0,0,1,.73.64,2.77,2.77,0,0,0,.29.4,2.38,2.38,0,0,0,.31.4c.09-.07.5-.42.5-.54-.14-.29-.29-.17-.31-.42.14-.14.35-.17.54-.29-.13-.12-.67-.26.45-1,.64-.4.14-.36,0-.63.12-.24.46-.2.6-.43,0,0,0,0,0,0l-.28-.09a5.33,5.33,0,0,1-.92-.27c-.79-.34-.54-.44-.55-.95a2,2,0,0,1-.8-.32,1.86,1.86,0,0,1-.78-.92c-.13-.26-.07-.17-.31-.25s-.46-.36-.69-.46c-.23.16-.12.08-.13.32-.09.07-.25.17-.3.22-.24.21.07,0-.13.29a.39.39,0,0,1-.3.21c-.22,0-.28.16-.39.17-.37,0,0-.09-.46,0-.06,0-.1.05-.18-.05l-.07-.17a.27.27,0,0,1-.32,0c-.26-.12,0-.16-.31-.11v-.24c-.22,0-.27,0-.33-.22s0-.08,0-.27c-.37,0-.42-.08-.5-.45.18-.21.15,0,.12-.33,0,0-.09,0-.16-.05.08-.25,0-.33-.15-.49s-.09-.26-.49-.26c.07-.14.07-.06.16-.18h-.48l-.08-.23c-.2.1,0,0-.14.21a4.53,4.53,0,0,1-.53-.05c-.41-.06-.14,0-.47,0a2.33,2.33,0,0,0,0-.7l-.19.14a.64.64,0,0,0-.29-.16l.19-.48a4.34,4.34,0,0,0-.72.56c-.19.19-.38.47-.57.67s-.38.42-.6.64a2.08,2.08,0,0,1-.32.27.83.83,0,0,0-.34.33c.4,0,.58-.56,1-.46.05.13-.19,0,.07.16.09.06.23.11.32.16l0,.17c-.16.09,0,0-.15,0,.09.26,0,.17,0,.42s.06,0,.18,0l-.28.43c-.15.29-.06.25-.48.3l.09.2c-.32.14,0,.1-.38.1-.09.32,0,.39,0,.69l-.33.11c0,.1.18.19,0,.29s-.15-.07-.45,0c0,.15,0,.1,0,.26-.25-.07,0-.14-.31-.23.06.18.07.09.1.22v.08a.25.25,0,0,1,0,.12c-.2-.08-.23-.29-.48-.31s-.33.12-.66.15l0-.31c-.23.17,0,.13-.62.12-.07-.25-.29-.28-.44-.46A1.15,1.15,0,0,1,36,18.9c-.29.07,0,.1-.38,0-.1-.42-.15-.25-.31-.5.43-.4.42-.14.68-.29-.08-.14-.07-.07-.19-.17s-.34-.28-.64,0S34.72,18.49,34.46,18.69Z"/><path class="cls-14" d="M37.51,17.72a1.69,1.69,0,0,1,.23-.36L38,17c.28-.41.54-.24.66,0-.08.12,0,0-.11.11s-.61,0-.63.52c-.26,0-.18.08-.4.08ZM10.92,23l-.11-.13a.66.66,0,0,0,.34-.19c.17-.19,0-.08.32-.18.07-.39,0-.49.29-.74a4.29,4.29,0,0,1,.59-.39c.07-.09,0,0,0-.1a.81.81,0,0,1,.07-.61l0-.06c-.33-.31.11-.7-.48-.69,0-.16.06-.06.06-.22-.15.08-.19.13-.28.13-.28,0,.15-.35.23-.42l.44-.38c.59-.47.31-.46.91-.67.32-.12.85-.39,1.14-.46s.7.48.86.67.15.06.45.36a3.19,3.19,0,0,0,1.47.89,7,7,0,0,1,1.06.52,7.46,7.46,0,0,0,1.41,1,.65.65,0,0,1,.47.35,6.49,6.49,0,0,0,.78.79c.32.34.28.22.45.37s.15.26.36.4c1.09.75.74,0,1.4,1,.09.15.18.33.28.49l.29.52c.28.34.67.32.94.64.12.15.24.28.36.42a1.81,1.81,0,0,0,1.06.44c0-.3-.23-.23-.72-.48-.29-.13-.38-.34-.56-.59s-.48-.2-.74-.47a3.73,3.73,0,0,1-.41-.74l-.8-1c-.13-.13-.19-.13-.39-.17a1,1,0,0,1-.72-.43c-.48-.53-.51-.32-.56-.59a2.91,2.91,0,0,0,1.24-.52c.76-.42.54-.43,1.27-.43.44,0,.44-.2.66-.22a1.87,1.87,0,0,1,.63.17l.13,0c.05,0,0,.05.12.1s.2,0,.31.11.12.18.2.2,0-.15.28,0c0,.21-.09.1,0,.34.28.1,0,0,.13,0s.15,0,.24.05h.16c.48,0,.43.05.53.17a2.32,2.32,0,0,1,.66-.06l.06-.24c.37,0,.19,0,.44-.12a.49.49,0,0,1,.39-.08c.14,0,.13-.1.25-.22s.3,0,.35,0,.33-.11.42-.2c.4-.38.21-.14.39-.29s0-.1.21-.17.15,0,.2-.19c.45.07.23,0,.5-.15s.24,0,.46,0c.19-.36.31-.18.53,0s.66.1.77-.05-.17-.38.57-.24.42.26.71.14c0-.19,0-.18-.21-.24a1.23,1.23,0,0,0-.57-.21c-.25,0-.45,0-.55-.27l.84-.59a4.62,4.62,0,0,1,1-.44c.26-.2.4-.55.67-.75s.38-.15.64,0,.11,0,.19.17c-.26.15-.25-.11-.68.29.16.25.21.08.31.5.38.06.09,0,.38,0a1.15,1.15,0,0,0,.14.19c.15.18.37.21.44.46.65,0,.39.05.62-.12l0,.31c.33,0,.3-.19.66-.15s.28.23.48.31a.25.25,0,0,0,0-.12V19.7c0-.13,0,0-.1-.22.3.09.06.16.31.23,0-.16-.06-.11,0-.26.3-.1.23.07.45,0s.1-.19,0-.29l.33-.11c0-.3-.11-.37,0-.69.37,0,.06,0,.38-.1L39.6,18c.42-.05.33,0,.48-.3l.28-.43c-.12,0,0,.08-.18,0s.07-.16,0-.42c.13,0,0,.09.15,0l0-.17c-.09-.05-.23-.1-.32-.16-.26-.18,0,0-.07-.16-.47-.1-.65.44-1,.46a.83.83,0,0,1,.34-.33,2.08,2.08,0,0,0,.32-.27c.22-.22.39-.39.6-.64s.38-.48.57-.67a4.34,4.34,0,0,1,.72-.56l-.19.48a.64.64,0,0,1,.29.16l.19-.14a2.33,2.33,0,0,1,0,.7c.33,0,.06-.09.47,0a4.53,4.53,0,0,0,.53.05c.14-.2-.06-.11.14-.21l.08.23h.48c-.09.12-.09,0-.16.18.4,0,.26,0,.49.26s.23.24.15.49c.07.06.13,0,.16.05,0,.3.06.12-.12.33.08.37.13.41.5.45.07.19,0,.14,0,.27s.11.2.33.22v.24c.26,0,0,0,.31.11a.27.27,0,0,0,.32,0l.07.17c.08.1.12.06.18.05.42-.06.09,0,.46,0,.11,0,.17-.13.39-.17a.39.39,0,0,0,.3-.21c.2-.25-.11-.08.13-.29.05-.05.21-.15.3-.22,0-.24-.1-.16.13-.32.23.1.44.38.69.46s.18,0,.31.25a1.86,1.86,0,0,0,.78.92,2,2,0,0,0,.8.32c0,.51-.24.61.55.95a5.33,5.33,0,0,0,.92.27l.28.09s0,0,0,0c-.14.23-.48.19-.6.43.12.27.62.23,0,.63-1.12.71-.58.85-.45,1-.19.12-.4.15-.54.29,0,.25.17.13.31.42,0,.12-.41.47-.5.54a2.38,2.38,0,0,1-.31-.4,2.77,2.77,0,0,1-.29-.4,3.2,3.2,0,0,0-.73-.64c-.49-.24-.37.15-.69-.67-.2-.53-.26-.44-.65-.72a3.22,3.22,0,0,1-.38-.35c-.16-.15-.26-.12-.39-.29s-.29-.7-.64-.74-.6.32-.74.63c-.06.15-.57.49-.73.64-.54.49-1.81,1.16-2.49,1.67-.12.09-.26.18-.39.29-.35.31-.53.19-1.11.11a3.8,3.8,0,0,1-1.05-.34,2.13,2.13,0,0,0-.57-.11c-.38-.09-.74-.15-1.14-.24-.64-.14-.55-.35-.93-.44-.22.19-.09.29-.46.51s-.76.68-1.64,1.19c-.37.2-.65.67-1,.9-.87.61-.58.65-.95.94a12.27,12.27,0,0,1-1.8,1.07c-.21.16-.27.37-.44.5s-1,.47-1.28.61-.74.64-1.17.73c-1-1.19-.57-1.7-2.29-.76-.39.21-.61,0-1.07-.06l.09.06,1,.29c0-.14-.07,0,.12-.12s1-.48,1.11-.4a10.93,10.93,0,0,0,.76,1c-.09.08.12.1-.16.06l.63.22c0-.19.42-.39.66-.57a10.92,10.92,0,0,1,1.64-.85c.25-.17.25-.45.63-.62a4.27,4.27,0,0,0,.83-.41,7.42,7.42,0,0,0,1.08-.81,1.76,1.76,0,0,1,1-.82l.37.39c.24,0,.16-.06.39,0,.08-.27.12-.13.39-.21a2,2,0,0,0,.69-.51c.27-.22.11.07.23-.3.28,0,.7-.1.8-.39l.05-.28s0,0,0,0-.09-.15-.07-.26l-.25,0v-.24l-.31,0c.07-.16-.06,0,.14-.13s.2-.18.39-.35c.19,0,.13.16.79.34a4.89,4.89,0,0,0,.86.2,11.84,11.84,0,0,1,1.73.44,13.94,13.94,0,0,1,1.82.34,7.65,7.65,0,0,0,1.76.39c-.11.38-.3.32-.58.24l-.09.25c-.24-.14.08-.1-.35-.2,0,.08-.06.26-.09.32s-.09,0-.19.2c-.06-.06,0,0-.09-.13s0,0,0-.09c-.06.17,0,.06-.11.13-.05-.16,0-.13-.19-.2,0,.44,0,.28.13.47l-.08.16c-.11-.11,0-.08-.14-.1l0,.19-.24.05c.19.28.59.24.91.24-.07.34-.31.37-.26.72.23.1.4.07.59.22-.06.23-.21.24,0,.41a.53.53,0,0,0,.3-.29.78.78,0,0,0,.09-.21c.09-.3-.36-.21-.69-.3a3.9,3.9,0,0,1,.31-.4.83.83,0,0,1,.37-.32,3.6,3.6,0,0,1,.39-.29.47.47,0,0,0,.27-.41l-.26-.09c.13-.38.57-.53.56-.8a1.75,1.75,0,0,0-.73-.08l-2-.45a2.9,2.9,0,0,1,.83-.72c.15-.06.19,0,.33-.15l.54-.44a8,8,0,0,0,.94-.56,7.94,7.94,0,0,1,.84-.62c.28-.17.18-.38.38-.6s.45-.14.59.14.21.33.49.53.36.3.55.44.34.16.48.5a1.81,1.81,0,0,0,.31.67c.25.26.36.17.65.34.56.33,1,1.47,1.45,1.5.14-.14.12-.2.22-.31s.17-.09.29-.23c.34-.37.07-.41,0-.67a.29.29,0,0,1,.08-.07s.07-.05.08-.06a1.49,1.49,0,0,0,.42-.26c-.06-.14-.05-.09-.16-.17s-.1,0-.16-.16.82-.47,1-1c-.06-.12-.11-.11-.16-.21.21-.21.54-.17.62-.47-.07-.11-.08-.12-.23-.18-.66-.27-1-.11-1.81-.64,0-.57.2-.59-.42-.81s-.27-.13-.65-.34-.42-.67-.66-1-.41-.15-.5-.4c0,0,0-.05,0-.06s0-.07-.1-.2c.52-.28-.35-.45-.22-.82.06-.17.19-.07.34-.06l.06-.2c.21.09,0,.07.21.13,0-.23-.05-.17.1-.28a2,2,0,0,0,.23-.18c.16.19,0,.07,0,.18s.06,0,.16-.13c.23-.38.14-.23.52-.4l-.06-.32c.19,0,.11,0,.27.09l0-.18c.4-.08.09,0,.29-.2.16.08,0,.08.21.15l0-.3c.11,0,.15.09.23.13a.83.83,0,0,1,0-.47c.17,0,.08,0,.25,0a2.73,2.73,0,0,1,.89-1.1c.59-.3.22-.15.5-.46.15-.16.38-.37.2-.67l.17-.09c.14-.17,0-.22,0-.36.25,0,.29.09.46.13l-.12-.18.16-.09A.53.53,0,0,1,52.6,11c-.1-.24,0-.15,0-.19.24,0,0,0,.24.2,0-.13,0-.11,0-.19v0s0-.05,0-.07c0-.19.06-.2.31-.19,0-.39.24-.27.59-.36.09,0,.11,0,.19,0s0,0,.09,0l.43.06c-.09.25-.11.14.27.33.13-.1.16-.17.36-.14,0,.33,0,0-.17.23a6.25,6.25,0,0,0,.63.33c0,.06,0,.17,0,.21l.09.15c0,.12-.06,0,.07.12s0,0,0,0l0,0-.16.2.39,0c-.09.1-.17.14-.23.27h.29c-.07.09-.08.06-.12.16l.22.09a1.7,1.7,0,0,1,0,.33c0,.21-.06,0,0,.24a.73.73,0,0,0,.27.37l.26.21c.25.14.25.24.35.29a1.07,1.07,0,0,0,.27.08c-.07-.13-.06-.05-.22-.14a.81.81,0,0,1,.63.13c.36.22.19.8.14,1.15s0,.33.13.52c-.08.09-.07.06-.15.16.16.11.2,0,.34.08.39.12.53.48,1,.56-.12.37,0,.29.18.53a.1.1,0,0,0,0,0s0,0,0,0l.1-.25c0,.14,0,.24,0,.37l0,.29s0,0,0,0v0c0-.84,0-1.86,0-2.72s0-1.85,0-2.69h-.07c0,.1.06,0,0,.08a9.24,9.24,0,0,1-1.63-1.71c-.38-.59-.28-.35-.47-.57-.3,0-.26-.19-.44-.36a1.3,1.3,0,0,1-.33-.43,5.12,5.12,0,0,1-.15-.62c-.05-.16-.18-.34-.25-.51s-.14-.25-.23-.37-.2-.17-.3-.3A3.84,3.84,0,0,0,55,6a4.14,4.14,0,0,0-1-.74c-.3,0-1.13,2-1.34,2.15l-.54.5c-.23.2-.37.18-.44.57s0,.49-.28.75l-.55.48c0,.34-.66,1-1,2-.06.17-.17.12-.32.28a3.51,3.51,0,0,1-.68.54c-.12.17-1.3.86-1.73,1.33l-.71.82a4.09,4.09,0,0,1-1,.57c-.29.05-.71-.47-.85-.65a2.9,2.9,0,0,0-.61-.55,3.39,3.39,0,0,1-1.08-.84c-.39-.38-.37-.77-.74-.75-.21.42.17.29-.42.84a4.86,4.86,0,0,0-.49.75,2.33,2.33,0,0,1-.68.6c-.21.17-.33.57-.56.69s-.17.17-.31.36a1.08,1.08,0,0,1-.33.31,4.43,4.43,0,0,1-.76.57c-.22-.05-.27-.24-.59,0s-.27.62-1.07,1c-.58.29-.48.43-.79.24-.7-.43-.79-.69-1.46.19s-.5.32-1,.66a11.31,11.31,0,0,1-1,.66c-.4.2-.44.35-1.17-.1-.56-.35-.65-.19-1.16.07s-.9.18-1.32.36c-.73.31-.37.4-.94.73a5,5,0,0,1-1.21.46l-.34.1c-.49.17-.11.19-.91,0a2.37,2.37,0,0,1-.6-.27c-.64-.34-.44,0-1.07.26s-.48-.22-1.84.66a5.4,5.4,0,0,1-1.21.44,2.53,2.53,0,0,1-.67-.71c-.29-.37-.49-.24-.84-.49l-.76-.6a10.32,10.32,0,0,0-1.77-1c-.77-.31-.38-.12-.79-.53s-.33-.12-.72-.65a7.71,7.71,0,0,0-.74-.6,5.5,5.5,0,0,0-1,.37c-.35.15-.63.12-.94.39l-.64.68c-.14.13-.22.11-.38.27a1.72,1.72,0,0,1-.34.3,2.66,2.66,0,0,0-.62.7,1.75,1.75,0,0,1-1.13.89L9,21.57a2.59,2.59,0,0,1-.52.41l-.13.12,0-.26V5c-.12.18,0,11.11,0,12.87,0,.46-.06,4.15,0,4.26A22.88,22.88,0,0,0,10.92,23Z"/><path class="cls-15" d="M33.76,20.2c0-.33,0-.22.09-.42s0-.11.08-.21.15,0,.26-.37a.24.24,0,0,1,0-.09L34.3,19l0,0c.06-.07,0,0,.09-.09a1,1,0,0,0,.13-.17c0,.06,0,.06-.1,0a4.62,4.62,0,0,0-1,.44l-.84.59c.1.24.3.22.55.27A1.23,1.23,0,0,1,33.76,20.2Z"/><path class="cls-13" d="M25.78,27.72a17.62,17.62,0,0,0,1.83.58c.28,0,.07,0,.16-.06a10.93,10.93,0,0,1-.76-1c-.14-.08-.91.29-1.11.4S25.8,27.58,25.78,27.72Z"/><path class="cls-16" d="M37.51,17.72c.22,0,.14-.06.4-.08,0-.5.44-.38.63-.52s0,0,.11-.11c-.12-.24-.38-.41-.66,0l-.25.35A1.69,1.69,0,0,0,37.51,17.72Z"/></g><polygon class="cls-17" points="9.85 22.39 34.36 30.28 58.58 22.51 58.58 0.24 9.85 0.13 9.85 22.39"/><path class="cls-18" d="M19.56,54.06c-1.16-1.63-2.25-3.16-3.25-4.46a32.81,32.81,0,0,1-5.85-11.89,17.49,17.49,0,0,1-.36-2.6V31.72H58.5V36C56.74,46.59,47.7,58.44,34.21,64.38A45.37,45.37,0,0,1,19.56,54.06Z"/><path class="cls-19" d="M9.92,31.85H34.19v32.6C20.71,58.51,11.68,46.66,9.92,36Z"/><path class="cls-3" d="M46.33,36.18l.16.07a.4.4,0,0,1,.2.29c0,.22-.17.35-.35.41s-.14,0-.16.07l.23,4.43h0l0,.34h0v.07l.09.21a1.5,1.5,0,0,1,.06.29h0a.26.26,0,0,1,.05.12.25.25,0,0,1,0,.21v.06a4,4,0,0,0,0,1c0,.31.06.63.07.94a8.09,8.09,0,0,0,.06.85c0,.21,0,.43.05.64a4.3,4.3,0,0,1,0,.51,5.45,5.45,0,0,1,0,.7.6.6,0,0,1-.09.22.18.18,0,0,0-.05.07.8.8,0,0,0,0,.27,1.77,1.77,0,0,1,0,.23c0,.11,0,.15-.1.19a1.11,1.11,0,0,1-.29.32c-.14.13-.28.24-.43.36s-.14.12-.15.18a.29.29,0,0,0,0,.09c.21.41.63.2.82.71a1.41,1.41,0,0,1,.06.54v.15h0a.56.56,0,0,1-.09.17l0,0a1.3,1.3,0,0,1-.49.32l-.12,0h0l-.06,0a4.89,4.89,0,0,1-1.26.21H43.9a5.87,5.87,0,0,1-1.32-.15h-.1a1.86,1.86,0,0,1-.84-.42l0,0a.61.61,0,0,1-.07-.1.16.16,0,0,1,0-.09h0v-.15a1.29,1.29,0,0,1,.15-.7c.18-.24.47-.28.66-.46,0,0,.1-.09.09-.15s-.15-.21-.22-.26a2.47,2.47,0,0,1-.57-.55l-.16-.11v-.07c0-.14,0-.27,0-.41a.72.72,0,0,0-.05-.24c-.23-.24-.17-.64-.15-.94s0-.67.05-1,.06-.64.08-1a4.45,4.45,0,0,0,0-1v0l0-.48a2.68,2.68,0,0,0,0-.49v0l0-.21,0,0h0a.13.13,0,0,1,.07-.06h0l0,0h0a.31.31,0,0,0,0-.17.85.85,0,0,1,0-.17,1.43,1.43,0,0,1,0-.29l.26-4.88a.28.28,0,0,1-.12-.12.39.39,0,0,1,.06-.36.63.63,0,0,1,.54-.06,2.85,2.85,0,0,0,.77,0,.22.22,0,0,0,0-.08.66.66,0,0,0,0-.14.7.7,0,0,1,.05-.25.59.59,0,0,1,1-.17.5.5,0,0,1,.18.23h.09a2.24,2.24,0,0,1,.93.14.25.25,0,0,1,.15.19s0,0,0-.06l0-.08.09,0A1.33,1.33,0,0,1,46.33,36.18Z"/><path class="cls-20" d="M45.86,41.65v0l0,0h.19v.25c.08,0,.06-.07,0-.25h.12L46,37l-.2,0a1.23,1.23,0,0,0,0-.2s0,.09,0,.2h-.26v4.68Z"/><path class="cls-21" d="M43.43,37.25H43.2c0,.22,0,1.95,0,2.35s0,.8,0,1.17c0,.18,0,.4,0,.57l0,.51v.55l.26,0c.08-.07.11,0,.23-.07a3.66,3.66,0,0,0,0-1v-.78c0-.15,0-.13.09-.19s0,0,0,0,0,0,.07,0a.57.57,0,0,1,.13,0,1,1,0,0,1,.59.16,9.54,9.54,0,0,0,0,1.93c.21,0,.14.07.33,0l0-.54c-.08-.11,0-.39,0-.54-.05-.8,0-2,0-2.86,0-.36,0-.81,0-1.15a1.94,1.94,0,0,0-.43-.06s0,0-.1,0a.42.42,0,0,1-.16,0l0-.1c-.06.16-.09.12-.26.11A.86.86,0,0,1,43.43,37.25Z"/><path class="cls-22" d="M46.27,50.81h-.16a.41.41,0,0,1,0-.29c0-.12.09-.15.19-.19v.45a.26.26,0,0,0,.07-.16.17.17,0,0,0,0-.07h0a1.33,1.33,0,0,0,0-.47c-.17-.44-.57-.22-.81-.7-.16-.31.15-.42.59-.82.08-.07.24-.2.26-.31a.45.45,0,0,0,0-.28c-.09,0-.06,0-.15,0l-.06,0,0,0,.23,0v.25a4.7,4.7,0,0,1-1.29.39.63.63,0,0,1,0-.39l-.23,0c-.08.24,0,.22,0,.46l-.13,0a.86.86,0,0,1-.08.35c-.12.29-.16.26-.1.31h.16c.14,0,.11,0,.22,0v.21c-.09.05,0,0-.05.14l-.08.18c-.09.18-.1.22-.21.3a1,1,0,0,1-.81.23.8.8,0,0,1-.49-.13l-.08-.06a1,1,0,0,1-.35-.94c.28,0,.27.05.33-.08s-.09,0-.12-.14,0-.32-.12-.38-.1,0-.15-.11h-.08a1.92,1.92,0,0,1-.36-.14v-.31a.34.34,0,0,0-.11-.07l0,0L41.8,48c0-.1.07-.27-.1-.27s-.05.06-.06.15a.63.63,0,0,0,0,.36c0,.07,0,0,0,.14s.4.43.54.53.42.4.14.66-.5.24-.65.43a1.17,1.17,0,0,0-.11.6h0a.33.33,0,0,0,0,.17.47.47,0,0,0,.06.09.56.56,0,0,0,.22.08.42.42,0,0,0,.07-.15c0-.11,0-.11,0-.19a3.22,3.22,0,0,1,.72.13l.74.11a2.94,2.94,0,0,0,.47,0l.48,0,0,0,.51,0c.45,0,.24.1.33.34.11.07.21,0,.38,0h.15A1.14,1.14,0,0,0,46.27,50.81Z"/><path class="cls-21" d="M45.56,40.79a5,5,0,0,0,0-.86c0-.28,0-.58,0-.87,0-.55,0-1.13-.06-1.68-.12-.07,0-.1-.16-.15a.53.53,0,0,0-.25,0c0,.45,0,.9,0,1.35v1.36c0,.88.06,1.85,0,2.73a.59.59,0,0,0,.42-.18c.16-.14.11-.24.11-.5A9.85,9.85,0,0,1,45.56,40.79Z"/><path class="cls-23" d="M42.62,48.19v0h-.1c-.11-.1-.08,0-.1-.22s0-.15-.05-.24,0-.41,0-.62V47a2.65,2.65,0,0,1,.5.05c.17,0,.29,0,.31.19l0,1c.51.16.59,0,.57.49a1.63,1.63,0,0,1-.7,0l0,0,.07,0a.42.42,0,0,1,.13,0c.12,0,.08.09.13.19s.37.36.66.13.13-.16.19-.41,0-.17,0-.3a1.29,1.29,0,0,1,.59-.12l.23,0h0v0h-.37c-.11-.35.09-.14.08-.52a1.65,1.65,0,0,1,.06-.69h-.33c0,.16-.3-.13-.29.28v.16c0,.34,0,.43,0,.63,0,.4-.35.19-.36.18a5.61,5.61,0,0,1,0-1.17,1.55,1.55,0,0,1-.28,0c-.11,0-.17,0-.24,0a4.53,4.53,0,0,1-.52,0,3,3,0,0,0-.48-.06.48.48,0,0,0-.29,0c0,.2,0,.4,0,.59s.06.31.09.51A1.18,1.18,0,0,0,42.62,48.19Z"/><path class="cls-21" d="M42.58,37.26c-.17.21-.11.9-.11,1.25s0,.88,0,1.3a24.94,24.94,0,0,1-.08,2.61c0,.13.09.13.19.18a.54.54,0,0,0,.27.09c0-.23,0-.49,0-.72a5.19,5.19,0,0,1,.05-.68v0c0-.18,0-.77,0-1l0-2c0-.26,0-.79,0-1A1,1,0,0,0,42.58,37.26Z"/><path class="cls-24" d="M44.86,42.73c0,.12.07.05,0,.16s0,.06-.14.11l0,.06.07,0c.07.07,0,.34,0,.52s0,.43,0,.64h-.2a.24.24,0,0,0,0,.12h0c.08-.05.15,0,.25,0V43.27c0-.15,0-.2,0-.29s.09.07.11.35a11.63,11.63,0,0,1,0,1.32c0,.3,0,.6,0,.9s0,.6,0,.88c0,0,0,0,0,0l.07-.52v-2.3l.18,0v2.4h0a.36.36,0,0,0,.18.16.63.63,0,0,1,.37-.05l0,0,0,0h-.23c0-.44,0-.86,0-1.3v-1a.41.41,0,0,1,.06-.29c-.21,0-.33.09-.54.1a2.34,2.34,0,0,1,0-.53l.18,0,.23-.09a2.18,2.18,0,0,1,.23-.09c0-.13,0,0,0-.12s0-.1.06-.12h.52c-.06-.06-.22,0-.31,0H45.9c-.09,0-.07,0-.11-.06h-.13a8.17,8.17,0,0,1-.07-1.26v-.38a9.85,9.85,0,0,0,0,1.2c0,.26,0,.36-.11.5a.59.59,0,0,1-.42.18c0-.88,0-1.85,0-2.73V38.58c0-.45,0-.9,0-1.35a.53.53,0,0,1,.25,0c.13.05,0,.08.16.15,0-.18-.11-.55,0-.7l.12,0v-.1l-.14,0a.33.33,0,0,1-.15-.12c-.08,0-.25-.09-.34,0s.07,0,.09.14,0,.08,0,.16,0,.3,0,.41v2.19c0,.41,0,3.29,0,3.41Z"/><path class="cls-25" d="M44.46,43.59a2.91,2.91,0,0,1,0,.78l-.19,0c0-.57-.09-.81.17-.8Zm-2-.72c-.11,0-.37,0-.27-.14s.32-.06.27.14Zm-.08-.45h0c0,.07.06,0-.07.06h-.08c0,.06,0,0,.07.1a.89.89,0,0,1-.67.07c.09.13.32,0,.45.09l.07.55h0a1.67,1.67,0,0,1-.05-.39,3.33,3.33,0,0,1,.8,0l0,3.94h0c-.06-.19,0-1.67,0-2V43.08c0-.17,0-.07,0-.11s.07.06.07.27a1.93,1.93,0,0,0,0,.34l.22,0c0-.35-.07-.45.11-.5h.2a.56.56,0,0,1,.23,0c0,.38-.08.39.09.52v2c.35,0,.25.06.25-.69a1.24,1.24,0,0,1,0-.44c.05-.08.23-.07.34-.11a1.62,1.62,0,0,0,0-.82l-.37,0,0-.49a2.3,2.3,0,0,1-.58-.11c0-.11.14-.07.33-.1l.35-.08,0-.33c-.15-.06-.18,0-.24-.09l0,0c0,.08,0,.05-.13.05H43.7c.13,0,.14,0,.14.15v.28a.4.4,0,0,1-.25,0c-.13,0-.18,0-.24-.07a1.43,1.43,0,0,1,0-.36l-.1,0c0,.2.06.36-.17.36l0-.1c0,.05,0,.07-.1.11a.52.52,0,0,1-.07-.35V41.29a5.19,5.19,0,0,0-.05.68c0,.23,0,.49,0,.72a.54.54,0,0,1-.27-.09C42.45,42.55,42.39,42.55,42.36,42.42Z"/><path class="cls-22" d="M43.91,45.64c-.07,0,0,0,0,0a2,2,0,0,1,.86.1,8.07,8.07,0,0,1,0-1.4.24.24,0,0,1,0-.12h.2c0-.21,0-.43,0-.64s0-.45,0-.52l-.07,0,0-.06c.13,0,.09,0,.14-.11s0,0,0-.16a.74.74,0,0,0,0-.33c-.19.07-.12,0-.33,0h-.15a.44.44,0,0,0-.13,0l-.29,0c.06.07.09,0,.24.09l0,.33-.35.08c-.19,0-.29,0-.33.1a2.3,2.3,0,0,0,.58.11l0,.49.37,0a1.62,1.62,0,0,1,0,.82c-.11,0-.29,0-.34.11a1.24,1.24,0,0,0,0,.44C44.16,45.7,44.26,45.62,43.91,45.64Z"/><path class="cls-22" d="M44.36,37.25h-.18a1.29,1.29,0,0,1,0-.59h.13a1.18,1.18,0,0,1,0,.59ZM44,36.78a.43.43,0,0,1-.37-.12.66.66,0,0,1,.37,0v.13Zm-.73-.91c-.1.26,0,.41-.21.57,0,1.82,0,3.67,0,5.47v0l0-.51c0-.17,0-.39,0-.57,0-.37,0-.8,0-1.17s0-2.13,0-2.35h.22s0,0-.06,0l-.11,0v-.37A3.65,3.65,0,0,1,44,37v.28h-.57a.86.86,0,0,0,.37,0c.17,0,.2.05.26-.11l0,.1a.42.42,0,0,0,.16,0c.09,0,.08,0,.1,0a1.94,1.94,0,0,1,.43.06c0,.34,0,.79,0,1.15,0,.85,0,2.06,0,2.86,0,.15,0,.43,0,.54l0-5c-.08.05-.06,0-.14,0s0,.24,0,.32,0-.32-.12-.67a.67.67,0,0,0,.21-.09,3.91,3.91,0,0,1-.84,0l0-.06,0,0,.07-.07a.23.23,0,0,1,.18-.07l-.06,0H44c-.07.11,0,.17-.12.25s-.24.05-.36,0l0-.16c.1,0,.16,0,.26-.08s.11-.14.08-.19h-.11c-.1,0-.17,0-.25,0l0-.29C43.38,35.77,43.38,35.8,43.28,35.87Z"/><path class="cls-24" d="M43.06,48.69h0a1.81,1.81,0,0,1-.23,0c.05.09.06.06.15.11s.08.2.12.38.08.07.12.14,0,.06-.33.08a1,1,0,0,0,.35.94l.08.06a.8.8,0,0,0,.49.13,1,1,0,0,0,.81-.23c.11-.08.12-.12.21-.3l.08-.18c0-.12,0-.09.05-.14v-.21c-.11,0-.08,0-.22,0l0,0a.52.52,0,0,1-.06.39.86.86,0,0,1-1.41.22.79.79,0,0,1-.19-.25.66.66,0,0,1-.05-.28v-.08l1.48,0s0,0,0,0,0,0,.1-.31a.86.86,0,0,0,.08-.35l.13,0c0-.24-.05-.22,0-.46a1.29,1.29,0,0,0-.59.12c0,.13,0,.15,0,.3s.1.18-.19.41-.64-.09-.66-.13,0-.15-.13-.19a.42.42,0,0,0-.13,0l-.07,0Z"/><path class="cls-26" d="M42.13,43.31s.09.08.15.11h0c.19.06.14.2.14.56v2.08c-.06,0,.06,0-.1,0l0,0s0,0,.07,0,.07,0,.09-.09,0-.42,0-.57V43.52h.29a19.25,19.25,0,0,1,0,2.15.31.31,0,0,1-.09.24h.09v.43c0,.2,0,.15-.57.07-.19,0-.41-.07-.47-.22s0,0,0,0l.06,0c-.13-.1-.09-.2-.08-.41a7.38,7.38,0,0,0,0-1.42l-.1,1.63c0,.18,0,.42-.12.48v-1A8.28,8.28,0,0,0,41.41,47a1,1,0,0,0,.1.5c.1,0,0,0,.16.06,0-.24,0-.3,0-.63s0,0-.08-.19-.13-.13,0-.19a.36.36,0,0,1,.29,0,3.81,3.81,0,0,0,.57.19s0,0-.09-.05,0,0,0-.1,0,0,0-.12l.35,0v.28l-.29,0c.1.1.26,0,.41.13l0-3.94a3.33,3.33,0,0,0-.8,0A1.67,1.67,0,0,0,42.13,43.31Z"/><path class="cls-20" d="M44.14,36.21l0,0,.06,0a1.18,1.18,0,0,1,.58.12c0,.08,0,0-.06.08a.67.67,0,0,1-.21.09c.08.35-.06.66.12.67s0-.22,0-.32.06,0,.14,0l0,5,0,.54a.74.74,0,0,1,0,.33H45c.05-.12,0-3,0-3.41V37.12c0-.11,0-.31,0-.41s0-.09,0-.16,0,0-.09-.14.26,0,.34,0h.21s0,0,0,0c-.45,0-.12-.13-.33-.25a2.17,2.17,0,0,0-.85-.13C44.31,36.19,44.35,36.21,44.14,36.21Z"/><path class="cls-20" d="M41.91,38.39s0,0,0,0a1.28,1.28,0,0,0,0-.39c0-.11,0-.28,0-.41.07-1.41-.1-.65-.12-1a.76.76,0,0,1,.34-.06c.1.07-.06.1.14.2h0c-.08,1-.14,2.12-.13,3.15l0-.1s0-.08,0-.1l0-.62,0-.78a7.29,7.29,0,0,1,.12-1.54.23.23,0,0,1,.13,0c0-.13,0-.06.39-.1l-.06.47c-.06-.09,0-.24-.05-.35l-.11,0a.74.74,0,0,0,0,.33c0,.21.06,0,.19.19,0,.22,0,.75,0,1l0,2c0,.24-.05.83,0,1v1.18a.52.52,0,0,0,.07.35c.06,0,0-.06.1-.11s0-.32,0-.38v-.4c0-1.8,0-3.65,0-5.47a3,3,0,0,1-.85,0c-.11,0-.33-.05-.4,0a.19.19,0,0,0,0,.18c0,.05.09.07.14.11a7.4,7.4,0,0,1,0,.81c0,.11,0,.3,0,.41a.71.71,0,0,1,0,.21C41.92,38.26,41.89,38.29,41.91,38.39Z"/><path class="cls-21" d="M43.66,46.18a.42.42,0,0,1-.25-.06c-.1,0-.1,0-.11-.17a4.43,4.43,0,0,1,1,.09v.11a.78.78,0,0,1-.68,0Zm0-.42h.19v.17h-.15c-.07,0-.06-.08,0-.16Zm-.27,0h-.1a1.85,1.85,0,0,0-.2.06v.76l.44,0c.44-.07,1,0,1.42-.06v-.75c-.05,0,0,0-.07,0h-.13a2,2,0,0,0-.86-.1v0Z"/><path class="cls-20" d="M41.68,41.55a2,2,0,0,0,0,.42c0,.18.07,0,.05.46l-.06,0h0l0,0,.6,0h.08c.13-.05,0,0,.07-.06a.66.66,0,0,1-.28,0,3.85,3.85,0,0,1,.09-1,5.32,5.32,0,0,0,.1-1l0,.1s0,.06,0,.11a.31.31,0,0,1-.07.14c-.1-.55.17-3.92,0-4.11-.06,0,0,0-.07.09h-.17l-.26,4.73Z"/><path class="cls-27" d="M42.24,39.83v.66a5.32,5.32,0,0,1-.1,1,3.85,3.85,0,0,0-.09,1,.66.66,0,0,0,.28,0h0a24.94,24.94,0,0,0,.08-2.61c0-.42,0-.88,0-1.3s-.06-1,.11-1.25c.06-.06.06,0,.08-.11a.52.52,0,0,0-.07-.43.23.23,0,0,0-.13,0,7.29,7.29,0,0,0-.12,1.54l0,.78,0,.62s0,.1,0,.1Z"/><path class="cls-26" d="M45.54,36.41s0,0,0,0h-.21a.33.33,0,0,0,.15.12l.14,0v.1c0,.36,0,.85,0,1.22,0,.18,0,.41,0,.59s0,.43,0,.64a4,4,0,0,0,.05.61h0l0-1.51a5.55,5.55,0,0,1,0-1.48,16.69,16.69,0,0,1,.1,2c0,.41.08,1,.09,1.43v.39c0,.08,0,.08,0,.1.08-.18-.05-1.85,0-2.34,0-.22,0-.64,0-.8s0-.33,0-.49.13-.18.28-.23c.45-.16.18-.46,0-.46a1,1,0,0,0-.38,0A.66.66,0,0,1,45.54,36.41Z"/><path class="cls-20" d="M45.87,43.34l.07,0c0-.06,0,0,0,0l.05-.49c0,.08,0,1.41,0,1.64s0,.57,0,.84.09.62,0,.75,0,0,0,.05h.07V44.76c0-.09,0-.13,0-.19a8.51,8.51,0,0,1,.11,1.23c0,.13,0,.34.07.39a12.78,12.78,0,0,0,0-1.55,10.77,10.77,0,0,1,.16,1.51c0,.13,0,.43.06.52,0-.4-.11-1.4-.12-2a12,12,0,0,1-.06-2H46c0,.12,0,.23,0,.34A.71.71,0,0,1,45.87,43.34Z"/><path class="cls-6" d="M41.91,38.39v.12c0,1-.1,1.87-.06,2.77a20.59,20.59,0,0,0,.23-3.42v-1c0-.14,0-.07.07-.09.13.19-.14,3.56,0,4.11a.31.31,0,0,0,.07-.14c0-.05,0-.07,0-.11l0-.1v-.66c0-1,0-2.14.13-3.15h0c-.2-.1,0-.13-.14-.2a.76.76,0,0,0-.34.06c0,.37.19-.39.12,1,0,.13,0,.3,0,.41a1.28,1.28,0,0,1,0,.39S41.93,38.36,41.91,38.39Z"/><path class="cls-27" d="M45.87,43.34s0,0-.12.06h0a.41.41,0,0,0-.06.29v1c0,.44,0,.86,0,1.3h.23l0,0,0,0H46c.11-.13,0-.57,0-.75s0-.55,0-.84,0-1.56,0-1.64l-.05.49c-.06,0,0-.07,0,0Z"/><path class="cls-28" d="M43,46.89h.06l.11,0c.1,0,.34,0,.43,0,0-.28,0-.09-.11-.26l0,0-.44,0V45.8a1.85,1.85,0,0,1,.2-.06l0,0h0c0-.36,0-.73,0-1.09a8.88,8.88,0,0,0,0-1l-.21.06c0,.14,0,.57,0,.64l0-.3A4.65,4.65,0,0,0,43,43c0,.06,0,3.52,0,3.81Z"/><path class="cls-6" d="M43.69,40.35a.33.33,0,0,1,.26,0v1.45a2,2,0,0,0,0,.49l0,0,.29,0a.44.44,0,0,1,.13,0h.15a9.54,9.54,0,0,1,0-1.93,1,1,0,0,0-.59-.16.57.57,0,0,0-.13,0c-.07,0-.07,0-.07,0S43.7,40.35,43.69,40.35Z"/><path class="cls-29" d="M45.47,37.38c0,.55.05,1.13.06,1.68,0,.29,0,.59,0,.87a5,5,0,0,1,0,.86v.38a8.17,8.17,0,0,0,.07,1.26h.13c.08,0,0,0,.09,0l0-.73c0-.39-.13-.81-.15-1.21a5.28,5.28,0,0,1,0-1.31c0-.21,0-.42,0-.64s0-.41,0-.59c0-.37-.06-.86,0-1.22l-.12,0C45.36,36.83,45.45,37.2,45.47,37.38Z"/><path class="cls-6" d="M45.14,46.43v.15c0,.32,0,.27-.09.37h.22l.23,0h0l.07,0a4.52,4.52,0,0,0,.56-.1,1.07,1.07,0,0,1,.25,0c0-.2,0-.06-.06-.19s0-.11,0-.19a.61.61,0,0,0-.09-.16s0,0-.08,0l-.08,0s0,0,0-.05h-.13a.63.63,0,0,0-.37.05.36.36,0,0,1-.18-.16l-.12-.07-.07.52S45.16,46.4,45.14,46.43Z"/><path class="cls-28" d="M42.5,51.18h0a5.53,5.53,0,0,0,1.38.17h.52a4.59,4.59,0,0,0,1.33-.24,6.53,6.53,0,0,1-1.13.17c0-.27.09-.39-.2-.46l-.48,0a2.94,2.94,0,0,1-.47,0l-.69,0C42.74,51.11,42.87,51.2,42.5,51.18Z"/><path class="cls-3" d="M43.34,51.25c-.07-.42,0-.39.23-.38a.28.28,0,0,1,.23.1.44.44,0,0,1,0,.28A2.09,2.09,0,0,1,43.34,51.25Z"/><path class="cls-3" d="M42.28,43.42c-.06,0-.13-.06-.15-.11H42c0,.21,0,.42-.05.62a5,5,0,0,1,0,.67,6.53,6.53,0,0,0-.05,1.24H42c0,.08,0,.07.08.11s0,0,.06-.08,0,0,0,0,0,0,.14,0Z"/><path class="cls-28" d="M41.52,43.68s0,0,.06-.07a3.1,3.1,0,0,0,.15.91c0-.16,0-.4,0-.59s0-.13.06-.23v-.32s0,0,0,.06l0,.59c0,.21,0,.44,0,.64s-.07,1.19,0,1.41c.08,0,0,0,.12,0s.14,0,.26-.08l0,0,0-2.55h0v2.47c-.12,0-.08,0-.14,0s0,0,0,0,0,0-.06.08,0,0-.08-.11h-.11A6.53,6.53,0,0,1,42,44.6a5,5,0,0,0,0-.67c0-.2,0-.41.05-.62h.07L42,42.75c-.13,0-.36,0-.45-.09h0A7.15,7.15,0,0,1,41.52,43.68Z"/><path class="cls-20" d="M41.52,43.68a12.6,12.6,0,0,1-.09,2c0,.32,0,.65-.06,1s-.07.65.12.83h0a1,1,0,0,1-.1-.5,8.28,8.28,0,0,1,.15-1.67v1c.14-.06.11-.3.12-.48l.1-1.63a7.38,7.38,0,0,1,0,1.42c0,.21,0,.31.08.41s0,0,0,0,0,0,0,0,0,0-.12,0c0-.22.06-1.13,0-1.41s0-.43,0-.64l0-.59c0-.06,0,0,0-.06v.32c0,.1,0,.15-.06.23s0,.43,0,.59a3.1,3.1,0,0,1-.15-.91C41.54,43.69,41.57,43.64,41.52,43.68Z"/><path class="cls-28" d="M43,48.65v-.38a.5.5,0,0,1,.29.07c0,.27.05.38-.28.31Zm-.67-1.58,0-.07.4,0a3.36,3.36,0,0,1,0,.85c0,.06,0,0,.11.09l0,.18h-.2v0l.05,0c.29,0,.18.13.22.39.06,0,0,0,.13.09h0a1.63,1.63,0,0,0,.7,0c0-.46-.06-.33-.57-.49l0-1c0-.18-.14-.16-.31-.19a2.65,2.65,0,0,0-.5-.05Z"/><path class="cls-30" d="M42.57,46l.14-.11a.31.31,0,0,0,.09-.24,19.25,19.25,0,0,0,0-2.15h-.29v1.94C42.52,45.61,42.47,46,42.57,46Z"/><path class="cls-31" d="M43.69,40.35c-.1.06-.09,0-.09.19v.78a3.66,3.66,0,0,1,0,1c-.12,0-.15,0-.23.07l.16,0,.16,0h.16c.13,0,.1,0,.13-.05a2,2,0,0,1,0-.49V40.36A.33.33,0,0,0,43.69,40.35Z"/><path class="cls-28" d="M44.73,44.38h.16a7.1,7.1,0,0,1,0,1.3H45a3.75,3.75,0,0,1,0,.67c0,.14-.06.5.12.52s0-.13,0-.22,0,0,0-.06v-.15c0-.28,0-.59,0-.88s0-.6,0-.9a11.63,11.63,0,0,0,0-1.32c0-.28,0-.31-.11-.35s-.05.14,0,.29v1.07C44.88,44.36,44.81,44.33,44.73,44.38Z"/><path class="cls-24" d="M41.51,47.53a1.17,1.17,0,0,1,.07.33c0,.13,0,.26,0,.39l.14.09c0-.1,0-.07,0-.14a.63.63,0,0,1,0-.36c0-.09,0-.13.06-.15s.1.17.1.27l.38.16,0,0a.34.34,0,0,1,.11.07v.31a1.92,1.92,0,0,0,.36.14h0a1.81,1.81,0,0,1,0-.23c0-.11,0-.17,0-.23l-.05,0a1.18,1.18,0,0,1-.49-.15c0-.2-.07-.32-.09-.51s0-.39,0-.59a.48.48,0,0,1,.29,0c-.06-.06-.28-.07-.37-.09l-.34-.07c0,.18.07,0,.08.19s0,.39,0,.63C41.55,47.56,41.61,47.54,41.51,47.53Z"/><path class="cls-32" d="M43.63,50.07a.65.65,0,0,1-.35-.58,1.83,1.83,0,0,1,.47,0c.35,0,.4,0,.67,0,.11,0,.12,0,.1.1a.67.67,0,0,1-.89.47Zm1.07-.66h-.16s0,0,0,0l-1.48,0v.08a.66.66,0,0,0,.05.28.79.79,0,0,0,.19.25.86.86,0,0,0,1.41-.22.52.52,0,0,0,.06-.39Z"/><path class="cls-26" d="M46.06,46.1l.08,0c.06,0,0,0,.08,0a.61.61,0,0,1,.09.16c0,.08,0,.1,0,.19s.09,0,.06.19,0,.55,0,.76v0h0a.25.25,0,0,1,.14-.1,5.33,5.33,0,0,0,0-.68c-.1-.09-.05-.39-.06-.52a10.77,10.77,0,0,0-.16-1.51,12.78,12.78,0,0,1,0,1.55c-.11,0-.06-.26-.07-.39a8.51,8.51,0,0,0-.11-1.23c0,.06,0,.1,0,.19v1.33Z"/><path class="cls-28" d="M45,47h-.09a1.65,1.65,0,0,0-.06.69c0,.38-.19.17-.08.52h.37l.11,0a.88.88,0,0,0-.23,0c0-.18,0-.13,0-.25s0-.73,0-.83a.46.46,0,0,1,.46-.09,1.93,1.93,0,0,1,0,.6c0,.22-.11.19-.11.49l.12,0c0-.15,0-.16.09-.28s.1-.06.12-.23c.12-1-.22-.53-.5-.63A1.06,1.06,0,0,1,45,47Z"/><path class="cls-33" d="M45.22,48.18l.23-.08c0-.3.1-.27.11-.49a1.93,1.93,0,0,0,0-.6.46.46,0,0,0-.46.09c0,.1,0,.7,0,.83s-.07.07,0,.25A.88.88,0,0,1,45.22,48.18Z"/><path class="cls-34" d="M43.33,47c.07,0,.13,0,.24,0a1.55,1.55,0,0,0,.28,0,5.61,5.61,0,0,0,0,1.17s.35.22.36-.18c0-.2,0-.29,0-.63v-.16c0-.41.24-.12.29-.28C44.17,47,43.73,47,43.33,47Z"/><path class="cls-28" d="M45.86,41.68l0,.73c-.07,0,0,0-.09,0s0,.06.11.06h.19c.09,0,.25,0,.31,0v.16a.18.18,0,0,0,0-.15c0-.09,0,0,0-.12a1.07,1.07,0,0,0-.06-.27l-.1.1a6.69,6.69,0,0,1,0-.78l-.15-2c0-.08,0-.14,0-.18,0,.15.08,1,.08,1.34a5,5,0,0,1,0,.67,1.93,1.93,0,0,0,0,.34c0,.2,0,.26,0,.28s0-.22,0-.32A1.4,1.4,0,0,0,46,41.3c-.05,0,0,0-.07.06,0-.14.08-.31,0-.4a2.54,2.54,0,0,0-.06.7Z"/><path class="cls-24" d="M45.51,46.9c.29,0,.47-.1.63,0,0,.19,0,.37,0,.56s0,.26-.2.37V48c-.18,0-.54.22-.74.18l-.11,0v0a3,3,0,0,0,.55-.09,4,4,0,0,0,.48-.14l0,0,.06,0c.09,0,.06,0,.15,0a.45.45,0,0,1,0,.28c.07,0,.06,0,.07-.1a1.47,1.47,0,0,0,0-.21.76.76,0,0,1,0-.34c.06-.12.1-.08.12-.26a.25.25,0,0,0-.14.1h0v0c0-.21,0-.54,0-.76a1.07,1.07,0,0,0-.25,0,4.52,4.52,0,0,1-.56.1l-.07,0Z"/><path class="cls-23" d="M43.79,49.74c-.24-.1-.14-.37.37-.21a.24.24,0,0,1-.09.2s0,0-.07,0l-.21,0Zm-.51-.25a.65.65,0,0,0,.35.58.67.67,0,0,0,.89-.47c0-.11,0-.1-.1-.1-.27,0-.32,0-.67,0A1.83,1.83,0,0,0,43.28,49.49Z"/><path class="cls-6" d="M41.62,46.77l.34.07c.09,0,.31,0,.37.09a3,3,0,0,1,.48.06,4.53,4.53,0,0,0,.52,0c.4,0,.84,0,1.22,0H45l.08,0a.24.24,0,0,0-.22-.11,1.11,1.11,0,0,0-.26,0c-.06,0-.49.06-.51,0s-.32,0-.49,0a2.54,2.54,0,0,0-.48,0H43s0,0-.05,0,0,0,0,0h0c-.15-.16-.31,0-.41-.13h0a3.81,3.81,0,0,1-.57-.19.36.36,0,0,0-.29,0C41.49,46.64,41.51,46.71,41.62,46.77Z"/><path class="cls-20" d="M43.7,43.61l0,0c0,.36,0,.75,0,1.11,0,.69.11.91-.22.89l0-1.25c-.11.12-.06.44-.06.64,0,.8-.18.66.36.64v0s0,0,0,0v-2c-.17-.13-.06-.14-.09-.52a.56.56,0,0,0-.23,0c.11.23,0,.33.05.46s.06.11.06.11Z"/><path class="cls-3" d="M42.35,47.07c0,.21,0,.42,0,.62s0,.16.05.24,0,.12.1.22h.3l0-.18c-.07,0-.07,0-.11-.09a3.36,3.36,0,0,0,0-.85l-.4,0Z"/><path class="cls-20" d="M45.51,46.9l-.23,0c.28.1.62-.32.5.63,0,.17,0,.13-.12.23s0,.13-.09.28l-.12,0-.23.08c.2,0,.56-.14.74-.18v-.21c.16-.11.21-.11.2-.37s0-.37,0-.56C46,46.8,45.8,46.89,45.51,46.9Z"/><path class="cls-25" d="M42.61,51.22c.25,0,.13-.15.17-.44l.69,0-.74-.11a3.22,3.22,0,0,0-.72-.13c0,.08.06.08,0,.19a.42.42,0,0,1-.07.15.5.5,0,0,1-.23-.09A1.75,1.75,0,0,0,42.61,51.22Z"/><path class="cls-35" d="M46.14,48a4,4,0,0,1-.48.14,3,3,0,0,1-.55.09h0a.63.63,0,0,0,0,.39,4.7,4.7,0,0,0,1.29-.39V48Z"/><path class="cls-36" d="M42.94,46.92c.05,0,0,0,0,0s0,0,.05,0l-.07,0c0-.29,0-3.75,0-3.81A4.65,4.65,0,0,1,43,44l0,.3c.09-.07,0-.5,0-.64l.21-.06a8.88,8.88,0,0,1,0,1c0,.36,0,.73,0,1.09h0l0,0h.1a20.73,20.73,0,0,0,0-2.12c.22,0,.18.13.17.3a3.69,3.69,0,0,0,0,.47l.07,0v-.77l-.24,0a.74.74,0,0,1,0-.53c-.18,0-.07.15-.11.5l-.22,0a1.93,1.93,0,0,1,0-.34C43,43,43.1,43,43,43s0-.06,0,.11v1.85C42.92,45.25,42.88,46.73,42.94,46.92Z"/><polygon class="cls-27" points="45.24 45.86 45.36 45.93 45.41 45.92 45.41 43.52 45.23 43.56 45.24 45.86"/><path class="cls-20" d="M42,46.07a.27.27,0,0,1,.19,0,.39.39,0,0,1,.19.06c.16,0,0,0,.1,0V44c0-.36,0-.5-.14-.56l0,2.55,0,0C42.12,46,42.09,46,42,46.07Z"/><path class="cls-33" d="M43.62,43.68v.67l-.07,0,0,1.25c.33,0,.22-.2.22-.89,0-.36,0-.75,0-1.11l0,0h0Z"/><path class="cls-25" d="M44.42,50.82c.29.07.19.19.2.46a5.15,5.15,0,0,0,.92-.11l.1,0,.2-.07c-.25,0-.42.08-.53,0-.09-.24.12-.38-.33-.34l-.51,0Z"/><path class="cls-21" d="M42.71,45.92l-.14.11c0,.06,0,.07-.09.09s0,0-.07,0l0,0a.39.39,0,0,0-.19-.06.27.27,0,0,0-.19,0s0,0,0,0,0,0,0,0l-.06,0s0,0,0,0,.28.2.47.22c.59.08.57.13.57-.07v-.43Z"/><path class="cls-35" d="M45.37,42.94l-.18,0a2.34,2.34,0,0,0,0,.53c.21,0,.33-.1.54-.1h0a.67.67,0,0,0,.14-.54A2.53,2.53,0,0,0,45.37,42.94Z"/><path class="cls-24" d="M44.85,45.77c.09,0,0,0,.07,0v.75c-.44.09-1,0-1.42.06l0,0a3.09,3.09,0,0,1,.53,0,.23.23,0,0,1,.1,0s.05.08.06.09,0,.06,0,.09,0,0-.05,0,0,0-.06,0,.45,0,.51,0a1.11,1.11,0,0,1,.26,0,.24.24,0,0,1,.22.11L45,47a1.06,1.06,0,0,0,.31,0h-.22c.09-.1.1-.05.09-.37,0,0,0,0,0,.06s0,.14,0,.22-.13-.38-.12-.52a3.75,3.75,0,0,0,0-.67h-.08Z"/><path class="cls-27" d="M44.72,45.78h.13l0-.09a7.1,7.1,0,0,0,0-1.3h-.21A8.07,8.07,0,0,0,44.72,45.78Z"/><path class="cls-24" d="M43.34,45.73l.51-.07c-.54,0-.37.16-.36-.64,0-.2-.05-.52.06-.64a3.69,3.69,0,0,1,0-.47c0-.17.05-.34-.17-.3A20.73,20.73,0,0,1,43.34,45.73Z"/><path class="cls-33" d="M43.42,37.26H44V37a3.65,3.65,0,0,0-.76-.14v.37l.11,0C43.44,37.26,43.39,37.23,43.42,37.26Z"/><path class="cls-22" d="M45.37,42.94a2.53,2.53,0,0,1,.52-.08.67.67,0,0,1-.14.54c.08,0,.08,0,.12-.06a.71.71,0,0,0,.07-.26c0-.11,0-.22,0-.34h.45v-.21h-.52s-.06.08-.06.12,0,0,0,.12a2.18,2.18,0,0,0-.23.09Z"/><path class="cls-20" d="M43.09,46.89a2.54,2.54,0,0,1,.48,0c.17,0,.33,0,.49,0s0,0,.06,0,0,0,.05,0,0,0,0-.09,0-.08-.06-.09a.23.23,0,0,0-.1,0,3.09,3.09,0,0,0-.53,0c.16.17.1,0,.11.26-.09,0-.33,0-.43,0Z"/><path class="cls-32" d="M43.84,36.47l-.21,0c0-.16,0-.18.2-.2v.18ZM43.73,36h.11c0,.05,0,.15-.08.19s-.16,0-.26.08l0,.16c.12.05.22.11.36,0s0-.14.12-.25h.2l0,0-.09,0c0-.18,0-.13.08-.21a.29.29,0,0,0-.15-.2h-.09a1.24,1.24,0,0,1,0,.16C43.82,36,43.79,36,43.73,36Z"/><path class="cls-22" d="M43.66,46.18V46c.15,0,.38,0,.38.12A1,1,0,0,1,43.66,46.18Zm0,0a.78.78,0,0,0,.68,0V46a4.43,4.43,0,0,0-1-.09c0,.13,0,.13.11.17A.42.42,0,0,0,43.66,46.18Z"/><path class="cls-21" d="M44.74,36.47s0,0,.06-.08a1.18,1.18,0,0,0-.58-.12.23.23,0,0,0-.18.07l-.07.07,0,0,0,.06A3.91,3.91,0,0,0,44.74,36.47Z"/><path class="cls-20" d="M43.28,35.87c.1-.07.1-.1.23-.11l0,.29c.08,0,.15,0,.25,0s.09,0,.12-.11a1.24,1.24,0,0,0,0-.16H44C43.85,35.52,43.35,35.63,43.28,35.87Z"/><path class="cls-28" d="M44.46,43.59c-.26,0-.17.23-.17.8l.19,0A2.91,2.91,0,0,0,44.46,43.59Z"/><path class="cls-28" d="M43.62,43.68l0-.08h0s0,0-.06-.11.06-.23-.05-.46h-.2a.74.74,0,0,0,0,.53l.24,0Z"/><path class="cls-37" d="M44.36,37.25a1.18,1.18,0,0,0,0-.59h-.13a1.29,1.29,0,0,0,0,.59Z"/><path class="cls-24" d="M42.59,36.72a.52.52,0,0,1,.07.43c0,.08,0,.05-.08.11a1,1,0,0,1,.38,0c-.13-.16-.16,0-.19-.19a.74.74,0,0,1,0-.33l.11,0c0,.11,0,.26.05.35l.06-.47C42.56,36.66,42.6,36.59,42.59,36.72Z"/><path class="cls-26" d="M41.55,42.66h0a.89.89,0,0,0,.67-.07c0-.07,0,0-.07-.1l-.6,0Z"/><path class="cls-28" d="M44.07,49.73a.24.24,0,0,0,.09-.2c-.51-.16-.61.11-.37.21l.21,0C44.08,49.74,44,49.77,44.07,49.73Z"/><path class="cls-28" d="M43.54,42.81h.08l0,0,.05,0v-.32h-.31c0,.14,0,.26,0,.35s0,0,0,0S43.46,42.74,43.54,42.81Z"/><path class="cls-33" d="M43,48.65c.33.07.29,0,.28-.31a.5.5,0,0,0-.29-.07Z"/><path class="cls-25" d="M42.47,46.78h0l.29,0v-.28l-.35,0c0,.12,0,0,0,.12s0,0,0,.1S42.43,46.74,42.47,46.78Z"/><path class="cls-6" d="M46.3,50.34c-.1,0-.16.07-.19.19a.41.41,0,0,0,0,.29h.16l0,0Z"/><path class="cls-20" d="M45.54,36.41a.66.66,0,0,0,.34-.08,1,1,0,0,1,.38,0,1,1,0,0,0-.65-.13C45.58,36.27,45.56,36.37,45.54,36.41Z"/><path class="cls-26" d="M43.05,42.69l0,.1c.23,0,.17-.16.17-.36l.1,0h0l-.26,0v-.11C43,42.37,43,42.59,43.05,42.69Z"/><path class="cls-20" d="M42.75,48.67h0a1.81,1.81,0,0,0,.23,0c-.08-.08-.07,0-.13-.09,0-.26.07-.37-.22-.39,0,.06,0,.12,0,.23A1.81,1.81,0,0,0,42.75,48.67Z"/><path class="cls-38" d="M43.34,42.39h0a1.43,1.43,0,0,0,0,.36c.14,0,0,.06.19.05-.08-.07.09.06,0,0s0,0,0,0,0-.21,0-.35h.31v.32l-.05,0,0,0,.1,0a.57.57,0,0,0,0-.34c-.05-.15,0,.06,0,0s0,0,0,0v0h0l-.16,0Z"/><path class="cls-30" d="M43.66,46.18a1,1,0,0,0,.38,0c0-.17-.23-.14-.38-.12Z"/><path class="cls-20" d="M43.62,42.8h-.08c-.15,0,0,0-.19-.05.06.06.11.07.24.07a.4.4,0,0,0,.25,0V42.5c0-.14,0-.15-.14-.15v0s0,0,0,0,0-.11,0,0a.57.57,0,0,1,0,.34Z"/><path class="cls-30" d="M42.44,42.87c.05-.2-.21-.24-.27-.14S42.33,42.91,42.44,42.87Z"/><path class="cls-39" d="M43.64,36.66a.43.43,0,0,0,.37.12v-.13A.66.66,0,0,0,43.64,36.66Z"/><path class="cls-30" d="M43.84,36.47v-.18c-.15,0-.18,0-.2.2Z"/><path class="cls-24" d="M43.61,45.76c0,.08,0,.15,0,.16h.15v-.17Z"/></g><path class="cls-40" d="M9.92,5H58.5V36C56.74,46.59,47.7,58.44,34.21,64.38,20.73,58.44,11.68,46.59,9.92,36Z"/><path class="cls-4" d="M14.52,64.61c2.13.66,4.55,1.29,6.61,2a.2.2,0,0,1,.16.18l.15,1.87a49.38,49.38,0,0,0,24.74-.13l0-1.75h.15l6.51-2.31a.22.22,0,0,1,.28.12.26.26,0,0,1,0,.15h0l-1.18,3L53,69.67a.22.22,0,0,1-.09.29l0,0-3.46,1.24v1.94a.22.22,0,0,1-.17.21A50.91,50.91,0,0,1,33.87,76a48.93,48.93,0,0,1-15.49-2.42.21.21,0,0,1-.15-.2l-.09-1.81-3.61-1.05a.21.21,0,0,1-.11-.32l1.21-2-1.37-3.24a.21.21,0,0,1,.11-.28.19.19,0,0,1,.15,0Zm6.37,2.55L19,68c.69.2,1.36.39,2.06.57l-.12-1.43Zm-2.34,1.18v3l.1,1.82a48.35,48.35,0,0,0,15.22,2.36A49.84,49.84,0,0,0,49,73c0-1.67-.05-3.11-.1-4.79l-1.41.43h0a50.26,50.26,0,0,1-13.74,2,53.25,53.25,0,0,1-15.18-2.29Zm-.42,2.75v-3a.27.27,0,0,1,.13-.23l2.22-1-5.66-1.75,1.24,2.93h0a.25.25,0,0,1,0,.19l-1.13,1.9,3.21.93ZM46.6,68.46c.62-.15,1.21-.35,1.81-.53l-1.85-.8,0,1.33ZM49.28,68l.11,2.77,3.13-1.12-1.06-2h0a.17.17,0,0,1,0-.17l1-2.68-5.59,2,2.19,1A.29.29,0,0,1,49.28,68Z"/><path class="cls-4" d="M24.89,70.31l-.25,1-.12,0v0a1.22,1.22,0,0,0,0-.27.66.66,0,0,0,0-.21.89.89,0,0,0-.08-.17.5.5,0,0,0-.14-.15.61.61,0,0,0-.16-.12l-.18-.07a.69.69,0,0,0-.2,0,.48.48,0,0,0-.18.06.4.4,0,0,0-.14.11.37.37,0,0,0-.07.14.57.57,0,0,0,0,.13.56.56,0,0,0,0,.12,1,1,0,0,0,.18.23c.09.09.2.2.35.33l.29.27.18.19a.76.76,0,0,1,.11.16.64.64,0,0,1,.06.18,1.13,1.13,0,0,1,0,.18.55.55,0,0,1,0,.17.69.69,0,0,1-.14.3.9.9,0,0,1-.25.22,1.1,1.1,0,0,1-.35.11,1.25,1.25,0,0,1-.38,0l-.13,0-.11,0-.1,0-.16-.1-.15-.08a.16.16,0,0,0-.09,0s0,0,0,0h0l0,0,0,.08h0l-.12,0,.24-1,.12,0v.3a1.12,1.12,0,0,0,0,.21,1.19,1.19,0,0,0,.08.16l.14.15.18.12.21.07a.69.69,0,0,0,.24,0,.36.36,0,0,0,.2-.06.33.33,0,0,0,.14-.12.28.28,0,0,0,.08-.15.41.41,0,0,0,0-.11.52.52,0,0,0,0-.11.56.56,0,0,0,0-.12L24,72.17a.72.72,0,0,0-.13-.14l-.26-.24-.27-.26-.18-.19a1.63,1.63,0,0,1-.11-.17.73.73,0,0,1-.07-.52.8.8,0,0,1,.13-.28,1,1,0,0,1,.25-.21.87.87,0,0,1,.32-.11,1.06,1.06,0,0,1,.35,0,1.13,1.13,0,0,1,.24.08,1.58,1.58,0,0,1,.24.15l.08.06.06,0h.09l0,0a.16.16,0,0,0,0-.07v0l.12,0v0Zm1,3v.12a.2.2,0,0,0,0,.11.19.19,0,0,0,.07.08l.1,0a.38.38,0,0,0,.25,0,.9.9,0,0,0,.29-.19h0l0-.18,0,0-.13.08-.07,0h-.09a0,0,0,0,1,0,0,.07.07,0,0,1,0,0,.89.89,0,0,1,0-.11c0-.06,0-.14,0-.23l.13-.66a1.2,1.2,0,0,0,0-.24.38.38,0,0,0,0-.15.44.44,0,0,0-.15-.26l-.19-.1L26,71.47a1.13,1.13,0,0,0-.31,0,.53.53,0,0,0-.26.07.44.44,0,0,0-.18.14.32.32,0,0,0-.09.17.38.38,0,0,0,0,.1l0,.08s0,0,.06.06a.11.11,0,0,0,.08,0,.11.11,0,0,0,.08,0,.13.13,0,0,0,.08,0l0-.06a.36.36,0,0,0,0-.09l0-.13a.09.09,0,0,1,0-.07.13.13,0,0,1,.07-.06l.1,0h.11a.34.34,0,0,1,.15.06.2.2,0,0,1,.09.09.53.53,0,0,1,0,.16,1.12,1.12,0,0,1,0,.24v.06l-.46.09a1.65,1.65,0,0,0-.32.08l-.22.1a.44.44,0,0,0-.15.12.41.41,0,0,0-.07.11.5.5,0,0,0-.05.13.83.83,0,0,0,0,.22.47.47,0,0,0,.21.33.4.4,0,0,0,.19.07l.13,0,.13,0,.16-.06.24-.12Zm0-.19a1.33,1.33,0,0,1-.26.11.42.42,0,0,1-.19,0l-.1,0a.22.22,0,0,1-.07-.09.31.31,0,0,1-.05-.12.71.71,0,0,1,0-.14.21.21,0,0,1,0-.1.16.16,0,0,1,.07-.09l.11-.08.16-.07.17,0,.25,0-.14.7Zm.84-1.21.65-.17h.11l-.05.41A.89.89,0,0,1,27.6,72a.68.68,0,0,1,.18-.13.64.64,0,0,1,.18-.06h.18a.79.79,0,0,1,.27.1.6.6,0,0,1,.21.21,1,1,0,0,1,.15.36,1.52,1.52,0,0,1,0,.43,1.37,1.37,0,0,1-.14.46,1.22,1.22,0,0,1-.27.36.86.86,0,0,1-.31.17,1.08,1.08,0,0,1-.36,0l-.15,0-.13-.06a.24.24,0,0,1-.09-.06l-.06-.06-.07.55a1.28,1.28,0,0,0,0,.17s0,.07,0,.08,0,0,0,0l0,0,.08,0,.13,0h0l0,.12-1.09-.13,0-.13h.07a.2.2,0,0,0,.11,0l.09,0,0,0,0,0s0,0,0-.08,0-.1,0-.17L27,72.36c0-.07,0-.12,0-.16s0-.07,0-.08,0,0,0,0l0,0,0,0,0,0h-.06l-.07,0h0l0-.12Zm.68.46-.09.73a1.68,1.68,0,0,0,0,.2.2.2,0,0,0,0,.11.27.27,0,0,0,0,.12l.08.1a.27.27,0,0,0,.12.09l.16,0a.41.41,0,0,0,.19,0,.31.31,0,0,0,.16-.1.6.6,0,0,0,.16-.24,1.39,1.39,0,0,0,.09-.34,1.34,1.34,0,0,0,0-.4.77.77,0,0,0-.11-.3.39.39,0,0,0-.29-.2h-.1l-.1,0a.28.28,0,0,0-.11.07l-.17.12Zm2,.44a1.12,1.12,0,0,0,0,.37.82.82,0,0,0,.35.51.47.47,0,0,0,.26.08.37.37,0,0,0,.18,0,.52.52,0,0,0,.16-.06.55.55,0,0,0,.14-.13,1.17,1.17,0,0,0,.12-.2l0,0,.1.08h0a.7.7,0,0,1-.12.28,1.16,1.16,0,0,1-.2.25.72.72,0,0,1-.28.16.63.63,0,0,1-.31,0,.87.87,0,0,1-.61-.35.88.88,0,0,1-.17-.35A1.21,1.21,0,0,1,29,73a1.24,1.24,0,0,1,.11-.45.86.86,0,0,1,.23-.33.79.79,0,0,1,.33-.19.93.93,0,0,1,.38,0,1,1,0,0,1,.3.08.59.59,0,0,1,.24.2.69.69,0,0,1,.15.28,1.22,1.22,0,0,1,0,.34v0l-1.38-.13Zm0-.17.88.08v-.13a.56.56,0,0,0,0-.1.24.24,0,0,0-.06-.11l-.08-.09-.1-.06-.11,0a.43.43,0,0,0-.16,0,.65.65,0,0,0-.16.09.44.44,0,0,0-.12.15.75.75,0,0,0-.07.18Zm2.23-.48,0,.36a1.15,1.15,0,0,1,.23-.25.44.44,0,0,1,.29-.11l.11,0,.1.06.06.09a.38.38,0,0,1,0,.1.24.24,0,0,1,0,.09.18.18,0,0,1,0,.07l-.07.05h-.09a.32.32,0,0,1-.09,0,.47.47,0,0,1-.09-.06l-.07-.06-.05,0h0l0,0a1.14,1.14,0,0,0-.11.11l-.11.16-.05.95v.14a.29.29,0,0,0,0,.1.09.09,0,0,0,0,0l.05,0,.08,0,.12,0h0v.12l-1.07-.06v-.12H31l.09,0s0,0,0,0l0-.06a.35.35,0,0,0,0-.06s0-.08,0-.14l.05-.77c0-.11,0-.21,0-.27v-.14l0,0,0,0,0,0H31l-.08,0h0l0-.13.64-.21h.12v0Zm1.18.88a1.42,1.42,0,0,0,0,.37.89.89,0,0,0,.15.29.72.72,0,0,0,.23.2.77.77,0,0,0,.26.07l.18,0a.69.69,0,0,0,.15-.07.47.47,0,0,0,.14-.14.82.82,0,0,0,.11-.21v0l.11.07v0a1,1,0,0,1-.1.29,1.1,1.1,0,0,1-.19.25.8.8,0,0,1-.27.18.78.78,0,0,1-.31,0,.75.75,0,0,1-.34-.09.86.86,0,0,1-.29-.22,1,1,0,0,1-.18-.34,1.24,1.24,0,0,1,0-.44,1.5,1.5,0,0,1,.09-.45.89.89,0,0,1,.21-.34.81.81,0,0,1,.32-.21.9.9,0,0,1,.37-.06,1.07,1.07,0,0,1,.32.07.83.83,0,0,1,.25.18.72.72,0,0,1,.15.27.76.76,0,0,1,0,.34v0L32.82,73Zm0-.17.88,0a.62.62,0,0,1,0-.13.62.62,0,0,0,0-.1.36.36,0,0,0-.15-.19.31.31,0,0,0-.1,0,.2.2,0,0,0-.11,0,.3.3,0,0,0-.16,0,.44.44,0,0,0-.15.1.44.44,0,0,0-.12.15,1.05,1.05,0,0,0-.05.19Zm4.28.34L36,73.28l-.17.46c0,.06,0,.11,0,.15a.41.41,0,0,0,0,.1.07.07,0,0,0,0,.05l0,0,.1,0h.19v.13l-1,.06V74.2h0l.15,0s.06,0,.07-.05h0a.55.55,0,0,0,.11-.16c0-.07.07-.16.11-.27l.89-2.49h.1l1.21,2.39a1.57,1.57,0,0,0,.13.23.81.81,0,0,0,.11.13.33.33,0,0,0,.12,0,.41.41,0,0,0,.16,0h0v.13l-1.22.08v-.13h0l.15,0,.08,0s0,0,0,0a.13.13,0,0,0,0-.06.3.3,0,0,0,0-.11.77.77,0,0,0-.07-.17l-.2-.4ZM37,73l-.54-1.07-.41,1.13L37,73Zm3.05-1.14v0l-.73.08,0,.12h.18l.09,0a.18.18,0,0,1,.05.07s0,.08,0,.14l.13,1.1a1,1,0,0,1-.13.15l-.11.1-.1,0-.1,0a.24.24,0,0,1-.12,0l-.11,0a.23.23,0,0,1-.08-.12.9.9,0,0,1,0-.22L38.87,72l-.74.09v.13h.24l0,0,0,0s0,0,0,.06a.37.37,0,0,1,0,.12l.11.88a1.5,1.5,0,0,0,0,.24l.06.18a.42.42,0,0,0,.09.14.4.4,0,0,0,.12.1.47.47,0,0,0,.15.06h.17l.15,0,.13-.07a.71.71,0,0,0,.16-.15l.17-.2,0,.38H40l.59-.33-.06-.11h0s0,0-.08,0l-.06,0h0l0,0s0,0,0,0a.16.16,0,0,1,0-.06.49.49,0,0,1,0-.13c0-.07,0-.16,0-.28l-.14-1.19Zm2,1.51-.09.11-.13.11-.14.08-.16,0a.69.69,0,0,1-.32,0,.86.86,0,0,1-.31-.17.81.81,0,0,1-.24-.28,1.31,1.31,0,0,1-.13-.38,1.19,1.19,0,0,1,0-.42,1.33,1.33,0,0,1,.14-.41,1,1,0,0,1,.26-.32,1,1,0,0,1,.38-.16.75.75,0,0,1,.26,0,.64.64,0,0,1,.18.06l-.06-.31c0-.11,0-.2,0-.27s0-.11,0-.13a.33.33,0,0,0,0-.06l0,0H41.5l-.06,0-.08,0h0l-.07-.11.57-.35.13,0,.39,2.28c0,.11,0,.2.05.27s0,.12,0,.14a.16.16,0,0,0,0,.06l0,0h.07l.07,0,.08,0h0l.06.11-.57.36-.13,0,0-.25Zm0-.21-.17-1s0-.09,0-.13a.41.41,0,0,0-.07-.11.38.38,0,0,0-.09-.09.53.53,0,0,0-.1-.06l-.11,0a.17.17,0,0,0-.1,0,.36.36,0,0,0-.17.07.6.6,0,0,0-.13.14.66.66,0,0,0-.09.29,1.23,1.23,0,0,0,0,.38,1.79,1.79,0,0,0,.11.37.78.78,0,0,0,.19.24.68.68,0,0,0,.22.14.57.57,0,0,0,.22,0,.42.42,0,0,0,.18-.08.78.78,0,0,0,.15-.16Zm1-1,1.35-.3v0a1,1,0,0,0-.13-.31.72.72,0,0,0-.23-.23.75.75,0,0,0-.28-.11,1.16,1.16,0,0,0-.32,0,.94.94,0,0,0-.35.16.85.85,0,0,0-.25.28.81.81,0,0,0-.12.38,1.3,1.3,0,0,0,0,.47,1,1,0,0,0,.16.4,1,1,0,0,0,.26.29.91.91,0,0,0,.34.14,1,1,0,0,0,.35,0,.86.86,0,0,0,.29-.13,1.21,1.21,0,0,0,.21-.24,1.88,1.88,0,0,0,.12-.3,1,1,0,0,0,0-.3v0l-.12,0v0a.7.7,0,0,1-.06.23.46.46,0,0,1-.09.17.69.69,0,0,1-.13.11.85.85,0,0,1-.17.06.61.61,0,0,1-.27,0,.84.84,0,0,1-.27-.13.76.76,0,0,1-.22-.25,1.15,1.15,0,0,1-.13-.34ZM43,72a1.27,1.27,0,0,1,0-.2.45.45,0,0,1,.07-.18.49.49,0,0,1,.12-.13.39.39,0,0,1,.15-.06h.11l.12,0,.1.06.09.09,0,.09s0,.08,0,.13Z"/><g class="cls-41"><rect class="cls-42" x="17.82" y="37.58" width="10.55" height="11.95"/></g><g class="cls-41"><path class="cls-43" d="M9.37,40.5l-.46,0H8.42L8,40.5c-.65,0-1.26,0-1.84,0s-1.17,0-1.81,0c-.39,0-.71,0-1.11,0H2.3l-.36,0A.7.7,0,0,1,2.25,40l.45-.42c.23-.14.07,0,.33-.25s.71-.57.93-.79c.45-.45.42-.19.94.23.17.14.2.22.26.26a3,3,0,0,0,.36.16c.18.09.27.25.42.36s.49.54.83.54.49-.44.91-.69c.12-.07.34-.15.52-.27L8.36,39l.33-.22a1.79,1.79,0,0,1,.74-.33,15.16,15.16,0,0,1,0,1.91.5.5,0,0,0,0,.13ZM10,29.58h-.4l-.49,0c-.08,0-.18,0-.27,0l-.52,0-.84,0c-.22,0-.85.06-1.13.06H6l-.38,0c-.23,0-1,0-1.14,0s-.91,0-1.28.07c-.15,0-.67-.08-.92-.08H1.72l-.8,0a2.11,2.11,0,0,1-.25,0l-.54,0a1.46,1.46,0,0,0-.13.71c0,.72.11,1.38.11,2.08,0,.31-.06.59-.07.88,0,.1,0,.21,0,.31s0,.17,0,.3,0,.16,0,.29c0,.3.19.16.15.45a3.38,3.38,0,0,0-.09.54v1.25c0,.22,0,.38,0,.61v.46c0,.66.13,1.22.13,1.87a6.17,6.17,0,0,1-.09.64c0,.18.17.36.12.85,0,.31.07.23.39.23s.29-.15.5-.15.38.08.61.08l1.14,0a1.43,1.43,0,0,1,.37.09,4.77,4.77,0,0,0,.86.06,1.25,1.25,0,0,1,.21,0h.25l.66,0,.21,0c.8-.05,1.89,0,2.58,0l2.24,0c0-.16,0-.3,0-.46l0-.49c0-.3.12-.53.12-.81a3.12,3.12,0,0,1-.08-.67l0-.76c0-.26,0-.47,0-.71s0-.24,0-.36,0-.31-.09-.31-.33.18-.44.31c-.66.83-1.48,1-1.7,1.32s-.11.25-.37.38-.27.25-.45.31-.15,0-.25.13-.25.15-.39,0l-.35-.32a8.63,8.63,0,0,1-.69-.65,2.54,2.54,0,0,0-.49-.39L5,37.64a1,1,0,0,1-.06-.16L5.53,37s.11-.08.14-.13.2-.11.3-.25,0-.11.25-.29l.15-.12c.07-.05.09-.08.15-.13a1.37,1.37,0,0,0,.28-.26.75.75,0,0,0,.25-.56c-.3-.08-.47-.5-.67-.67s-.19-.11-.26-.2A1.25,1.25,0,0,0,6,34.27l-.13-.1a2.48,2.48,0,0,1-.6-.56c0-.06,0-.1,0-.16a1.78,1.78,0,0,1,.66-.7c.38-.21,1-1,1.29-1s.9.75,1.06.93.31.12.46.21.17.23.33.34a2.7,2.7,0,0,1,.52.49l.18.16c.85.82.41-.64.5-1.24s0-.35,0-.91c0-.36.06-.7,0-1,0-.1,0-.15,0-.23a3.57,3.57,0,0,1-.08-.74c0-.11,0-.16-.05-.18Zm-5.13,7-.05,0c-.24.06-.13.41-.44.48h0c-.09,0-.12-.08-.16-.15a1.61,1.61,0,0,0-.32-.32,3,3,0,0,1-.54-.5c-.18-.2-.68-.47-.51-.66S3,35.36,3,35.3l.17-.21c.37-.52.54-.48.73-.73A.74.74,0,0,1,4.35,34c.31-.1.32,0,.51.14a8.57,8.57,0,0,1,.79.68c.36.35.63.16.23.79-.12.18-.23.16-.34.31s-.06.09-.18.16c-.39.23-.16.42-.46.5ZM1.09,31.71a1.59,1.59,0,0,0,0,.34l0,2.18c0,.15,0,.21,0,.33a11.41,11.41,0,0,0,0,1.45,6.78,6.78,0,0,1,0,1.36c0,.36.08.64.08,1,0,1-.23,1.17.15,1.17.16,0,.17-.19.22-.3A.44.44,0,0,1,2,39c.17,0,.23,0,.34-.16s0-.09.36-.39.5-.52.78-.73.1-.17,0-.31a.43.43,0,0,0-.12-.11c-.28-.22-.33-.21-.42-.5,0-.13-.14-.15-.23-.23s-.12-.18-.18-.3-.13-.12-.26-.21L2.09,36c-.09-.07-.32-.19-.32-.37s.4-.63.45-.66.11,0,.16-.11,0-.13.1-.17.1,0,.18-.09L3,34.33c.08-.06.27-.15.3-.24s0-.09.1-.18.47-.34.3-.55l-.06-.06c-.16-.15-.4-.26-.64-.47a4.25,4.25,0,0,1-.6-.49C2.15,32,2.26,32.21,2,32s-.55-.68-.76-.73a.45.45,0,0,0-.17.44Zm3.44,1c-.19,0-.49-.25-.64-.36s0-.17-.67-.61a7.68,7.68,0,0,1-.68-.58c-.19-.16-.23-.17-.23-.38s.33-.11.49-.14a4.38,4.38,0,0,1,1-.06l.26,0a1.73,1.73,0,0,1,.51,0c.17,0,.25,0,.42,0,.54,0,1.06,0,1.64,0a9.55,9.55,0,0,1,2.14,0L9,30.6h.19c.1,0,.09,0,.17,0s.08.41.08.59-.08.31-.08.71c0,.21.1.12.1.49A1,1,0,0,1,8.86,32c-.28-.25-.15-.27-.52-.46s-1.07-.81-1.19-.81-.32.33-.65.48-.18.13-.31.25-.28.13-.56.3-.3.1-.37.22a1,1,0,0,1-.37.49C4.8,32.58,4.68,32.74,4.53,32.74Z"/></g><path class="cls-44" d="M22.79,44.56c-.22.06-.28.52-.56.48-.08,0-.11-.08-.16-.15-.22-.31-.4-.35-.76-.76-.18-.2-.67-.47-.51-.66s.2-.18.36-.4c.37-.52.65-.49.84-.73s.26-.32.4-.32c.3-.07.25,0,.44.17a7.18,7.18,0,0,1,.79.67c.37.35.63.17.23.79-.12.18-.22.17-.34.32a.38.38,0,0,1-.18.15C23.09,44.28,23.1,44.38,22.79,44.56Z"/><g class="cls-45"><rect class="cls-46" x="18.03" y="37.55" width="10.34" height="11.68"/></g><g class="cls-45"><path class="cls-43" d="M9.58,40.2l-.46,0H8.64l-.46,0c-.65,0-1.26,0-1.85,0s-1.16,0-1.8,0c-.4,0-.72,0-1.11,0H2.51l-.35,0a.72.72,0,0,1,.3-.53l.45-.41c.24-.15.07,0,.33-.26s.72-.57.93-.79c.45-.45.42-.18.94.23.17.14.2.22.26.26a2.56,2.56,0,0,0,.37.17c.18.08.26.24.41.36.31.24.49.53.83.53s.5-.43.91-.68c.13-.08.34-.15.52-.27l.17-.11.33-.22a1.63,1.63,0,0,1,.73-.33,15,15,0,0,1,0,1.9c0,.07,0,.07-.05.13Zm.66-10.92-.13,0H9.84l-.48,0a2.43,2.43,0,0,1-.27,0l-.53,0-.84,0c-.21,0-.85.07-1.13.07h-.4c-.15,0-.22,0-.38,0s-1,0-1.14,0-.9,0-1.27.07c-.15,0-.67-.07-.92-.07H1.93l-.79,0-.25,0-.55,0a1.43,1.43,0,0,0-.13.71c0,.72.11,1.37.11,2.07,0,.31,0,.6-.06.88v.32c0,.13,0,.17,0,.29s0,.16,0,.3c0,.29.2.16.16.44a5.12,5.12,0,0,0-.1.54v1.26c0,.21,0,.37,0,.61v.46c0,.65.12,1.21.12,1.86a4.43,4.43,0,0,1-.09.65c0,.18.18.36.12.84,0,.31.08.23.4.23s.28-.15.5-.15.37.09.61.09l1.13,0a1.12,1.12,0,0,1,.37.09,4.91,4.91,0,0,0,.87,0c.11,0,.11,0,.21,0h.25l.65,0a1.25,1.25,0,0,0,.21,0c.8,0,1.89,0,2.58,0l2.24,0c0-.15,0-.29,0-.46l0-.48c0-.31.13-.53.13-.82a2.84,2.84,0,0,1-.09-.67l0-.75c0-.26,0-.48,0-.72s0-.23,0-.35,0-.32-.08-.32-.34.18-.44.31c-.66.83-1.49,1.05-1.7,1.32s-.12.26-.38.39-.26.24-.44.3-.16,0-.25.13-.26.16-.39,0l-.36-.31a8.64,8.64,0,0,1-.69-.66,2.63,2.63,0,0,0-.49-.39l-.1-.12c0-.05,0-.11-.07-.17l.59-.48a.64.64,0,0,0,.15-.13c.12-.19.19-.11.29-.24s.05-.12.26-.29a.93.93,0,0,1,.15-.13,1.49,1.49,0,0,1,.14-.12A1.45,1.45,0,0,0,7,35.53.86.86,0,0,0,7.27,35c-.3-.08-.48-.5-.68-.67s-.19-.1-.26-.2A.54.54,0,0,0,6.24,34a.45.45,0,0,0-.13-.1,3.17,3.17,0,0,1-.6-.55.13.13,0,0,1,0-.16,1.81,1.81,0,0,1,.66-.71c.39-.2,1.06-1,1.29-1s.91.76,1.06.93.32.12.46.22.17.22.34.33a2.69,2.69,0,0,1,.51.5l.18.15c.85.82.42-.63.51-1.24s0-.35,0-.91c0-.36.05-.7,0-1a1.6,1.6,0,0,0,0-.23,4.18,4.18,0,0,1-.08-.73c0-.12,0-.17,0-.19Zm-5.13,7,0,0c-.24.07-.14.41-.44.49h0c-.09,0-.11-.09-.16-.15a1.19,1.19,0,0,0-.31-.32,3.51,3.51,0,0,1-.55-.5c-.18-.21-.67-.47-.51-.67s.13-.13.19-.19a1.06,1.06,0,0,0,.17-.2c.37-.53.55-.49.74-.73a.71.71,0,0,1,.42-.32c.3-.11.32,0,.5.14a7.18,7.18,0,0,1,.79.67c.37.35.63.17.23.79-.12.18-.22.17-.34.31a.35.35,0,0,1-.18.16c-.38.24-.16.42-.46.5Zm-3.8-4.9a3.07,3.07,0,0,0,0,.34l0,2.17c0,.15,0,.21,0,.34a11.29,11.29,0,0,0,0,1.44,6.21,6.21,0,0,1,0,1.37c0,.35.08.63.08,1,0,1-.22,1.18.15,1.18.16,0,.17-.19.23-.31a.38.38,0,0,1,.27-.22c.17-.05.23,0,.34-.16.23-.3,0-.09.36-.4s.51-.51.79-.72.09-.18,0-.31L3.53,37c-.29-.21-.33-.21-.43-.5,0-.13-.14-.15-.23-.23s-.12-.17-.18-.3-.12-.11-.26-.2l-.13-.1c-.09-.07-.32-.2-.32-.37s.41-.64.46-.66.11,0,.16-.11,0-.13.1-.18.1,0,.18-.09L3.21,34c.08-.06.27-.15.31-.24s0-.08.09-.18.47-.33.31-.54L3.86,33c-.17-.14-.41-.26-.65-.47a4.91,4.91,0,0,1-.6-.49c-.25-.3-.14-.13-.38-.33S1.68,31,1.47,31c-.17.11-.16.26-.16.44Zm3.44,1c-.2,0-.49-.25-.64-.37s0-.16-.68-.6c-.29-.2-.41-.38-.67-.59s-.24-.17-.24-.37.33-.12.49-.14a4.06,4.06,0,0,1,1-.07,1,1,0,0,0,.26,0,1.81,1.81,0,0,1,.52,0c.17,0,.24-.05.42-.05.53,0,1,.05,1.63.05a9.55,9.55,0,0,1,2.14,0l.3.06h.18a.79.79,0,0,1,.17,0c0,.14.09.4.09.59a6.5,6.5,0,0,0-.09.71c0,.21.11.11.11.48a1,1,0,0,1-.63-.36c-.27-.25-.15-.28-.52-.46s-1.07-.81-1.18-.81S7,30.8,6.71,31s-.18.13-.31.25a6.18,6.18,0,0,1-.56.31c-.15.1-.3.09-.37.21a1,1,0,0,1-.37.49C5,32.28,4.89,32.45,4.75,32.45Z"/></g></g></g></svg>